<svg width="1921" height="789" viewBox="0 0 1921 789" fill="none" xmlns="http://www.w3.org/2000/svg">
<g clip-path="url(#clip0_216_2224)">
<rect width="1921" height="789" fill="#0F2373"/>
<path d="M198.287 623.77C199.118 625.209 199.927 626.662 200.714 628.129C199.285 627.194 198.33 625.595 198.287 623.77Z" fill="#042AC4"/>
<path d="M168.954 586.785C171.451 589.128 173.872 591.549 176.215 594.046C175.309 595.72 173.537 596.857 171.5 596.857C168.541 596.857 166.143 594.459 166.143 591.5C166.143 589.463 167.28 587.691 168.954 586.785Z" fill="#042AC4"/>
<path d="M134.871 562.286C136.338 563.073 137.791 563.882 139.23 564.713C137.405 564.67 135.806 563.715 134.871 562.286Z" fill="#042AC4"/>
<path d="M-21.2297 564.713C-19.7907 563.882 -18.3377 563.073 -16.871 562.286C-17.8058 563.715 -19.4049 564.67 -21.2297 564.713Z" fill="#042AC4"/>
<path d="M-58.2148 594.046C-55.8721 591.549 -53.4506 589.128 -50.9543 586.785C-49.28 587.691 -48.1429 589.463 -48.1429 591.5C-48.1429 594.459 -50.5413 596.857 -53.5 596.857C-55.5372 596.857 -57.3089 595.72 -58.2148 594.046Z" fill="#042AC4"/>
<path d="M-82.7137 628.129C-81.9269 626.662 -81.1179 625.209 -80.2872 623.77C-80.3298 625.595 -81.2848 627.194 -82.7137 628.129Z" fill="#042AC4"/>
<path d="M200.714 779.871C199.927 781.338 199.118 782.791 198.287 784.23C198.33 782.405 199.285 780.806 200.714 779.871Z" fill="#042AC4"/>
<path d="M176.215 813.954C175.309 812.28 173.537 811.143 171.5 811.143C168.541 811.143 166.143 813.541 166.143 816.5C166.143 818.537 167.28 820.309 168.954 821.215C171.451 818.872 173.872 816.451 176.215 813.954Z" fill="#042AC4"/>
<path d="M139.23 843.287C137.405 843.33 135.806 844.285 134.871 845.714C136.338 844.927 137.791 844.118 139.23 843.287Z" fill="#042AC4"/>
<path d="M-16.871 845.714C-17.8058 844.285 -19.4049 843.33 -21.2297 843.287C-19.7907 844.118 -18.3377 844.927 -16.871 845.714Z" fill="#042AC4"/>
<path d="M-50.9543 821.215C-49.28 820.309 -48.1429 818.537 -48.1429 816.5C-48.1429 813.541 -50.5413 811.143 -53.5 811.143C-55.5372 811.143 -57.3089 812.28 -58.2148 813.954C-55.8721 816.451 -53.4506 818.872 -50.9543 821.215Z" fill="#042AC4"/>
<path d="M-80.2872 784.23C-80.3298 782.405 -81.2848 780.806 -82.7137 779.871C-81.9269 781.338 -81.1179 782.791 -80.2872 784.23Z" fill="#042AC4"/>
<path d="M16.1429 559.357C16.1429 562.316 13.7444 564.714 10.7857 564.714C7.82705 564.714 5.42857 562.316 5.42857 559.357C5.42857 556.398 7.82705 554 10.7857 554C13.7444 554 16.1429 556.398 16.1429 559.357Z" fill="#042AC4"/>
<path d="M48.2857 559.357C48.2857 562.316 45.8872 564.714 42.9286 564.714C39.9699 564.714 37.5714 562.316 37.5714 559.357C37.5714 556.398 39.9699 554 42.9286 554C45.8872 554 48.2857 556.398 48.2857 559.357Z" fill="#042AC4"/>
<path d="M80.4286 559.357C80.4286 562.316 78.0301 564.714 75.0714 564.714C72.1128 564.714 69.7143 562.316 69.7143 559.357C69.7143 556.398 72.1128 554 75.0714 554C78.0301 554 80.4286 556.398 80.4286 559.357Z" fill="#042AC4"/>
<path d="M112.571 559.357C112.571 562.316 110.173 564.714 107.214 564.714C104.256 564.714 101.857 562.316 101.857 559.357C101.857 556.398 104.256 554 107.214 554C110.173 554 112.571 556.398 112.571 559.357Z" fill="#042AC4"/>
<path d="M-16 591.5C-16 594.459 -18.3985 596.857 -21.3571 596.857C-24.3158 596.857 -26.7143 594.459 -26.7143 591.5C-26.7143 588.541 -24.3158 586.143 -21.3571 586.143C-18.3985 586.143 -16 588.541 -16 591.5Z" fill="#042AC4"/>
<path d="M16.1429 591.5C16.1429 594.459 13.7444 596.857 10.7857 596.857C7.82705 596.857 5.42857 594.459 5.42857 591.5C5.42857 588.541 7.82705 586.143 10.7857 586.143C13.7444 586.143 16.1429 588.541 16.1429 591.5Z" fill="#042AC4"/>
<path d="M48.2857 591.5C48.2857 594.459 45.8872 596.857 42.9286 596.857C39.9699 596.857 37.5714 594.459 37.5714 591.5C37.5714 588.541 39.9699 586.143 42.9286 586.143C45.8872 586.143 48.2857 588.541 48.2857 591.5Z" fill="#042AC4"/>
<path d="M80.4286 591.5C80.4286 594.459 78.0301 596.857 75.0714 596.857C72.1128 596.857 69.7143 594.459 69.7143 591.5C69.7143 588.541 72.1128 586.143 75.0714 586.143C78.0301 586.143 80.4286 588.541 80.4286 591.5Z" fill="#042AC4"/>
<path d="M112.571 591.5C112.571 594.459 110.173 596.857 107.214 596.857C104.256 596.857 101.857 594.459 101.857 591.5C101.857 588.541 104.256 586.143 107.214 586.143C110.173 586.143 112.571 588.541 112.571 591.5Z" fill="#042AC4"/>
<path d="M144.714 591.5C144.714 594.459 142.316 596.857 139.357 596.857C136.398 596.857 134 594.459 134 591.5C134 588.541 136.398 586.143 139.357 586.143C142.316 586.143 144.714 588.541 144.714 591.5Z" fill="#042AC4"/>
<path d="M-48.1429 623.643C-48.1429 626.602 -50.5413 629 -53.5 629C-56.4587 629 -58.8571 626.602 -58.8571 623.643C-58.8571 620.684 -56.4587 618.286 -53.5 618.286C-50.5413 618.286 -48.1429 620.684 -48.1429 623.643Z" fill="#042AC4"/>
<path d="M-16 623.643C-16 626.602 -18.3985 629 -21.3571 629C-24.3158 629 -26.7143 626.602 -26.7143 623.643C-26.7143 620.684 -24.3158 618.286 -21.3571 618.286C-18.3985 618.286 -16 620.684 -16 623.643Z" fill="#042AC4"/>
<path d="M16.1429 623.643C16.1429 626.602 13.7444 629 10.7857 629C7.82705 629 5.42857 626.602 5.42857 623.643C5.42857 620.684 7.82705 618.286 10.7857 618.286C13.7444 618.286 16.1429 620.684 16.1429 623.643Z" fill="#042AC4"/>
<path d="M48.2857 623.643C48.2857 626.602 45.8872 629 42.9286 629C39.9699 629 37.5714 626.602 37.5714 623.643C37.5714 620.684 39.9699 618.286 42.9286 618.286C45.8872 618.286 48.2857 620.684 48.2857 623.643Z" fill="#042AC4"/>
<path d="M80.4286 623.643C80.4286 626.602 78.0301 629 75.0714 629C72.1128 629 69.7143 626.602 69.7143 623.643C69.7143 620.684 72.1128 618.286 75.0714 618.286C78.0301 618.286 80.4286 620.684 80.4286 623.643Z" fill="#042AC4"/>
<path d="M112.571 623.643C112.571 626.602 110.173 629 107.214 629C104.256 629 101.857 626.602 101.857 623.643C101.857 620.684 104.256 618.286 107.214 618.286C110.173 618.286 112.571 620.684 112.571 623.643Z" fill="#042AC4"/>
<path d="M144.714 623.643C144.714 626.602 142.316 629 139.357 629C136.398 629 134 626.602 134 623.643C134 620.684 136.398 618.286 139.357 618.286C142.316 618.286 144.714 620.684 144.714 623.643Z" fill="#042AC4"/>
<path d="M176.857 623.643C176.857 626.602 174.459 629 171.5 629C168.541 629 166.143 626.602 166.143 623.643C166.143 620.684 168.541 618.286 171.5 618.286C174.459 618.286 176.857 620.684 176.857 623.643Z" fill="#042AC4"/>
<path d="M-80.2857 655.786C-80.2857 658.744 -82.6842 661.143 -85.6429 661.143C-88.6015 661.143 -91 658.744 -91 655.786C-91 652.827 -88.6015 650.429 -85.6429 650.429C-82.6842 650.429 -80.2857 652.827 -80.2857 655.786Z" fill="#042AC4"/>
<path d="M-48.1429 655.786C-48.1429 658.744 -50.5413 661.143 -53.5 661.143C-56.4587 661.143 -58.8571 658.744 -58.8571 655.786C-58.8571 652.827 -56.4587 650.429 -53.5 650.429C-50.5413 650.429 -48.1429 652.827 -48.1429 655.786Z" fill="#042AC4"/>
<path d="M-16 655.786C-16 658.744 -18.3985 661.143 -21.3571 661.143C-24.3158 661.143 -26.7143 658.744 -26.7143 655.786C-26.7143 652.827 -24.3158 650.429 -21.3571 650.429C-18.3985 650.429 -16 652.827 -16 655.786Z" fill="#042AC4"/>
<path d="M16.1429 655.786C16.1429 658.744 13.7444 661.143 10.7857 661.143C7.82705 661.143 5.42857 658.744 5.42857 655.786C5.42857 652.827 7.82705 650.429 10.7857 650.429C13.7444 650.429 16.1429 652.827 16.1429 655.786Z" fill="#042AC4"/>
<path d="M48.2857 655.786C48.2857 658.744 45.8872 661.143 42.9286 661.143C39.9699 661.143 37.5714 658.744 37.5714 655.786C37.5714 652.827 39.9699 650.429 42.9286 650.429C45.8872 650.429 48.2857 652.827 48.2857 655.786Z" fill="#042AC4"/>
<path d="M80.4286 655.786C80.4286 658.744 78.0301 661.143 75.0714 661.143C72.1128 661.143 69.7143 658.744 69.7143 655.786C69.7143 652.827 72.1128 650.429 75.0714 650.429C78.0301 650.429 80.4286 652.827 80.4286 655.786Z" fill="#042AC4"/>
<path d="M112.571 655.786C112.571 658.744 110.173 661.143 107.214 661.143C104.256 661.143 101.857 658.744 101.857 655.786C101.857 652.827 104.256 650.429 107.214 650.429C110.173 650.429 112.571 652.827 112.571 655.786Z" fill="#042AC4"/>
<path d="M144.714 655.786C144.714 658.744 142.316 661.143 139.357 661.143C136.398 661.143 134 658.744 134 655.786C134 652.827 136.398 650.429 139.357 650.429C142.316 650.429 144.714 652.827 144.714 655.786Z" fill="#042AC4"/>
<path d="M176.857 655.786C176.857 658.744 174.459 661.143 171.5 661.143C168.541 661.143 166.143 658.744 166.143 655.786C166.143 652.827 168.541 650.429 171.5 650.429C174.459 650.429 176.857 652.827 176.857 655.786Z" fill="#042AC4"/>
<path d="M209 655.786C209 658.744 206.602 661.143 203.643 661.143C200.684 661.143 198.286 658.744 198.286 655.786C198.286 652.827 200.684 650.429 203.643 650.429C206.602 650.429 209 652.827 209 655.786Z" fill="#042AC4"/>
<path d="M-80.2857 687.929C-80.2857 690.887 -82.6842 693.286 -85.6429 693.286C-88.6015 693.286 -91 690.887 -91 687.929C-91 684.97 -88.6015 682.571 -85.6429 682.571C-82.6842 682.571 -80.2857 684.97 -80.2857 687.929Z" fill="#042AC4"/>
<path d="M-48.1429 687.929C-48.1429 690.887 -50.5413 693.286 -53.5 693.286C-56.4587 693.286 -58.8571 690.887 -58.8571 687.929C-58.8571 684.97 -56.4587 682.571 -53.5 682.571C-50.5413 682.571 -48.1429 684.97 -48.1429 687.929Z" fill="#042AC4"/>
<path d="M-16 687.929C-16 690.887 -18.3985 693.286 -21.3571 693.286C-24.3158 693.286 -26.7143 690.887 -26.7143 687.929C-26.7143 684.97 -24.3158 682.571 -21.3571 682.571C-18.3985 682.571 -16 684.97 -16 687.929Z" fill="#042AC4"/>
<path d="M16.1429 687.929C16.1429 690.887 13.7444 693.286 10.7857 693.286C7.82705 693.286 5.42857 690.887 5.42857 687.929C5.42857 684.97 7.82705 682.571 10.7857 682.571C13.7444 682.571 16.1429 684.97 16.1429 687.929Z" fill="#042AC4"/>
<path d="M48.2857 687.929C48.2857 690.887 45.8872 693.286 42.9286 693.286C39.9699 693.286 37.5714 690.887 37.5714 687.929C37.5714 684.97 39.9699 682.571 42.9286 682.571C45.8872 682.571 48.2857 684.97 48.2857 687.929Z" fill="#042AC4"/>
<path d="M80.4286 687.929C80.4286 690.887 78.0301 693.286 75.0714 693.286C72.1128 693.286 69.7143 690.887 69.7143 687.929C69.7143 684.97 72.1128 682.571 75.0714 682.571C78.0301 682.571 80.4286 684.97 80.4286 687.929Z" fill="#042AC4"/>
<path d="M112.571 687.929C112.571 690.887 110.173 693.286 107.214 693.286C104.256 693.286 101.857 690.887 101.857 687.929C101.857 684.97 104.256 682.571 107.214 682.571C110.173 682.571 112.571 684.97 112.571 687.929Z" fill="#042AC4"/>
<path d="M144.714 687.929C144.714 690.887 142.316 693.286 139.357 693.286C136.398 693.286 134 690.887 134 687.929C134 684.97 136.398 682.571 139.357 682.571C142.316 682.571 144.714 684.97 144.714 687.929Z" fill="#042AC4"/>
<path d="M176.857 687.929C176.857 690.887 174.459 693.286 171.5 693.286C168.541 693.286 166.143 690.887 166.143 687.929C166.143 684.97 168.541 682.571 171.5 682.571C174.459 682.571 176.857 684.97 176.857 687.929Z" fill="#042AC4"/>
<path d="M209 687.929C209 690.887 206.602 693.286 203.643 693.286C200.684 693.286 198.286 690.887 198.286 687.929C198.286 684.97 200.684 682.571 203.643 682.571C206.602 682.571 209 684.97 209 687.929Z" fill="#042AC4"/>
<path d="M-80.2857 720.071C-80.2857 723.03 -82.6842 725.429 -85.6429 725.429C-88.6015 725.429 -91 723.03 -91 720.071C-91 717.113 -88.6015 714.714 -85.6429 714.714C-82.6842 714.714 -80.2857 717.113 -80.2857 720.071Z" fill="#042AC4"/>
<path d="M-48.1429 720.071C-48.1429 723.03 -50.5413 725.429 -53.5 725.429C-56.4587 725.429 -58.8571 723.03 -58.8571 720.071C-58.8571 717.113 -56.4587 714.714 -53.5 714.714C-50.5413 714.714 -48.1429 717.113 -48.1429 720.071Z" fill="#042AC4"/>
<path d="M-16 720.071C-16 723.03 -18.3985 725.429 -21.3571 725.429C-24.3158 725.429 -26.7143 723.03 -26.7143 720.071C-26.7143 717.113 -24.3158 714.714 -21.3571 714.714C-18.3985 714.714 -16 717.113 -16 720.071Z" fill="#042AC4"/>
<path d="M16.1429 720.071C16.1429 723.03 13.7444 725.429 10.7857 725.429C7.82705 725.429 5.42857 723.03 5.42857 720.071C5.42857 717.113 7.82705 714.714 10.7857 714.714C13.7444 714.714 16.1429 717.113 16.1429 720.071Z" fill="#042AC4"/>
<path d="M48.2857 720.071C48.2857 723.03 45.8872 725.429 42.9286 725.429C39.9699 725.429 37.5714 723.03 37.5714 720.071C37.5714 717.113 39.9699 714.714 42.9286 714.714C45.8872 714.714 48.2857 717.113 48.2857 720.071Z" fill="#042AC4"/>
<path d="M80.4286 720.071C80.4286 723.03 78.0301 725.429 75.0714 725.429C72.1128 725.429 69.7143 723.03 69.7143 720.071C69.7143 717.113 72.1128 714.714 75.0714 714.714C78.0301 714.714 80.4286 717.113 80.4286 720.071Z" fill="#042AC4"/>
<path d="M112.571 720.071C112.571 723.03 110.173 725.429 107.214 725.429C104.256 725.429 101.857 723.03 101.857 720.071C101.857 717.113 104.256 714.714 107.214 714.714C110.173 714.714 112.571 717.113 112.571 720.071Z" fill="#042AC4"/>
<path d="M144.714 720.071C144.714 723.03 142.316 725.429 139.357 725.429C136.398 725.429 134 723.03 134 720.071C134 717.113 136.398 714.714 139.357 714.714C142.316 714.714 144.714 717.113 144.714 720.071Z" fill="#042AC4"/>
<path d="M176.857 720.071C176.857 723.03 174.459 725.429 171.5 725.429C168.541 725.429 166.143 723.03 166.143 720.071C166.143 717.113 168.541 714.714 171.5 714.714C174.459 714.714 176.857 717.113 176.857 720.071Z" fill="#042AC4"/>
<path d="M209 720.071C209 723.03 206.602 725.429 203.643 725.429C200.684 725.429 198.286 723.03 198.286 720.071C198.286 717.113 200.684 714.714 203.643 714.714C206.602 714.714 209 717.113 209 720.071Z" fill="#042AC4"/>
<path d="M-80.2857 752.214C-80.2857 755.173 -82.6842 757.571 -85.6429 757.571C-88.6015 757.571 -91 755.173 -91 752.214C-91 749.256 -88.6015 746.857 -85.6429 746.857C-82.6842 746.857 -80.2857 749.256 -80.2857 752.214Z" fill="#042AC4"/>
<path d="M-48.1429 752.214C-48.1429 755.173 -50.5413 757.571 -53.5 757.571C-56.4587 757.571 -58.8571 755.173 -58.8571 752.214C-58.8571 749.256 -56.4587 746.857 -53.5 746.857C-50.5413 746.857 -48.1429 749.256 -48.1429 752.214Z" fill="#042AC4"/>
<path d="M-16 752.214C-16 755.173 -18.3985 757.571 -21.3571 757.571C-24.3158 757.571 -26.7143 755.173 -26.7143 752.214C-26.7143 749.256 -24.3158 746.857 -21.3571 746.857C-18.3985 746.857 -16 749.256 -16 752.214Z" fill="#042AC4"/>
<path d="M16.1429 752.214C16.1429 755.173 13.7444 757.571 10.7857 757.571C7.82705 757.571 5.42857 755.173 5.42857 752.214C5.42857 749.256 7.82705 746.857 10.7857 746.857C13.7444 746.857 16.1429 749.256 16.1429 752.214Z" fill="#042AC4"/>
<path d="M48.2857 752.214C48.2857 755.173 45.8872 757.571 42.9286 757.571C39.9699 757.571 37.5714 755.173 37.5714 752.214C37.5714 749.256 39.9699 746.857 42.9286 746.857C45.8872 746.857 48.2857 749.256 48.2857 752.214Z" fill="#042AC4"/>
<path d="M80.4286 752.214C80.4286 755.173 78.0301 757.571 75.0714 757.571C72.1128 757.571 69.7143 755.173 69.7143 752.214C69.7143 749.256 72.1128 746.857 75.0714 746.857C78.0301 746.857 80.4286 749.256 80.4286 752.214Z" fill="#042AC4"/>
<path d="M112.571 752.214C112.571 755.173 110.173 757.571 107.214 757.571C104.256 757.571 101.857 755.173 101.857 752.214C101.857 749.256 104.256 746.857 107.214 746.857C110.173 746.857 112.571 749.256 112.571 752.214Z" fill="#042AC4"/>
<path d="M144.714 752.214C144.714 755.173 142.316 757.571 139.357 757.571C136.398 757.571 134 755.173 134 752.214C134 749.256 136.398 746.857 139.357 746.857C142.316 746.857 144.714 749.256 144.714 752.214Z" fill="#042AC4"/>
<path d="M176.857 752.214C176.857 755.173 174.459 757.571 171.5 757.571C168.541 757.571 166.143 755.173 166.143 752.214C166.143 749.256 168.541 746.857 171.5 746.857C174.459 746.857 176.857 749.256 176.857 752.214Z" fill="#042AC4"/>
<path d="M209 752.214C209 755.173 206.602 757.571 203.643 757.571C200.684 757.571 198.286 755.173 198.286 752.214C198.286 749.256 200.684 746.857 203.643 746.857C206.602 746.857 209 749.256 209 752.214Z" fill="#042AC4"/>
<path d="M-48.1429 784.357C-48.1429 787.316 -50.5413 789.714 -53.5 789.714C-56.4587 789.714 -58.8571 787.316 -58.8571 784.357C-58.8571 781.398 -56.4587 779 -53.5 779C-50.5413 779 -48.1429 781.398 -48.1429 784.357Z" fill="#042AC4"/>
<path d="M-16 784.357C-16 787.316 -18.3985 789.714 -21.3571 789.714C-24.3158 789.714 -26.7143 787.316 -26.7143 784.357C-26.7143 781.398 -24.3158 779 -21.3571 779C-18.3985 779 -16 781.398 -16 784.357Z" fill="#042AC4"/>
<path d="M16.1429 784.357C16.1429 787.316 13.7444 789.714 10.7857 789.714C7.82705 789.714 5.42857 787.316 5.42857 784.357C5.42857 781.398 7.82705 779 10.7857 779C13.7444 779 16.1429 781.398 16.1429 784.357Z" fill="#042AC4"/>
<path d="M48.2857 784.357C48.2857 787.316 45.8872 789.714 42.9286 789.714C39.9699 789.714 37.5714 787.316 37.5714 784.357C37.5714 781.398 39.9699 779 42.9286 779C45.8872 779 48.2857 781.398 48.2857 784.357Z" fill="#042AC4"/>
<path d="M80.4286 784.357C80.4286 787.316 78.0301 789.714 75.0714 789.714C72.1128 789.714 69.7143 787.316 69.7143 784.357C69.7143 781.398 72.1128 779 75.0714 779C78.0301 779 80.4286 781.398 80.4286 784.357Z" fill="#042AC4"/>
<path d="M112.571 784.357C112.571 787.316 110.173 789.714 107.214 789.714C104.256 789.714 101.857 787.316 101.857 784.357C101.857 781.398 104.256 779 107.214 779C110.173 779 112.571 781.398 112.571 784.357Z" fill="#042AC4"/>
<path d="M144.714 784.357C144.714 787.316 142.316 789.714 139.357 789.714C136.398 789.714 134 787.316 134 784.357C134 781.398 136.398 779 139.357 779C142.316 779 144.714 781.398 144.714 784.357Z" fill="#042AC4"/>
<path d="M176.857 784.357C176.857 787.316 174.459 789.714 171.5 789.714C168.541 789.714 166.143 787.316 166.143 784.357C166.143 781.398 168.541 779 171.5 779C174.459 779 176.857 781.398 176.857 784.357Z" fill="#042AC4"/>
<path d="M-16 816.5C-16 819.459 -18.3985 821.857 -21.3571 821.857C-24.3158 821.857 -26.7143 819.459 -26.7143 816.5C-26.7143 813.541 -24.3158 811.143 -21.3571 811.143C-18.3985 811.143 -16 813.541 -16 816.5Z" fill="#042AC4"/>
<path d="M16.1429 816.5C16.1429 819.459 13.7444 821.857 10.7857 821.857C7.82705 821.857 5.42857 819.459 5.42857 816.5C5.42857 813.541 7.82705 811.143 10.7857 811.143C13.7444 811.143 16.1429 813.541 16.1429 816.5Z" fill="#042AC4"/>
<path d="M48.2857 816.5C48.2857 819.459 45.8872 821.857 42.9286 821.857C39.9699 821.857 37.5714 819.459 37.5714 816.5C37.5714 813.541 39.9699 811.143 42.9286 811.143C45.8872 811.143 48.2857 813.541 48.2857 816.5Z" fill="#042AC4"/>
<path d="M80.4286 816.5C80.4286 819.459 78.0301 821.857 75.0714 821.857C72.1128 821.857 69.7143 819.459 69.7143 816.5C69.7143 813.541 72.1128 811.143 75.0714 811.143C78.0301 811.143 80.4286 813.541 80.4286 816.5Z" fill="#042AC4"/>
<path d="M112.571 816.5C112.571 819.459 110.173 821.857 107.214 821.857C104.256 821.857 101.857 819.459 101.857 816.5C101.857 813.541 104.256 811.143 107.214 811.143C110.173 811.143 112.571 813.541 112.571 816.5Z" fill="#042AC4"/>
<path d="M144.714 816.5C144.714 819.459 142.316 821.857 139.357 821.857C136.398 821.857 134 819.459 134 816.5C134 813.541 136.398 811.143 139.357 811.143C142.316 811.143 144.714 813.541 144.714 816.5Z" fill="#042AC4"/>
<path d="M16.1429 848.643C16.1429 851.602 13.7444 854 10.7857 854C7.82705 854 5.42857 851.602 5.42857 848.643C5.42857 845.684 7.82705 843.286 10.7857 843.286C13.7444 843.286 16.1429 845.684 16.1429 848.643Z" fill="#042AC4"/>
<path d="M48.2857 848.643C48.2857 851.602 45.8872 854 42.9286 854C39.9699 854 37.5714 851.602 37.5714 848.643C37.5714 845.684 39.9699 843.286 42.9286 843.286C45.8872 843.286 48.2857 845.684 48.2857 848.643Z" fill="#042AC4"/>
<path d="M80.4286 848.643C80.4286 851.602 78.0301 854 75.0714 854C72.1128 854 69.7143 851.602 69.7143 848.643C69.7143 845.684 72.1128 843.286 75.0714 843.286C78.0301 843.286 80.4286 845.684 80.4286 848.643Z" fill="#042AC4"/>
<path d="M112.571 848.643C112.571 851.602 110.173 854 107.214 854C104.256 854 101.857 851.602 101.857 848.643C101.857 845.684 104.256 843.286 107.214 843.286C110.173 843.286 112.571 845.684 112.571 848.643Z" fill="#042AC4"/>
<path d="M1934.29 -50.2297C1935.12 -48.7907 1935.93 -47.3377 1936.71 -45.871C1935.28 -46.8058 1934.33 -48.4049 1934.29 -50.2297Z" fill="#042AC4"/>
<path d="M1904.95 -87.2148C1907.45 -84.8721 1909.87 -82.4506 1912.21 -79.9543C1911.31 -78.28 1909.54 -77.1429 1907.5 -77.1429C1904.54 -77.1429 1902.14 -79.5413 1902.14 -82.5C1902.14 -84.5372 1903.28 -86.3089 1904.95 -87.2148Z" fill="#042AC4"/>
<path d="M1870.87 -111.714C1872.34 -110.927 1873.79 -110.118 1875.23 -109.287C1873.4 -109.33 1871.81 -110.285 1870.87 -111.714Z" fill="#042AC4"/>
<path d="M1714.77 -109.287C1716.21 -110.118 1717.66 -110.927 1719.13 -111.714C1718.19 -110.285 1716.6 -109.33 1714.77 -109.287Z" fill="#042AC4"/>
<path d="M1677.79 -79.9543C1680.13 -82.4506 1682.55 -84.8721 1685.05 -87.2148C1686.72 -86.3089 1687.86 -84.5372 1687.86 -82.5C1687.86 -79.5413 1685.46 -77.1429 1682.5 -77.1429C1680.46 -77.1429 1678.69 -78.28 1677.79 -79.9543Z" fill="#042AC4"/>
<path d="M1653.29 -45.871C1654.07 -47.3377 1654.88 -48.7907 1655.71 -50.2297C1655.67 -48.4049 1654.72 -46.8058 1653.29 -45.871Z" fill="#042AC4"/>
<path d="M1936.71 105.871C1935.93 107.338 1935.12 108.791 1934.29 110.23C1934.33 108.405 1935.28 106.806 1936.71 105.871Z" fill="#042AC4"/>
<path d="M1912.21 139.954C1911.31 138.28 1909.54 137.143 1907.5 137.143C1904.54 137.143 1902.14 139.541 1902.14 142.5C1902.14 144.537 1903.28 146.309 1904.95 147.215C1907.45 144.872 1909.87 142.451 1912.21 139.954Z" fill="#042AC4"/>
<path d="M1875.23 169.287C1873.4 169.33 1871.81 170.285 1870.87 171.714C1872.34 170.927 1873.79 170.118 1875.23 169.287Z" fill="#042AC4"/>
<path d="M1719.13 171.714C1718.19 170.285 1716.6 169.33 1714.77 169.287C1716.21 170.118 1717.66 170.927 1719.13 171.714Z" fill="#042AC4"/>
<path d="M1685.05 147.215C1686.72 146.309 1687.86 144.537 1687.86 142.5C1687.86 139.541 1685.46 137.143 1682.5 137.143C1680.46 137.143 1678.69 138.28 1677.79 139.954C1680.13 142.451 1682.55 144.872 1685.05 147.215Z" fill="#042AC4"/>
<path d="M1655.71 110.23C1655.67 108.405 1654.72 106.806 1653.29 105.871C1654.07 107.338 1654.88 108.791 1655.71 110.23Z" fill="#042AC4"/>
<path d="M1752.14 -114.643C1752.14 -111.684 1749.74 -109.286 1746.79 -109.286C1743.83 -109.286 1741.43 -111.684 1741.43 -114.643C1741.43 -117.602 1743.83 -120 1746.79 -120C1749.74 -120 1752.14 -117.602 1752.14 -114.643Z" fill="#042AC4"/>
<path d="M1784.29 -114.643C1784.29 -111.684 1781.89 -109.286 1778.93 -109.286C1775.97 -109.286 1773.57 -111.684 1773.57 -114.643C1773.57 -117.602 1775.97 -120 1778.93 -120C1781.89 -120 1784.29 -117.602 1784.29 -114.643Z" fill="#042AC4"/>
<path d="M1816.43 -114.643C1816.43 -111.684 1814.03 -109.286 1811.07 -109.286C1808.11 -109.286 1805.71 -111.684 1805.71 -114.643C1805.71 -117.602 1808.11 -120 1811.07 -120C1814.03 -120 1816.43 -117.602 1816.43 -114.643Z" fill="#042AC4"/>
<path d="M1848.57 -114.643C1848.57 -111.684 1846.17 -109.286 1843.21 -109.286C1840.26 -109.286 1837.86 -111.684 1837.86 -114.643C1837.86 -117.602 1840.26 -120 1843.21 -120C1846.17 -120 1848.57 -117.602 1848.57 -114.643Z" fill="#042AC4"/>
<path d="M1720 -82.5C1720 -79.5413 1717.6 -77.1429 1714.64 -77.1429C1711.68 -77.1429 1709.29 -79.5413 1709.29 -82.5C1709.29 -85.4587 1711.68 -87.8571 1714.64 -87.8571C1717.6 -87.8571 1720 -85.4587 1720 -82.5Z" fill="#042AC4"/>
<path d="M1752.14 -82.5C1752.14 -79.5413 1749.74 -77.1429 1746.79 -77.1429C1743.83 -77.1429 1741.43 -79.5413 1741.43 -82.5C1741.43 -85.4587 1743.83 -87.8571 1746.79 -87.8571C1749.74 -87.8571 1752.14 -85.4587 1752.14 -82.5Z" fill="#042AC4"/>
<path d="M1784.29 -82.5C1784.29 -79.5413 1781.89 -77.1429 1778.93 -77.1429C1775.97 -77.1429 1773.57 -79.5413 1773.57 -82.5C1773.57 -85.4587 1775.97 -87.8571 1778.93 -87.8571C1781.89 -87.8571 1784.29 -85.4587 1784.29 -82.5Z" fill="#042AC4"/>
<path d="M1816.43 -82.5C1816.43 -79.5413 1814.03 -77.1429 1811.07 -77.1429C1808.11 -77.1429 1805.71 -79.5413 1805.71 -82.5C1805.71 -85.4587 1808.11 -87.8571 1811.07 -87.8571C1814.03 -87.8571 1816.43 -85.4587 1816.43 -82.5Z" fill="#042AC4"/>
<path d="M1848.57 -82.5C1848.57 -79.5413 1846.17 -77.1429 1843.21 -77.1429C1840.26 -77.1429 1837.86 -79.5413 1837.86 -82.5C1837.86 -85.4587 1840.26 -87.8571 1843.21 -87.8571C1846.17 -87.8571 1848.57 -85.4587 1848.57 -82.5Z" fill="#042AC4"/>
<path d="M1880.71 -82.5C1880.71 -79.5413 1878.32 -77.1429 1875.36 -77.1429C1872.4 -77.1429 1870 -79.5413 1870 -82.5C1870 -85.4587 1872.4 -87.8571 1875.36 -87.8571C1878.32 -87.8571 1880.71 -85.4587 1880.71 -82.5Z" fill="#042AC4"/>
<path d="M1687.86 -50.3571C1687.86 -47.3985 1685.46 -45 1682.5 -45C1679.54 -45 1677.14 -47.3985 1677.14 -50.3571C1677.14 -53.3158 1679.54 -55.7143 1682.5 -55.7143C1685.46 -55.7143 1687.86 -53.3158 1687.86 -50.3571Z" fill="#042AC4"/>
<path d="M1720 -50.3571C1720 -47.3985 1717.6 -45 1714.64 -45C1711.68 -45 1709.29 -47.3985 1709.29 -50.3571C1709.29 -53.3158 1711.68 -55.7143 1714.64 -55.7143C1717.6 -55.7143 1720 -53.3158 1720 -50.3571Z" fill="#042AC4"/>
<path d="M1752.14 -50.3571C1752.14 -47.3985 1749.74 -45 1746.79 -45C1743.83 -45 1741.43 -47.3985 1741.43 -50.3571C1741.43 -53.3158 1743.83 -55.7143 1746.79 -55.7143C1749.74 -55.7143 1752.14 -53.3158 1752.14 -50.3571Z" fill="#042AC4"/>
<path d="M1784.29 -50.3571C1784.29 -47.3985 1781.89 -45 1778.93 -45C1775.97 -45 1773.57 -47.3985 1773.57 -50.3571C1773.57 -53.3158 1775.97 -55.7143 1778.93 -55.7143C1781.89 -55.7143 1784.29 -53.3158 1784.29 -50.3571Z" fill="#042AC4"/>
<path d="M1816.43 -50.3571C1816.43 -47.3985 1814.03 -45 1811.07 -45C1808.11 -45 1805.71 -47.3985 1805.71 -50.3571C1805.71 -53.3158 1808.11 -55.7143 1811.07 -55.7143C1814.03 -55.7143 1816.43 -53.3158 1816.43 -50.3571Z" fill="#042AC4"/>
<path d="M1848.57 -50.3571C1848.57 -47.3985 1846.17 -45 1843.21 -45C1840.26 -45 1837.86 -47.3985 1837.86 -50.3571C1837.86 -53.3158 1840.26 -55.7143 1843.21 -55.7143C1846.17 -55.7143 1848.57 -53.3158 1848.57 -50.3571Z" fill="#042AC4"/>
<path d="M1880.71 -50.3571C1880.71 -47.3985 1878.32 -45 1875.36 -45C1872.4 -45 1870 -47.3985 1870 -50.3571C1870 -53.3158 1872.4 -55.7143 1875.36 -55.7143C1878.32 -55.7143 1880.71 -53.3158 1880.71 -50.3571Z" fill="#042AC4"/>
<path d="M1912.86 -50.3571C1912.86 -47.3985 1910.46 -45 1907.5 -45C1904.54 -45 1902.14 -47.3985 1902.14 -50.3571C1902.14 -53.3158 1904.54 -55.7143 1907.5 -55.7143C1910.46 -55.7143 1912.86 -53.3158 1912.86 -50.3571Z" fill="#042AC4"/>
<path d="M1655.71 -18.2143C1655.71 -15.2556 1653.32 -12.8571 1650.36 -12.8571C1647.4 -12.8571 1645 -15.2556 1645 -18.2143C1645 -21.173 1647.4 -23.5714 1650.36 -23.5714C1653.32 -23.5714 1655.71 -21.173 1655.71 -18.2143Z" fill="#042AC4"/>
<path d="M1687.86 -18.2143C1687.86 -15.2556 1685.46 -12.8571 1682.5 -12.8571C1679.54 -12.8571 1677.14 -15.2556 1677.14 -18.2143C1677.14 -21.173 1679.54 -23.5714 1682.5 -23.5714C1685.46 -23.5714 1687.86 -21.173 1687.86 -18.2143Z" fill="#042AC4"/>
<path d="M1720 -18.2143C1720 -15.2556 1717.6 -12.8571 1714.64 -12.8571C1711.68 -12.8571 1709.29 -15.2556 1709.29 -18.2143C1709.29 -21.173 1711.68 -23.5714 1714.64 -23.5714C1717.6 -23.5714 1720 -21.173 1720 -18.2143Z" fill="#042AC4"/>
<path d="M1752.14 -18.2143C1752.14 -15.2556 1749.74 -12.8571 1746.79 -12.8571C1743.83 -12.8571 1741.43 -15.2556 1741.43 -18.2143C1741.43 -21.173 1743.83 -23.5714 1746.79 -23.5714C1749.74 -23.5714 1752.14 -21.173 1752.14 -18.2143Z" fill="#042AC4"/>
<path d="M1784.29 -18.2143C1784.29 -15.2556 1781.89 -12.8571 1778.93 -12.8571C1775.97 -12.8571 1773.57 -15.2556 1773.57 -18.2143C1773.57 -21.173 1775.97 -23.5714 1778.93 -23.5714C1781.89 -23.5714 1784.29 -21.173 1784.29 -18.2143Z" fill="#042AC4"/>
<path d="M1816.43 -18.2143C1816.43 -15.2556 1814.03 -12.8571 1811.07 -12.8571C1808.11 -12.8571 1805.71 -15.2556 1805.71 -18.2143C1805.71 -21.173 1808.11 -23.5714 1811.07 -23.5714C1814.03 -23.5714 1816.43 -21.173 1816.43 -18.2143Z" fill="#042AC4"/>
<path d="M1848.57 -18.2143C1848.57 -15.2556 1846.17 -12.8571 1843.21 -12.8571C1840.26 -12.8571 1837.86 -15.2556 1837.86 -18.2143C1837.86 -21.173 1840.26 -23.5714 1843.21 -23.5714C1846.17 -23.5714 1848.57 -21.173 1848.57 -18.2143Z" fill="#042AC4"/>
<path d="M1880.71 -18.2143C1880.71 -15.2556 1878.32 -12.8571 1875.36 -12.8571C1872.4 -12.8571 1870 -15.2556 1870 -18.2143C1870 -21.173 1872.4 -23.5714 1875.36 -23.5714C1878.32 -23.5714 1880.71 -21.173 1880.71 -18.2143Z" fill="#042AC4"/>
<path d="M1912.86 -18.2143C1912.86 -15.2556 1910.46 -12.8571 1907.5 -12.8571C1904.54 -12.8571 1902.14 -15.2556 1902.14 -18.2143C1902.14 -21.173 1904.54 -23.5714 1907.5 -23.5714C1910.46 -23.5714 1912.86 -21.173 1912.86 -18.2143Z" fill="#042AC4"/>
<path d="M1945 -18.2143C1945 -15.2556 1942.6 -12.8571 1939.64 -12.8571C1936.68 -12.8571 1934.29 -15.2556 1934.29 -18.2143C1934.29 -21.173 1936.68 -23.5714 1939.64 -23.5714C1942.6 -23.5714 1945 -21.173 1945 -18.2143Z" fill="#042AC4"/>
<path d="M1655.71 13.9286C1655.71 16.8872 1653.32 19.2857 1650.36 19.2857C1647.4 19.2857 1645 16.8872 1645 13.9286C1645 10.9699 1647.4 8.57143 1650.36 8.57143C1653.32 8.57143 1655.71 10.9699 1655.71 13.9286Z" fill="#042AC4"/>
<path d="M1687.86 13.9286C1687.86 16.8872 1685.46 19.2857 1682.5 19.2857C1679.54 19.2857 1677.14 16.8872 1677.14 13.9286C1677.14 10.9699 1679.54 8.57143 1682.5 8.57143C1685.46 8.57143 1687.86 10.9699 1687.86 13.9286Z" fill="#042AC4"/>
<path d="M1720 13.9286C1720 16.8872 1717.6 19.2857 1714.64 19.2857C1711.68 19.2857 1709.29 16.8872 1709.29 13.9286C1709.29 10.9699 1711.68 8.57143 1714.64 8.57143C1717.6 8.57143 1720 10.9699 1720 13.9286Z" fill="#042AC4"/>
<path d="M1752.14 13.9286C1752.14 16.8872 1749.74 19.2857 1746.79 19.2857C1743.83 19.2857 1741.43 16.8872 1741.43 13.9286C1741.43 10.9699 1743.83 8.57143 1746.79 8.57143C1749.74 8.57143 1752.14 10.9699 1752.14 13.9286Z" fill="#042AC4"/>
<path d="M1784.29 13.9286C1784.29 16.8872 1781.89 19.2857 1778.93 19.2857C1775.97 19.2857 1773.57 16.8872 1773.57 13.9286C1773.57 10.9699 1775.97 8.57143 1778.93 8.57143C1781.89 8.57143 1784.29 10.9699 1784.29 13.9286Z" fill="#042AC4"/>
<path d="M1816.43 13.9286C1816.43 16.8872 1814.03 19.2857 1811.07 19.2857C1808.11 19.2857 1805.71 16.8872 1805.71 13.9286C1805.71 10.9699 1808.11 8.57143 1811.07 8.57143C1814.03 8.57143 1816.43 10.9699 1816.43 13.9286Z" fill="#042AC4"/>
<path d="M1848.57 13.9286C1848.57 16.8872 1846.17 19.2857 1843.21 19.2857C1840.26 19.2857 1837.86 16.8872 1837.86 13.9286C1837.86 10.9699 1840.26 8.57143 1843.21 8.57143C1846.17 8.57143 1848.57 10.9699 1848.57 13.9286Z" fill="#042AC4"/>
<path d="M1880.71 13.9286C1880.71 16.8872 1878.32 19.2857 1875.36 19.2857C1872.4 19.2857 1870 16.8872 1870 13.9286C1870 10.9699 1872.4 8.57143 1875.36 8.57143C1878.32 8.57143 1880.71 10.9699 1880.71 13.9286Z" fill="#042AC4"/>
<path d="M1912.86 13.9286C1912.86 16.8872 1910.46 19.2857 1907.5 19.2857C1904.54 19.2857 1902.14 16.8872 1902.14 13.9286C1902.14 10.9699 1904.54 8.57143 1907.5 8.57143C1910.46 8.57143 1912.86 10.9699 1912.86 13.9286Z" fill="#042AC4"/>
<path d="M1945 13.9286C1945 16.8872 1942.6 19.2857 1939.64 19.2857C1936.68 19.2857 1934.29 16.8872 1934.29 13.9286C1934.29 10.9699 1936.68 8.57143 1939.64 8.57143C1942.6 8.57143 1945 10.9699 1945 13.9286Z" fill="#042AC4"/>
<path d="M1655.71 46.0714C1655.71 49.0301 1653.32 51.4286 1650.36 51.4286C1647.4 51.4286 1645 49.0301 1645 46.0714C1645 43.1128 1647.4 40.7143 1650.36 40.7143C1653.32 40.7143 1655.71 43.1128 1655.71 46.0714Z" fill="#042AC4"/>
<path d="M1687.86 46.0714C1687.86 49.0301 1685.46 51.4286 1682.5 51.4286C1679.54 51.4286 1677.14 49.0301 1677.14 46.0714C1677.14 43.1128 1679.54 40.7143 1682.5 40.7143C1685.46 40.7143 1687.86 43.1128 1687.86 46.0714Z" fill="#042AC4"/>
<path d="M1720 46.0714C1720 49.0301 1717.6 51.4286 1714.64 51.4286C1711.68 51.4286 1709.29 49.0301 1709.29 46.0714C1709.29 43.1128 1711.68 40.7143 1714.64 40.7143C1717.6 40.7143 1720 43.1128 1720 46.0714Z" fill="#042AC4"/>
<path d="M1752.14 46.0714C1752.14 49.0301 1749.74 51.4286 1746.79 51.4286C1743.83 51.4286 1741.43 49.0301 1741.43 46.0714C1741.43 43.1128 1743.83 40.7143 1746.79 40.7143C1749.74 40.7143 1752.14 43.1128 1752.14 46.0714Z" fill="#042AC4"/>
<path d="M1784.29 46.0714C1784.29 49.0301 1781.89 51.4286 1778.93 51.4286C1775.97 51.4286 1773.57 49.0301 1773.57 46.0714C1773.57 43.1128 1775.97 40.7143 1778.93 40.7143C1781.89 40.7143 1784.29 43.1128 1784.29 46.0714Z" fill="#042AC4"/>
<path d="M1816.43 46.0714C1816.43 49.0301 1814.03 51.4286 1811.07 51.4286C1808.11 51.4286 1805.71 49.0301 1805.71 46.0714C1805.71 43.1128 1808.11 40.7143 1811.07 40.7143C1814.03 40.7143 1816.43 43.1128 1816.43 46.0714Z" fill="#042AC4"/>
<path d="M1848.57 46.0714C1848.57 49.0301 1846.17 51.4286 1843.21 51.4286C1840.26 51.4286 1837.86 49.0301 1837.86 46.0714C1837.86 43.1128 1840.26 40.7143 1843.21 40.7143C1846.17 40.7143 1848.57 43.1128 1848.57 46.0714Z" fill="#042AC4"/>
<path d="M1880.71 46.0714C1880.71 49.0301 1878.32 51.4286 1875.36 51.4286C1872.4 51.4286 1870 49.0301 1870 46.0714C1870 43.1128 1872.4 40.7143 1875.36 40.7143C1878.32 40.7143 1880.71 43.1128 1880.71 46.0714Z" fill="#042AC4"/>
<path d="M1912.86 46.0714C1912.86 49.0301 1910.46 51.4286 1907.5 51.4286C1904.54 51.4286 1902.14 49.0301 1902.14 46.0714C1902.14 43.1128 1904.54 40.7143 1907.5 40.7143C1910.46 40.7143 1912.86 43.1128 1912.86 46.0714Z" fill="#042AC4"/>
<path d="M1945 46.0714C1945 49.0301 1942.6 51.4286 1939.64 51.4286C1936.68 51.4286 1934.29 49.0301 1934.29 46.0714C1934.29 43.1128 1936.68 40.7143 1939.64 40.7143C1942.6 40.7143 1945 43.1128 1945 46.0714Z" fill="#042AC4"/>
<path d="M1655.71 78.2143C1655.71 81.173 1653.32 83.5714 1650.36 83.5714C1647.4 83.5714 1645 81.173 1645 78.2143C1645 75.2556 1647.4 72.8571 1650.36 72.8571C1653.32 72.8571 1655.71 75.2556 1655.71 78.2143Z" fill="#042AC4"/>
<path d="M1687.86 78.2143C1687.86 81.173 1685.46 83.5714 1682.5 83.5714C1679.54 83.5714 1677.14 81.173 1677.14 78.2143C1677.14 75.2556 1679.54 72.8571 1682.5 72.8571C1685.46 72.8571 1687.86 75.2556 1687.86 78.2143Z" fill="#042AC4"/>
<path d="M1720 78.2143C1720 81.173 1717.6 83.5714 1714.64 83.5714C1711.68 83.5714 1709.29 81.173 1709.29 78.2143C1709.29 75.2556 1711.68 72.8571 1714.64 72.8571C1717.6 72.8571 1720 75.2556 1720 78.2143Z" fill="#042AC4"/>
<path d="M1752.14 78.2143C1752.14 81.173 1749.74 83.5714 1746.79 83.5714C1743.83 83.5714 1741.43 81.173 1741.43 78.2143C1741.43 75.2556 1743.83 72.8571 1746.79 72.8571C1749.74 72.8571 1752.14 75.2556 1752.14 78.2143Z" fill="#042AC4"/>
<path d="M1784.29 78.2143C1784.29 81.173 1781.89 83.5714 1778.93 83.5714C1775.97 83.5714 1773.57 81.173 1773.57 78.2143C1773.57 75.2556 1775.97 72.8571 1778.93 72.8571C1781.89 72.8571 1784.29 75.2556 1784.29 78.2143Z" fill="#042AC4"/>
<path d="M1816.43 78.2143C1816.43 81.173 1814.03 83.5714 1811.07 83.5714C1808.11 83.5714 1805.71 81.173 1805.71 78.2143C1805.71 75.2556 1808.11 72.8571 1811.07 72.8571C1814.03 72.8571 1816.43 75.2556 1816.43 78.2143Z" fill="#042AC4"/>
<path d="M1848.57 78.2143C1848.57 81.173 1846.17 83.5714 1843.21 83.5714C1840.26 83.5714 1837.86 81.173 1837.86 78.2143C1837.86 75.2556 1840.26 72.8571 1843.21 72.8571C1846.17 72.8571 1848.57 75.2556 1848.57 78.2143Z" fill="#042AC4"/>
<path d="M1880.71 78.2143C1880.71 81.173 1878.32 83.5714 1875.36 83.5714C1872.4 83.5714 1870 81.173 1870 78.2143C1870 75.2556 1872.4 72.8571 1875.36 72.8571C1878.32 72.8571 1880.71 75.2556 1880.71 78.2143Z" fill="#042AC4"/>
<path d="M1912.86 78.2143C1912.86 81.173 1910.46 83.5714 1907.5 83.5714C1904.54 83.5714 1902.14 81.173 1902.14 78.2143C1902.14 75.2556 1904.54 72.8571 1907.5 72.8571C1910.46 72.8571 1912.86 75.2556 1912.86 78.2143Z" fill="#042AC4"/>
<path d="M1945 78.2143C1945 81.173 1942.6 83.5714 1939.64 83.5714C1936.68 83.5714 1934.29 81.173 1934.29 78.2143C1934.29 75.2556 1936.68 72.8571 1939.64 72.8571C1942.6 72.8571 1945 75.2556 1945 78.2143Z" fill="#042AC4"/>
<path d="M1687.86 110.357C1687.86 113.316 1685.46 115.714 1682.5 115.714C1679.54 115.714 1677.14 113.316 1677.14 110.357C1677.14 107.398 1679.54 105 1682.5 105C1685.46 105 1687.86 107.398 1687.86 110.357Z" fill="#042AC4"/>
<path d="M1720 110.357C1720 113.316 1717.6 115.714 1714.64 115.714C1711.68 115.714 1709.29 113.316 1709.29 110.357C1709.29 107.398 1711.68 105 1714.64 105C1717.6 105 1720 107.398 1720 110.357Z" fill="#042AC4"/>
<path d="M1752.14 110.357C1752.14 113.316 1749.74 115.714 1746.79 115.714C1743.83 115.714 1741.43 113.316 1741.43 110.357C1741.43 107.398 1743.83 105 1746.79 105C1749.74 105 1752.14 107.398 1752.14 110.357Z" fill="#042AC4"/>
<path d="M1784.29 110.357C1784.29 113.316 1781.89 115.714 1778.93 115.714C1775.97 115.714 1773.57 113.316 1773.57 110.357C1773.57 107.398 1775.97 105 1778.93 105C1781.89 105 1784.29 107.398 1784.29 110.357Z" fill="#042AC4"/>
<path d="M1816.43 110.357C1816.43 113.316 1814.03 115.714 1811.07 115.714C1808.11 115.714 1805.71 113.316 1805.71 110.357C1805.71 107.398 1808.11 105 1811.07 105C1814.03 105 1816.43 107.398 1816.43 110.357Z" fill="#042AC4"/>
<path d="M1848.57 110.357C1848.57 113.316 1846.17 115.714 1843.21 115.714C1840.26 115.714 1837.86 113.316 1837.86 110.357C1837.86 107.398 1840.26 105 1843.21 105C1846.17 105 1848.57 107.398 1848.57 110.357Z" fill="#042AC4"/>
<path d="M1880.71 110.357C1880.71 113.316 1878.32 115.714 1875.36 115.714C1872.4 115.714 1870 113.316 1870 110.357C1870 107.398 1872.4 105 1875.36 105C1878.32 105 1880.71 107.398 1880.71 110.357Z" fill="#042AC4"/>
<path d="M1912.86 110.357C1912.86 113.316 1910.46 115.714 1907.5 115.714C1904.54 115.714 1902.14 113.316 1902.14 110.357C1902.14 107.398 1904.54 105 1907.5 105C1910.46 105 1912.86 107.398 1912.86 110.357Z" fill="#042AC4"/>
<path d="M1720 142.5C1720 145.459 1717.6 147.857 1714.64 147.857C1711.68 147.857 1709.29 145.459 1709.29 142.5C1709.29 139.541 1711.68 137.143 1714.64 137.143C1717.6 137.143 1720 139.541 1720 142.5Z" fill="#042AC4"/>
<path d="M1752.14 142.5C1752.14 145.459 1749.74 147.857 1746.79 147.857C1743.83 147.857 1741.43 145.459 1741.43 142.5C1741.43 139.541 1743.83 137.143 1746.79 137.143C1749.74 137.143 1752.14 139.541 1752.14 142.5Z" fill="#042AC4"/>
<path d="M1784.29 142.5C1784.29 145.459 1781.89 147.857 1778.93 147.857C1775.97 147.857 1773.57 145.459 1773.57 142.5C1773.57 139.541 1775.97 137.143 1778.93 137.143C1781.89 137.143 1784.29 139.541 1784.29 142.5Z" fill="#042AC4"/>
<path d="M1816.43 142.5C1816.43 145.459 1814.03 147.857 1811.07 147.857C1808.11 147.857 1805.71 145.459 1805.71 142.5C1805.71 139.541 1808.11 137.143 1811.07 137.143C1814.03 137.143 1816.43 139.541 1816.43 142.5Z" fill="#042AC4"/>
<path d="M1848.57 142.5C1848.57 145.459 1846.17 147.857 1843.21 147.857C1840.26 147.857 1837.86 145.459 1837.86 142.5C1837.86 139.541 1840.26 137.143 1843.21 137.143C1846.17 137.143 1848.57 139.541 1848.57 142.5Z" fill="#042AC4"/>
<path d="M1880.71 142.5C1880.71 145.459 1878.32 147.857 1875.36 147.857C1872.4 147.857 1870 145.459 1870 142.5C1870 139.541 1872.4 137.143 1875.36 137.143C1878.32 137.143 1880.71 139.541 1880.71 142.5Z" fill="#042AC4"/>
<path d="M1752.14 174.643C1752.14 177.602 1749.74 180 1746.79 180C1743.83 180 1741.43 177.602 1741.43 174.643C1741.43 171.684 1743.83 169.286 1746.79 169.286C1749.74 169.286 1752.14 171.684 1752.14 174.643Z" fill="#042AC4"/>
<path d="M1784.29 174.643C1784.29 177.602 1781.89 180 1778.93 180C1775.97 180 1773.57 177.602 1773.57 174.643C1773.57 171.684 1775.97 169.286 1778.93 169.286C1781.89 169.286 1784.29 171.684 1784.29 174.643Z" fill="#042AC4"/>
<path d="M1816.43 174.643C1816.43 177.602 1814.03 180 1811.07 180C1808.11 180 1805.71 177.602 1805.71 174.643C1805.71 171.684 1808.11 169.286 1811.07 169.286C1814.03 169.286 1816.43 171.684 1816.43 174.643Z" fill="#042AC4"/>
<path d="M1848.57 174.643C1848.57 177.602 1846.17 180 1843.21 180C1840.26 180 1837.86 177.602 1837.86 174.643C1837.86 171.684 1840.26 169.286 1843.21 169.286C1846.17 169.286 1848.57 171.684 1848.57 174.643Z" fill="#042AC4"/>
<rect x="133.391" y="-104.766" width="236" height="236" transform="rotate(18.0585 133.391 -104.766)" fill="#222D75"/>
</g>
<defs>
<clipPath id="clip0_216_2224">
<rect width="1921" height="789" fill="white"/>
</clipPath>
</defs>
</svg>
