<svg width="1919" height="433" viewBox="0 0 1919 433" fill="none" xmlns="http://www.w3.org/2000/svg">
<g clip-path="url(#clip0_215_2220)">
<rect width="1919" height="433" fill="#0E1C52"/>
<path d="M589.287 332.77C590.118 334.209 590.927 335.662 591.714 337.129C590.285 336.194 589.33 334.595 589.287 332.77Z" fill="#9CBFFF"/>
<path d="M559.954 295.785C562.451 298.128 564.872 300.549 567.215 303.046C566.309 304.72 564.537 305.857 562.5 305.857C559.541 305.857 557.143 303.459 557.143 300.5C557.143 298.463 558.28 296.691 559.954 295.785Z" fill="#9CBFFF"/>
<path d="M525.871 271.286C527.338 272.073 528.791 272.882 530.23 273.713C528.405 273.67 526.806 272.715 525.871 271.286Z" fill="#9CBFFF"/>
<path d="M369.77 273.713C371.209 272.882 372.662 272.073 374.129 271.286C373.194 272.715 371.595 273.67 369.77 273.713Z" fill="#9CBFFF"/>
<path d="M332.785 303.046C335.128 300.549 337.549 298.128 340.046 295.785C341.72 296.691 342.857 298.463 342.857 300.5C342.857 303.459 340.459 305.857 337.5 305.857C335.463 305.857 333.691 304.72 332.785 303.046Z" fill="#9CBFFF"/>
<path d="M308.286 337.129C309.073 335.662 309.882 334.209 310.713 332.77C310.67 334.595 309.715 336.194 308.286 337.129Z" fill="#9CBFFF"/>
<path d="M591.714 488.871C590.927 490.338 590.118 491.791 589.287 493.23C589.33 491.405 590.285 489.806 591.714 488.871Z" fill="#9CBFFF"/>
<path d="M567.215 522.954C566.309 521.28 564.537 520.143 562.5 520.143C559.541 520.143 557.143 522.541 557.143 525.5C557.143 527.537 558.28 529.309 559.954 530.215C562.451 527.872 564.872 525.451 567.215 522.954Z" fill="#9CBFFF"/>
<path d="M530.23 552.287C528.405 552.33 526.806 553.285 525.871 554.714C527.338 553.927 528.791 553.118 530.23 552.287Z" fill="#9CBFFF"/>
<path d="M374.129 554.714C373.194 553.285 371.595 552.33 369.77 552.287C371.209 553.118 372.662 553.927 374.129 554.714Z" fill="#9CBFFF"/>
<path d="M340.046 530.215C341.72 529.309 342.857 527.537 342.857 525.5C342.857 522.541 340.459 520.143 337.5 520.143C335.463 520.143 333.691 521.28 332.785 522.954C335.128 525.451 337.549 527.872 340.046 530.215Z" fill="#9CBFFF"/>
<path d="M310.713 493.23C310.67 491.405 309.715 489.806 308.286 488.871C309.073 490.338 309.882 491.791 310.713 493.23Z" fill="#9CBFFF"/>
<path d="M407.143 268.357C407.143 271.316 404.744 273.714 401.786 273.714C398.827 273.714 396.429 271.316 396.429 268.357C396.429 265.398 398.827 263 401.786 263C404.744 263 407.143 265.398 407.143 268.357Z" fill="#9CBFFF"/>
<path d="M439.286 268.357C439.286 271.316 436.887 273.714 433.929 273.714C430.97 273.714 428.571 271.316 428.571 268.357C428.571 265.398 430.97 263 433.929 263C436.887 263 439.286 265.398 439.286 268.357Z" fill="#9CBFFF"/>
<path d="M471.429 268.357C471.429 271.316 469.03 273.714 466.071 273.714C463.113 273.714 460.714 271.316 460.714 268.357C460.714 265.398 463.113 263 466.071 263C469.03 263 471.429 265.398 471.429 268.357Z" fill="#9CBFFF"/>
<path d="M503.571 268.357C503.571 271.316 501.173 273.714 498.214 273.714C495.256 273.714 492.857 271.316 492.857 268.357C492.857 265.398 495.256 263 498.214 263C501.173 263 503.571 265.398 503.571 268.357Z" fill="#9CBFFF"/>
<path d="M375 300.5C375 303.459 372.602 305.857 369.643 305.857C366.684 305.857 364.286 303.459 364.286 300.5C364.286 297.541 366.684 295.143 369.643 295.143C372.602 295.143 375 297.541 375 300.5Z" fill="#9CBFFF"/>
<path d="M407.143 300.5C407.143 303.459 404.744 305.857 401.786 305.857C398.827 305.857 396.429 303.459 396.429 300.5C396.429 297.541 398.827 295.143 401.786 295.143C404.744 295.143 407.143 297.541 407.143 300.5Z" fill="#9CBFFF"/>
<path d="M439.286 300.5C439.286 303.459 436.887 305.857 433.929 305.857C430.97 305.857 428.571 303.459 428.571 300.5C428.571 297.541 430.97 295.143 433.929 295.143C436.887 295.143 439.286 297.541 439.286 300.5Z" fill="#9CBFFF"/>
<path d="M471.429 300.5C471.429 303.459 469.03 305.857 466.071 305.857C463.113 305.857 460.714 303.459 460.714 300.5C460.714 297.541 463.113 295.143 466.071 295.143C469.03 295.143 471.429 297.541 471.429 300.5Z" fill="#9CBFFF"/>
<path d="M503.571 300.5C503.571 303.459 501.173 305.857 498.214 305.857C495.256 305.857 492.857 303.459 492.857 300.5C492.857 297.541 495.256 295.143 498.214 295.143C501.173 295.143 503.571 297.541 503.571 300.5Z" fill="#9CBFFF"/>
<path d="M535.714 300.5C535.714 303.459 533.316 305.857 530.357 305.857C527.398 305.857 525 303.459 525 300.5C525 297.541 527.398 295.143 530.357 295.143C533.316 295.143 535.714 297.541 535.714 300.5Z" fill="#9CBFFF"/>
<path d="M342.857 332.643C342.857 335.602 340.459 338 337.5 338C334.541 338 332.143 335.602 332.143 332.643C332.143 329.684 334.541 327.286 337.5 327.286C340.459 327.286 342.857 329.684 342.857 332.643Z" fill="#9CBFFF"/>
<path d="M375 332.643C375 335.602 372.602 338 369.643 338C366.684 338 364.286 335.602 364.286 332.643C364.286 329.684 366.684 327.286 369.643 327.286C372.602 327.286 375 329.684 375 332.643Z" fill="#9CBFFF"/>
<path d="M407.143 332.643C407.143 335.602 404.744 338 401.786 338C398.827 338 396.429 335.602 396.429 332.643C396.429 329.684 398.827 327.286 401.786 327.286C404.744 327.286 407.143 329.684 407.143 332.643Z" fill="#9CBFFF"/>
<path d="M439.286 332.643C439.286 335.602 436.887 338 433.929 338C430.97 338 428.571 335.602 428.571 332.643C428.571 329.684 430.97 327.286 433.929 327.286C436.887 327.286 439.286 329.684 439.286 332.643Z" fill="#9CBFFF"/>
<path d="M471.429 332.643C471.429 335.602 469.03 338 466.071 338C463.113 338 460.714 335.602 460.714 332.643C460.714 329.684 463.113 327.286 466.071 327.286C469.03 327.286 471.429 329.684 471.429 332.643Z" fill="#9CBFFF"/>
<path d="M503.571 332.643C503.571 335.602 501.173 338 498.214 338C495.256 338 492.857 335.602 492.857 332.643C492.857 329.684 495.256 327.286 498.214 327.286C501.173 327.286 503.571 329.684 503.571 332.643Z" fill="#9CBFFF"/>
<path d="M535.714 332.643C535.714 335.602 533.316 338 530.357 338C527.398 338 525 335.602 525 332.643C525 329.684 527.398 327.286 530.357 327.286C533.316 327.286 535.714 329.684 535.714 332.643Z" fill="#9CBFFF"/>
<path d="M567.857 332.643C567.857 335.602 565.459 338 562.5 338C559.541 338 557.143 335.602 557.143 332.643C557.143 329.684 559.541 327.286 562.5 327.286C565.459 327.286 567.857 329.684 567.857 332.643Z" fill="#9CBFFF"/>
<path d="M310.714 364.786C310.714 367.744 308.316 370.143 305.357 370.143C302.398 370.143 300 367.744 300 364.786C300 361.827 302.398 359.429 305.357 359.429C308.316 359.429 310.714 361.827 310.714 364.786Z" fill="#9CBFFF"/>
<path d="M342.857 364.786C342.857 367.744 340.459 370.143 337.5 370.143C334.541 370.143 332.143 367.744 332.143 364.786C332.143 361.827 334.541 359.429 337.5 359.429C340.459 359.429 342.857 361.827 342.857 364.786Z" fill="#9CBFFF"/>
<path d="M375 364.786C375 367.744 372.602 370.143 369.643 370.143C366.684 370.143 364.286 367.744 364.286 364.786C364.286 361.827 366.684 359.429 369.643 359.429C372.602 359.429 375 361.827 375 364.786Z" fill="#9CBFFF"/>
<path d="M407.143 364.786C407.143 367.744 404.744 370.143 401.786 370.143C398.827 370.143 396.429 367.744 396.429 364.786C396.429 361.827 398.827 359.429 401.786 359.429C404.744 359.429 407.143 361.827 407.143 364.786Z" fill="#9CBFFF"/>
<path d="M439.286 364.786C439.286 367.744 436.887 370.143 433.929 370.143C430.97 370.143 428.571 367.744 428.571 364.786C428.571 361.827 430.97 359.429 433.929 359.429C436.887 359.429 439.286 361.827 439.286 364.786Z" fill="#9CBFFF"/>
<path d="M471.429 364.786C471.429 367.744 469.03 370.143 466.071 370.143C463.113 370.143 460.714 367.744 460.714 364.786C460.714 361.827 463.113 359.429 466.071 359.429C469.03 359.429 471.429 361.827 471.429 364.786Z" fill="#9CBFFF"/>
<path d="M503.571 364.786C503.571 367.744 501.173 370.143 498.214 370.143C495.256 370.143 492.857 367.744 492.857 364.786C492.857 361.827 495.256 359.429 498.214 359.429C501.173 359.429 503.571 361.827 503.571 364.786Z" fill="#9CBFFF"/>
<path d="M535.714 364.786C535.714 367.744 533.316 370.143 530.357 370.143C527.398 370.143 525 367.744 525 364.786C525 361.827 527.398 359.429 530.357 359.429C533.316 359.429 535.714 361.827 535.714 364.786Z" fill="#9CBFFF"/>
<path d="M567.857 364.786C567.857 367.744 565.459 370.143 562.5 370.143C559.541 370.143 557.143 367.744 557.143 364.786C557.143 361.827 559.541 359.429 562.5 359.429C565.459 359.429 567.857 361.827 567.857 364.786Z" fill="#9CBFFF"/>
<path d="M600 364.786C600 367.744 597.602 370.143 594.643 370.143C591.684 370.143 589.286 367.744 589.286 364.786C589.286 361.827 591.684 359.429 594.643 359.429C597.602 359.429 600 361.827 600 364.786Z" fill="#9CBFFF"/>
<path d="M310.714 396.929C310.714 399.887 308.316 402.286 305.357 402.286C302.398 402.286 300 399.887 300 396.929C300 393.97 302.398 391.571 305.357 391.571C308.316 391.571 310.714 393.97 310.714 396.929Z" fill="#9CBFFF"/>
<path d="M342.857 396.929C342.857 399.887 340.459 402.286 337.5 402.286C334.541 402.286 332.143 399.887 332.143 396.929C332.143 393.97 334.541 391.571 337.5 391.571C340.459 391.571 342.857 393.97 342.857 396.929Z" fill="#9CBFFF"/>
<path d="M375 396.929C375 399.887 372.602 402.286 369.643 402.286C366.684 402.286 364.286 399.887 364.286 396.929C364.286 393.97 366.684 391.571 369.643 391.571C372.602 391.571 375 393.97 375 396.929Z" fill="#9CBFFF"/>
<path d="M407.143 396.929C407.143 399.887 404.744 402.286 401.786 402.286C398.827 402.286 396.429 399.887 396.429 396.929C396.429 393.97 398.827 391.571 401.786 391.571C404.744 391.571 407.143 393.97 407.143 396.929Z" fill="#9CBFFF"/>
<path d="M439.286 396.929C439.286 399.887 436.887 402.286 433.929 402.286C430.97 402.286 428.571 399.887 428.571 396.929C428.571 393.97 430.97 391.571 433.929 391.571C436.887 391.571 439.286 393.97 439.286 396.929Z" fill="#9CBFFF"/>
<path d="M471.429 396.929C471.429 399.887 469.03 402.286 466.071 402.286C463.113 402.286 460.714 399.887 460.714 396.929C460.714 393.97 463.113 391.571 466.071 391.571C469.03 391.571 471.429 393.97 471.429 396.929Z" fill="#9CBFFF"/>
<path d="M503.571 396.929C503.571 399.887 501.173 402.286 498.214 402.286C495.256 402.286 492.857 399.887 492.857 396.929C492.857 393.97 495.256 391.571 498.214 391.571C501.173 391.571 503.571 393.97 503.571 396.929Z" fill="#9CBFFF"/>
<path d="M535.714 396.929C535.714 399.887 533.316 402.286 530.357 402.286C527.398 402.286 525 399.887 525 396.929C525 393.97 527.398 391.571 530.357 391.571C533.316 391.571 535.714 393.97 535.714 396.929Z" fill="#9CBFFF"/>
<path d="M567.857 396.929C567.857 399.887 565.459 402.286 562.5 402.286C559.541 402.286 557.143 399.887 557.143 396.929C557.143 393.97 559.541 391.571 562.5 391.571C565.459 391.571 567.857 393.97 567.857 396.929Z" fill="#9CBFFF"/>
<path d="M600 396.929C600 399.887 597.602 402.286 594.643 402.286C591.684 402.286 589.286 399.887 589.286 396.929C589.286 393.97 591.684 391.571 594.643 391.571C597.602 391.571 600 393.97 600 396.929Z" fill="#9CBFFF"/>
<path d="M310.714 429.071C310.714 432.03 308.316 434.429 305.357 434.429C302.398 434.429 300 432.03 300 429.071C300 426.113 302.398 423.714 305.357 423.714C308.316 423.714 310.714 426.113 310.714 429.071Z" fill="#9CBFFF"/>
<path d="M342.857 429.071C342.857 432.03 340.459 434.429 337.5 434.429C334.541 434.429 332.143 432.03 332.143 429.071C332.143 426.113 334.541 423.714 337.5 423.714C340.459 423.714 342.857 426.113 342.857 429.071Z" fill="#9CBFFF"/>
<path d="M375 429.071C375 432.03 372.602 434.429 369.643 434.429C366.684 434.429 364.286 432.03 364.286 429.071C364.286 426.113 366.684 423.714 369.643 423.714C372.602 423.714 375 426.113 375 429.071Z" fill="#9CBFFF"/>
<path d="M407.143 429.071C407.143 432.03 404.744 434.429 401.786 434.429C398.827 434.429 396.429 432.03 396.429 429.071C396.429 426.113 398.827 423.714 401.786 423.714C404.744 423.714 407.143 426.113 407.143 429.071Z" fill="#9CBFFF"/>
<path d="M439.286 429.071C439.286 432.03 436.887 434.429 433.929 434.429C430.97 434.429 428.571 432.03 428.571 429.071C428.571 426.113 430.97 423.714 433.929 423.714C436.887 423.714 439.286 426.113 439.286 429.071Z" fill="#9CBFFF"/>
<path d="M471.429 429.071C471.429 432.03 469.03 434.429 466.071 434.429C463.113 434.429 460.714 432.03 460.714 429.071C460.714 426.113 463.113 423.714 466.071 423.714C469.03 423.714 471.429 426.113 471.429 429.071Z" fill="#9CBFFF"/>
<path d="M503.571 429.071C503.571 432.03 501.173 434.429 498.214 434.429C495.256 434.429 492.857 432.03 492.857 429.071C492.857 426.113 495.256 423.714 498.214 423.714C501.173 423.714 503.571 426.113 503.571 429.071Z" fill="#9CBFFF"/>
<path d="M535.714 429.071C535.714 432.03 533.316 434.429 530.357 434.429C527.398 434.429 525 432.03 525 429.071C525 426.113 527.398 423.714 530.357 423.714C533.316 423.714 535.714 426.113 535.714 429.071Z" fill="#9CBFFF"/>
<path d="M567.857 429.071C567.857 432.03 565.459 434.429 562.5 434.429C559.541 434.429 557.143 432.03 557.143 429.071C557.143 426.113 559.541 423.714 562.5 423.714C565.459 423.714 567.857 426.113 567.857 429.071Z" fill="#9CBFFF"/>
<path d="M600 429.071C600 432.03 597.602 434.429 594.643 434.429C591.684 434.429 589.286 432.03 589.286 429.071C589.286 426.113 591.684 423.714 594.643 423.714C597.602 423.714 600 426.113 600 429.071Z" fill="#9CBFFF"/>
<path d="M310.714 461.214C310.714 464.173 308.316 466.571 305.357 466.571C302.398 466.571 300 464.173 300 461.214C300 458.256 302.398 455.857 305.357 455.857C308.316 455.857 310.714 458.256 310.714 461.214Z" fill="#9CBFFF"/>
<path d="M342.857 461.214C342.857 464.173 340.459 466.571 337.5 466.571C334.541 466.571 332.143 464.173 332.143 461.214C332.143 458.256 334.541 455.857 337.5 455.857C340.459 455.857 342.857 458.256 342.857 461.214Z" fill="#9CBFFF"/>
<path d="M375 461.214C375 464.173 372.602 466.571 369.643 466.571C366.684 466.571 364.286 464.173 364.286 461.214C364.286 458.256 366.684 455.857 369.643 455.857C372.602 455.857 375 458.256 375 461.214Z" fill="#9CBFFF"/>
<path d="M407.143 461.214C407.143 464.173 404.744 466.571 401.786 466.571C398.827 466.571 396.429 464.173 396.429 461.214C396.429 458.256 398.827 455.857 401.786 455.857C404.744 455.857 407.143 458.256 407.143 461.214Z" fill="#9CBFFF"/>
<path d="M439.286 461.214C439.286 464.173 436.887 466.571 433.929 466.571C430.97 466.571 428.571 464.173 428.571 461.214C428.571 458.256 430.97 455.857 433.929 455.857C436.887 455.857 439.286 458.256 439.286 461.214Z" fill="#9CBFFF"/>
<path d="M471.429 461.214C471.429 464.173 469.03 466.571 466.071 466.571C463.113 466.571 460.714 464.173 460.714 461.214C460.714 458.256 463.113 455.857 466.071 455.857C469.03 455.857 471.429 458.256 471.429 461.214Z" fill="#9CBFFF"/>
<path d="M503.571 461.214C503.571 464.173 501.173 466.571 498.214 466.571C495.256 466.571 492.857 464.173 492.857 461.214C492.857 458.256 495.256 455.857 498.214 455.857C501.173 455.857 503.571 458.256 503.571 461.214Z" fill="#9CBFFF"/>
<path d="M535.714 461.214C535.714 464.173 533.316 466.571 530.357 466.571C527.398 466.571 525 464.173 525 461.214C525 458.256 527.398 455.857 530.357 455.857C533.316 455.857 535.714 458.256 535.714 461.214Z" fill="#9CBFFF"/>
<path d="M567.857 461.214C567.857 464.173 565.459 466.571 562.5 466.571C559.541 466.571 557.143 464.173 557.143 461.214C557.143 458.256 559.541 455.857 562.5 455.857C565.459 455.857 567.857 458.256 567.857 461.214Z" fill="#9CBFFF"/>
<path d="M600 461.214C600 464.173 597.602 466.571 594.643 466.571C591.684 466.571 589.286 464.173 589.286 461.214C589.286 458.256 591.684 455.857 594.643 455.857C597.602 455.857 600 458.256 600 461.214Z" fill="#9CBFFF"/>
<path d="M342.857 493.357C342.857 496.316 340.459 498.714 337.5 498.714C334.541 498.714 332.143 496.316 332.143 493.357C332.143 490.398 334.541 488 337.5 488C340.459 488 342.857 490.398 342.857 493.357Z" fill="#9CBFFF"/>
<path d="M375 493.357C375 496.316 372.602 498.714 369.643 498.714C366.684 498.714 364.286 496.316 364.286 493.357C364.286 490.398 366.684 488 369.643 488C372.602 488 375 490.398 375 493.357Z" fill="#9CBFFF"/>
<path d="M407.143 493.357C407.143 496.316 404.744 498.714 401.786 498.714C398.827 498.714 396.429 496.316 396.429 493.357C396.429 490.398 398.827 488 401.786 488C404.744 488 407.143 490.398 407.143 493.357Z" fill="#9CBFFF"/>
<path d="M439.286 493.357C439.286 496.316 436.887 498.714 433.929 498.714C430.97 498.714 428.571 496.316 428.571 493.357C428.571 490.398 430.97 488 433.929 488C436.887 488 439.286 490.398 439.286 493.357Z" fill="#9CBFFF"/>
<path d="M471.429 493.357C471.429 496.316 469.03 498.714 466.071 498.714C463.113 498.714 460.714 496.316 460.714 493.357C460.714 490.398 463.113 488 466.071 488C469.03 488 471.429 490.398 471.429 493.357Z" fill="#9CBFFF"/>
<path d="M503.571 493.357C503.571 496.316 501.173 498.714 498.214 498.714C495.256 498.714 492.857 496.316 492.857 493.357C492.857 490.398 495.256 488 498.214 488C501.173 488 503.571 490.398 503.571 493.357Z" fill="#9CBFFF"/>
<path d="M535.714 493.357C535.714 496.316 533.316 498.714 530.357 498.714C527.398 498.714 525 496.316 525 493.357C525 490.398 527.398 488 530.357 488C533.316 488 535.714 490.398 535.714 493.357Z" fill="#9CBFFF"/>
<path d="M567.857 493.357C567.857 496.316 565.459 498.714 562.5 498.714C559.541 498.714 557.143 496.316 557.143 493.357C557.143 490.398 559.541 488 562.5 488C565.459 488 567.857 490.398 567.857 493.357Z" fill="#9CBFFF"/>
<path d="M375 525.5C375 528.459 372.602 530.857 369.643 530.857C366.684 530.857 364.286 528.459 364.286 525.5C364.286 522.541 366.684 520.143 369.643 520.143C372.602 520.143 375 522.541 375 525.5Z" fill="#9CBFFF"/>
<path d="M407.143 525.5C407.143 528.459 404.744 530.857 401.786 530.857C398.827 530.857 396.429 528.459 396.429 525.5C396.429 522.541 398.827 520.143 401.786 520.143C404.744 520.143 407.143 522.541 407.143 525.5Z" fill="#9CBFFF"/>
<path d="M439.286 525.5C439.286 528.459 436.887 530.857 433.929 530.857C430.97 530.857 428.571 528.459 428.571 525.5C428.571 522.541 430.97 520.143 433.929 520.143C436.887 520.143 439.286 522.541 439.286 525.5Z" fill="#9CBFFF"/>
<path d="M471.429 525.5C471.429 528.459 469.03 530.857 466.071 530.857C463.113 530.857 460.714 528.459 460.714 525.5C460.714 522.541 463.113 520.143 466.071 520.143C469.03 520.143 471.429 522.541 471.429 525.5Z" fill="#9CBFFF"/>
<path d="M503.571 525.5C503.571 528.459 501.173 530.857 498.214 530.857C495.256 530.857 492.857 528.459 492.857 525.5C492.857 522.541 495.256 520.143 498.214 520.143C501.173 520.143 503.571 522.541 503.571 525.5Z" fill="#9CBFFF"/>
<path d="M535.714 525.5C535.714 528.459 533.316 530.857 530.357 530.857C527.398 530.857 525 528.459 525 525.5C525 522.541 527.398 520.143 530.357 520.143C533.316 520.143 535.714 522.541 535.714 525.5Z" fill="#9CBFFF"/>
<path d="M407.143 557.643C407.143 560.602 404.744 563 401.786 563C398.827 563 396.429 560.602 396.429 557.643C396.429 554.684 398.827 552.286 401.786 552.286C404.744 552.286 407.143 554.684 407.143 557.643Z" fill="#9CBFFF"/>
<path d="M439.286 557.643C439.286 560.602 436.887 563 433.929 563C430.97 563 428.571 560.602 428.571 557.643C428.571 554.684 430.97 552.286 433.929 552.286C436.887 552.286 439.286 554.684 439.286 557.643Z" fill="#9CBFFF"/>
<path d="M471.429 557.643C471.429 560.602 469.03 563 466.071 563C463.113 563 460.714 560.602 460.714 557.643C460.714 554.684 463.113 552.286 466.071 552.286C469.03 552.286 471.429 554.684 471.429 557.643Z" fill="#9CBFFF"/>
<path d="M503.571 557.643C503.571 560.602 501.173 563 498.214 563C495.256 563 492.857 560.602 492.857 557.643C492.857 554.684 495.256 552.286 498.214 552.286C501.173 552.286 503.571 554.684 503.571 557.643Z" fill="#9CBFFF"/>
<path d="M1908.29 -69.2297C1909.12 -67.7907 1909.93 -66.3377 1910.71 -64.871C1909.28 -65.8058 1908.33 -67.4049 1908.29 -69.2297Z" fill="#9CBFFF"/>
<path d="M1878.95 -106.215C1881.45 -103.872 1883.87 -101.451 1886.21 -98.9543C1885.31 -97.28 1883.54 -96.1429 1881.5 -96.1429C1878.54 -96.1429 1876.14 -98.5413 1876.14 -101.5C1876.14 -103.537 1877.28 -105.309 1878.95 -106.215Z" fill="#9CBFFF"/>
<path d="M1844.87 -130.714C1846.34 -129.927 1847.79 -129.118 1849.23 -128.287C1847.4 -128.33 1845.81 -129.285 1844.87 -130.714Z" fill="#9CBFFF"/>
<path d="M1688.77 -128.287C1690.21 -129.118 1691.66 -129.927 1693.13 -130.714C1692.19 -129.285 1690.6 -128.33 1688.77 -128.287Z" fill="#9CBFFF"/>
<path d="M1651.79 -98.9543C1654.13 -101.451 1656.55 -103.872 1659.05 -106.215C1660.72 -105.309 1661.86 -103.537 1661.86 -101.5C1661.86 -98.5413 1659.46 -96.1429 1656.5 -96.1429C1654.46 -96.1429 1652.69 -97.28 1651.79 -98.9543Z" fill="#9CBFFF"/>
<path d="M1627.29 -64.871C1628.07 -66.3377 1628.88 -67.7907 1629.71 -69.2297C1629.67 -67.4049 1628.72 -65.8058 1627.29 -64.871Z" fill="#9CBFFF"/>
<path d="M1910.71 86.871C1909.93 88.3377 1909.12 89.7907 1908.29 91.2297C1908.33 89.405 1909.28 87.8058 1910.71 86.871Z" fill="#9CBFFF"/>
<path d="M1886.21 120.954C1885.31 119.28 1883.54 118.143 1881.5 118.143C1878.54 118.143 1876.14 120.541 1876.14 123.5C1876.14 125.537 1877.28 127.309 1878.95 128.215C1881.45 125.872 1883.87 123.451 1886.21 120.954Z" fill="#9CBFFF"/>
<path d="M1849.23 150.287C1847.4 150.33 1845.81 151.285 1844.87 152.714C1846.34 151.927 1847.79 151.118 1849.23 150.287Z" fill="#9CBFFF"/>
<path d="M1693.13 152.714C1692.19 151.285 1690.6 150.33 1688.77 150.287C1690.21 151.118 1691.66 151.927 1693.13 152.714Z" fill="#9CBFFF"/>
<path d="M1659.05 128.215C1660.72 127.309 1661.86 125.537 1661.86 123.5C1661.86 120.541 1659.46 118.143 1656.5 118.143C1654.46 118.143 1652.69 119.28 1651.79 120.954C1654.13 123.451 1656.55 125.872 1659.05 128.215Z" fill="#9CBFFF"/>
<path d="M1629.71 91.2297C1629.67 89.405 1628.72 87.8058 1627.29 86.871C1628.07 88.3377 1628.88 89.7907 1629.71 91.2297Z" fill="#9CBFFF"/>
<path d="M1726.14 -133.643C1726.14 -130.684 1723.74 -128.286 1720.79 -128.286C1717.83 -128.286 1715.43 -130.684 1715.43 -133.643C1715.43 -136.602 1717.83 -139 1720.79 -139C1723.74 -139 1726.14 -136.602 1726.14 -133.643Z" fill="#9CBFFF"/>
<path d="M1758.29 -133.643C1758.29 -130.684 1755.89 -128.286 1752.93 -128.286C1749.97 -128.286 1747.57 -130.684 1747.57 -133.643C1747.57 -136.602 1749.97 -139 1752.93 -139C1755.89 -139 1758.29 -136.602 1758.29 -133.643Z" fill="#9CBFFF"/>
<path d="M1790.43 -133.643C1790.43 -130.684 1788.03 -128.286 1785.07 -128.286C1782.11 -128.286 1779.71 -130.684 1779.71 -133.643C1779.71 -136.602 1782.11 -139 1785.07 -139C1788.03 -139 1790.43 -136.602 1790.43 -133.643Z" fill="#9CBFFF"/>
<path d="M1822.57 -133.643C1822.57 -130.684 1820.17 -128.286 1817.21 -128.286C1814.26 -128.286 1811.86 -130.684 1811.86 -133.643C1811.86 -136.602 1814.26 -139 1817.21 -139C1820.17 -139 1822.57 -136.602 1822.57 -133.643Z" fill="#9CBFFF"/>
<path d="M1694 -101.5C1694 -98.5413 1691.6 -96.1429 1688.64 -96.1429C1685.68 -96.1429 1683.29 -98.5413 1683.29 -101.5C1683.29 -104.459 1685.68 -106.857 1688.64 -106.857C1691.6 -106.857 1694 -104.459 1694 -101.5Z" fill="#9CBFFF"/>
<path d="M1726.14 -101.5C1726.14 -98.5413 1723.74 -96.1429 1720.79 -96.1429C1717.83 -96.1429 1715.43 -98.5413 1715.43 -101.5C1715.43 -104.459 1717.83 -106.857 1720.79 -106.857C1723.74 -106.857 1726.14 -104.459 1726.14 -101.5Z" fill="#9CBFFF"/>
<path d="M1758.29 -101.5C1758.29 -98.5413 1755.89 -96.1429 1752.93 -96.1429C1749.97 -96.1429 1747.57 -98.5413 1747.57 -101.5C1747.57 -104.459 1749.97 -106.857 1752.93 -106.857C1755.89 -106.857 1758.29 -104.459 1758.29 -101.5Z" fill="#9CBFFF"/>
<path d="M1790.43 -101.5C1790.43 -98.5413 1788.03 -96.1429 1785.07 -96.1429C1782.11 -96.1429 1779.71 -98.5413 1779.71 -101.5C1779.71 -104.459 1782.11 -106.857 1785.07 -106.857C1788.03 -106.857 1790.43 -104.459 1790.43 -101.5Z" fill="#9CBFFF"/>
<path d="M1822.57 -101.5C1822.57 -98.5413 1820.17 -96.1429 1817.21 -96.1429C1814.26 -96.1429 1811.86 -98.5413 1811.86 -101.5C1811.86 -104.459 1814.26 -106.857 1817.21 -106.857C1820.17 -106.857 1822.57 -104.459 1822.57 -101.5Z" fill="#9CBFFF"/>
<path d="M1854.71 -101.5C1854.71 -98.5413 1852.32 -96.1429 1849.36 -96.1429C1846.4 -96.1429 1844 -98.5413 1844 -101.5C1844 -104.459 1846.4 -106.857 1849.36 -106.857C1852.32 -106.857 1854.71 -104.459 1854.71 -101.5Z" fill="#9CBFFF"/>
<path d="M1661.86 -69.3571C1661.86 -66.3985 1659.46 -64 1656.5 -64C1653.54 -64 1651.14 -66.3985 1651.14 -69.3571C1651.14 -72.3158 1653.54 -74.7143 1656.5 -74.7143C1659.46 -74.7143 1661.86 -72.3158 1661.86 -69.3571Z" fill="#9CBFFF"/>
<path d="M1694 -69.3571C1694 -66.3985 1691.6 -64 1688.64 -64C1685.68 -64 1683.29 -66.3985 1683.29 -69.3571C1683.29 -72.3158 1685.68 -74.7143 1688.64 -74.7143C1691.6 -74.7143 1694 -72.3158 1694 -69.3571Z" fill="#9CBFFF"/>
<path d="M1726.14 -69.3571C1726.14 -66.3985 1723.74 -64 1720.79 -64C1717.83 -64 1715.43 -66.3985 1715.43 -69.3571C1715.43 -72.3158 1717.83 -74.7143 1720.79 -74.7143C1723.74 -74.7143 1726.14 -72.3158 1726.14 -69.3571Z" fill="#9CBFFF"/>
<path d="M1758.29 -69.3571C1758.29 -66.3985 1755.89 -64 1752.93 -64C1749.97 -64 1747.57 -66.3985 1747.57 -69.3571C1747.57 -72.3158 1749.97 -74.7143 1752.93 -74.7143C1755.89 -74.7143 1758.29 -72.3158 1758.29 -69.3571Z" fill="#9CBFFF"/>
<path d="M1790.43 -69.3571C1790.43 -66.3985 1788.03 -64 1785.07 -64C1782.11 -64 1779.71 -66.3985 1779.71 -69.3571C1779.71 -72.3158 1782.11 -74.7143 1785.07 -74.7143C1788.03 -74.7143 1790.43 -72.3158 1790.43 -69.3571Z" fill="#9CBFFF"/>
<path d="M1822.57 -69.3571C1822.57 -66.3985 1820.17 -64 1817.21 -64C1814.26 -64 1811.86 -66.3985 1811.86 -69.3571C1811.86 -72.3158 1814.26 -74.7143 1817.21 -74.7143C1820.17 -74.7143 1822.57 -72.3158 1822.57 -69.3571Z" fill="#9CBFFF"/>
<path d="M1854.71 -69.3571C1854.71 -66.3985 1852.32 -64 1849.36 -64C1846.4 -64 1844 -66.3985 1844 -69.3571C1844 -72.3158 1846.4 -74.7143 1849.36 -74.7143C1852.32 -74.7143 1854.71 -72.3158 1854.71 -69.3571Z" fill="#9CBFFF"/>
<path d="M1886.86 -69.3571C1886.86 -66.3985 1884.46 -64 1881.5 -64C1878.54 -64 1876.14 -66.3985 1876.14 -69.3571C1876.14 -72.3158 1878.54 -74.7143 1881.5 -74.7143C1884.46 -74.7143 1886.86 -72.3158 1886.86 -69.3571Z" fill="#9CBFFF"/>
<path d="M1629.71 -37.2143C1629.71 -34.2556 1627.32 -31.8571 1624.36 -31.8571C1621.4 -31.8571 1619 -34.2556 1619 -37.2143C1619 -40.173 1621.4 -42.5714 1624.36 -42.5714C1627.32 -42.5714 1629.71 -40.173 1629.71 -37.2143Z" fill="#9CBFFF"/>
<path d="M1661.86 -37.2143C1661.86 -34.2556 1659.46 -31.8571 1656.5 -31.8571C1653.54 -31.8571 1651.14 -34.2556 1651.14 -37.2143C1651.14 -40.173 1653.54 -42.5714 1656.5 -42.5714C1659.46 -42.5714 1661.86 -40.173 1661.86 -37.2143Z" fill="#9CBFFF"/>
<path d="M1694 -37.2143C1694 -34.2556 1691.6 -31.8571 1688.64 -31.8571C1685.68 -31.8571 1683.29 -34.2556 1683.29 -37.2143C1683.29 -40.173 1685.68 -42.5714 1688.64 -42.5714C1691.6 -42.5714 1694 -40.173 1694 -37.2143Z" fill="#9CBFFF"/>
<path d="M1726.14 -37.2143C1726.14 -34.2556 1723.74 -31.8571 1720.79 -31.8571C1717.83 -31.8571 1715.43 -34.2556 1715.43 -37.2143C1715.43 -40.173 1717.83 -42.5714 1720.79 -42.5714C1723.74 -42.5714 1726.14 -40.173 1726.14 -37.2143Z" fill="#9CBFFF"/>
<path d="M1758.29 -37.2143C1758.29 -34.2556 1755.89 -31.8571 1752.93 -31.8571C1749.97 -31.8571 1747.57 -34.2556 1747.57 -37.2143C1747.57 -40.173 1749.97 -42.5714 1752.93 -42.5714C1755.89 -42.5714 1758.29 -40.173 1758.29 -37.2143Z" fill="#9CBFFF"/>
<path d="M1790.43 -37.2143C1790.43 -34.2556 1788.03 -31.8571 1785.07 -31.8571C1782.11 -31.8571 1779.71 -34.2556 1779.71 -37.2143C1779.71 -40.173 1782.11 -42.5714 1785.07 -42.5714C1788.03 -42.5714 1790.43 -40.173 1790.43 -37.2143Z" fill="#9CBFFF"/>
<path d="M1822.57 -37.2143C1822.57 -34.2556 1820.17 -31.8571 1817.21 -31.8571C1814.26 -31.8571 1811.86 -34.2556 1811.86 -37.2143C1811.86 -40.173 1814.26 -42.5714 1817.21 -42.5714C1820.17 -42.5714 1822.57 -40.173 1822.57 -37.2143Z" fill="#9CBFFF"/>
<path d="M1854.71 -37.2143C1854.71 -34.2556 1852.32 -31.8571 1849.36 -31.8571C1846.4 -31.8571 1844 -34.2556 1844 -37.2143C1844 -40.173 1846.4 -42.5714 1849.36 -42.5714C1852.32 -42.5714 1854.71 -40.173 1854.71 -37.2143Z" fill="#9CBFFF"/>
<path d="M1886.86 -37.2143C1886.86 -34.2556 1884.46 -31.8571 1881.5 -31.8571C1878.54 -31.8571 1876.14 -34.2556 1876.14 -37.2143C1876.14 -40.173 1878.54 -42.5714 1881.5 -42.5714C1884.46 -42.5714 1886.86 -40.173 1886.86 -37.2143Z" fill="#9CBFFF"/>
<path d="M1919 -37.2143C1919 -34.2556 1916.6 -31.8571 1913.64 -31.8571C1910.68 -31.8571 1908.29 -34.2556 1908.29 -37.2143C1908.29 -40.173 1910.68 -42.5714 1913.64 -42.5714C1916.6 -42.5714 1919 -40.173 1919 -37.2143Z" fill="#9CBFFF"/>
<path d="M1629.71 -5.07143C1629.71 -2.11276 1627.32 0.285721 1624.36 0.285721C1621.4 0.285721 1619 -2.11276 1619 -5.07143C1619 -8.03009 1621.4 -10.4286 1624.36 -10.4286C1627.32 -10.4286 1629.71 -8.03009 1629.71 -5.07143Z" fill="#9CBFFF"/>
<path d="M1661.86 -5.07143C1661.86 -2.11276 1659.46 0.285721 1656.5 0.285721C1653.54 0.285721 1651.14 -2.11276 1651.14 -5.07143C1651.14 -8.03009 1653.54 -10.4286 1656.5 -10.4286C1659.46 -10.4286 1661.86 -8.03009 1661.86 -5.07143Z" fill="#9CBFFF"/>
<path d="M1694 -5.07143C1694 -2.11276 1691.6 0.285721 1688.64 0.285721C1685.68 0.285721 1683.29 -2.11276 1683.29 -5.07143C1683.29 -8.03009 1685.68 -10.4286 1688.64 -10.4286C1691.6 -10.4286 1694 -8.03009 1694 -5.07143Z" fill="#9CBFFF"/>
<path d="M1726.14 -5.07143C1726.14 -2.11276 1723.74 0.285721 1720.79 0.285721C1717.83 0.285721 1715.43 -2.11276 1715.43 -5.07143C1715.43 -8.03009 1717.83 -10.4286 1720.79 -10.4286C1723.74 -10.4286 1726.14 -8.03009 1726.14 -5.07143Z" fill="#9CBFFF"/>
<path d="M1758.29 -5.07143C1758.29 -2.11276 1755.89 0.285721 1752.93 0.285721C1749.97 0.285721 1747.57 -2.11276 1747.57 -5.07143C1747.57 -8.03009 1749.97 -10.4286 1752.93 -10.4286C1755.89 -10.4286 1758.29 -8.03009 1758.29 -5.07143Z" fill="#9CBFFF"/>
<path d="M1790.43 -5.07143C1790.43 -2.11276 1788.03 0.285721 1785.07 0.285721C1782.11 0.285721 1779.71 -2.11276 1779.71 -5.07143C1779.71 -8.03009 1782.11 -10.4286 1785.07 -10.4286C1788.03 -10.4286 1790.43 -8.03009 1790.43 -5.07143Z" fill="#9CBFFF"/>
<path d="M1822.57 -5.07143C1822.57 -2.11276 1820.17 0.285721 1817.21 0.285721C1814.26 0.285721 1811.86 -2.11276 1811.86 -5.07143C1811.86 -8.03009 1814.26 -10.4286 1817.21 -10.4286C1820.17 -10.4286 1822.57 -8.03009 1822.57 -5.07143Z" fill="#9CBFFF"/>
<path d="M1854.71 -5.07143C1854.71 -2.11276 1852.32 0.285721 1849.36 0.285721C1846.4 0.285721 1844 -2.11276 1844 -5.07143C1844 -8.03009 1846.4 -10.4286 1849.36 -10.4286C1852.32 -10.4286 1854.71 -8.03009 1854.71 -5.07143Z" fill="#9CBFFF"/>
<path d="M1886.86 -5.07143C1886.86 -2.11276 1884.46 0.285721 1881.5 0.285721C1878.54 0.285721 1876.14 -2.11276 1876.14 -5.07143C1876.14 -8.03009 1878.54 -10.4286 1881.5 -10.4286C1884.46 -10.4286 1886.86 -8.03009 1886.86 -5.07143Z" fill="#9CBFFF"/>
<path d="M1919 -5.07143C1919 -2.11276 1916.6 0.285721 1913.64 0.285721C1910.68 0.285721 1908.29 -2.11276 1908.29 -5.07143C1908.29 -8.03009 1910.68 -10.4286 1913.64 -10.4286C1916.6 -10.4286 1919 -8.03009 1919 -5.07143Z" fill="#9CBFFF"/>
<path d="M1629.71 27.0714C1629.71 30.0301 1627.32 32.4286 1624.36 32.4286C1621.4 32.4286 1619 30.0301 1619 27.0714C1619 24.1128 1621.4 21.7143 1624.36 21.7143C1627.32 21.7143 1629.71 24.1128 1629.71 27.0714Z" fill="#9CBFFF"/>
<path d="M1661.86 27.0714C1661.86 30.0301 1659.46 32.4286 1656.5 32.4286C1653.54 32.4286 1651.14 30.0301 1651.14 27.0714C1651.14 24.1128 1653.54 21.7143 1656.5 21.7143C1659.46 21.7143 1661.86 24.1128 1661.86 27.0714Z" fill="#9CBFFF"/>
<path d="M1694 27.0714C1694 30.0301 1691.6 32.4286 1688.64 32.4286C1685.68 32.4286 1683.29 30.0301 1683.29 27.0714C1683.29 24.1128 1685.68 21.7143 1688.64 21.7143C1691.6 21.7143 1694 24.1128 1694 27.0714Z" fill="#9CBFFF"/>
<path d="M1726.14 27.0714C1726.14 30.0301 1723.74 32.4286 1720.79 32.4286C1717.83 32.4286 1715.43 30.0301 1715.43 27.0714C1715.43 24.1128 1717.83 21.7143 1720.79 21.7143C1723.74 21.7143 1726.14 24.1128 1726.14 27.0714Z" fill="#9CBFFF"/>
<path d="M1758.29 27.0714C1758.29 30.0301 1755.89 32.4286 1752.93 32.4286C1749.97 32.4286 1747.57 30.0301 1747.57 27.0714C1747.57 24.1128 1749.97 21.7143 1752.93 21.7143C1755.89 21.7143 1758.29 24.1128 1758.29 27.0714Z" fill="#9CBFFF"/>
<path d="M1790.43 27.0714C1790.43 30.0301 1788.03 32.4286 1785.07 32.4286C1782.11 32.4286 1779.71 30.0301 1779.71 27.0714C1779.71 24.1128 1782.11 21.7143 1785.07 21.7143C1788.03 21.7143 1790.43 24.1128 1790.43 27.0714Z" fill="#9CBFFF"/>
<path d="M1822.57 27.0714C1822.57 30.0301 1820.17 32.4286 1817.21 32.4286C1814.26 32.4286 1811.86 30.0301 1811.86 27.0714C1811.86 24.1128 1814.26 21.7143 1817.21 21.7143C1820.17 21.7143 1822.57 24.1128 1822.57 27.0714Z" fill="#9CBFFF"/>
<path d="M1854.71 27.0714C1854.71 30.0301 1852.32 32.4286 1849.36 32.4286C1846.4 32.4286 1844 30.0301 1844 27.0714C1844 24.1128 1846.4 21.7143 1849.36 21.7143C1852.32 21.7143 1854.71 24.1128 1854.71 27.0714Z" fill="#9CBFFF"/>
<path d="M1886.86 27.0714C1886.86 30.0301 1884.46 32.4286 1881.5 32.4286C1878.54 32.4286 1876.14 30.0301 1876.14 27.0714C1876.14 24.1128 1878.54 21.7143 1881.5 21.7143C1884.46 21.7143 1886.86 24.1128 1886.86 27.0714Z" fill="#9CBFFF"/>
<path d="M1919 27.0714C1919 30.0301 1916.6 32.4286 1913.64 32.4286C1910.68 32.4286 1908.29 30.0301 1908.29 27.0714C1908.29 24.1128 1910.68 21.7143 1913.64 21.7143C1916.6 21.7143 1919 24.1128 1919 27.0714Z" fill="#9CBFFF"/>
<path d="M1629.71 59.2143C1629.71 62.173 1627.32 64.5714 1624.36 64.5714C1621.4 64.5714 1619 62.173 1619 59.2143C1619 56.2556 1621.4 53.8571 1624.36 53.8571C1627.32 53.8571 1629.71 56.2556 1629.71 59.2143Z" fill="#9CBFFF"/>
<path d="M1661.86 59.2143C1661.86 62.173 1659.46 64.5714 1656.5 64.5714C1653.54 64.5714 1651.14 62.173 1651.14 59.2143C1651.14 56.2556 1653.54 53.8571 1656.5 53.8571C1659.46 53.8571 1661.86 56.2556 1661.86 59.2143Z" fill="#9CBFFF"/>
<path d="M1694 59.2143C1694 62.173 1691.6 64.5714 1688.64 64.5714C1685.68 64.5714 1683.29 62.173 1683.29 59.2143C1683.29 56.2556 1685.68 53.8571 1688.64 53.8571C1691.6 53.8571 1694 56.2556 1694 59.2143Z" fill="#9CBFFF"/>
<path d="M1726.14 59.2143C1726.14 62.173 1723.74 64.5714 1720.79 64.5714C1717.83 64.5714 1715.43 62.173 1715.43 59.2143C1715.43 56.2556 1717.83 53.8571 1720.79 53.8571C1723.74 53.8571 1726.14 56.2556 1726.14 59.2143Z" fill="#9CBFFF"/>
<path d="M1758.29 59.2143C1758.29 62.173 1755.89 64.5714 1752.93 64.5714C1749.97 64.5714 1747.57 62.173 1747.57 59.2143C1747.57 56.2556 1749.97 53.8571 1752.93 53.8571C1755.89 53.8571 1758.29 56.2556 1758.29 59.2143Z" fill="#9CBFFF"/>
<path d="M1790.43 59.2143C1790.43 62.173 1788.03 64.5714 1785.07 64.5714C1782.11 64.5714 1779.71 62.173 1779.71 59.2143C1779.71 56.2556 1782.11 53.8571 1785.07 53.8571C1788.03 53.8571 1790.43 56.2556 1790.43 59.2143Z" fill="#9CBFFF"/>
<path d="M1822.57 59.2143C1822.57 62.173 1820.17 64.5714 1817.21 64.5714C1814.26 64.5714 1811.86 62.173 1811.86 59.2143C1811.86 56.2556 1814.26 53.8571 1817.21 53.8571C1820.17 53.8571 1822.57 56.2556 1822.57 59.2143Z" fill="#9CBFFF"/>
<path d="M1854.71 59.2143C1854.71 62.173 1852.32 64.5714 1849.36 64.5714C1846.4 64.5714 1844 62.173 1844 59.2143C1844 56.2556 1846.4 53.8571 1849.36 53.8571C1852.32 53.8571 1854.71 56.2556 1854.71 59.2143Z" fill="#9CBFFF"/>
<path d="M1886.86 59.2143C1886.86 62.173 1884.46 64.5714 1881.5 64.5714C1878.54 64.5714 1876.14 62.173 1876.14 59.2143C1876.14 56.2556 1878.54 53.8571 1881.5 53.8571C1884.46 53.8571 1886.86 56.2556 1886.86 59.2143Z" fill="#9CBFFF"/>
<path d="M1919 59.2143C1919 62.173 1916.6 64.5714 1913.64 64.5714C1910.68 64.5714 1908.29 62.173 1908.29 59.2143C1908.29 56.2556 1910.68 53.8571 1913.64 53.8571C1916.6 53.8571 1919 56.2556 1919 59.2143Z" fill="#9CBFFF"/>
<path d="M1661.86 91.3571C1661.86 94.3158 1659.46 96.7143 1656.5 96.7143C1653.54 96.7143 1651.14 94.3158 1651.14 91.3571C1651.14 88.3985 1653.54 86 1656.5 86C1659.46 86 1661.86 88.3985 1661.86 91.3571Z" fill="#9CBFFF"/>
<path d="M1694 91.3571C1694 94.3158 1691.6 96.7143 1688.64 96.7143C1685.68 96.7143 1683.29 94.3158 1683.29 91.3571C1683.29 88.3985 1685.68 86 1688.64 86C1691.6 86 1694 88.3985 1694 91.3571Z" fill="#9CBFFF"/>
<path d="M1726.14 91.3571C1726.14 94.3158 1723.74 96.7143 1720.79 96.7143C1717.83 96.7143 1715.43 94.3158 1715.43 91.3571C1715.43 88.3985 1717.83 86 1720.79 86C1723.74 86 1726.14 88.3985 1726.14 91.3571Z" fill="#9CBFFF"/>
<path d="M1758.29 91.3571C1758.29 94.3158 1755.89 96.7143 1752.93 96.7143C1749.97 96.7143 1747.57 94.3158 1747.57 91.3571C1747.57 88.3985 1749.97 86 1752.93 86C1755.89 86 1758.29 88.3985 1758.29 91.3571Z" fill="#9CBFFF"/>
<path d="M1790.43 91.3571C1790.43 94.3158 1788.03 96.7143 1785.07 96.7143C1782.11 96.7143 1779.71 94.3158 1779.71 91.3571C1779.71 88.3985 1782.11 86 1785.07 86C1788.03 86 1790.43 88.3985 1790.43 91.3571Z" fill="#9CBFFF"/>
<path d="M1822.57 91.3571C1822.57 94.3158 1820.17 96.7143 1817.21 96.7143C1814.26 96.7143 1811.86 94.3158 1811.86 91.3571C1811.86 88.3985 1814.26 86 1817.21 86C1820.17 86 1822.57 88.3985 1822.57 91.3571Z" fill="#9CBFFF"/>
<path d="M1854.71 91.3571C1854.71 94.3158 1852.32 96.7143 1849.36 96.7143C1846.4 96.7143 1844 94.3158 1844 91.3571C1844 88.3985 1846.4 86 1849.36 86C1852.32 86 1854.71 88.3985 1854.71 91.3571Z" fill="#9CBFFF"/>
<path d="M1886.86 91.3571C1886.86 94.3158 1884.46 96.7143 1881.5 96.7143C1878.54 96.7143 1876.14 94.3158 1876.14 91.3571C1876.14 88.3985 1878.54 86 1881.5 86C1884.46 86 1886.86 88.3985 1886.86 91.3571Z" fill="#9CBFFF"/>
<path d="M1694 123.5C1694 126.459 1691.6 128.857 1688.64 128.857C1685.68 128.857 1683.29 126.459 1683.29 123.5C1683.29 120.541 1685.68 118.143 1688.64 118.143C1691.6 118.143 1694 120.541 1694 123.5Z" fill="#9CBFFF"/>
<path d="M1726.14 123.5C1726.14 126.459 1723.74 128.857 1720.79 128.857C1717.83 128.857 1715.43 126.459 1715.43 123.5C1715.43 120.541 1717.83 118.143 1720.79 118.143C1723.74 118.143 1726.14 120.541 1726.14 123.5Z" fill="#9CBFFF"/>
<path d="M1758.29 123.5C1758.29 126.459 1755.89 128.857 1752.93 128.857C1749.97 128.857 1747.57 126.459 1747.57 123.5C1747.57 120.541 1749.97 118.143 1752.93 118.143C1755.89 118.143 1758.29 120.541 1758.29 123.5Z" fill="#9CBFFF"/>
<path d="M1790.43 123.5C1790.43 126.459 1788.03 128.857 1785.07 128.857C1782.11 128.857 1779.71 126.459 1779.71 123.5C1779.71 120.541 1782.11 118.143 1785.07 118.143C1788.03 118.143 1790.43 120.541 1790.43 123.5Z" fill="#9CBFFF"/>
<path d="M1822.57 123.5C1822.57 126.459 1820.17 128.857 1817.21 128.857C1814.26 128.857 1811.86 126.459 1811.86 123.5C1811.86 120.541 1814.26 118.143 1817.21 118.143C1820.17 118.143 1822.57 120.541 1822.57 123.5Z" fill="#9CBFFF"/>
<path d="M1854.71 123.5C1854.71 126.459 1852.32 128.857 1849.36 128.857C1846.4 128.857 1844 126.459 1844 123.5C1844 120.541 1846.4 118.143 1849.36 118.143C1852.32 118.143 1854.71 120.541 1854.71 123.5Z" fill="#9CBFFF"/>
<path d="M1726.14 155.643C1726.14 158.602 1723.74 161 1720.79 161C1717.83 161 1715.43 158.602 1715.43 155.643C1715.43 152.684 1717.83 150.286 1720.79 150.286C1723.74 150.286 1726.14 152.684 1726.14 155.643Z" fill="#9CBFFF"/>
<path d="M1758.29 155.643C1758.29 158.602 1755.89 161 1752.93 161C1749.97 161 1747.57 158.602 1747.57 155.643C1747.57 152.684 1749.97 150.286 1752.93 150.286C1755.89 150.286 1758.29 152.684 1758.29 155.643Z" fill="#9CBFFF"/>
<path d="M1790.43 155.643C1790.43 158.602 1788.03 161 1785.07 161C1782.11 161 1779.71 158.602 1779.71 155.643C1779.71 152.684 1782.11 150.286 1785.07 150.286C1788.03 150.286 1790.43 152.684 1790.43 155.643Z" fill="#9CBFFF"/>
<path d="M1822.57 155.643C1822.57 158.602 1820.17 161 1817.21 161C1814.26 161 1811.86 158.602 1811.86 155.643C1811.86 152.684 1814.26 150.286 1817.21 150.286C1820.17 150.286 1822.57 152.684 1822.57 155.643Z" fill="#9CBFFF"/>
</g>
<defs>
<clipPath id="clip0_215_2220">
<rect width="1919" height="433" fill="white"/>
</clipPath>
</defs>
</svg>
