<svg width="1919" height="396" viewBox="0 0 1919 396" fill="none" xmlns="http://www.w3.org/2000/svg">
<g clip-path="url(#clip0_143_2010)">
<rect width="1919" height="396" fill="url(#paint0_linear_143_2010)"/>
<path d="M584.287 315.77C585.118 317.209 585.927 318.662 586.714 320.129C585.285 319.194 584.33 317.595 584.287 315.77Z" fill="white" fill-opacity="0.34"/>
<path d="M554.954 278.785C557.451 281.128 559.872 283.549 562.215 286.046C561.309 287.72 559.537 288.857 557.5 288.857C554.541 288.857 552.143 286.459 552.143 283.5C552.143 281.463 553.28 279.691 554.954 278.785Z" fill="white" fill-opacity="0.34"/>
<path d="M520.871 254.286C522.338 255.073 523.791 255.882 525.23 256.713C523.405 256.67 521.806 255.715 520.871 254.286Z" fill="white" fill-opacity="0.34"/>
<path d="M364.77 256.713C366.209 255.882 367.662 255.073 369.129 254.286C368.194 255.715 366.595 256.67 364.77 256.713Z" fill="white" fill-opacity="0.34"/>
<path d="M327.785 286.046C330.128 283.549 332.549 281.128 335.046 278.785C336.72 279.691 337.857 281.463 337.857 283.5C337.857 286.459 335.459 288.857 332.5 288.857C330.463 288.857 328.691 287.72 327.785 286.046Z" fill="white" fill-opacity="0.34"/>
<path d="M303.286 320.129C304.073 318.662 304.882 317.209 305.713 315.77C305.67 317.595 304.715 319.194 303.286 320.129Z" fill="white" fill-opacity="0.34"/>
<path d="M586.714 471.871C585.927 473.338 585.118 474.791 584.287 476.23C584.33 474.405 585.285 472.806 586.714 471.871Z" fill="white" fill-opacity="0.34"/>
<path d="M562.215 505.954C561.309 504.28 559.537 503.143 557.5 503.143C554.541 503.143 552.143 505.541 552.143 508.5C552.143 510.537 553.28 512.309 554.954 513.215C557.451 510.872 559.872 508.451 562.215 505.954Z" fill="white" fill-opacity="0.34"/>
<path d="M525.23 535.287C523.405 535.33 521.806 536.285 520.871 537.714C522.338 536.927 523.791 536.118 525.23 535.287Z" fill="white" fill-opacity="0.34"/>
<path d="M369.129 537.714C368.194 536.285 366.595 535.33 364.77 535.287C366.209 536.118 367.662 536.927 369.129 537.714Z" fill="white" fill-opacity="0.34"/>
<path d="M335.046 513.215C336.72 512.309 337.857 510.537 337.857 508.5C337.857 505.541 335.459 503.143 332.5 503.143C330.463 503.143 328.691 504.28 327.785 505.954C330.128 508.451 332.549 510.872 335.046 513.215Z" fill="white" fill-opacity="0.34"/>
<path d="M305.713 476.23C305.67 474.405 304.715 472.806 303.286 471.871C304.073 473.338 304.882 474.791 305.713 476.23Z" fill="white" fill-opacity="0.34"/>
<path d="M402.143 251.357C402.143 254.316 399.744 256.714 396.786 256.714C393.827 256.714 391.429 254.316 391.429 251.357C391.429 248.398 393.827 246 396.786 246C399.744 246 402.143 248.398 402.143 251.357Z" fill="white" fill-opacity="0.34"/>
<path d="M434.286 251.357C434.286 254.316 431.887 256.714 428.929 256.714C425.97 256.714 423.571 254.316 423.571 251.357C423.571 248.398 425.97 246 428.929 246C431.887 246 434.286 248.398 434.286 251.357Z" fill="white" fill-opacity="0.34"/>
<path d="M466.429 251.357C466.429 254.316 464.03 256.714 461.071 256.714C458.113 256.714 455.714 254.316 455.714 251.357C455.714 248.398 458.113 246 461.071 246C464.03 246 466.429 248.398 466.429 251.357Z" fill="white" fill-opacity="0.34"/>
<path d="M498.571 251.357C498.571 254.316 496.173 256.714 493.214 256.714C490.256 256.714 487.857 254.316 487.857 251.357C487.857 248.398 490.256 246 493.214 246C496.173 246 498.571 248.398 498.571 251.357Z" fill="white" fill-opacity="0.34"/>
<path d="M370 283.5C370 286.459 367.602 288.857 364.643 288.857C361.684 288.857 359.286 286.459 359.286 283.5C359.286 280.541 361.684 278.143 364.643 278.143C367.602 278.143 370 280.541 370 283.5Z" fill="white" fill-opacity="0.34"/>
<path d="M402.143 283.5C402.143 286.459 399.744 288.857 396.786 288.857C393.827 288.857 391.429 286.459 391.429 283.5C391.429 280.541 393.827 278.143 396.786 278.143C399.744 278.143 402.143 280.541 402.143 283.5Z" fill="white" fill-opacity="0.34"/>
<path d="M434.286 283.5C434.286 286.459 431.887 288.857 428.929 288.857C425.97 288.857 423.571 286.459 423.571 283.5C423.571 280.541 425.97 278.143 428.929 278.143C431.887 278.143 434.286 280.541 434.286 283.5Z" fill="white" fill-opacity="0.34"/>
<path d="M466.429 283.5C466.429 286.459 464.03 288.857 461.071 288.857C458.113 288.857 455.714 286.459 455.714 283.5C455.714 280.541 458.113 278.143 461.071 278.143C464.03 278.143 466.429 280.541 466.429 283.5Z" fill="white" fill-opacity="0.34"/>
<path d="M498.571 283.5C498.571 286.459 496.173 288.857 493.214 288.857C490.256 288.857 487.857 286.459 487.857 283.5C487.857 280.541 490.256 278.143 493.214 278.143C496.173 278.143 498.571 280.541 498.571 283.5Z" fill="white" fill-opacity="0.34"/>
<path d="M530.714 283.5C530.714 286.459 528.316 288.857 525.357 288.857C522.398 288.857 520 286.459 520 283.5C520 280.541 522.398 278.143 525.357 278.143C528.316 278.143 530.714 280.541 530.714 283.5Z" fill="white" fill-opacity="0.34"/>
<path d="M337.857 315.643C337.857 318.602 335.459 321 332.5 321C329.541 321 327.143 318.602 327.143 315.643C327.143 312.684 329.541 310.286 332.5 310.286C335.459 310.286 337.857 312.684 337.857 315.643Z" fill="white" fill-opacity="0.34"/>
<path d="M370 315.643C370 318.602 367.602 321 364.643 321C361.684 321 359.286 318.602 359.286 315.643C359.286 312.684 361.684 310.286 364.643 310.286C367.602 310.286 370 312.684 370 315.643Z" fill="white" fill-opacity="0.34"/>
<path d="M402.143 315.643C402.143 318.602 399.744 321 396.786 321C393.827 321 391.429 318.602 391.429 315.643C391.429 312.684 393.827 310.286 396.786 310.286C399.744 310.286 402.143 312.684 402.143 315.643Z" fill="white" fill-opacity="0.34"/>
<path d="M434.286 315.643C434.286 318.602 431.887 321 428.929 321C425.97 321 423.571 318.602 423.571 315.643C423.571 312.684 425.97 310.286 428.929 310.286C431.887 310.286 434.286 312.684 434.286 315.643Z" fill="white" fill-opacity="0.34"/>
<path d="M466.429 315.643C466.429 318.602 464.03 321 461.071 321C458.113 321 455.714 318.602 455.714 315.643C455.714 312.684 458.113 310.286 461.071 310.286C464.03 310.286 466.429 312.684 466.429 315.643Z" fill="white" fill-opacity="0.34"/>
<path d="M498.571 315.643C498.571 318.602 496.173 321 493.214 321C490.256 321 487.857 318.602 487.857 315.643C487.857 312.684 490.256 310.286 493.214 310.286C496.173 310.286 498.571 312.684 498.571 315.643Z" fill="white" fill-opacity="0.34"/>
<path d="M530.714 315.643C530.714 318.602 528.316 321 525.357 321C522.398 321 520 318.602 520 315.643C520 312.684 522.398 310.286 525.357 310.286C528.316 310.286 530.714 312.684 530.714 315.643Z" fill="white" fill-opacity="0.34"/>
<path d="M562.857 315.643C562.857 318.602 560.459 321 557.5 321C554.541 321 552.143 318.602 552.143 315.643C552.143 312.684 554.541 310.286 557.5 310.286C560.459 310.286 562.857 312.684 562.857 315.643Z" fill="white" fill-opacity="0.34"/>
<path d="M305.714 347.786C305.714 350.744 303.316 353.143 300.357 353.143C297.398 353.143 295 350.744 295 347.786C295 344.827 297.398 342.429 300.357 342.429C303.316 342.429 305.714 344.827 305.714 347.786Z" fill="white" fill-opacity="0.34"/>
<path d="M337.857 347.786C337.857 350.744 335.459 353.143 332.5 353.143C329.541 353.143 327.143 350.744 327.143 347.786C327.143 344.827 329.541 342.429 332.5 342.429C335.459 342.429 337.857 344.827 337.857 347.786Z" fill="white" fill-opacity="0.34"/>
<path d="M370 347.786C370 350.744 367.602 353.143 364.643 353.143C361.684 353.143 359.286 350.744 359.286 347.786C359.286 344.827 361.684 342.429 364.643 342.429C367.602 342.429 370 344.827 370 347.786Z" fill="white" fill-opacity="0.34"/>
<path d="M402.143 347.786C402.143 350.744 399.744 353.143 396.786 353.143C393.827 353.143 391.429 350.744 391.429 347.786C391.429 344.827 393.827 342.429 396.786 342.429C399.744 342.429 402.143 344.827 402.143 347.786Z" fill="white" fill-opacity="0.34"/>
<path d="M434.286 347.786C434.286 350.744 431.887 353.143 428.929 353.143C425.97 353.143 423.571 350.744 423.571 347.786C423.571 344.827 425.97 342.429 428.929 342.429C431.887 342.429 434.286 344.827 434.286 347.786Z" fill="white" fill-opacity="0.34"/>
<path d="M466.429 347.786C466.429 350.744 464.03 353.143 461.071 353.143C458.113 353.143 455.714 350.744 455.714 347.786C455.714 344.827 458.113 342.429 461.071 342.429C464.03 342.429 466.429 344.827 466.429 347.786Z" fill="white" fill-opacity="0.34"/>
<path d="M498.571 347.786C498.571 350.744 496.173 353.143 493.214 353.143C490.256 353.143 487.857 350.744 487.857 347.786C487.857 344.827 490.256 342.429 493.214 342.429C496.173 342.429 498.571 344.827 498.571 347.786Z" fill="white" fill-opacity="0.34"/>
<path d="M530.714 347.786C530.714 350.744 528.316 353.143 525.357 353.143C522.398 353.143 520 350.744 520 347.786C520 344.827 522.398 342.429 525.357 342.429C528.316 342.429 530.714 344.827 530.714 347.786Z" fill="white" fill-opacity="0.34"/>
<path d="M562.857 347.786C562.857 350.744 560.459 353.143 557.5 353.143C554.541 353.143 552.143 350.744 552.143 347.786C552.143 344.827 554.541 342.429 557.5 342.429C560.459 342.429 562.857 344.827 562.857 347.786Z" fill="white" fill-opacity="0.34"/>
<path d="M595 347.786C595 350.744 592.602 353.143 589.643 353.143C586.684 353.143 584.286 350.744 584.286 347.786C584.286 344.827 586.684 342.429 589.643 342.429C592.602 342.429 595 344.827 595 347.786Z" fill="white" fill-opacity="0.34"/>
<path d="M305.714 379.929C305.714 382.887 303.316 385.286 300.357 385.286C297.398 385.286 295 382.887 295 379.929C295 376.97 297.398 374.571 300.357 374.571C303.316 374.571 305.714 376.97 305.714 379.929Z" fill="white" fill-opacity="0.34"/>
<path d="M337.857 379.929C337.857 382.887 335.459 385.286 332.5 385.286C329.541 385.286 327.143 382.887 327.143 379.929C327.143 376.97 329.541 374.571 332.5 374.571C335.459 374.571 337.857 376.97 337.857 379.929Z" fill="white" fill-opacity="0.34"/>
<path d="M370 379.929C370 382.887 367.602 385.286 364.643 385.286C361.684 385.286 359.286 382.887 359.286 379.929C359.286 376.97 361.684 374.571 364.643 374.571C367.602 374.571 370 376.97 370 379.929Z" fill="white" fill-opacity="0.34"/>
<path d="M402.143 379.929C402.143 382.887 399.744 385.286 396.786 385.286C393.827 385.286 391.429 382.887 391.429 379.929C391.429 376.97 393.827 374.571 396.786 374.571C399.744 374.571 402.143 376.97 402.143 379.929Z" fill="white" fill-opacity="0.34"/>
<path d="M434.286 379.929C434.286 382.887 431.887 385.286 428.929 385.286C425.97 385.286 423.571 382.887 423.571 379.929C423.571 376.97 425.97 374.571 428.929 374.571C431.887 374.571 434.286 376.97 434.286 379.929Z" fill="white" fill-opacity="0.34"/>
<path d="M466.429 379.929C466.429 382.887 464.03 385.286 461.071 385.286C458.113 385.286 455.714 382.887 455.714 379.929C455.714 376.97 458.113 374.571 461.071 374.571C464.03 374.571 466.429 376.97 466.429 379.929Z" fill="white" fill-opacity="0.34"/>
<path d="M498.571 379.929C498.571 382.887 496.173 385.286 493.214 385.286C490.256 385.286 487.857 382.887 487.857 379.929C487.857 376.97 490.256 374.571 493.214 374.571C496.173 374.571 498.571 376.97 498.571 379.929Z" fill="white" fill-opacity="0.34"/>
<path d="M530.714 379.929C530.714 382.887 528.316 385.286 525.357 385.286C522.398 385.286 520 382.887 520 379.929C520 376.97 522.398 374.571 525.357 374.571C528.316 374.571 530.714 376.97 530.714 379.929Z" fill="white" fill-opacity="0.34"/>
<path d="M562.857 379.929C562.857 382.887 560.459 385.286 557.5 385.286C554.541 385.286 552.143 382.887 552.143 379.929C552.143 376.97 554.541 374.571 557.5 374.571C560.459 374.571 562.857 376.97 562.857 379.929Z" fill="white" fill-opacity="0.34"/>
<path d="M595 379.929C595 382.887 592.602 385.286 589.643 385.286C586.684 385.286 584.286 382.887 584.286 379.929C584.286 376.97 586.684 374.571 589.643 374.571C592.602 374.571 595 376.97 595 379.929Z" fill="white" fill-opacity="0.34"/>
<path d="M305.714 412.071C305.714 415.03 303.316 417.429 300.357 417.429C297.398 417.429 295 415.03 295 412.071C295 409.113 297.398 406.714 300.357 406.714C303.316 406.714 305.714 409.113 305.714 412.071Z" fill="white" fill-opacity="0.34"/>
<path d="M337.857 412.071C337.857 415.03 335.459 417.429 332.5 417.429C329.541 417.429 327.143 415.03 327.143 412.071C327.143 409.113 329.541 406.714 332.5 406.714C335.459 406.714 337.857 409.113 337.857 412.071Z" fill="white" fill-opacity="0.34"/>
<path d="M370 412.071C370 415.03 367.602 417.429 364.643 417.429C361.684 417.429 359.286 415.03 359.286 412.071C359.286 409.113 361.684 406.714 364.643 406.714C367.602 406.714 370 409.113 370 412.071Z" fill="white" fill-opacity="0.34"/>
<path d="M402.143 412.071C402.143 415.03 399.744 417.429 396.786 417.429C393.827 417.429 391.429 415.03 391.429 412.071C391.429 409.113 393.827 406.714 396.786 406.714C399.744 406.714 402.143 409.113 402.143 412.071Z" fill="white" fill-opacity="0.34"/>
<path d="M434.286 412.071C434.286 415.03 431.887 417.429 428.929 417.429C425.97 417.429 423.571 415.03 423.571 412.071C423.571 409.113 425.97 406.714 428.929 406.714C431.887 406.714 434.286 409.113 434.286 412.071Z" fill="white" fill-opacity="0.34"/>
<path d="M466.429 412.071C466.429 415.03 464.03 417.429 461.071 417.429C458.113 417.429 455.714 415.03 455.714 412.071C455.714 409.113 458.113 406.714 461.071 406.714C464.03 406.714 466.429 409.113 466.429 412.071Z" fill="white" fill-opacity="0.34"/>
<path d="M498.571 412.071C498.571 415.03 496.173 417.429 493.214 417.429C490.256 417.429 487.857 415.03 487.857 412.071C487.857 409.113 490.256 406.714 493.214 406.714C496.173 406.714 498.571 409.113 498.571 412.071Z" fill="white" fill-opacity="0.34"/>
<path d="M530.714 412.071C530.714 415.03 528.316 417.429 525.357 417.429C522.398 417.429 520 415.03 520 412.071C520 409.113 522.398 406.714 525.357 406.714C528.316 406.714 530.714 409.113 530.714 412.071Z" fill="white" fill-opacity="0.34"/>
<path d="M562.857 412.071C562.857 415.03 560.459 417.429 557.5 417.429C554.541 417.429 552.143 415.03 552.143 412.071C552.143 409.113 554.541 406.714 557.5 406.714C560.459 406.714 562.857 409.113 562.857 412.071Z" fill="white" fill-opacity="0.34"/>
<path d="M595 412.071C595 415.03 592.602 417.429 589.643 417.429C586.684 417.429 584.286 415.03 584.286 412.071C584.286 409.113 586.684 406.714 589.643 406.714C592.602 406.714 595 409.113 595 412.071Z" fill="white" fill-opacity="0.34"/>
<path d="M305.714 444.214C305.714 447.173 303.316 449.571 300.357 449.571C297.398 449.571 295 447.173 295 444.214C295 441.256 297.398 438.857 300.357 438.857C303.316 438.857 305.714 441.256 305.714 444.214Z" fill="white" fill-opacity="0.34"/>
<path d="M337.857 444.214C337.857 447.173 335.459 449.571 332.5 449.571C329.541 449.571 327.143 447.173 327.143 444.214C327.143 441.256 329.541 438.857 332.5 438.857C335.459 438.857 337.857 441.256 337.857 444.214Z" fill="white" fill-opacity="0.34"/>
<path d="M370 444.214C370 447.173 367.602 449.571 364.643 449.571C361.684 449.571 359.286 447.173 359.286 444.214C359.286 441.256 361.684 438.857 364.643 438.857C367.602 438.857 370 441.256 370 444.214Z" fill="white" fill-opacity="0.34"/>
<path d="M402.143 444.214C402.143 447.173 399.744 449.571 396.786 449.571C393.827 449.571 391.429 447.173 391.429 444.214C391.429 441.256 393.827 438.857 396.786 438.857C399.744 438.857 402.143 441.256 402.143 444.214Z" fill="white" fill-opacity="0.34"/>
<path d="M434.286 444.214C434.286 447.173 431.887 449.571 428.929 449.571C425.97 449.571 423.571 447.173 423.571 444.214C423.571 441.256 425.97 438.857 428.929 438.857C431.887 438.857 434.286 441.256 434.286 444.214Z" fill="white" fill-opacity="0.34"/>
<path d="M466.429 444.214C466.429 447.173 464.03 449.571 461.071 449.571C458.113 449.571 455.714 447.173 455.714 444.214C455.714 441.256 458.113 438.857 461.071 438.857C464.03 438.857 466.429 441.256 466.429 444.214Z" fill="white" fill-opacity="0.34"/>
<path d="M498.571 444.214C498.571 447.173 496.173 449.571 493.214 449.571C490.256 449.571 487.857 447.173 487.857 444.214C487.857 441.256 490.256 438.857 493.214 438.857C496.173 438.857 498.571 441.256 498.571 444.214Z" fill="white" fill-opacity="0.34"/>
<path d="M530.714 444.214C530.714 447.173 528.316 449.571 525.357 449.571C522.398 449.571 520 447.173 520 444.214C520 441.256 522.398 438.857 525.357 438.857C528.316 438.857 530.714 441.256 530.714 444.214Z" fill="white" fill-opacity="0.34"/>
<path d="M562.857 444.214C562.857 447.173 560.459 449.571 557.5 449.571C554.541 449.571 552.143 447.173 552.143 444.214C552.143 441.256 554.541 438.857 557.5 438.857C560.459 438.857 562.857 441.256 562.857 444.214Z" fill="white" fill-opacity="0.34"/>
<path d="M595 444.214C595 447.173 592.602 449.571 589.643 449.571C586.684 449.571 584.286 447.173 584.286 444.214C584.286 441.256 586.684 438.857 589.643 438.857C592.602 438.857 595 441.256 595 444.214Z" fill="white" fill-opacity="0.34"/>
<path d="M337.857 476.357C337.857 479.316 335.459 481.714 332.5 481.714C329.541 481.714 327.143 479.316 327.143 476.357C327.143 473.398 329.541 471 332.5 471C335.459 471 337.857 473.398 337.857 476.357Z" fill="white" fill-opacity="0.34"/>
<path d="M370 476.357C370 479.316 367.602 481.714 364.643 481.714C361.684 481.714 359.286 479.316 359.286 476.357C359.286 473.398 361.684 471 364.643 471C367.602 471 370 473.398 370 476.357Z" fill="white" fill-opacity="0.34"/>
<path d="M402.143 476.357C402.143 479.316 399.744 481.714 396.786 481.714C393.827 481.714 391.429 479.316 391.429 476.357C391.429 473.398 393.827 471 396.786 471C399.744 471 402.143 473.398 402.143 476.357Z" fill="white" fill-opacity="0.34"/>
<path d="M434.286 476.357C434.286 479.316 431.887 481.714 428.929 481.714C425.97 481.714 423.571 479.316 423.571 476.357C423.571 473.398 425.97 471 428.929 471C431.887 471 434.286 473.398 434.286 476.357Z" fill="white" fill-opacity="0.34"/>
<path d="M466.429 476.357C466.429 479.316 464.03 481.714 461.071 481.714C458.113 481.714 455.714 479.316 455.714 476.357C455.714 473.398 458.113 471 461.071 471C464.03 471 466.429 473.398 466.429 476.357Z" fill="white" fill-opacity="0.34"/>
<path d="M498.571 476.357C498.571 479.316 496.173 481.714 493.214 481.714C490.256 481.714 487.857 479.316 487.857 476.357C487.857 473.398 490.256 471 493.214 471C496.173 471 498.571 473.398 498.571 476.357Z" fill="white" fill-opacity="0.34"/>
<path d="M530.714 476.357C530.714 479.316 528.316 481.714 525.357 481.714C522.398 481.714 520 479.316 520 476.357C520 473.398 522.398 471 525.357 471C528.316 471 530.714 473.398 530.714 476.357Z" fill="white" fill-opacity="0.34"/>
<path d="M562.857 476.357C562.857 479.316 560.459 481.714 557.5 481.714C554.541 481.714 552.143 479.316 552.143 476.357C552.143 473.398 554.541 471 557.5 471C560.459 471 562.857 473.398 562.857 476.357Z" fill="white" fill-opacity="0.34"/>
<path d="M370 508.5C370 511.459 367.602 513.857 364.643 513.857C361.684 513.857 359.286 511.459 359.286 508.5C359.286 505.541 361.684 503.143 364.643 503.143C367.602 503.143 370 505.541 370 508.5Z" fill="white" fill-opacity="0.34"/>
<path d="M402.143 508.5C402.143 511.459 399.744 513.857 396.786 513.857C393.827 513.857 391.429 511.459 391.429 508.5C391.429 505.541 393.827 503.143 396.786 503.143C399.744 503.143 402.143 505.541 402.143 508.5Z" fill="white" fill-opacity="0.34"/>
<path d="M434.286 508.5C434.286 511.459 431.887 513.857 428.929 513.857C425.97 513.857 423.571 511.459 423.571 508.5C423.571 505.541 425.97 503.143 428.929 503.143C431.887 503.143 434.286 505.541 434.286 508.5Z" fill="white" fill-opacity="0.34"/>
<path d="M466.429 508.5C466.429 511.459 464.03 513.857 461.071 513.857C458.113 513.857 455.714 511.459 455.714 508.5C455.714 505.541 458.113 503.143 461.071 503.143C464.03 503.143 466.429 505.541 466.429 508.5Z" fill="white" fill-opacity="0.34"/>
<path d="M498.571 508.5C498.571 511.459 496.173 513.857 493.214 513.857C490.256 513.857 487.857 511.459 487.857 508.5C487.857 505.541 490.256 503.143 493.214 503.143C496.173 503.143 498.571 505.541 498.571 508.5Z" fill="white" fill-opacity="0.34"/>
<path d="M530.714 508.5C530.714 511.459 528.316 513.857 525.357 513.857C522.398 513.857 520 511.459 520 508.5C520 505.541 522.398 503.143 525.357 503.143C528.316 503.143 530.714 505.541 530.714 508.5Z" fill="white" fill-opacity="0.34"/>
<path d="M402.143 540.643C402.143 543.602 399.744 546 396.786 546C393.827 546 391.429 543.602 391.429 540.643C391.429 537.684 393.827 535.286 396.786 535.286C399.744 535.286 402.143 537.684 402.143 540.643Z" fill="white" fill-opacity="0.34"/>
<path d="M434.286 540.643C434.286 543.602 431.887 546 428.929 546C425.97 546 423.571 543.602 423.571 540.643C423.571 537.684 425.97 535.286 428.929 535.286C431.887 535.286 434.286 537.684 434.286 540.643Z" fill="white" fill-opacity="0.34"/>
<path d="M466.429 540.643C466.429 543.602 464.03 546 461.071 546C458.113 546 455.714 543.602 455.714 540.643C455.714 537.684 458.113 535.286 461.071 535.286C464.03 535.286 466.429 537.684 466.429 540.643Z" fill="white" fill-opacity="0.34"/>
<path d="M498.571 540.643C498.571 543.602 496.173 546 493.214 546C490.256 546 487.857 543.602 487.857 540.643C487.857 537.684 490.256 535.286 493.214 535.286C496.173 535.286 498.571 537.684 498.571 540.643Z" fill="white" fill-opacity="0.34"/>
<path d="M1908.29 -69.2297C1909.12 -67.7907 1909.93 -66.3377 1910.71 -64.871C1909.28 -65.8058 1908.33 -67.4049 1908.29 -69.2297Z" fill="white" fill-opacity="0.34"/>
<path d="M1878.95 -106.215C1881.45 -103.872 1883.87 -101.451 1886.21 -98.9543C1885.31 -97.28 1883.54 -96.1429 1881.5 -96.1429C1878.54 -96.1429 1876.14 -98.5413 1876.14 -101.5C1876.14 -103.537 1877.28 -105.309 1878.95 -106.215Z" fill="white" fill-opacity="0.34"/>
<path d="M1844.87 -130.714C1846.34 -129.927 1847.79 -129.118 1849.23 -128.287C1847.4 -128.33 1845.81 -129.285 1844.87 -130.714Z" fill="white" fill-opacity="0.34"/>
<path d="M1688.77 -128.287C1690.21 -129.118 1691.66 -129.927 1693.13 -130.714C1692.19 -129.285 1690.6 -128.33 1688.77 -128.287Z" fill="white" fill-opacity="0.34"/>
<path d="M1651.79 -98.9543C1654.13 -101.451 1656.55 -103.872 1659.05 -106.215C1660.72 -105.309 1661.86 -103.537 1661.86 -101.5C1661.86 -98.5413 1659.46 -96.1429 1656.5 -96.1429C1654.46 -96.1429 1652.69 -97.28 1651.79 -98.9543Z" fill="white" fill-opacity="0.34"/>
<path d="M1627.29 -64.871C1628.07 -66.3377 1628.88 -67.7907 1629.71 -69.2297C1629.67 -67.4049 1628.72 -65.8058 1627.29 -64.871Z" fill="white" fill-opacity="0.34"/>
<path d="M1910.71 86.871C1909.93 88.3377 1909.12 89.7907 1908.29 91.2297C1908.33 89.4049 1909.28 87.8058 1910.71 86.871Z" fill="white" fill-opacity="0.34"/>
<path d="M1886.21 120.954C1885.31 119.28 1883.54 118.143 1881.5 118.143C1878.54 118.143 1876.14 120.541 1876.14 123.5C1876.14 125.537 1877.28 127.309 1878.95 128.215C1881.45 125.872 1883.87 123.451 1886.21 120.954Z" fill="white" fill-opacity="0.34"/>
<path d="M1849.23 150.287C1847.4 150.33 1845.81 151.285 1844.87 152.714C1846.34 151.927 1847.79 151.118 1849.23 150.287Z" fill="white" fill-opacity="0.34"/>
<path d="M1693.13 152.714C1692.19 151.285 1690.6 150.33 1688.77 150.287C1690.21 151.118 1691.66 151.927 1693.13 152.714Z" fill="white" fill-opacity="0.34"/>
<path d="M1659.05 128.215C1660.72 127.309 1661.86 125.537 1661.86 123.5C1661.86 120.541 1659.46 118.143 1656.5 118.143C1654.46 118.143 1652.69 119.28 1651.79 120.954C1654.13 123.451 1656.55 125.872 1659.05 128.215Z" fill="white" fill-opacity="0.34"/>
<path d="M1629.71 91.2297C1629.67 89.4049 1628.72 87.8058 1627.29 86.871C1628.07 88.3377 1628.88 89.7907 1629.71 91.2297Z" fill="white" fill-opacity="0.34"/>
<path d="M1726.14 -133.643C1726.14 -130.684 1723.74 -128.286 1720.79 -128.286C1717.83 -128.286 1715.43 -130.684 1715.43 -133.643C1715.43 -136.602 1717.83 -139 1720.79 -139C1723.74 -139 1726.14 -136.602 1726.14 -133.643Z" fill="white" fill-opacity="0.34"/>
<path d="M1758.29 -133.643C1758.29 -130.684 1755.89 -128.286 1752.93 -128.286C1749.97 -128.286 1747.57 -130.684 1747.57 -133.643C1747.57 -136.602 1749.97 -139 1752.93 -139C1755.89 -139 1758.29 -136.602 1758.29 -133.643Z" fill="white" fill-opacity="0.34"/>
<path d="M1790.43 -133.643C1790.43 -130.684 1788.03 -128.286 1785.07 -128.286C1782.11 -128.286 1779.71 -130.684 1779.71 -133.643C1779.71 -136.602 1782.11 -139 1785.07 -139C1788.03 -139 1790.43 -136.602 1790.43 -133.643Z" fill="white" fill-opacity="0.34"/>
<path d="M1822.57 -133.643C1822.57 -130.684 1820.17 -128.286 1817.21 -128.286C1814.26 -128.286 1811.86 -130.684 1811.86 -133.643C1811.86 -136.602 1814.26 -139 1817.21 -139C1820.17 -139 1822.57 -136.602 1822.57 -133.643Z" fill="white" fill-opacity="0.34"/>
<path d="M1694 -101.5C1694 -98.5413 1691.6 -96.1429 1688.64 -96.1429C1685.68 -96.1429 1683.29 -98.5413 1683.29 -101.5C1683.29 -104.459 1685.68 -106.857 1688.64 -106.857C1691.6 -106.857 1694 -104.459 1694 -101.5Z" fill="white" fill-opacity="0.34"/>
<path d="M1726.14 -101.5C1726.14 -98.5413 1723.74 -96.1429 1720.79 -96.1429C1717.83 -96.1429 1715.43 -98.5413 1715.43 -101.5C1715.43 -104.459 1717.83 -106.857 1720.79 -106.857C1723.74 -106.857 1726.14 -104.459 1726.14 -101.5Z" fill="white" fill-opacity="0.34"/>
<path d="M1758.29 -101.5C1758.29 -98.5413 1755.89 -96.1429 1752.93 -96.1429C1749.97 -96.1429 1747.57 -98.5413 1747.57 -101.5C1747.57 -104.459 1749.97 -106.857 1752.93 -106.857C1755.89 -106.857 1758.29 -104.459 1758.29 -101.5Z" fill="white" fill-opacity="0.34"/>
<path d="M1790.43 -101.5C1790.43 -98.5413 1788.03 -96.1429 1785.07 -96.1429C1782.11 -96.1429 1779.71 -98.5413 1779.71 -101.5C1779.71 -104.459 1782.11 -106.857 1785.07 -106.857C1788.03 -106.857 1790.43 -104.459 1790.43 -101.5Z" fill="white" fill-opacity="0.34"/>
<path d="M1822.57 -101.5C1822.57 -98.5413 1820.17 -96.1429 1817.21 -96.1429C1814.26 -96.1429 1811.86 -98.5413 1811.86 -101.5C1811.86 -104.459 1814.26 -106.857 1817.21 -106.857C1820.17 -106.857 1822.57 -104.459 1822.57 -101.5Z" fill="white" fill-opacity="0.34"/>
<path d="M1854.71 -101.5C1854.71 -98.5413 1852.32 -96.1429 1849.36 -96.1429C1846.4 -96.1429 1844 -98.5413 1844 -101.5C1844 -104.459 1846.4 -106.857 1849.36 -106.857C1852.32 -106.857 1854.71 -104.459 1854.71 -101.5Z" fill="white" fill-opacity="0.34"/>
<path d="M1661.86 -69.3571C1661.86 -66.3985 1659.46 -64 1656.5 -64C1653.54 -64 1651.14 -66.3985 1651.14 -69.3571C1651.14 -72.3158 1653.54 -74.7143 1656.5 -74.7143C1659.46 -74.7143 1661.86 -72.3158 1661.86 -69.3571Z" fill="white" fill-opacity="0.34"/>
<path d="M1694 -69.3571C1694 -66.3985 1691.6 -64 1688.64 -64C1685.68 -64 1683.29 -66.3985 1683.29 -69.3571C1683.29 -72.3158 1685.68 -74.7143 1688.64 -74.7143C1691.6 -74.7143 1694 -72.3158 1694 -69.3571Z" fill="white" fill-opacity="0.34"/>
<path d="M1726.14 -69.3571C1726.14 -66.3985 1723.74 -64 1720.79 -64C1717.83 -64 1715.43 -66.3985 1715.43 -69.3571C1715.43 -72.3158 1717.83 -74.7143 1720.79 -74.7143C1723.74 -74.7143 1726.14 -72.3158 1726.14 -69.3571Z" fill="white" fill-opacity="0.34"/>
<path d="M1758.29 -69.3571C1758.29 -66.3985 1755.89 -64 1752.93 -64C1749.97 -64 1747.57 -66.3985 1747.57 -69.3571C1747.57 -72.3158 1749.97 -74.7143 1752.93 -74.7143C1755.89 -74.7143 1758.29 -72.3158 1758.29 -69.3571Z" fill="white" fill-opacity="0.34"/>
<path d="M1790.43 -69.3571C1790.43 -66.3985 1788.03 -64 1785.07 -64C1782.11 -64 1779.71 -66.3985 1779.71 -69.3571C1779.71 -72.3158 1782.11 -74.7143 1785.07 -74.7143C1788.03 -74.7143 1790.43 -72.3158 1790.43 -69.3571Z" fill="white" fill-opacity="0.34"/>
<path d="M1822.57 -69.3571C1822.57 -66.3985 1820.17 -64 1817.21 -64C1814.26 -64 1811.86 -66.3985 1811.86 -69.3571C1811.86 -72.3158 1814.26 -74.7143 1817.21 -74.7143C1820.17 -74.7143 1822.57 -72.3158 1822.57 -69.3571Z" fill="white" fill-opacity="0.34"/>
<path d="M1854.71 -69.3571C1854.71 -66.3985 1852.32 -64 1849.36 -64C1846.4 -64 1844 -66.3985 1844 -69.3571C1844 -72.3158 1846.4 -74.7143 1849.36 -74.7143C1852.32 -74.7143 1854.71 -72.3158 1854.71 -69.3571Z" fill="white" fill-opacity="0.34"/>
<path d="M1886.86 -69.3571C1886.86 -66.3985 1884.46 -64 1881.5 -64C1878.54 -64 1876.14 -66.3985 1876.14 -69.3571C1876.14 -72.3158 1878.54 -74.7143 1881.5 -74.7143C1884.46 -74.7143 1886.86 -72.3158 1886.86 -69.3571Z" fill="white" fill-opacity="0.34"/>
<path d="M1629.71 -37.2143C1629.71 -34.2556 1627.32 -31.8571 1624.36 -31.8571C1621.4 -31.8571 1619 -34.2556 1619 -37.2143C1619 -40.173 1621.4 -42.5714 1624.36 -42.5714C1627.32 -42.5714 1629.71 -40.173 1629.71 -37.2143Z" fill="white" fill-opacity="0.34"/>
<path d="M1661.86 -37.2143C1661.86 -34.2556 1659.46 -31.8571 1656.5 -31.8571C1653.54 -31.8571 1651.14 -34.2556 1651.14 -37.2143C1651.14 -40.173 1653.54 -42.5714 1656.5 -42.5714C1659.46 -42.5714 1661.86 -40.173 1661.86 -37.2143Z" fill="white" fill-opacity="0.34"/>
<path d="M1694 -37.2143C1694 -34.2556 1691.6 -31.8571 1688.64 -31.8571C1685.68 -31.8571 1683.29 -34.2556 1683.29 -37.2143C1683.29 -40.173 1685.68 -42.5714 1688.64 -42.5714C1691.6 -42.5714 1694 -40.173 1694 -37.2143Z" fill="white" fill-opacity="0.34"/>
<path d="M1726.14 -37.2143C1726.14 -34.2556 1723.74 -31.8571 1720.79 -31.8571C1717.83 -31.8571 1715.43 -34.2556 1715.43 -37.2143C1715.43 -40.173 1717.83 -42.5714 1720.79 -42.5714C1723.74 -42.5714 1726.14 -40.173 1726.14 -37.2143Z" fill="white" fill-opacity="0.34"/>
<path d="M1758.29 -37.2143C1758.29 -34.2556 1755.89 -31.8571 1752.93 -31.8571C1749.97 -31.8571 1747.57 -34.2556 1747.57 -37.2143C1747.57 -40.173 1749.97 -42.5714 1752.93 -42.5714C1755.89 -42.5714 1758.29 -40.173 1758.29 -37.2143Z" fill="white" fill-opacity="0.34"/>
<path d="M1790.43 -37.2143C1790.43 -34.2556 1788.03 -31.8571 1785.07 -31.8571C1782.11 -31.8571 1779.71 -34.2556 1779.71 -37.2143C1779.71 -40.173 1782.11 -42.5714 1785.07 -42.5714C1788.03 -42.5714 1790.43 -40.173 1790.43 -37.2143Z" fill="white" fill-opacity="0.34"/>
<path d="M1822.57 -37.2143C1822.57 -34.2556 1820.17 -31.8571 1817.21 -31.8571C1814.26 -31.8571 1811.86 -34.2556 1811.86 -37.2143C1811.86 -40.173 1814.26 -42.5714 1817.21 -42.5714C1820.17 -42.5714 1822.57 -40.173 1822.57 -37.2143Z" fill="white" fill-opacity="0.34"/>
<path d="M1854.71 -37.2143C1854.71 -34.2556 1852.32 -31.8571 1849.36 -31.8571C1846.4 -31.8571 1844 -34.2556 1844 -37.2143C1844 -40.173 1846.4 -42.5714 1849.36 -42.5714C1852.32 -42.5714 1854.71 -40.173 1854.71 -37.2143Z" fill="white" fill-opacity="0.34"/>
<path d="M1886.86 -37.2143C1886.86 -34.2556 1884.46 -31.8571 1881.5 -31.8571C1878.54 -31.8571 1876.14 -34.2556 1876.14 -37.2143C1876.14 -40.173 1878.54 -42.5714 1881.5 -42.5714C1884.46 -42.5714 1886.86 -40.173 1886.86 -37.2143Z" fill="white" fill-opacity="0.34"/>
<path d="M1919 -37.2143C1919 -34.2556 1916.6 -31.8571 1913.64 -31.8571C1910.68 -31.8571 1908.29 -34.2556 1908.29 -37.2143C1908.29 -40.173 1910.68 -42.5714 1913.64 -42.5714C1916.6 -42.5714 1919 -40.173 1919 -37.2143Z" fill="white" fill-opacity="0.34"/>
<path d="M1629.71 -5.07143C1629.71 -2.11276 1627.32 0.285716 1624.36 0.285716C1621.4 0.285716 1619 -2.11276 1619 -5.07143C1619 -8.03009 1621.4 -10.4286 1624.36 -10.4286C1627.32 -10.4286 1629.71 -8.03009 1629.71 -5.07143Z" fill="white" fill-opacity="0.34"/>
<path d="M1661.86 -5.07143C1661.86 -2.11276 1659.46 0.285716 1656.5 0.285716C1653.54 0.285716 1651.14 -2.11276 1651.14 -5.07143C1651.14 -8.03009 1653.54 -10.4286 1656.5 -10.4286C1659.46 -10.4286 1661.86 -8.03009 1661.86 -5.07143Z" fill="white" fill-opacity="0.34"/>
<path d="M1694 -5.07143C1694 -2.11276 1691.6 0.285716 1688.64 0.285716C1685.68 0.285716 1683.29 -2.11276 1683.29 -5.07143C1683.29 -8.03009 1685.68 -10.4286 1688.64 -10.4286C1691.6 -10.4286 1694 -8.03009 1694 -5.07143Z" fill="white" fill-opacity="0.34"/>
<path d="M1726.14 -5.07143C1726.14 -2.11276 1723.74 0.285716 1720.79 0.285716C1717.83 0.285716 1715.43 -2.11276 1715.43 -5.07143C1715.43 -8.03009 1717.83 -10.4286 1720.79 -10.4286C1723.74 -10.4286 1726.14 -8.03009 1726.14 -5.07143Z" fill="white" fill-opacity="0.34"/>
<path d="M1758.29 -5.07143C1758.29 -2.11276 1755.89 0.285716 1752.93 0.285716C1749.97 0.285716 1747.57 -2.11276 1747.57 -5.07143C1747.57 -8.03009 1749.97 -10.4286 1752.93 -10.4286C1755.89 -10.4286 1758.29 -8.03009 1758.29 -5.07143Z" fill="white" fill-opacity="0.34"/>
<path d="M1790.43 -5.07143C1790.43 -2.11276 1788.03 0.285716 1785.07 0.285716C1782.11 0.285716 1779.71 -2.11276 1779.71 -5.07143C1779.71 -8.03009 1782.11 -10.4286 1785.07 -10.4286C1788.03 -10.4286 1790.43 -8.03009 1790.43 -5.07143Z" fill="white" fill-opacity="0.34"/>
<path d="M1822.57 -5.07143C1822.57 -2.11276 1820.17 0.285716 1817.21 0.285716C1814.26 0.285716 1811.86 -2.11276 1811.86 -5.07143C1811.86 -8.03009 1814.26 -10.4286 1817.21 -10.4286C1820.17 -10.4286 1822.57 -8.03009 1822.57 -5.07143Z" fill="white" fill-opacity="0.34"/>
<path d="M1854.71 -5.07143C1854.71 -2.11276 1852.32 0.285716 1849.36 0.285716C1846.4 0.285716 1844 -2.11276 1844 -5.07143C1844 -8.03009 1846.4 -10.4286 1849.36 -10.4286C1852.32 -10.4286 1854.71 -8.03009 1854.71 -5.07143Z" fill="white" fill-opacity="0.34"/>
<path d="M1886.86 -5.07143C1886.86 -2.11276 1884.46 0.285716 1881.5 0.285716C1878.54 0.285716 1876.14 -2.11276 1876.14 -5.07143C1876.14 -8.03009 1878.54 -10.4286 1881.5 -10.4286C1884.46 -10.4286 1886.86 -8.03009 1886.86 -5.07143Z" fill="white" fill-opacity="0.34"/>
<path d="M1919 -5.07143C1919 -2.11276 1916.6 0.285716 1913.64 0.285716C1910.68 0.285716 1908.29 -2.11276 1908.29 -5.07143C1908.29 -8.03009 1910.68 -10.4286 1913.64 -10.4286C1916.6 -10.4286 1919 -8.03009 1919 -5.07143Z" fill="white" fill-opacity="0.34"/>
<path d="M1629.71 27.0714C1629.71 30.0301 1627.32 32.4286 1624.36 32.4286C1621.4 32.4286 1619 30.0301 1619 27.0714C1619 24.1128 1621.4 21.7143 1624.36 21.7143C1627.32 21.7143 1629.71 24.1128 1629.71 27.0714Z" fill="white" fill-opacity="0.34"/>
<path d="M1661.86 27.0714C1661.86 30.0301 1659.46 32.4286 1656.5 32.4286C1653.54 32.4286 1651.14 30.0301 1651.14 27.0714C1651.14 24.1128 1653.54 21.7143 1656.5 21.7143C1659.46 21.7143 1661.86 24.1128 1661.86 27.0714Z" fill="white" fill-opacity="0.34"/>
<path d="M1694 27.0714C1694 30.0301 1691.6 32.4286 1688.64 32.4286C1685.68 32.4286 1683.29 30.0301 1683.29 27.0714C1683.29 24.1128 1685.68 21.7143 1688.64 21.7143C1691.6 21.7143 1694 24.1128 1694 27.0714Z" fill="white" fill-opacity="0.34"/>
<path d="M1726.14 27.0714C1726.14 30.0301 1723.74 32.4286 1720.79 32.4286C1717.83 32.4286 1715.43 30.0301 1715.43 27.0714C1715.43 24.1128 1717.83 21.7143 1720.79 21.7143C1723.74 21.7143 1726.14 24.1128 1726.14 27.0714Z" fill="white" fill-opacity="0.34"/>
<path d="M1758.29 27.0714C1758.29 30.0301 1755.89 32.4286 1752.93 32.4286C1749.97 32.4286 1747.57 30.0301 1747.57 27.0714C1747.57 24.1128 1749.97 21.7143 1752.93 21.7143C1755.89 21.7143 1758.29 24.1128 1758.29 27.0714Z" fill="white" fill-opacity="0.34"/>
<path d="M1790.43 27.0714C1790.43 30.0301 1788.03 32.4286 1785.07 32.4286C1782.11 32.4286 1779.71 30.0301 1779.71 27.0714C1779.71 24.1128 1782.11 21.7143 1785.07 21.7143C1788.03 21.7143 1790.43 24.1128 1790.43 27.0714Z" fill="white" fill-opacity="0.34"/>
<path d="M1822.57 27.0714C1822.57 30.0301 1820.17 32.4286 1817.21 32.4286C1814.26 32.4286 1811.86 30.0301 1811.86 27.0714C1811.86 24.1128 1814.26 21.7143 1817.21 21.7143C1820.17 21.7143 1822.57 24.1128 1822.57 27.0714Z" fill="white" fill-opacity="0.34"/>
<path d="M1854.71 27.0714C1854.71 30.0301 1852.32 32.4286 1849.36 32.4286C1846.4 32.4286 1844 30.0301 1844 27.0714C1844 24.1128 1846.4 21.7143 1849.36 21.7143C1852.32 21.7143 1854.71 24.1128 1854.71 27.0714Z" fill="white" fill-opacity="0.34"/>
<path d="M1886.86 27.0714C1886.86 30.0301 1884.46 32.4286 1881.5 32.4286C1878.54 32.4286 1876.14 30.0301 1876.14 27.0714C1876.14 24.1128 1878.54 21.7143 1881.5 21.7143C1884.46 21.7143 1886.86 24.1128 1886.86 27.0714Z" fill="white" fill-opacity="0.34"/>
<path d="M1919 27.0714C1919 30.0301 1916.6 32.4286 1913.64 32.4286C1910.68 32.4286 1908.29 30.0301 1908.29 27.0714C1908.29 24.1128 1910.68 21.7143 1913.64 21.7143C1916.6 21.7143 1919 24.1128 1919 27.0714Z" fill="white" fill-opacity="0.34"/>
<path d="M1629.71 59.2143C1629.71 62.173 1627.32 64.5714 1624.36 64.5714C1621.4 64.5714 1619 62.173 1619 59.2143C1619 56.2556 1621.4 53.8571 1624.36 53.8571C1627.32 53.8571 1629.71 56.2556 1629.71 59.2143Z" fill="white" fill-opacity="0.34"/>
<path d="M1661.86 59.2143C1661.86 62.173 1659.46 64.5714 1656.5 64.5714C1653.54 64.5714 1651.14 62.173 1651.14 59.2143C1651.14 56.2556 1653.54 53.8571 1656.5 53.8571C1659.46 53.8571 1661.86 56.2556 1661.86 59.2143Z" fill="white" fill-opacity="0.34"/>
<path d="M1694 59.2143C1694 62.173 1691.6 64.5714 1688.64 64.5714C1685.68 64.5714 1683.29 62.173 1683.29 59.2143C1683.29 56.2556 1685.68 53.8571 1688.64 53.8571C1691.6 53.8571 1694 56.2556 1694 59.2143Z" fill="white" fill-opacity="0.34"/>
<path d="M1726.14 59.2143C1726.14 62.173 1723.74 64.5714 1720.79 64.5714C1717.83 64.5714 1715.43 62.173 1715.43 59.2143C1715.43 56.2556 1717.83 53.8571 1720.79 53.8571C1723.74 53.8571 1726.14 56.2556 1726.14 59.2143Z" fill="white" fill-opacity="0.34"/>
<path d="M1758.29 59.2143C1758.29 62.173 1755.89 64.5714 1752.93 64.5714C1749.97 64.5714 1747.57 62.173 1747.57 59.2143C1747.57 56.2556 1749.97 53.8571 1752.93 53.8571C1755.89 53.8571 1758.29 56.2556 1758.29 59.2143Z" fill="white" fill-opacity="0.34"/>
<path d="M1790.43 59.2143C1790.43 62.173 1788.03 64.5714 1785.07 64.5714C1782.11 64.5714 1779.71 62.173 1779.71 59.2143C1779.71 56.2556 1782.11 53.8571 1785.07 53.8571C1788.03 53.8571 1790.43 56.2556 1790.43 59.2143Z" fill="white" fill-opacity="0.34"/>
<path d="M1822.57 59.2143C1822.57 62.173 1820.17 64.5714 1817.21 64.5714C1814.26 64.5714 1811.86 62.173 1811.86 59.2143C1811.86 56.2556 1814.26 53.8571 1817.21 53.8571C1820.17 53.8571 1822.57 56.2556 1822.57 59.2143Z" fill="white" fill-opacity="0.34"/>
<path d="M1854.71 59.2143C1854.71 62.173 1852.32 64.5714 1849.36 64.5714C1846.4 64.5714 1844 62.173 1844 59.2143C1844 56.2556 1846.4 53.8571 1849.36 53.8571C1852.32 53.8571 1854.71 56.2556 1854.71 59.2143Z" fill="white" fill-opacity="0.34"/>
<path d="M1886.86 59.2143C1886.86 62.173 1884.46 64.5714 1881.5 64.5714C1878.54 64.5714 1876.14 62.173 1876.14 59.2143C1876.14 56.2556 1878.54 53.8571 1881.5 53.8571C1884.46 53.8571 1886.86 56.2556 1886.86 59.2143Z" fill="white" fill-opacity="0.34"/>
<path d="M1919 59.2143C1919 62.173 1916.6 64.5714 1913.64 64.5714C1910.68 64.5714 1908.29 62.173 1908.29 59.2143C1908.29 56.2556 1910.68 53.8571 1913.64 53.8571C1916.6 53.8571 1919 56.2556 1919 59.2143Z" fill="white" fill-opacity="0.34"/>
<path d="M1661.86 91.3571C1661.86 94.3158 1659.46 96.7143 1656.5 96.7143C1653.54 96.7143 1651.14 94.3158 1651.14 91.3571C1651.14 88.3985 1653.54 86 1656.5 86C1659.46 86 1661.86 88.3985 1661.86 91.3571Z" fill="white" fill-opacity="0.34"/>
<path d="M1694 91.3571C1694 94.3158 1691.6 96.7143 1688.64 96.7143C1685.68 96.7143 1683.29 94.3158 1683.29 91.3571C1683.29 88.3985 1685.68 86 1688.64 86C1691.6 86 1694 88.3985 1694 91.3571Z" fill="white" fill-opacity="0.34"/>
<path d="M1726.14 91.3571C1726.14 94.3158 1723.74 96.7143 1720.79 96.7143C1717.83 96.7143 1715.43 94.3158 1715.43 91.3571C1715.43 88.3985 1717.83 86 1720.79 86C1723.74 86 1726.14 88.3985 1726.14 91.3571Z" fill="white" fill-opacity="0.34"/>
<path d="M1758.29 91.3571C1758.29 94.3158 1755.89 96.7143 1752.93 96.7143C1749.97 96.7143 1747.57 94.3158 1747.57 91.3571C1747.57 88.3985 1749.97 86 1752.93 86C1755.89 86 1758.29 88.3985 1758.29 91.3571Z" fill="white" fill-opacity="0.34"/>
<path d="M1790.43 91.3571C1790.43 94.3158 1788.03 96.7143 1785.07 96.7143C1782.11 96.7143 1779.71 94.3158 1779.71 91.3571C1779.71 88.3985 1782.11 86 1785.07 86C1788.03 86 1790.43 88.3985 1790.43 91.3571Z" fill="white" fill-opacity="0.34"/>
<path d="M1822.57 91.3571C1822.57 94.3158 1820.17 96.7143 1817.21 96.7143C1814.26 96.7143 1811.86 94.3158 1811.86 91.3571C1811.86 88.3985 1814.26 86 1817.21 86C1820.17 86 1822.57 88.3985 1822.57 91.3571Z" fill="white" fill-opacity="0.34"/>
<path d="M1854.71 91.3571C1854.71 94.3158 1852.32 96.7143 1849.36 96.7143C1846.4 96.7143 1844 94.3158 1844 91.3571C1844 88.3985 1846.4 86 1849.36 86C1852.32 86 1854.71 88.3985 1854.71 91.3571Z" fill="white" fill-opacity="0.34"/>
<path d="M1886.86 91.3571C1886.86 94.3158 1884.46 96.7143 1881.5 96.7143C1878.54 96.7143 1876.14 94.3158 1876.14 91.3571C1876.14 88.3985 1878.54 86 1881.5 86C1884.46 86 1886.86 88.3985 1886.86 91.3571Z" fill="white" fill-opacity="0.34"/>
<path d="M1694 123.5C1694 126.459 1691.6 128.857 1688.64 128.857C1685.68 128.857 1683.29 126.459 1683.29 123.5C1683.29 120.541 1685.68 118.143 1688.64 118.143C1691.6 118.143 1694 120.541 1694 123.5Z" fill="white" fill-opacity="0.34"/>
<path d="M1726.14 123.5C1726.14 126.459 1723.74 128.857 1720.79 128.857C1717.83 128.857 1715.43 126.459 1715.43 123.5C1715.43 120.541 1717.83 118.143 1720.79 118.143C1723.74 118.143 1726.14 120.541 1726.14 123.5Z" fill="white" fill-opacity="0.34"/>
<path d="M1758.29 123.5C1758.29 126.459 1755.89 128.857 1752.93 128.857C1749.97 128.857 1747.57 126.459 1747.57 123.5C1747.57 120.541 1749.97 118.143 1752.93 118.143C1755.89 118.143 1758.29 120.541 1758.29 123.5Z" fill="white" fill-opacity="0.34"/>
<path d="M1790.43 123.5C1790.43 126.459 1788.03 128.857 1785.07 128.857C1782.11 128.857 1779.71 126.459 1779.71 123.5C1779.71 120.541 1782.11 118.143 1785.07 118.143C1788.03 118.143 1790.43 120.541 1790.43 123.5Z" fill="white" fill-opacity="0.34"/>
<path d="M1822.57 123.5C1822.57 126.459 1820.17 128.857 1817.21 128.857C1814.26 128.857 1811.86 126.459 1811.86 123.5C1811.86 120.541 1814.26 118.143 1817.21 118.143C1820.17 118.143 1822.57 120.541 1822.57 123.5Z" fill="white" fill-opacity="0.34"/>
<path d="M1854.71 123.5C1854.71 126.459 1852.32 128.857 1849.36 128.857C1846.4 128.857 1844 126.459 1844 123.5C1844 120.541 1846.4 118.143 1849.36 118.143C1852.32 118.143 1854.71 120.541 1854.71 123.5Z" fill="white" fill-opacity="0.34"/>
<path d="M1726.14 155.643C1726.14 158.602 1723.74 161 1720.79 161C1717.83 161 1715.43 158.602 1715.43 155.643C1715.43 152.684 1717.83 150.286 1720.79 150.286C1723.74 150.286 1726.14 152.684 1726.14 155.643Z" fill="white" fill-opacity="0.34"/>
<path d="M1758.29 155.643C1758.29 158.602 1755.89 161 1752.93 161C1749.97 161 1747.57 158.602 1747.57 155.643C1747.57 152.684 1749.97 150.286 1752.93 150.286C1755.89 150.286 1758.29 152.684 1758.29 155.643Z" fill="white" fill-opacity="0.34"/>
<path d="M1790.43 155.643C1790.43 158.602 1788.03 161 1785.07 161C1782.11 161 1779.71 158.602 1779.71 155.643C1779.71 152.684 1782.11 150.286 1785.07 150.286C1788.03 150.286 1790.43 152.684 1790.43 155.643Z" fill="white" fill-opacity="0.34"/>
<path d="M1822.57 155.643C1822.57 158.602 1820.17 161 1817.21 161C1814.26 161 1811.86 158.602 1811.86 155.643C1811.86 152.684 1814.26 150.286 1817.21 150.286C1820.17 150.286 1822.57 152.684 1822.57 155.643Z" fill="white" fill-opacity="0.34"/>
</g>
<defs>
<linearGradient id="paint0_linear_143_2010" x1="0" y1="198" x2="1919" y2="198" gradientUnits="userSpaceOnUse">
<stop stop-color="#1F57BF"/>
<stop offset="1" stop-color="#1F57BF" stop-opacity="0.86"/>
</linearGradient>
<clipPath id="clip0_143_2010">
<rect width="1919" height="396" fill="white"/>
</clipPath>
</defs>
</svg>
