<svg width="70" height="70" viewBox="0 0 70 70" fill="none" xmlns="http://www.w3.org/2000/svg">
<path d="M39.375 5.83342C39.375 5.83342 46.1825 6.45175 54.8421 15.1142C63.5046 23.7767 64.1229 30.5813 64.1229 30.5813M41.4371 16.1467C41.4371 16.1467 44.3246 16.9692 48.6558 21.3005C52.9871 25.6317 53.8125 28.5192 53.8125 28.5192" stroke="#FF865A" stroke-width="4.375" stroke-linecap="round"/>
<path d="M45.6313 45.3339L46.9583 43.9339L43.785 40.921L42.4579 42.3239L45.6313 45.3339ZM51.3304 43.3447L56.9013 46.556L59.0858 42.7614L53.5121 39.5531L51.3304 43.3447ZM57.9775 53.2031L53.8358 57.5635L57.0063 60.5793L61.1479 56.2189L57.9775 53.2031ZM51.3421 58.9635C47.1567 59.3747 36.2338 59.0247 24.3804 46.5472L21.21 49.5572C34.1279 63.1577 46.4508 63.846 51.7708 63.3181L51.3421 58.9635ZM24.3804 46.5472C13.0754 34.6443 11.1796 24.6022 10.9433 20.1981L6.57417 20.4343C6.86584 25.8302 9.1525 36.8639 21.21 49.5572L24.3804 46.5472ZM28.3938 27.1864L29.2279 26.3056L26.0575 23.2927L25.2204 24.1735L28.3938 27.1864ZM29.8871 15.3389L26.2092 10.1414L22.6363 12.6672L26.3113 17.8677L29.8871 15.3389ZM13.7579 9.01558L9.18459 13.8397L12.3579 16.8527L16.9371 12.0314L13.7579 9.01558ZM26.8071 25.6785C26.2822 25.1726 25.7523 24.6719 25.2175 24.1764L25.2117 24.1822L25.2029 24.191L25.0571 24.3602C24.7715 24.7388 24.5453 25.1588 24.3863 25.6056C24.1004 26.4077 23.9488 27.4693 24.1413 28.7935C24.5204 31.3952 26.2267 34.8922 30.6804 39.5852L33.8538 36.5693C29.6888 32.1856 28.6621 29.4877 28.4696 28.1577C28.3763 27.516 28.4696 27.1806 28.5075 27.0727L28.5308 27.0172L28.4492 27.1252L28.3967 27.1835C28.3967 27.1835 28.3908 27.1835 26.8071 25.6785ZM30.6804 39.5852C35.1225 44.2635 38.4767 46.0981 41.0346 46.5152C42.35 46.7281 43.4146 46.556 44.2196 46.2381C44.6661 46.0639 45.0809 45.8176 45.4475 45.5089L45.5525 45.4097L45.5933 45.3689L45.6138 45.3514L45.6225 45.3427L45.6254 45.3368C45.6254 45.3368 45.6313 45.3339 44.0446 43.826C42.4579 42.321 42.4608 42.3181 42.4608 42.3152L42.4667 42.3122L42.4725 42.3035L42.4871 42.2889L42.5162 42.2597L42.6242 42.1664C42.6533 42.1509 42.6494 42.1518 42.6125 42.1693C42.5542 42.1927 42.2917 42.286 41.7375 42.1956C40.565 42.0031 38.0333 40.9706 33.8538 36.5693L30.6804 39.5852ZM26.2092 10.1414C23.2517 5.95891 17.3367 5.25016 13.7608 9.0185L16.9283 12.0314C18.4538 10.4272 21.1429 10.5527 22.6363 12.6672L26.2092 10.1414ZM10.9433 20.1981C10.8792 19.0314 11.3896 17.8677 12.3579 16.8527L9.18459 13.8397C7.62125 15.4847 6.43125 17.7685 6.57417 20.4343L10.9433 20.1981ZM53.8329 57.5664C53.0192 58.4239 52.1704 58.8818 51.3421 58.9635L51.7708 63.3181C53.9496 63.1052 55.7142 61.9414 57.0063 60.5793L53.8329 57.5664ZM29.2279 26.3085C32.0513 23.3364 32.2496 18.6872 29.8871 15.3418L26.3142 17.8677C27.545 19.6089 27.3554 21.9277 26.0575 23.2927L29.2279 26.3085ZM56.9013 46.556C59.2958 47.9356 59.7654 51.3247 57.9775 53.206L61.1479 56.2189C64.9542 52.2114 63.8458 45.5031 59.0858 42.7614L56.9013 46.556ZM46.9583 43.9368C48.0813 42.7527 49.8342 42.4872 51.3304 43.3477L53.5121 39.556C50.3067 37.7127 46.3371 38.2435 43.785 40.9268L46.9583 43.9368Z" fill="#FF865A"/>
</svg>
