<svg width="80" height="27" viewBox="0 0 80 27" fill="none" xmlns="http://www.w3.org/2000/svg">
<path fill-rule="evenodd" clip-rule="evenodd" d="M32.8136 17.7627C32.6847 17.1458 32.678 16.7932 32.678 8.56271V0H36.339L36.3525 8.21695C36.3729 15.7627 36.3797 16.4678 36.4881 16.7458C36.5492 16.9153 36.7119 17.1525 36.8475 17.2746C37.0169 17.4305 37.1932 17.5119 37.4712 17.5661C37.6881 17.6068 37.9797 17.6203 38.3729 17.5593L38.3797 18.9627C38.3864 19.7424 38.3932 20.461 38.4 20.5763C38.4068 20.7458 38.3797 20.7864 38.2034 20.8203C38.0949 20.8475 37.5797 20.8678 37.0644 20.8746C36.4339 20.8814 35.9797 20.8475 35.6475 20.7729C35.3763 20.7119 34.9559 20.5695 34.7119 20.4542C34.4271 20.3254 34.122 20.1017 33.8576 19.8373C33.5864 19.5661 33.3627 19.2475 33.1932 18.9153C33.0441 18.6102 32.8881 18.1424 32.8136 17.7627ZM40.8814 3.32203V1.66102V0H44.5424V3.32203H40.8814ZM6.54237 4.78644C6.84068 4.72542 7.32881 4.64407 7.62712 4.61695C7.92542 4.58983 8.30509 4.56271 8.47458 4.55593C8.64407 4.54915 9.11186 4.57627 9.52542 4.61695C9.9322 4.65763 10.5424 4.75254 10.8814 4.82712C11.2136 4.90847 11.6814 5.04407 11.9119 5.1322C12.1492 5.22034 12.5763 5.41017 12.861 5.55254C13.1525 5.70169 13.6339 6 13.9322 6.22373C14.2305 6.44746 14.5288 6.69153 14.5966 6.75932C14.7119 6.88136 14.6847 6.93559 13.0169 9.62712L12.522 9.25424C12.2508 9.04407 11.7559 8.74576 11.4237 8.57627C11.0847 8.41356 10.5695 8.21695 10.2712 8.14237C9.97288 8.06102 9.41017 7.97966 9.01695 7.95932C8.4678 7.92542 8.17627 7.94576 7.76271 8.0339C7.46441 8.1017 7.00339 8.25085 6.74576 8.37288C6.48136 8.49492 6.08136 8.7322 5.84407 8.90847C5.61356 9.08475 5.2678 9.40339 5.08475 9.62712C4.89492 9.85763 4.62373 10.2915 4.48136 10.5966C4.3322 10.9017 4.16949 11.3763 4.10847 11.6475C4.04746 11.9186 4 12.4203 4 12.7661C4 13.1119 4.0339 13.5729 4.07458 13.7966C4.11525 14.0271 4.22373 14.4068 4.31864 14.6441C4.41356 14.8881 4.62373 15.2881 4.77966 15.5254C4.93559 15.7695 5.2339 16.1356 5.45085 16.339C5.66102 16.5492 5.95932 16.8 6.12203 16.9085C6.27797 17.017 6.55593 17.1797 6.74576 17.261C6.92881 17.3492 7.32881 17.4847 7.62712 17.5593C8 17.6542 8.38644 17.7017 8.86102 17.7017C9.24746 17.7017 9.79661 17.6475 10.0814 17.5932C10.3729 17.5322 10.8678 17.3831 11.1864 17.2542C11.5051 17.1254 12 16.8746 12.2915 16.6983C12.5898 16.522 13.0034 16.2305 13.6271 15.7288L13.9525 16.3254C14.0655 16.5262 14.2377 16.8379 14.4089 17.1475C14.5151 17.3398 14.621 17.5313 14.7119 17.6949C15.0237 18.2712 15.1186 18.5017 15.0712 18.5763C15.0373 18.6373 14.7593 18.8814 14.461 19.1186C14.1627 19.3627 13.6136 19.7288 13.2475 19.9322C12.8746 20.1356 12.2576 20.4136 11.8644 20.5559C11.4712 20.6915 10.8746 20.861 10.5424 20.9288C10.0678 21.0237 9.6339 21.0508 8.57627 21.0508C7.46441 21.0441 7.09831 21.017 6.54237 20.9017C6.16949 20.8203 5.6339 20.6712 5.35593 20.5763C5.07797 20.4746 4.63051 20.2847 4.37288 20.1559C4.10847 20.0271 3.6678 19.7627 3.38983 19.5729C3.11186 19.3831 2.63729 18.9831 2.3322 18.6847C2.0339 18.3864 1.6339 17.9119 1.44407 17.6271C1.25424 17.3492 1.00339 16.922 0.881356 16.678C0.759322 16.4407 0.555932 15.9322 0.433898 15.5593C0.311864 15.1864 0.162712 14.5627 0.108475 14.1695C0.0474577 13.7831 0 13.2 0 12.8814C0 12.5695 0.0474577 11.9864 0.108475 11.5932C0.162712 11.2068 0.311864 10.5763 0.433898 10.2034C0.555932 9.83051 0.759322 9.32881 0.881356 9.08475C1.00339 8.84746 1.25424 8.42034 1.44407 8.13559C1.62712 7.85763 2.06102 7.34915 2.4 7.01017C2.73898 6.67119 3.27458 6.22373 3.59322 6.02034C3.91186 5.81695 4.31864 5.57288 4.50847 5.47797C4.69153 5.38305 5.10508 5.21356 5.42373 5.10509C5.74237 4.98983 6.24407 4.84746 6.54237 4.78644ZM72.7661 5.42373C72.7187 5.36949 72.6915 5.30847 72.7119 5.28136C72.7322 5.25424 72.8746 5.25424 73.0373 5.2678C73.1932 5.28814 73.5729 5.36271 73.878 5.43051C74.1898 5.50509 74.6915 5.66102 74.9966 5.78983C75.3085 5.91186 75.7695 6.13559 76.0339 6.28475C76.2915 6.44068 76.739 6.74576 77.017 6.96949C77.2949 7.19322 77.6746 7.53898 77.8576 7.74237C78.0407 7.93898 78.339 8.31865 78.522 8.57627C78.7051 8.84068 78.9898 9.31526 79.1525 9.62712C79.3085 9.94576 79.5186 10.461 79.6203 10.7661C79.7153 11.0712 79.8441 11.6068 79.8983 11.9525C79.9525 12.2983 80 12.8271 80 13.1186C80 13.417 79.9525 13.9525 79.9051 14.3051C79.8508 14.6644 79.7085 15.2475 79.3559 16.2712L79.0847 16.3051C78.9356 16.3186 78.4678 16.3593 77.2949 16.4407L76.3186 14.4068L76.4 13.8983C76.4407 13.6203 76.4746 13.2407 76.4746 13.0508C76.4746 12.8678 76.4271 12.5017 76.3729 12.2373C76.3186 11.9797 76.1492 11.5051 75.9932 11.1864C75.7627 10.7254 75.5932 10.5017 75.1254 10.0339C74.678 9.59322 74.4203 9.39661 74.0339 9.21356C73.7559 9.07797 73.3559 8.92881 73.1525 8.88136C72.9492 8.8339 72.7458 8.77288 72.7119 8.73898C72.6712 8.71187 72.8814 8.34576 73.8305 6.98305L73.3424 6.25763C73.078 5.85763 72.8203 5.48475 72.7661 5.42373ZM69.5254 5.62712C69.7831 5.53898 70.1695 5.43051 70.3729 5.38983C70.5763 5.34237 70.8203 5.3017 70.9153 5.3017C71.0576 5.29492 71.1729 5.42373 72.2169 6.94915L71.5864 7.89153C71.1797 8.48814 70.8881 8.86102 70.7797 8.9017C70.6883 8.93431 70.3773 9.07991 70.0701 9.22374L70.0339 9.24068C69.5797 9.45763 69.3492 9.62712 68.9492 10.0339C68.5898 10.3932 68.3525 10.7051 68.1559 11.0847C68 11.3831 67.8237 11.8441 67.7559 12.1017C67.6949 12.3729 67.6475 12.8407 67.6475 13.1864C67.6542 13.5458 67.7017 13.9729 67.7695 14.2034C67.8305 14.4339 67.8983 14.6915 67.9186 14.7797C67.9525 14.9356 67.939 14.9492 67.7898 14.9085C67.7017 14.8814 67.2271 14.8339 65.8373 14.7458L65.4102 15.6475C65.1729 16.1356 64.9559 16.5424 64.9288 16.5424C64.9017 16.5424 64.8 16.3729 64.7051 16.1559C64.6102 15.939 64.4475 15.478 64.3458 15.1186C64.1831 14.5288 64.1695 14.3797 64.1695 13.1525C64.1695 11.9119 64.1831 11.7898 64.3593 11.1525C64.461 10.7797 64.6576 10.2305 64.7864 9.9322C64.9153 9.64068 65.2136 9.10509 65.4509 8.74576C65.6881 8.39322 66.122 7.86441 66.4136 7.5661C66.7051 7.27458 67.1593 6.88136 67.4237 6.69831C67.6814 6.51525 68.1559 6.23051 68.4746 6.07458C68.7932 5.91865 69.261 5.71525 69.5254 5.62712ZM51.3017 5.90509C51.6136 5.78983 52.1017 5.65424 52.3864 5.6C52.7525 5.52542 53.2203 5.50509 53.9322 5.52542C54.6847 5.54576 55.0847 5.58644 55.4915 5.69492C55.7898 5.76949 56.2305 5.9322 56.4746 6.04068C56.7186 6.15593 57.0983 6.37966 57.322 6.54237C57.5458 6.69831 57.8237 6.94237 57.939 7.07797C58.0542 7.21356 58.1763 7.32881 58.2102 7.32881C58.2441 7.32881 58.2644 6.97627 58.2373 5.76271H61.6949V13.139C61.6949 19.4441 61.6814 20.6034 61.5864 21.1525C61.5322 21.5119 61.4034 22.0475 61.3017 22.339C61.2 22.6373 60.9763 23.1254 60.8136 23.4237C60.6441 23.7153 60.2915 24.1831 60.0339 24.461C59.7695 24.739 59.3898 25.0983 59.1864 25.2475C58.9831 25.4034 58.5356 25.6678 58.2034 25.8441C57.8644 26.0203 57.3017 26.2508 56.9492 26.3593C56.5966 26.4746 56.0136 26.617 55.661 26.678C55.3085 26.739 54.5763 26.8068 54.0339 26.8271C53.4441 26.8542 52.7661 26.8407 52.339 26.7932C51.9458 26.7458 51.3085 26.6305 50.9153 26.5356C50.522 26.4407 49.9729 26.2712 49.6949 26.1559C49.417 26.0475 49.0373 25.8847 48.5424 25.6271L48.6712 25.3085C48.7036 25.2241 48.778 25.0389 48.872 24.8047C48.9744 24.5495 49.1001 24.2362 49.2203 23.9322C49.4508 23.3559 49.6542 22.861 49.6678 22.8339C49.6814 22.8068 49.8983 22.8746 50.1492 22.9831C50.4 23.0915 50.8678 23.2542 51.1864 23.3492C51.5051 23.4373 52.0949 23.5661 52.5085 23.6339C53.0576 23.722 53.478 23.7424 54.1356 23.7153C54.7729 23.6881 55.1458 23.6339 55.4915 23.5254C55.7492 23.4441 56.1424 23.2814 56.3661 23.1661C56.5831 23.0508 56.922 22.7864 57.1119 22.5763C57.3017 22.3729 57.5254 22.0678 57.6068 21.8983C57.6881 21.7356 57.7966 21.4305 57.8508 21.2203C57.9119 20.9966 57.9593 20.4136 57.9729 19.7288C57.9864 19.0983 57.9729 18.6305 57.939 18.6441C57.9051 18.6644 57.6881 18.8746 57.4644 19.1119C57.2339 19.3492 56.8814 19.6407 56.678 19.7695C56.4746 19.8915 56.0746 20.0678 55.7966 20.1627C55.5186 20.2576 54.9695 20.3661 54.5763 20.4136C54.0475 20.4746 53.6881 20.4746 53.1864 20.4203C52.8136 20.3797 52.3119 20.2983 52.0678 20.2373C51.8237 20.1763 51.322 19.9797 50.9492 19.8034C50.5695 19.6203 50.0475 19.2949 49.7627 19.0712C49.4847 18.8475 49.0983 18.4678 48.9017 18.2305C48.7119 17.9932 48.4339 17.6 48.2847 17.3559C48.1356 17.1186 47.9186 16.6915 47.8034 16.4068C47.6814 16.1288 47.5119 15.6271 47.4237 15.2881C47.3356 14.9559 47.2271 14.3593 47.1797 13.9661C47.1322 13.5322 47.1119 12.922 47.139 12.3729C47.1661 11.8305 47.2475 11.2271 47.3492 10.7797C47.4373 10.3932 47.6068 9.82373 47.722 9.52542C47.8305 9.22712 48.0881 8.72542 48.278 8.40678C48.4949 8.05424 48.8542 7.61356 49.2136 7.25424C49.5322 6.93559 50.0068 6.54915 50.2712 6.39322C50.5288 6.23729 50.9966 6.01356 51.3017 5.90509ZM21.0508 5.90509C21.3085 5.82373 21.7559 5.71525 22.0339 5.66102C22.3864 5.6 22.8881 5.57288 23.6949 5.59322C24.5898 5.60678 24.9763 5.64746 25.4237 5.76271C25.7424 5.83729 26.3051 6.05424 26.678 6.23729C27.0508 6.42034 27.5593 6.73898 27.8102 6.94915C28.061 7.15254 28.4407 7.5322 28.6508 7.78305C28.861 8.04068 29.1864 8.56949 29.3966 8.98305C29.6 9.40339 29.8441 10.0339 29.939 10.4068C30.1085 11.0373 30.122 11.1932 30.1356 14L19.8644 14.0339V14.2237C19.8644 14.3254 19.9119 14.5898 19.9729 14.8136C20.0271 15.0441 20.1763 15.4237 20.2915 15.661C20.4203 15.9186 20.6915 16.2983 20.9492 16.5695C21.1932 16.8271 21.5593 17.1322 21.7627 17.2542C21.9661 17.3763 22.3525 17.5593 22.6237 17.6542C22.8949 17.7559 23.3763 17.8644 23.6949 17.8983C24.0814 17.9458 24.461 17.9458 24.861 17.8983C25.1864 17.8576 25.6746 17.7695 25.9458 17.6949C26.2169 17.6203 26.6305 17.4847 26.861 17.3831C27.0983 17.2881 27.4712 17.0983 27.6949 16.9695C27.9186 16.8339 28.2169 16.6305 28.3593 16.5153C28.5695 16.3458 28.6305 16.3254 28.6983 16.4C28.7458 16.4475 29.078 17.0373 30.1017 18.9153L29.6407 19.2542C29.3898 19.4373 29.0034 19.6949 28.7797 19.8169C28.5559 19.939 28.1153 20.1559 27.7966 20.2915C27.478 20.4271 26.9288 20.617 26.5763 20.7051C26.2237 20.8 25.6949 20.9085 25.4034 20.9492C25.1186 20.9898 24.4881 21.017 24.0136 21.017C23.539 21.017 22.8339 20.9695 22.4407 20.9153C22.0475 20.8542 21.4508 20.7186 21.1186 20.6102C20.7797 20.5017 20.3119 20.3119 20.0678 20.1898C19.8237 20.0678 19.4441 19.8441 19.2203 19.6949C18.9966 19.5458 18.5898 19.2136 18.3119 18.9492C18.0339 18.6915 17.6814 18.3119 17.5254 18.1017C17.3627 17.8983 17.1458 17.5797 17.0373 17.3898C16.922 17.2068 16.739 16.8407 16.6237 16.5763C16.5085 16.3186 16.339 15.817 16.2441 15.4576C16.1424 15.1051 16.0339 14.4814 15.9932 14.0678C15.939 13.5186 15.939 13.1119 16 12.5085C16.0407 12.061 16.1492 11.4237 16.2305 11.0847C16.3186 10.7525 16.4814 10.2508 16.5966 9.9661C16.7186 9.68814 16.9627 9.22034 17.1458 8.91526C17.3288 8.61695 17.6881 8.14915 17.939 7.87119C18.1966 7.59322 18.6373 7.2 18.9153 6.98983C19.1932 6.77966 19.6814 6.48814 20 6.3322C20.3186 6.17627 20.7864 5.98644 21.0508 5.90509ZM40.8814 20.8136V13.3559V5.90509H44.5424V20.8136H40.8814ZM74.0136 17.0847C74.4407 16.8746 74.6915 16.6915 75.0644 16.3119C75.3356 16.0407 75.5797 15.8102 75.6 15.8034C75.6271 15.7966 75.8508 16.2305 76.5559 17.7288L77.3424 17.6746C77.3919 17.6707 77.4417 17.6668 77.4913 17.663C77.8757 17.6331 78.2444 17.6045 78.3525 17.5864C78.4746 17.5729 78.5763 17.5864 78.5763 17.6271C78.5763 17.661 78.3864 17.9254 78.1491 18.2102C77.9186 18.4949 77.5322 18.9017 77.2881 19.1051C77.0441 19.3085 76.6644 19.6 76.4407 19.7492C76.2169 19.8983 75.7559 20.1492 75.4237 20.3119C75.0847 20.4746 74.5559 20.678 74.2373 20.7661C73.9186 20.861 73.4237 20.9695 73.1322 21.0102C72.8475 21.0508 72.3593 21.078 72.0475 21.078C71.7424 21.078 71.2746 21.0508 71.017 21.0102C70.7525 20.9763 70.3051 20.8814 70.0136 20.8068C69.7288 20.7322 69.2203 20.5627 68.8949 20.4203C68.5695 20.278 68.0339 19.9864 67.7085 19.7763C67.383 19.5593 66.8881 19.1661 66.6034 18.8949C66.3186 18.6237 65.9932 18.2915 65.6949 17.8983L66.5763 16.0678H66.8475C66.9966 16.0678 67.5051 16.1017 68.8475 16.217L69.2542 16.5492C69.478 16.7322 69.8712 16.9898 70.1356 17.1186C70.3932 17.2475 70.8203 17.3966 71.0847 17.4508C71.3424 17.5051 71.7695 17.5525 72.0339 17.5525C72.2915 17.5525 72.7186 17.5119 72.983 17.4576C73.2407 17.3966 73.7085 17.2339 74.0136 17.0847ZM22.3059 8.83201C22.5296 8.71676 22.8754 8.56761 23.0788 8.51337C23.3364 8.43879 23.689 8.41167 24.2042 8.42523C24.9093 8.43879 24.9771 8.45235 25.4584 8.68286C25.7907 8.85235 26.0551 9.04218 26.2584 9.25913C26.4144 9.44218 26.611 9.71337 26.6856 9.86252C26.7601 10.0117 26.8822 10.3642 26.95 10.6422C27.0246 10.9201 27.0788 11.232 27.0788 11.5235H23.8246C20.7737 11.5235 20.5703 11.5168 20.5703 11.4083C20.5703 11.3405 20.6178 11.1168 20.6788 10.9134C20.7398 10.71 20.889 10.3574 21.011 10.1337C21.133 9.90998 21.3839 9.57778 21.5737 9.38795C21.7568 9.2049 22.089 8.95405 22.3059 8.83201ZM53.4178 9.04218C53.6822 8.91337 54.0279 8.78456 54.1974 8.75066C54.3669 8.71676 54.7601 8.68964 55.0788 8.68286C55.3974 8.68286 55.8652 8.72354 56.1296 8.78456C56.394 8.83879 56.7805 8.98117 57.0042 9.1032C57.2212 9.22523 57.5466 9.47608 57.7229 9.65913C57.8991 9.84896 58.1229 10.1608 58.2178 10.3574C58.3195 10.5473 58.4618 10.9337 58.5432 11.2049C58.6381 11.5371 58.6924 11.9846 58.7195 12.6083C58.7466 13.1507 58.7262 13.7473 58.6788 14.0659C58.6381 14.3642 58.5296 14.8388 58.4347 15.1168C58.3398 15.3947 58.1703 15.7608 58.0618 15.9303C57.9601 16.0998 57.7229 16.3778 57.5398 16.5473C57.3635 16.7168 57.0924 16.9202 56.9432 16.9947C56.794 17.0761 56.489 17.1846 56.2652 17.2456C56.0415 17.3066 55.6008 17.354 55.2822 17.354C54.9635 17.354 54.5296 17.3066 54.3195 17.2524C54.1025 17.1981 53.7635 17.0693 53.5737 16.9744C53.3771 16.8727 53.011 16.5879 52.7669 16.3439C52.4551 16.032 52.2449 15.7473 52.0754 15.3879C51.9398 15.11 51.7635 14.6015 51.6822 14.2693C51.5805 13.8151 51.5398 13.449 51.5398 12.8456C51.5398 12.371 51.5873 11.8218 51.6483 11.5235C51.7093 11.2456 51.8652 10.7913 51.994 10.5269C52.1296 10.249 52.3873 9.86252 52.5907 9.65235C52.8212 9.4015 53.1059 9.19812 53.4178 9.04218Z" fill="#1BB1EC"/>
</svg>
