<svg width="63" height="63" viewBox="0 0 63 63" fill="none" xmlns="http://www.w3.org/2000/svg">
<g clip-path="url(#clip0_3559_74920)">
<path opacity="0.3" d="M33 63C49.5685 63 63 49.5685 63 33C63 16.4315 49.5685 3 33 3C16.4315 3 3 16.4315 3 33C3 49.5685 16.4315 63 33 63Z" fill="#20C0FF"/>
<path d="M30 60C46.5685 60 60 46.5685 60 30C60 13.4315 46.5685 0 30 0C13.4315 0 0 13.4315 0 30C0 46.5685 13.4315 60 30 60Z" fill="#20C0FF"/>
<path d="M23.9551 37.69C23.9551 38.0159 24.0517 38.3346 24.2328 38.6056C24.4139 38.8766 24.6713 39.0878 24.9724 39.2125C25.2735 39.3373 25.6049 39.3699 25.9246 39.3063C26.2443 39.2427 26.5379 39.0858 26.7684 38.8553C26.9989 38.6248 27.1558 38.3312 27.2194 38.0115C27.283 37.6918 27.2504 37.3605 27.1256 37.0593C27.0009 36.7582 26.7897 36.5008 26.5187 36.3197C26.2476 36.1386 25.929 36.042 25.6031 36.042C25.3867 36.042 25.1724 36.0846 24.9724 36.1674C24.7725 36.2503 24.5908 36.3717 24.4378 36.5247C24.2847 36.6777 24.1633 36.8594 24.0805 37.0593C23.9977 37.2593 23.9551 37.4736 23.9551 37.69Z" stroke="white" stroke-width="1.5" stroke-linecap="round" stroke-linejoin="round"/>
<path d="M17.3633 17.364H20.3373C20.5849 17.3641 20.8253 17.4478 21.0195 17.6015C21.2137 17.7552 21.3503 17.97 21.4073 18.211L25.6073 36.043H30.0073" stroke="white" stroke-width="1.5" stroke-linecap="round" stroke-linejoin="round"/>
<path d="M40.9688 28.953L42.1518 25.403C42.2065 25.2378 42.2213 25.062 42.1948 24.89C42.1684 24.718 42.1015 24.5547 41.9997 24.4135C41.8979 24.2724 41.7641 24.1574 41.6092 24.078C41.4543 23.9987 41.2828 23.9572 41.1088 23.957H22.7598" stroke="white" stroke-width="1.5" stroke-linecap="round" stroke-linejoin="round"/>
<path d="M24.8262 32.7461H29.9692" stroke="white" stroke-width="1.5" stroke-linecap="round" stroke-linejoin="round"/>
<path d="M31.6484 37.142C31.6484 38.2286 31.9707 39.2908 32.5743 40.1943C33.178 41.0977 34.0361 41.8019 35.04 42.2177C36.0439 42.6336 37.1485 42.7424 38.2143 42.5304C39.28 42.3184 40.2589 41.7951 41.0273 41.0268C41.7956 40.2584 42.3189 39.2795 42.5309 38.2138C42.7429 37.148 42.6341 36.0434 42.2182 35.0395C41.8024 34.0356 41.0982 33.1775 40.1947 32.5739C39.2913 31.9702 38.2291 31.6479 37.1424 31.6479C35.6853 31.6479 34.2879 32.2268 33.2576 33.2571C32.2273 34.2874 31.6484 35.6849 31.6484 37.142Z" stroke="white" stroke-width="1.5" stroke-linecap="round" stroke-linejoin="round"/>
<path d="M37.1406 34.9441V39.3441" stroke="white" stroke-width="1.5" stroke-linecap="round" stroke-linejoin="round"/>
<path d="M34.9434 37.1421H39.3434" stroke="white" stroke-width="1.5" stroke-linecap="round" stroke-linejoin="round"/>
</g>
<defs>
<clipPath id="clip0_3559_74920">
<rect width="63" height="63" fill="white"/>
</clipPath>
</defs>
</svg>
