<svg width="63" height="63" viewBox="0 0 63 63" fill="none" xmlns="http://www.w3.org/2000/svg">
<g clip-path="url(#clip0_3559_74910)">
<path opacity="0.3" d="M33 63C49.5685 63 63 49.5685 63 33C63 16.4315 49.5685 3 33 3C16.4315 3 3 16.4315 3 33C3 49.5685 16.4315 63 33 63Z" fill="#9CE7EA"/>
<path d="M30 60C46.5685 60 60 46.5685 60 30C60 13.4315 46.5685 0 30 0C13.4315 0 0 13.4315 0 30C0 46.5685 13.4315 60 30 60Z" fill="#9CE7EA"/>
<path d="M23.9551 37.69C23.9551 38.0159 24.0517 38.3346 24.2328 38.6056C24.4139 38.8766 24.6713 39.0878 24.9724 39.2125C25.2735 39.3373 25.6049 39.3699 25.9246 39.3063C26.2443 39.2427 26.5379 39.0858 26.7684 38.8553C26.9989 38.6248 27.1558 38.3312 27.2194 38.0115C27.283 37.6918 27.2504 37.3605 27.1256 37.0593C27.0009 36.7582 26.7897 36.5008 26.5187 36.3197C26.2476 36.1386 25.929 36.042 25.6031 36.042C25.3867 36.042 25.1724 36.0846 24.9724 36.1674C24.7725 36.2503 24.5908 36.3717 24.4378 36.5247C24.2847 36.6777 24.1633 36.8594 24.0805 37.0593C23.9977 37.2593 23.9551 37.4736 23.9551 37.69Z" stroke="white" stroke-width="1.5" stroke-linecap="round" stroke-linejoin="round"/>
<path d="M37.9551 37.69C37.9551 38.0159 38.0517 38.3346 38.2328 38.6056C38.4139 38.8766 38.6713 39.0878 38.9724 39.2125C39.2735 39.3373 39.6049 39.3699 39.9246 39.3063C40.2443 39.2427 40.5379 39.0858 40.7684 38.8553C40.9989 38.6248 41.1558 38.3312 41.2194 38.0115C41.283 37.6918 41.2504 37.3605 41.1256 37.0593C41.0009 36.7582 40.7897 36.5008 40.5187 36.3197C40.2476 36.1386 39.929 36.042 39.6031 36.042C39.3867 36.042 39.1724 36.0846 38.9724 36.1674C38.7725 36.2503 38.5908 36.3717 38.4378 36.5247C38.2847 36.6777 38.1633 36.8594 38.0805 37.0593C37.9977 37.2593 37.9551 37.4736 37.9551 37.69Z" stroke="white" stroke-width="1.5" stroke-linecap="round" stroke-linejoin="round"/>
<path d="M17.3633 17.364H20.3373C20.5849 17.3641 20.8253 17.4478 21.0195 17.6015C21.2137 17.7552 21.3503 17.97 21.4073 18.211L25.6073 36.043H39.0073" stroke="white" stroke-width="1.5" stroke-linecap="round" stroke-linejoin="round"/>
<path d="M40.9688 28.953L42.1518 25.403C42.2065 25.2378 42.2213 25.062 42.1948 24.89C42.1684 24.718 42.1015 24.5547 41.9997 24.4135C41.8979 24.2724 41.7641 24.1574 41.6092 24.078C41.4543 23.9987 41.2828 23.9572 41.1088 23.957H22.7598" stroke="white" stroke-width="1.5" stroke-linecap="round" stroke-linejoin="round"/>
<path d="M24.8262 32.7461H39.8182" stroke="white" stroke-width="1.5" stroke-linecap="round" stroke-linejoin="round"/>
</g>
<defs>
<clipPath id="clip0_3559_74910">
<rect width="63" height="63" fill="white"/>
</clipPath>
</defs>
</svg>
