<svg width="63" height="63" viewBox="0 0 63 63" fill="none" xmlns="http://www.w3.org/2000/svg">
<g clip-path="url(#clip0_3559_74932)">
<path opacity="0.3" d="M33 63C49.5685 63 63 49.5685 63 33C63 16.4315 49.5685 3 33 3C16.4315 3 3 16.4315 3 33C3 49.5685 16.4315 63 33 63Z" fill="#6AD9B1"/>
<path d="M30 60C46.5685 60 60 46.5685 60 30C60 13.4315 46.5685 0 30 0C13.4315 0 0 13.4315 0 30C0 46.5685 13.4315 60 30 60Z" fill="#6AD9B1"/>
<path d="M33.6033 26.621L29.0913 28.104C28.7294 28.229 28.3333 28.2108 27.9844 28.0533C27.6354 27.8958 27.3599 27.6107 27.2143 27.2566C27.0687 26.9025 27.064 26.5061 27.2012 26.1486C27.3384 25.7912 27.6071 25.4997 27.9523 25.334L32.3243 23.149C32.6972 22.9639 33.1038 22.8566 33.5195 22.8336C33.9352 22.8105 34.3512 22.8722 34.7423 23.015L41.1973 25.355V34.213L33.5973 35.657" stroke="white" stroke-width="1.5" stroke-linecap="round" stroke-linejoin="round"/>
<path d="M19.6855 34.212H22.8485L27.3915 39.304C27.6227 39.5726 27.9305 39.7639 28.2736 39.8523C28.6167 39.9408 28.9786 39.922 29.3107 39.7986C29.6428 39.6753 29.9292 39.4532 30.1314 39.1622C30.3336 38.8712 30.4418 38.5253 30.4415 38.171V37.371L30.6685 37.462C30.9935 37.5919 31.3454 37.6402 31.6934 37.6027C32.0414 37.5651 32.3748 37.4429 32.6646 37.2466C32.9544 37.0504 33.1917 36.7861 33.3558 36.4769C33.5198 36.1677 33.6055 35.823 33.6055 35.473H34.2385C34.5907 35.4723 34.9357 35.3736 35.2351 35.1881C35.5345 35.0026 35.7764 34.7376 35.9338 34.4225C36.0913 34.1075 36.1581 33.7549 36.1268 33.4042C36.0955 33.0534 35.9673 32.7182 35.7565 32.436L31.7075 27.248" stroke="white" stroke-width="1.5" stroke-linecap="round" stroke-linejoin="round"/>
<path d="M28.6085 24.9999L28.1455 24.6199C27.7741 24.3449 27.3386 24.1692 26.8802 24.1097C26.4219 24.0502 25.9559 24.1088 25.5265 24.2799L19.6855 26.6209" stroke="white" stroke-width="1.5" stroke-linecap="round" stroke-linejoin="round"/>
<path d="M15.8887 24.0889H18.4187C18.7542 24.0889 19.0759 24.2221 19.3132 24.4594C19.5504 24.6966 19.6837 25.0184 19.6837 25.3539V34.2119C19.6837 34.5474 19.5504 34.8691 19.3132 35.1064C19.0759 35.3436 18.7542 35.4769 18.4187 35.4769H15.8887" stroke="white" stroke-width="1.5" stroke-linecap="round" stroke-linejoin="round"/>
<path d="M44.9913 35.4781H42.4603C42.1248 35.4781 41.8031 35.3448 41.5658 35.1076C41.3286 34.8703 41.1953 34.5486 41.1953 34.2131V25.3551C41.1953 25.0196 41.3286 24.6978 41.5658 24.4606C41.8031 24.2234 42.1248 24.0901 42.4603 24.0901H44.9913" stroke="white" stroke-width="1.5" stroke-linecap="round" stroke-linejoin="round"/>
<path d="M30.4388 37.3761L29.1738 36.1111" stroke="white" stroke-width="1.5" stroke-linecap="round" stroke-linejoin="round"/>
<path d="M31.7051 33.5801L33.6051 35.4801" stroke="white" stroke-width="1.5" stroke-linecap="round" stroke-linejoin="round"/>
</g>
<defs>
<clipPath id="clip0_3559_74932">
<rect width="63" height="63" fill="white"/>
</clipPath>
</defs>
</svg>
