<svg width="76" height="22" viewBox="0 0 76 22" fill="none" xmlns="http://www.w3.org/2000/svg">
<g clip-path="url(#clip0_49_2015)">
<path d="M19.5547 0.225586H22.9761V21.6096H19.5547V0.225586ZM34.9512 14.7881C34.9842 15.2638 34.9142 15.741 34.7459 16.1872C34.5776 16.6333 34.3151 17.038 33.9761 17.3734C33.6372 17.7088 33.2299 17.9672 32.782 18.1308C32.3341 18.2944 31.8562 18.3595 31.3809 18.3216C29.3357 18.3216 28.9636 16.4073 28.9636 15.2525V7.06846H25.5422V15.2354C25.5019 16.114 25.6359 16.9919 25.9366 17.8184C26.2372 18.645 26.6986 19.4038 27.294 20.0511C28.3945 21.0738 29.8536 21.6217 31.3552 21.5762C32.6448 21.6028 33.9072 21.2043 34.9477 20.442V21.6096H38.3692V7.06846H34.9477L34.9512 14.7881ZM45.2155 1.93631H41.794V7.06846H39.228V10.4899H41.794V21.6096H45.2155V10.4899H47.7816V7.06846H45.2155V1.93631ZM58.5591 17.2618C57.785 17.9458 56.7838 18.3169 55.7509 18.3028C55.2029 18.3191 54.6572 18.2229 54.1478 18.02C53.6384 17.8171 53.176 17.512 52.7892 17.1233C52.4024 16.7347 52.0994 16.2708 51.8989 15.7604C51.6985 15.25 51.6049 14.704 51.6238 14.156C51.6017 13.6105 51.6938 13.0665 51.8941 12.5587C52.0944 12.0509 52.3985 11.5906 52.7871 11.2071C53.1756 10.8237 53.6399 10.5256 54.1503 10.332C54.6607 10.1384 55.2059 10.0535 55.7509 10.0828C56.7867 10.0697 57.7918 10.4346 58.5779 11.1092L59.0971 11.5557L61.4066 9.24621L60.8292 8.7253C59.4313 7.4793 57.6201 6.79733 55.7475 6.81186C54.7729 6.77495 53.8011 6.93878 52.8925 7.29315C51.9838 7.64753 51.1577 8.18489 50.4654 8.87189C49.7731 9.55888 49.2294 10.3808 48.8681 11.2867C48.5068 12.1926 48.3355 13.1631 48.3649 14.138C48.3415 15.1156 48.5162 16.0878 48.8785 16.996C49.2408 17.9043 49.7831 18.7298 50.4729 19.4229C51.1627 20.116 51.9856 20.6624 52.892 21.0291C53.7985 21.3958 54.7699 21.5752 55.7475 21.5565C57.6353 21.5817 59.4626 20.891 60.8617 19.6234L61.4194 19.1025L59.0766 16.7982L58.5591 17.2618ZM73.6134 8.33611C72.6908 7.4309 71.4705 6.8921 70.18 6.82018C68.8895 6.74826 67.6169 7.14812 66.5995 7.94521V0.225586H63.178V21.6096H66.5995V13.5991C66.5995 10.3265 68.9243 10.0665 69.7429 10.0665C71.7881 10.0665 71.7316 11.9816 71.7316 13.1347V21.6096H75.1531V13.1526C75.1531 11.1254 74.7254 9.45235 73.6134 8.33611Z" fill="white"/>
<path d="M55.6339 11.7178C56.1231 11.7178 56.6014 11.8629 57.0082 12.1347C57.415 12.4065 57.732 12.7928 57.9193 13.2448C58.1065 13.6968 58.1555 14.1942 58.06 14.6741C57.9646 15.1539 57.729 15.5947 57.383 15.9406C57.0371 16.2866 56.5963 16.5222 56.1165 16.6176C55.6366 16.7131 55.1392 16.6641 54.6872 16.4769C54.2352 16.2896 53.8489 15.9726 53.577 15.5658C53.3052 15.159 53.1602 14.6807 53.1602 14.1915C53.1602 13.8666 53.2241 13.545 53.3485 13.2448C53.4728 12.9447 53.655 12.672 53.8847 12.4423C54.1144 12.2126 54.3871 12.0304 54.6872 11.9061C54.9873 11.7818 55.309 11.7178 55.6339 11.7178Z" fill="#FF3D2E"/>
<path d="M14.7644 16.2419C14.1238 16.8994 13.3573 17.421 12.5107 17.7756C11.664 18.1302 10.7545 18.3106 9.83664 18.3059C6.02515 18.3059 3.25037 15.3121 3.25037 11.2064C3.25037 7.07159 6.02515 4.07783 9.83664 4.07783C10.7501 4.07849 11.6543 4.26026 12.4971 4.61263C13.3398 4.965 14.1043 5.48097 14.7464 6.1307L15.2665 6.65161L17.5537 4.3601L17.0516 3.83919C16.1144 2.87636 14.992 2.11316 13.7521 1.59557C12.5121 1.07798 11.1802 0.816703 9.83664 0.827468C4.2212 0.827468 0 5.28988 0 11.2209C0 17.134 4.24002 21.5785 9.83664 21.5785C11.1845 21.5877 12.5203 21.324 13.7635 20.8032C15.0067 20.2823 16.1316 19.5152 17.0704 18.548L17.5725 18.027L15.3041 15.703L14.7644 16.2419Z" fill="white"/>
</g>
<defs>
<clipPath id="clip0_49_2015">
<rect width="75.1527" height="21.384" fill="white" transform="translate(0 0.225586)"/>
</clipPath>
</defs>
</svg>
