<svg width="1875" height="681" viewBox="0 0 1875 681" fill="none" xmlns="http://www.w3.org/2000/svg">
<g clip-path="url(#clip0_93_1999)">
<rect width="1875" height="681" fill="#4583F7"/>
<path d="M198.287 600.77C199.118 602.209 199.927 603.662 200.714 605.129C199.285 604.194 198.33 602.595 198.287 600.77Z" fill="#9CBFFF"/>
<path d="M168.954 563.785C171.451 566.128 173.872 568.549 176.215 571.046C175.309 572.72 173.537 573.857 171.5 573.857C168.541 573.857 166.143 571.459 166.143 568.5C166.143 566.463 167.28 564.691 168.954 563.785Z" fill="#9CBFFF"/>
<path d="M134.871 539.286C136.338 540.073 137.791 540.882 139.23 541.713C137.405 541.67 135.806 540.715 134.871 539.286Z" fill="#9CBFFF"/>
<path d="M-21.2297 541.713C-19.7907 540.882 -18.3377 540.073 -16.871 539.286C-17.8058 540.715 -19.4049 541.67 -21.2297 541.713Z" fill="#9CBFFF"/>
<path d="M-58.2148 571.046C-55.8721 568.549 -53.4506 566.128 -50.9543 563.785C-49.28 564.691 -48.1429 566.463 -48.1429 568.5C-48.1429 571.459 -50.5413 573.857 -53.5 573.857C-55.5372 573.857 -57.3089 572.72 -58.2148 571.046Z" fill="#9CBFFF"/>
<path d="M-82.7137 605.129C-81.9269 603.662 -81.1179 602.209 -80.2872 600.77C-80.3298 602.595 -81.2848 604.194 -82.7137 605.129Z" fill="#9CBFFF"/>
<path d="M200.714 756.871C199.927 758.338 199.118 759.791 198.287 761.23C198.33 759.405 199.285 757.806 200.714 756.871Z" fill="#9CBFFF"/>
<path d="M176.215 790.954C175.309 789.28 173.537 788.143 171.5 788.143C168.541 788.143 166.143 790.541 166.143 793.5C166.143 795.537 167.28 797.309 168.954 798.215C171.451 795.872 173.872 793.451 176.215 790.954Z" fill="#9CBFFF"/>
<path d="M139.23 820.287C137.405 820.33 135.806 821.285 134.871 822.714C136.338 821.927 137.791 821.118 139.23 820.287Z" fill="#9CBFFF"/>
<path d="M-16.871 822.714C-17.8058 821.285 -19.4049 820.33 -21.2297 820.287C-19.7907 821.118 -18.3377 821.927 -16.871 822.714Z" fill="#9CBFFF"/>
<path d="M-50.9543 798.215C-49.28 797.309 -48.1429 795.537 -48.1429 793.5C-48.1429 790.541 -50.5413 788.143 -53.5 788.143C-55.5372 788.143 -57.3089 789.28 -58.2148 790.954C-55.8721 793.451 -53.4506 795.872 -50.9543 798.215Z" fill="#9CBFFF"/>
<path d="M-80.2872 761.23C-80.3298 759.405 -81.2848 757.806 -82.7137 756.871C-81.9269 758.338 -81.1179 759.791 -80.2872 761.23Z" fill="#9CBFFF"/>
<path d="M16.1429 536.357C16.1429 539.316 13.7444 541.714 10.7857 541.714C7.82705 541.714 5.42857 539.316 5.42857 536.357C5.42857 533.398 7.82705 531 10.7857 531C13.7444 531 16.1429 533.398 16.1429 536.357Z" fill="#9CBFFF"/>
<path d="M48.2857 536.357C48.2857 539.316 45.8872 541.714 42.9286 541.714C39.9699 541.714 37.5714 539.316 37.5714 536.357C37.5714 533.398 39.9699 531 42.9286 531C45.8872 531 48.2857 533.398 48.2857 536.357Z" fill="#9CBFFF"/>
<path d="M80.4286 536.357C80.4286 539.316 78.0301 541.714 75.0714 541.714C72.1128 541.714 69.7143 539.316 69.7143 536.357C69.7143 533.398 72.1128 531 75.0714 531C78.0301 531 80.4286 533.398 80.4286 536.357Z" fill="#9CBFFF"/>
<path d="M112.571 536.357C112.571 539.316 110.173 541.714 107.214 541.714C104.256 541.714 101.857 539.316 101.857 536.357C101.857 533.398 104.256 531 107.214 531C110.173 531 112.571 533.398 112.571 536.357Z" fill="#9CBFFF"/>
<path d="M-16 568.5C-16 571.459 -18.3985 573.857 -21.3571 573.857C-24.3158 573.857 -26.7143 571.459 -26.7143 568.5C-26.7143 565.541 -24.3158 563.143 -21.3571 563.143C-18.3985 563.143 -16 565.541 -16 568.5Z" fill="#9CBFFF"/>
<path d="M16.1429 568.5C16.1429 571.459 13.7444 573.857 10.7857 573.857C7.82705 573.857 5.42857 571.459 5.42857 568.5C5.42857 565.541 7.82705 563.143 10.7857 563.143C13.7444 563.143 16.1429 565.541 16.1429 568.5Z" fill="#9CBFFF"/>
<path d="M48.2857 568.5C48.2857 571.459 45.8872 573.857 42.9286 573.857C39.9699 573.857 37.5714 571.459 37.5714 568.5C37.5714 565.541 39.9699 563.143 42.9286 563.143C45.8872 563.143 48.2857 565.541 48.2857 568.5Z" fill="#9CBFFF"/>
<path d="M80.4286 568.5C80.4286 571.459 78.0301 573.857 75.0714 573.857C72.1128 573.857 69.7143 571.459 69.7143 568.5C69.7143 565.541 72.1128 563.143 75.0714 563.143C78.0301 563.143 80.4286 565.541 80.4286 568.5Z" fill="#9CBFFF"/>
<path d="M112.571 568.5C112.571 571.459 110.173 573.857 107.214 573.857C104.256 573.857 101.857 571.459 101.857 568.5C101.857 565.541 104.256 563.143 107.214 563.143C110.173 563.143 112.571 565.541 112.571 568.5Z" fill="#9CBFFF"/>
<path d="M144.714 568.5C144.714 571.459 142.316 573.857 139.357 573.857C136.398 573.857 134 571.459 134 568.5C134 565.541 136.398 563.143 139.357 563.143C142.316 563.143 144.714 565.541 144.714 568.5Z" fill="#9CBFFF"/>
<path d="M-48.1429 600.643C-48.1429 603.602 -50.5413 606 -53.5 606C-56.4587 606 -58.8571 603.602 -58.8571 600.643C-58.8571 597.684 -56.4587 595.286 -53.5 595.286C-50.5413 595.286 -48.1429 597.684 -48.1429 600.643Z" fill="#9CBFFF"/>
<path d="M-16 600.643C-16 603.602 -18.3985 606 -21.3571 606C-24.3158 606 -26.7143 603.602 -26.7143 600.643C-26.7143 597.684 -24.3158 595.286 -21.3571 595.286C-18.3985 595.286 -16 597.684 -16 600.643Z" fill="#9CBFFF"/>
<path d="M16.1429 600.643C16.1429 603.602 13.7444 606 10.7857 606C7.82705 606 5.42857 603.602 5.42857 600.643C5.42857 597.684 7.82705 595.286 10.7857 595.286C13.7444 595.286 16.1429 597.684 16.1429 600.643Z" fill="#9CBFFF"/>
<path d="M48.2857 600.643C48.2857 603.602 45.8872 606 42.9286 606C39.9699 606 37.5714 603.602 37.5714 600.643C37.5714 597.684 39.9699 595.286 42.9286 595.286C45.8872 595.286 48.2857 597.684 48.2857 600.643Z" fill="#9CBFFF"/>
<path d="M80.4286 600.643C80.4286 603.602 78.0301 606 75.0714 606C72.1128 606 69.7143 603.602 69.7143 600.643C69.7143 597.684 72.1128 595.286 75.0714 595.286C78.0301 595.286 80.4286 597.684 80.4286 600.643Z" fill="#9CBFFF"/>
<path d="M112.571 600.643C112.571 603.602 110.173 606 107.214 606C104.256 606 101.857 603.602 101.857 600.643C101.857 597.684 104.256 595.286 107.214 595.286C110.173 595.286 112.571 597.684 112.571 600.643Z" fill="#9CBFFF"/>
<path d="M144.714 600.643C144.714 603.602 142.316 606 139.357 606C136.398 606 134 603.602 134 600.643C134 597.684 136.398 595.286 139.357 595.286C142.316 595.286 144.714 597.684 144.714 600.643Z" fill="#9CBFFF"/>
<path d="M176.857 600.643C176.857 603.602 174.459 606 171.5 606C168.541 606 166.143 603.602 166.143 600.643C166.143 597.684 168.541 595.286 171.5 595.286C174.459 595.286 176.857 597.684 176.857 600.643Z" fill="#9CBFFF"/>
<path d="M-80.2857 632.786C-80.2857 635.744 -82.6842 638.143 -85.6429 638.143C-88.6015 638.143 -91 635.744 -91 632.786C-91 629.827 -88.6015 627.429 -85.6429 627.429C-82.6842 627.429 -80.2857 629.827 -80.2857 632.786Z" fill="#9CBFFF"/>
<path d="M-48.1429 632.786C-48.1429 635.744 -50.5413 638.143 -53.5 638.143C-56.4587 638.143 -58.8571 635.744 -58.8571 632.786C-58.8571 629.827 -56.4587 627.429 -53.5 627.429C-50.5413 627.429 -48.1429 629.827 -48.1429 632.786Z" fill="#9CBFFF"/>
<path d="M-16 632.786C-16 635.744 -18.3985 638.143 -21.3571 638.143C-24.3158 638.143 -26.7143 635.744 -26.7143 632.786C-26.7143 629.827 -24.3158 627.429 -21.3571 627.429C-18.3985 627.429 -16 629.827 -16 632.786Z" fill="#9CBFFF"/>
<path d="M16.1429 632.786C16.1429 635.744 13.7444 638.143 10.7857 638.143C7.82705 638.143 5.42857 635.744 5.42857 632.786C5.42857 629.827 7.82705 627.429 10.7857 627.429C13.7444 627.429 16.1429 629.827 16.1429 632.786Z" fill="#9CBFFF"/>
<path d="M48.2857 632.786C48.2857 635.744 45.8872 638.143 42.9286 638.143C39.9699 638.143 37.5714 635.744 37.5714 632.786C37.5714 629.827 39.9699 627.429 42.9286 627.429C45.8872 627.429 48.2857 629.827 48.2857 632.786Z" fill="#9CBFFF"/>
<path d="M80.4286 632.786C80.4286 635.744 78.0301 638.143 75.0714 638.143C72.1128 638.143 69.7143 635.744 69.7143 632.786C69.7143 629.827 72.1128 627.429 75.0714 627.429C78.0301 627.429 80.4286 629.827 80.4286 632.786Z" fill="#9CBFFF"/>
<path d="M112.571 632.786C112.571 635.744 110.173 638.143 107.214 638.143C104.256 638.143 101.857 635.744 101.857 632.786C101.857 629.827 104.256 627.429 107.214 627.429C110.173 627.429 112.571 629.827 112.571 632.786Z" fill="#9CBFFF"/>
<path d="M144.714 632.786C144.714 635.744 142.316 638.143 139.357 638.143C136.398 638.143 134 635.744 134 632.786C134 629.827 136.398 627.429 139.357 627.429C142.316 627.429 144.714 629.827 144.714 632.786Z" fill="#9CBFFF"/>
<path d="M176.857 632.786C176.857 635.744 174.459 638.143 171.5 638.143C168.541 638.143 166.143 635.744 166.143 632.786C166.143 629.827 168.541 627.429 171.5 627.429C174.459 627.429 176.857 629.827 176.857 632.786Z" fill="#9CBFFF"/>
<path d="M209 632.786C209 635.744 206.602 638.143 203.643 638.143C200.684 638.143 198.286 635.744 198.286 632.786C198.286 629.827 200.684 627.429 203.643 627.429C206.602 627.429 209 629.827 209 632.786Z" fill="#9CBFFF"/>
<path d="M-80.2857 664.929C-80.2857 667.887 -82.6842 670.286 -85.6429 670.286C-88.6015 670.286 -91 667.887 -91 664.929C-91 661.97 -88.6015 659.571 -85.6429 659.571C-82.6842 659.571 -80.2857 661.97 -80.2857 664.929Z" fill="#9CBFFF"/>
<path d="M-48.1429 664.929C-48.1429 667.887 -50.5413 670.286 -53.5 670.286C-56.4587 670.286 -58.8571 667.887 -58.8571 664.929C-58.8571 661.97 -56.4587 659.571 -53.5 659.571C-50.5413 659.571 -48.1429 661.97 -48.1429 664.929Z" fill="#9CBFFF"/>
<path d="M-16 664.929C-16 667.887 -18.3985 670.286 -21.3571 670.286C-24.3158 670.286 -26.7143 667.887 -26.7143 664.929C-26.7143 661.97 -24.3158 659.571 -21.3571 659.571C-18.3985 659.571 -16 661.97 -16 664.929Z" fill="#9CBFFF"/>
<path d="M16.1429 664.929C16.1429 667.887 13.7444 670.286 10.7857 670.286C7.82705 670.286 5.42857 667.887 5.42857 664.929C5.42857 661.97 7.82705 659.571 10.7857 659.571C13.7444 659.571 16.1429 661.97 16.1429 664.929Z" fill="#9CBFFF"/>
<path d="M48.2857 664.929C48.2857 667.887 45.8872 670.286 42.9286 670.286C39.9699 670.286 37.5714 667.887 37.5714 664.929C37.5714 661.97 39.9699 659.571 42.9286 659.571C45.8872 659.571 48.2857 661.97 48.2857 664.929Z" fill="#9CBFFF"/>
<path d="M80.4286 664.929C80.4286 667.887 78.0301 670.286 75.0714 670.286C72.1128 670.286 69.7143 667.887 69.7143 664.929C69.7143 661.97 72.1128 659.571 75.0714 659.571C78.0301 659.571 80.4286 661.97 80.4286 664.929Z" fill="#9CBFFF"/>
<path d="M112.571 664.929C112.571 667.887 110.173 670.286 107.214 670.286C104.256 670.286 101.857 667.887 101.857 664.929C101.857 661.97 104.256 659.571 107.214 659.571C110.173 659.571 112.571 661.97 112.571 664.929Z" fill="#9CBFFF"/>
<path d="M144.714 664.929C144.714 667.887 142.316 670.286 139.357 670.286C136.398 670.286 134 667.887 134 664.929C134 661.97 136.398 659.571 139.357 659.571C142.316 659.571 144.714 661.97 144.714 664.929Z" fill="#9CBFFF"/>
<path d="M176.857 664.929C176.857 667.887 174.459 670.286 171.5 670.286C168.541 670.286 166.143 667.887 166.143 664.929C166.143 661.97 168.541 659.571 171.5 659.571C174.459 659.571 176.857 661.97 176.857 664.929Z" fill="#9CBFFF"/>
<path d="M209 664.929C209 667.887 206.602 670.286 203.643 670.286C200.684 670.286 198.286 667.887 198.286 664.929C198.286 661.97 200.684 659.571 203.643 659.571C206.602 659.571 209 661.97 209 664.929Z" fill="#9CBFFF"/>
<path d="M-80.2857 697.071C-80.2857 700.03 -82.6842 702.429 -85.6429 702.429C-88.6015 702.429 -91 700.03 -91 697.071C-91 694.113 -88.6015 691.714 -85.6429 691.714C-82.6842 691.714 -80.2857 694.113 -80.2857 697.071Z" fill="#9CBFFF"/>
<path d="M-48.1429 697.071C-48.1429 700.03 -50.5413 702.429 -53.5 702.429C-56.4587 702.429 -58.8571 700.03 -58.8571 697.071C-58.8571 694.113 -56.4587 691.714 -53.5 691.714C-50.5413 691.714 -48.1429 694.113 -48.1429 697.071Z" fill="#9CBFFF"/>
<path d="M-16 697.071C-16 700.03 -18.3985 702.429 -21.3571 702.429C-24.3158 702.429 -26.7143 700.03 -26.7143 697.071C-26.7143 694.113 -24.3158 691.714 -21.3571 691.714C-18.3985 691.714 -16 694.113 -16 697.071Z" fill="#9CBFFF"/>
<path d="M16.1429 697.071C16.1429 700.03 13.7444 702.429 10.7857 702.429C7.82705 702.429 5.42857 700.03 5.42857 697.071C5.42857 694.113 7.82705 691.714 10.7857 691.714C13.7444 691.714 16.1429 694.113 16.1429 697.071Z" fill="#9CBFFF"/>
<path d="M48.2857 697.071C48.2857 700.03 45.8872 702.429 42.9286 702.429C39.9699 702.429 37.5714 700.03 37.5714 697.071C37.5714 694.113 39.9699 691.714 42.9286 691.714C45.8872 691.714 48.2857 694.113 48.2857 697.071Z" fill="#9CBFFF"/>
<path d="M80.4286 697.071C80.4286 700.03 78.0301 702.429 75.0714 702.429C72.1128 702.429 69.7143 700.03 69.7143 697.071C69.7143 694.113 72.1128 691.714 75.0714 691.714C78.0301 691.714 80.4286 694.113 80.4286 697.071Z" fill="#9CBFFF"/>
<path d="M112.571 697.071C112.571 700.03 110.173 702.429 107.214 702.429C104.256 702.429 101.857 700.03 101.857 697.071C101.857 694.113 104.256 691.714 107.214 691.714C110.173 691.714 112.571 694.113 112.571 697.071Z" fill="#9CBFFF"/>
<path d="M144.714 697.071C144.714 700.03 142.316 702.429 139.357 702.429C136.398 702.429 134 700.03 134 697.071C134 694.113 136.398 691.714 139.357 691.714C142.316 691.714 144.714 694.113 144.714 697.071Z" fill="#9CBFFF"/>
<path d="M176.857 697.071C176.857 700.03 174.459 702.429 171.5 702.429C168.541 702.429 166.143 700.03 166.143 697.071C166.143 694.113 168.541 691.714 171.5 691.714C174.459 691.714 176.857 694.113 176.857 697.071Z" fill="#9CBFFF"/>
<path d="M209 697.071C209 700.03 206.602 702.429 203.643 702.429C200.684 702.429 198.286 700.03 198.286 697.071C198.286 694.113 200.684 691.714 203.643 691.714C206.602 691.714 209 694.113 209 697.071Z" fill="#9CBFFF"/>
<path d="M-80.2857 729.214C-80.2857 732.173 -82.6842 734.571 -85.6429 734.571C-88.6015 734.571 -91 732.173 -91 729.214C-91 726.256 -88.6015 723.857 -85.6429 723.857C-82.6842 723.857 -80.2857 726.256 -80.2857 729.214Z" fill="#9CBFFF"/>
<path d="M-48.1429 729.214C-48.1429 732.173 -50.5413 734.571 -53.5 734.571C-56.4587 734.571 -58.8571 732.173 -58.8571 729.214C-58.8571 726.256 -56.4587 723.857 -53.5 723.857C-50.5413 723.857 -48.1429 726.256 -48.1429 729.214Z" fill="#9CBFFF"/>
<path d="M-16 729.214C-16 732.173 -18.3985 734.571 -21.3571 734.571C-24.3158 734.571 -26.7143 732.173 -26.7143 729.214C-26.7143 726.256 -24.3158 723.857 -21.3571 723.857C-18.3985 723.857 -16 726.256 -16 729.214Z" fill="#9CBFFF"/>
<path d="M16.1429 729.214C16.1429 732.173 13.7444 734.571 10.7857 734.571C7.82705 734.571 5.42857 732.173 5.42857 729.214C5.42857 726.256 7.82705 723.857 10.7857 723.857C13.7444 723.857 16.1429 726.256 16.1429 729.214Z" fill="#9CBFFF"/>
<path d="M48.2857 729.214C48.2857 732.173 45.8872 734.571 42.9286 734.571C39.9699 734.571 37.5714 732.173 37.5714 729.214C37.5714 726.256 39.9699 723.857 42.9286 723.857C45.8872 723.857 48.2857 726.256 48.2857 729.214Z" fill="#9CBFFF"/>
<path d="M80.4286 729.214C80.4286 732.173 78.0301 734.571 75.0714 734.571C72.1128 734.571 69.7143 732.173 69.7143 729.214C69.7143 726.256 72.1128 723.857 75.0714 723.857C78.0301 723.857 80.4286 726.256 80.4286 729.214Z" fill="#9CBFFF"/>
<path d="M112.571 729.214C112.571 732.173 110.173 734.571 107.214 734.571C104.256 734.571 101.857 732.173 101.857 729.214C101.857 726.256 104.256 723.857 107.214 723.857C110.173 723.857 112.571 726.256 112.571 729.214Z" fill="#9CBFFF"/>
<path d="M144.714 729.214C144.714 732.173 142.316 734.571 139.357 734.571C136.398 734.571 134 732.173 134 729.214C134 726.256 136.398 723.857 139.357 723.857C142.316 723.857 144.714 726.256 144.714 729.214Z" fill="#9CBFFF"/>
<path d="M176.857 729.214C176.857 732.173 174.459 734.571 171.5 734.571C168.541 734.571 166.143 732.173 166.143 729.214C166.143 726.256 168.541 723.857 171.5 723.857C174.459 723.857 176.857 726.256 176.857 729.214Z" fill="#9CBFFF"/>
<path d="M209 729.214C209 732.173 206.602 734.571 203.643 734.571C200.684 734.571 198.286 732.173 198.286 729.214C198.286 726.256 200.684 723.857 203.643 723.857C206.602 723.857 209 726.256 209 729.214Z" fill="#9CBFFF"/>
<path d="M-48.1429 761.357C-48.1429 764.316 -50.5413 766.714 -53.5 766.714C-56.4587 766.714 -58.8571 764.316 -58.8571 761.357C-58.8571 758.398 -56.4587 756 -53.5 756C-50.5413 756 -48.1429 758.398 -48.1429 761.357Z" fill="#9CBFFF"/>
<path d="M-16 761.357C-16 764.316 -18.3985 766.714 -21.3571 766.714C-24.3158 766.714 -26.7143 764.316 -26.7143 761.357C-26.7143 758.398 -24.3158 756 -21.3571 756C-18.3985 756 -16 758.398 -16 761.357Z" fill="#9CBFFF"/>
<path d="M16.1429 761.357C16.1429 764.316 13.7444 766.714 10.7857 766.714C7.82705 766.714 5.42857 764.316 5.42857 761.357C5.42857 758.398 7.82705 756 10.7857 756C13.7444 756 16.1429 758.398 16.1429 761.357Z" fill="#9CBFFF"/>
<path d="M48.2857 761.357C48.2857 764.316 45.8872 766.714 42.9286 766.714C39.9699 766.714 37.5714 764.316 37.5714 761.357C37.5714 758.398 39.9699 756 42.9286 756C45.8872 756 48.2857 758.398 48.2857 761.357Z" fill="#9CBFFF"/>
<path d="M80.4286 761.357C80.4286 764.316 78.0301 766.714 75.0714 766.714C72.1128 766.714 69.7143 764.316 69.7143 761.357C69.7143 758.398 72.1128 756 75.0714 756C78.0301 756 80.4286 758.398 80.4286 761.357Z" fill="#9CBFFF"/>
<path d="M112.571 761.357C112.571 764.316 110.173 766.714 107.214 766.714C104.256 766.714 101.857 764.316 101.857 761.357C101.857 758.398 104.256 756 107.214 756C110.173 756 112.571 758.398 112.571 761.357Z" fill="#9CBFFF"/>
<path d="M144.714 761.357C144.714 764.316 142.316 766.714 139.357 766.714C136.398 766.714 134 764.316 134 761.357C134 758.398 136.398 756 139.357 756C142.316 756 144.714 758.398 144.714 761.357Z" fill="#9CBFFF"/>
<path d="M176.857 761.357C176.857 764.316 174.459 766.714 171.5 766.714C168.541 766.714 166.143 764.316 166.143 761.357C166.143 758.398 168.541 756 171.5 756C174.459 756 176.857 758.398 176.857 761.357Z" fill="#9CBFFF"/>
<path d="M-16 793.5C-16 796.459 -18.3985 798.857 -21.3571 798.857C-24.3158 798.857 -26.7143 796.459 -26.7143 793.5C-26.7143 790.541 -24.3158 788.143 -21.3571 788.143C-18.3985 788.143 -16 790.541 -16 793.5Z" fill="#9CBFFF"/>
<path d="M16.1429 793.5C16.1429 796.459 13.7444 798.857 10.7857 798.857C7.82705 798.857 5.42857 796.459 5.42857 793.5C5.42857 790.541 7.82705 788.143 10.7857 788.143C13.7444 788.143 16.1429 790.541 16.1429 793.5Z" fill="#9CBFFF"/>
<path d="M48.2857 793.5C48.2857 796.459 45.8872 798.857 42.9286 798.857C39.9699 798.857 37.5714 796.459 37.5714 793.5C37.5714 790.541 39.9699 788.143 42.9286 788.143C45.8872 788.143 48.2857 790.541 48.2857 793.5Z" fill="#9CBFFF"/>
<path d="M80.4286 793.5C80.4286 796.459 78.0301 798.857 75.0714 798.857C72.1128 798.857 69.7143 796.459 69.7143 793.5C69.7143 790.541 72.1128 788.143 75.0714 788.143C78.0301 788.143 80.4286 790.541 80.4286 793.5Z" fill="#9CBFFF"/>
<path d="M112.571 793.5C112.571 796.459 110.173 798.857 107.214 798.857C104.256 798.857 101.857 796.459 101.857 793.5C101.857 790.541 104.256 788.143 107.214 788.143C110.173 788.143 112.571 790.541 112.571 793.5Z" fill="#9CBFFF"/>
<path d="M144.714 793.5C144.714 796.459 142.316 798.857 139.357 798.857C136.398 798.857 134 796.459 134 793.5C134 790.541 136.398 788.143 139.357 788.143C142.316 788.143 144.714 790.541 144.714 793.5Z" fill="#9CBFFF"/>
<path d="M16.1429 825.643C16.1429 828.602 13.7444 831 10.7857 831C7.82705 831 5.42857 828.602 5.42857 825.643C5.42857 822.684 7.82705 820.286 10.7857 820.286C13.7444 820.286 16.1429 822.684 16.1429 825.643Z" fill="#9CBFFF"/>
<path d="M48.2857 825.643C48.2857 828.602 45.8872 831 42.9286 831C39.9699 831 37.5714 828.602 37.5714 825.643C37.5714 822.684 39.9699 820.286 42.9286 820.286C45.8872 820.286 48.2857 822.684 48.2857 825.643Z" fill="#9CBFFF"/>
<path d="M80.4286 825.643C80.4286 828.602 78.0301 831 75.0714 831C72.1128 831 69.7143 828.602 69.7143 825.643C69.7143 822.684 72.1128 820.286 75.0714 820.286C78.0301 820.286 80.4286 822.684 80.4286 825.643Z" fill="#9CBFFF"/>
<path d="M112.571 825.643C112.571 828.602 110.173 831 107.214 831C104.256 831 101.857 828.602 101.857 825.643C101.857 822.684 104.256 820.286 107.214 820.286C110.173 820.286 112.571 822.684 112.571 825.643Z" fill="#9CBFFF"/>
<path d="M1934.29 -50.2297C1935.12 -48.7907 1935.93 -47.3377 1936.71 -45.871C1935.28 -46.8058 1934.33 -48.4049 1934.29 -50.2297Z" fill="#9CBFFF"/>
<path d="M1904.95 -87.2148C1907.45 -84.8721 1909.87 -82.4506 1912.21 -79.9543C1911.31 -78.28 1909.54 -77.1429 1907.5 -77.1429C1904.54 -77.1429 1902.14 -79.5413 1902.14 -82.5C1902.14 -84.5372 1903.28 -86.3089 1904.95 -87.2148Z" fill="#9CBFFF"/>
<path d="M1870.87 -111.714C1872.34 -110.927 1873.79 -110.118 1875.23 -109.287C1873.4 -109.33 1871.81 -110.285 1870.87 -111.714Z" fill="#9CBFFF"/>
<path d="M1714.77 -109.287C1716.21 -110.118 1717.66 -110.927 1719.13 -111.714C1718.19 -110.285 1716.6 -109.33 1714.77 -109.287Z" fill="#9CBFFF"/>
<path d="M1677.79 -79.9543C1680.13 -82.4506 1682.55 -84.8721 1685.05 -87.2148C1686.72 -86.3089 1687.86 -84.5372 1687.86 -82.5C1687.86 -79.5413 1685.46 -77.1429 1682.5 -77.1429C1680.46 -77.1429 1678.69 -78.28 1677.79 -79.9543Z" fill="#9CBFFF"/>
<path d="M1653.29 -45.871C1654.07 -47.3377 1654.88 -48.7907 1655.71 -50.2297C1655.67 -48.4049 1654.72 -46.8058 1653.29 -45.871Z" fill="#9CBFFF"/>
<path d="M1936.71 105.871C1935.93 107.338 1935.12 108.791 1934.29 110.23C1934.33 108.405 1935.28 106.806 1936.71 105.871Z" fill="#9CBFFF"/>
<path d="M1912.21 139.954C1911.31 138.28 1909.54 137.143 1907.5 137.143C1904.54 137.143 1902.14 139.541 1902.14 142.5C1902.14 144.537 1903.28 146.309 1904.95 147.215C1907.45 144.872 1909.87 142.451 1912.21 139.954Z" fill="#9CBFFF"/>
<path d="M1875.23 169.287C1873.4 169.33 1871.81 170.285 1870.87 171.714C1872.34 170.927 1873.79 170.118 1875.23 169.287Z" fill="#9CBFFF"/>
<path d="M1719.13 171.714C1718.19 170.285 1716.6 169.33 1714.77 169.287C1716.21 170.118 1717.66 170.927 1719.13 171.714Z" fill="#9CBFFF"/>
<path d="M1685.05 147.215C1686.72 146.309 1687.86 144.537 1687.86 142.5C1687.86 139.541 1685.46 137.143 1682.5 137.143C1680.46 137.143 1678.69 138.28 1677.79 139.954C1680.13 142.451 1682.55 144.872 1685.05 147.215Z" fill="#9CBFFF"/>
<path d="M1655.71 110.23C1655.67 108.405 1654.72 106.806 1653.29 105.871C1654.07 107.338 1654.88 108.791 1655.71 110.23Z" fill="#9CBFFF"/>
<path d="M1752.14 -114.643C1752.14 -111.684 1749.74 -109.286 1746.79 -109.286C1743.83 -109.286 1741.43 -111.684 1741.43 -114.643C1741.43 -117.602 1743.83 -120 1746.79 -120C1749.74 -120 1752.14 -117.602 1752.14 -114.643Z" fill="#9CBFFF"/>
<path d="M1784.29 -114.643C1784.29 -111.684 1781.89 -109.286 1778.93 -109.286C1775.97 -109.286 1773.57 -111.684 1773.57 -114.643C1773.57 -117.602 1775.97 -120 1778.93 -120C1781.89 -120 1784.29 -117.602 1784.29 -114.643Z" fill="#9CBFFF"/>
<path d="M1816.43 -114.643C1816.43 -111.684 1814.03 -109.286 1811.07 -109.286C1808.11 -109.286 1805.71 -111.684 1805.71 -114.643C1805.71 -117.602 1808.11 -120 1811.07 -120C1814.03 -120 1816.43 -117.602 1816.43 -114.643Z" fill="#9CBFFF"/>
<path d="M1848.57 -114.643C1848.57 -111.684 1846.17 -109.286 1843.21 -109.286C1840.26 -109.286 1837.86 -111.684 1837.86 -114.643C1837.86 -117.602 1840.26 -120 1843.21 -120C1846.17 -120 1848.57 -117.602 1848.57 -114.643Z" fill="#9CBFFF"/>
<path d="M1720 -82.5C1720 -79.5413 1717.6 -77.1429 1714.64 -77.1429C1711.68 -77.1429 1709.29 -79.5413 1709.29 -82.5C1709.29 -85.4587 1711.68 -87.8571 1714.64 -87.8571C1717.6 -87.8571 1720 -85.4587 1720 -82.5Z" fill="#9CBFFF"/>
<path d="M1752.14 -82.5C1752.14 -79.5413 1749.74 -77.1429 1746.79 -77.1429C1743.83 -77.1429 1741.43 -79.5413 1741.43 -82.5C1741.43 -85.4587 1743.83 -87.8571 1746.79 -87.8571C1749.74 -87.8571 1752.14 -85.4587 1752.14 -82.5Z" fill="#9CBFFF"/>
<path d="M1784.29 -82.5C1784.29 -79.5413 1781.89 -77.1429 1778.93 -77.1429C1775.97 -77.1429 1773.57 -79.5413 1773.57 -82.5C1773.57 -85.4587 1775.97 -87.8571 1778.93 -87.8571C1781.89 -87.8571 1784.29 -85.4587 1784.29 -82.5Z" fill="#9CBFFF"/>
<path d="M1816.43 -82.5C1816.43 -79.5413 1814.03 -77.1429 1811.07 -77.1429C1808.11 -77.1429 1805.71 -79.5413 1805.71 -82.5C1805.71 -85.4587 1808.11 -87.8571 1811.07 -87.8571C1814.03 -87.8571 1816.43 -85.4587 1816.43 -82.5Z" fill="#9CBFFF"/>
<path d="M1848.57 -82.5C1848.57 -79.5413 1846.17 -77.1429 1843.21 -77.1429C1840.26 -77.1429 1837.86 -79.5413 1837.86 -82.5C1837.86 -85.4587 1840.26 -87.8571 1843.21 -87.8571C1846.17 -87.8571 1848.57 -85.4587 1848.57 -82.5Z" fill="#9CBFFF"/>
<path d="M1880.71 -82.5C1880.71 -79.5413 1878.32 -77.1429 1875.36 -77.1429C1872.4 -77.1429 1870 -79.5413 1870 -82.5C1870 -85.4587 1872.4 -87.8571 1875.36 -87.8571C1878.32 -87.8571 1880.71 -85.4587 1880.71 -82.5Z" fill="#9CBFFF"/>
<path d="M1687.86 -50.3571C1687.86 -47.3985 1685.46 -45 1682.5 -45C1679.54 -45 1677.14 -47.3985 1677.14 -50.3571C1677.14 -53.3158 1679.54 -55.7143 1682.5 -55.7143C1685.46 -55.7143 1687.86 -53.3158 1687.86 -50.3571Z" fill="#9CBFFF"/>
<path d="M1720 -50.3571C1720 -47.3985 1717.6 -45 1714.64 -45C1711.68 -45 1709.29 -47.3985 1709.29 -50.3571C1709.29 -53.3158 1711.68 -55.7143 1714.64 -55.7143C1717.6 -55.7143 1720 -53.3158 1720 -50.3571Z" fill="#9CBFFF"/>
<path d="M1752.14 -50.3571C1752.14 -47.3985 1749.74 -45 1746.79 -45C1743.83 -45 1741.43 -47.3985 1741.43 -50.3571C1741.43 -53.3158 1743.83 -55.7143 1746.79 -55.7143C1749.74 -55.7143 1752.14 -53.3158 1752.14 -50.3571Z" fill="#9CBFFF"/>
<path d="M1784.29 -50.3571C1784.29 -47.3985 1781.89 -45 1778.93 -45C1775.97 -45 1773.57 -47.3985 1773.57 -50.3571C1773.57 -53.3158 1775.97 -55.7143 1778.93 -55.7143C1781.89 -55.7143 1784.29 -53.3158 1784.29 -50.3571Z" fill="#9CBFFF"/>
<path d="M1816.43 -50.3571C1816.43 -47.3985 1814.03 -45 1811.07 -45C1808.11 -45 1805.71 -47.3985 1805.71 -50.3571C1805.71 -53.3158 1808.11 -55.7143 1811.07 -55.7143C1814.03 -55.7143 1816.43 -53.3158 1816.43 -50.3571Z" fill="#9CBFFF"/>
<path d="M1848.57 -50.3571C1848.57 -47.3985 1846.17 -45 1843.21 -45C1840.26 -45 1837.86 -47.3985 1837.86 -50.3571C1837.86 -53.3158 1840.26 -55.7143 1843.21 -55.7143C1846.17 -55.7143 1848.57 -53.3158 1848.57 -50.3571Z" fill="#9CBFFF"/>
<path d="M1880.71 -50.3571C1880.71 -47.3985 1878.32 -45 1875.36 -45C1872.4 -45 1870 -47.3985 1870 -50.3571C1870 -53.3158 1872.4 -55.7143 1875.36 -55.7143C1878.32 -55.7143 1880.71 -53.3158 1880.71 -50.3571Z" fill="#9CBFFF"/>
<path d="M1912.86 -50.3571C1912.86 -47.3985 1910.46 -45 1907.5 -45C1904.54 -45 1902.14 -47.3985 1902.14 -50.3571C1902.14 -53.3158 1904.54 -55.7143 1907.5 -55.7143C1910.46 -55.7143 1912.86 -53.3158 1912.86 -50.3571Z" fill="#9CBFFF"/>
<path d="M1655.71 -18.2143C1655.71 -15.2556 1653.32 -12.8571 1650.36 -12.8571C1647.4 -12.8571 1645 -15.2556 1645 -18.2143C1645 -21.173 1647.4 -23.5714 1650.36 -23.5714C1653.32 -23.5714 1655.71 -21.173 1655.71 -18.2143Z" fill="#9CBFFF"/>
<path d="M1687.86 -18.2143C1687.86 -15.2556 1685.46 -12.8571 1682.5 -12.8571C1679.54 -12.8571 1677.14 -15.2556 1677.14 -18.2143C1677.14 -21.173 1679.54 -23.5714 1682.5 -23.5714C1685.46 -23.5714 1687.86 -21.173 1687.86 -18.2143Z" fill="#9CBFFF"/>
<path d="M1720 -18.2143C1720 -15.2556 1717.6 -12.8571 1714.64 -12.8571C1711.68 -12.8571 1709.29 -15.2556 1709.29 -18.2143C1709.29 -21.173 1711.68 -23.5714 1714.64 -23.5714C1717.6 -23.5714 1720 -21.173 1720 -18.2143Z" fill="#9CBFFF"/>
<path d="M1752.14 -18.2143C1752.14 -15.2556 1749.74 -12.8571 1746.79 -12.8571C1743.83 -12.8571 1741.43 -15.2556 1741.43 -18.2143C1741.43 -21.173 1743.83 -23.5714 1746.79 -23.5714C1749.74 -23.5714 1752.14 -21.173 1752.14 -18.2143Z" fill="#9CBFFF"/>
<path d="M1784.29 -18.2143C1784.29 -15.2556 1781.89 -12.8571 1778.93 -12.8571C1775.97 -12.8571 1773.57 -15.2556 1773.57 -18.2143C1773.57 -21.173 1775.97 -23.5714 1778.93 -23.5714C1781.89 -23.5714 1784.29 -21.173 1784.29 -18.2143Z" fill="#9CBFFF"/>
<path d="M1816.43 -18.2143C1816.43 -15.2556 1814.03 -12.8571 1811.07 -12.8571C1808.11 -12.8571 1805.71 -15.2556 1805.71 -18.2143C1805.71 -21.173 1808.11 -23.5714 1811.07 -23.5714C1814.03 -23.5714 1816.43 -21.173 1816.43 -18.2143Z" fill="#9CBFFF"/>
<path d="M1848.57 -18.2143C1848.57 -15.2556 1846.17 -12.8571 1843.21 -12.8571C1840.26 -12.8571 1837.86 -15.2556 1837.86 -18.2143C1837.86 -21.173 1840.26 -23.5714 1843.21 -23.5714C1846.17 -23.5714 1848.57 -21.173 1848.57 -18.2143Z" fill="#9CBFFF"/>
<path d="M1880.71 -18.2143C1880.71 -15.2556 1878.32 -12.8571 1875.36 -12.8571C1872.4 -12.8571 1870 -15.2556 1870 -18.2143C1870 -21.173 1872.4 -23.5714 1875.36 -23.5714C1878.32 -23.5714 1880.71 -21.173 1880.71 -18.2143Z" fill="#9CBFFF"/>
<path d="M1912.86 -18.2143C1912.86 -15.2556 1910.46 -12.8571 1907.5 -12.8571C1904.54 -12.8571 1902.14 -15.2556 1902.14 -18.2143C1902.14 -21.173 1904.54 -23.5714 1907.5 -23.5714C1910.46 -23.5714 1912.86 -21.173 1912.86 -18.2143Z" fill="#9CBFFF"/>
<path d="M1945 -18.2143C1945 -15.2556 1942.6 -12.8571 1939.64 -12.8571C1936.68 -12.8571 1934.29 -15.2556 1934.29 -18.2143C1934.29 -21.173 1936.68 -23.5714 1939.64 -23.5714C1942.6 -23.5714 1945 -21.173 1945 -18.2143Z" fill="#9CBFFF"/>
<path d="M1655.71 13.9286C1655.71 16.8872 1653.32 19.2857 1650.36 19.2857C1647.4 19.2857 1645 16.8872 1645 13.9286C1645 10.9699 1647.4 8.57143 1650.36 8.57143C1653.32 8.57143 1655.71 10.9699 1655.71 13.9286Z" fill="#9CBFFF"/>
<path d="M1687.86 13.9286C1687.86 16.8872 1685.46 19.2857 1682.5 19.2857C1679.54 19.2857 1677.14 16.8872 1677.14 13.9286C1677.14 10.9699 1679.54 8.57143 1682.5 8.57143C1685.46 8.57143 1687.86 10.9699 1687.86 13.9286Z" fill="#9CBFFF"/>
<path d="M1720 13.9286C1720 16.8872 1717.6 19.2857 1714.64 19.2857C1711.68 19.2857 1709.29 16.8872 1709.29 13.9286C1709.29 10.9699 1711.68 8.57143 1714.64 8.57143C1717.6 8.57143 1720 10.9699 1720 13.9286Z" fill="#9CBFFF"/>
<path d="M1752.14 13.9286C1752.14 16.8872 1749.74 19.2857 1746.79 19.2857C1743.83 19.2857 1741.43 16.8872 1741.43 13.9286C1741.43 10.9699 1743.83 8.57143 1746.79 8.57143C1749.74 8.57143 1752.14 10.9699 1752.14 13.9286Z" fill="#9CBFFF"/>
<path d="M1784.29 13.9286C1784.29 16.8872 1781.89 19.2857 1778.93 19.2857C1775.97 19.2857 1773.57 16.8872 1773.57 13.9286C1773.57 10.9699 1775.97 8.57143 1778.93 8.57143C1781.89 8.57143 1784.29 10.9699 1784.29 13.9286Z" fill="#9CBFFF"/>
<path d="M1816.43 13.9286C1816.43 16.8872 1814.03 19.2857 1811.07 19.2857C1808.11 19.2857 1805.71 16.8872 1805.71 13.9286C1805.71 10.9699 1808.11 8.57143 1811.07 8.57143C1814.03 8.57143 1816.43 10.9699 1816.43 13.9286Z" fill="#9CBFFF"/>
<path d="M1848.57 13.9286C1848.57 16.8872 1846.17 19.2857 1843.21 19.2857C1840.26 19.2857 1837.86 16.8872 1837.86 13.9286C1837.86 10.9699 1840.26 8.57143 1843.21 8.57143C1846.17 8.57143 1848.57 10.9699 1848.57 13.9286Z" fill="#9CBFFF"/>
<path d="M1880.71 13.9286C1880.71 16.8872 1878.32 19.2857 1875.36 19.2857C1872.4 19.2857 1870 16.8872 1870 13.9286C1870 10.9699 1872.4 8.57143 1875.36 8.57143C1878.32 8.57143 1880.71 10.9699 1880.71 13.9286Z" fill="#9CBFFF"/>
<path d="M1912.86 13.9286C1912.86 16.8872 1910.46 19.2857 1907.5 19.2857C1904.54 19.2857 1902.14 16.8872 1902.14 13.9286C1902.14 10.9699 1904.54 8.57143 1907.5 8.57143C1910.46 8.57143 1912.86 10.9699 1912.86 13.9286Z" fill="#9CBFFF"/>
<path d="M1945 13.9286C1945 16.8872 1942.6 19.2857 1939.64 19.2857C1936.68 19.2857 1934.29 16.8872 1934.29 13.9286C1934.29 10.9699 1936.68 8.57143 1939.64 8.57143C1942.6 8.57143 1945 10.9699 1945 13.9286Z" fill="#9CBFFF"/>
<path d="M1655.71 46.0714C1655.71 49.0301 1653.32 51.4286 1650.36 51.4286C1647.4 51.4286 1645 49.0301 1645 46.0714C1645 43.1128 1647.4 40.7143 1650.36 40.7143C1653.32 40.7143 1655.71 43.1128 1655.71 46.0714Z" fill="#9CBFFF"/>
<path d="M1687.86 46.0714C1687.86 49.0301 1685.46 51.4286 1682.5 51.4286C1679.54 51.4286 1677.14 49.0301 1677.14 46.0714C1677.14 43.1128 1679.54 40.7143 1682.5 40.7143C1685.46 40.7143 1687.86 43.1128 1687.86 46.0714Z" fill="#9CBFFF"/>
<path d="M1720 46.0714C1720 49.0301 1717.6 51.4286 1714.64 51.4286C1711.68 51.4286 1709.29 49.0301 1709.29 46.0714C1709.29 43.1128 1711.68 40.7143 1714.64 40.7143C1717.6 40.7143 1720 43.1128 1720 46.0714Z" fill="#9CBFFF"/>
<path d="M1752.14 46.0714C1752.14 49.0301 1749.74 51.4286 1746.79 51.4286C1743.83 51.4286 1741.43 49.0301 1741.43 46.0714C1741.43 43.1128 1743.83 40.7143 1746.79 40.7143C1749.74 40.7143 1752.14 43.1128 1752.14 46.0714Z" fill="#9CBFFF"/>
<path d="M1784.29 46.0714C1784.29 49.0301 1781.89 51.4286 1778.93 51.4286C1775.97 51.4286 1773.57 49.0301 1773.57 46.0714C1773.57 43.1128 1775.97 40.7143 1778.93 40.7143C1781.89 40.7143 1784.29 43.1128 1784.29 46.0714Z" fill="#9CBFFF"/>
<path d="M1816.43 46.0714C1816.43 49.0301 1814.03 51.4286 1811.07 51.4286C1808.11 51.4286 1805.71 49.0301 1805.71 46.0714C1805.71 43.1128 1808.11 40.7143 1811.07 40.7143C1814.03 40.7143 1816.43 43.1128 1816.43 46.0714Z" fill="#9CBFFF"/>
<path d="M1848.57 46.0714C1848.57 49.0301 1846.17 51.4286 1843.21 51.4286C1840.26 51.4286 1837.86 49.0301 1837.86 46.0714C1837.86 43.1128 1840.26 40.7143 1843.21 40.7143C1846.17 40.7143 1848.57 43.1128 1848.57 46.0714Z" fill="#9CBFFF"/>
<path d="M1880.71 46.0714C1880.71 49.0301 1878.32 51.4286 1875.36 51.4286C1872.4 51.4286 1870 49.0301 1870 46.0714C1870 43.1128 1872.4 40.7143 1875.36 40.7143C1878.32 40.7143 1880.71 43.1128 1880.71 46.0714Z" fill="#9CBFFF"/>
<path d="M1912.86 46.0714C1912.86 49.0301 1910.46 51.4286 1907.5 51.4286C1904.54 51.4286 1902.14 49.0301 1902.14 46.0714C1902.14 43.1128 1904.54 40.7143 1907.5 40.7143C1910.46 40.7143 1912.86 43.1128 1912.86 46.0714Z" fill="#9CBFFF"/>
<path d="M1945 46.0714C1945 49.0301 1942.6 51.4286 1939.64 51.4286C1936.68 51.4286 1934.29 49.0301 1934.29 46.0714C1934.29 43.1128 1936.68 40.7143 1939.64 40.7143C1942.6 40.7143 1945 43.1128 1945 46.0714Z" fill="#9CBFFF"/>
<path d="M1655.71 78.2143C1655.71 81.173 1653.32 83.5714 1650.36 83.5714C1647.4 83.5714 1645 81.173 1645 78.2143C1645 75.2556 1647.4 72.8571 1650.36 72.8571C1653.32 72.8571 1655.71 75.2556 1655.71 78.2143Z" fill="#9CBFFF"/>
<path d="M1687.86 78.2143C1687.86 81.173 1685.46 83.5714 1682.5 83.5714C1679.54 83.5714 1677.14 81.173 1677.14 78.2143C1677.14 75.2556 1679.54 72.8571 1682.5 72.8571C1685.46 72.8571 1687.86 75.2556 1687.86 78.2143Z" fill="#9CBFFF"/>
<path d="M1720 78.2143C1720 81.173 1717.6 83.5714 1714.64 83.5714C1711.68 83.5714 1709.29 81.173 1709.29 78.2143C1709.29 75.2556 1711.68 72.8571 1714.64 72.8571C1717.6 72.8571 1720 75.2556 1720 78.2143Z" fill="#9CBFFF"/>
<path d="M1752.14 78.2143C1752.14 81.173 1749.74 83.5714 1746.79 83.5714C1743.83 83.5714 1741.43 81.173 1741.43 78.2143C1741.43 75.2556 1743.83 72.8571 1746.79 72.8571C1749.74 72.8571 1752.14 75.2556 1752.14 78.2143Z" fill="#9CBFFF"/>
<path d="M1784.29 78.2143C1784.29 81.173 1781.89 83.5714 1778.93 83.5714C1775.97 83.5714 1773.57 81.173 1773.57 78.2143C1773.57 75.2556 1775.97 72.8571 1778.93 72.8571C1781.89 72.8571 1784.29 75.2556 1784.29 78.2143Z" fill="#9CBFFF"/>
<path d="M1816.43 78.2143C1816.43 81.173 1814.03 83.5714 1811.07 83.5714C1808.11 83.5714 1805.71 81.173 1805.71 78.2143C1805.71 75.2556 1808.11 72.8571 1811.07 72.8571C1814.03 72.8571 1816.43 75.2556 1816.43 78.2143Z" fill="#9CBFFF"/>
<path d="M1848.57 78.2143C1848.57 81.173 1846.17 83.5714 1843.21 83.5714C1840.26 83.5714 1837.86 81.173 1837.86 78.2143C1837.86 75.2556 1840.26 72.8571 1843.21 72.8571C1846.17 72.8571 1848.57 75.2556 1848.57 78.2143Z" fill="#9CBFFF"/>
<path d="M1880.71 78.2143C1880.71 81.173 1878.32 83.5714 1875.36 83.5714C1872.4 83.5714 1870 81.173 1870 78.2143C1870 75.2556 1872.4 72.8571 1875.36 72.8571C1878.32 72.8571 1880.71 75.2556 1880.71 78.2143Z" fill="#9CBFFF"/>
<path d="M1912.86 78.2143C1912.86 81.173 1910.46 83.5714 1907.5 83.5714C1904.54 83.5714 1902.14 81.173 1902.14 78.2143C1902.14 75.2556 1904.54 72.8571 1907.5 72.8571C1910.46 72.8571 1912.86 75.2556 1912.86 78.2143Z" fill="#9CBFFF"/>
<path d="M1945 78.2143C1945 81.173 1942.6 83.5714 1939.64 83.5714C1936.68 83.5714 1934.29 81.173 1934.29 78.2143C1934.29 75.2556 1936.68 72.8571 1939.64 72.8571C1942.6 72.8571 1945 75.2556 1945 78.2143Z" fill="#9CBFFF"/>
<path d="M1687.86 110.357C1687.86 113.316 1685.46 115.714 1682.5 115.714C1679.54 115.714 1677.14 113.316 1677.14 110.357C1677.14 107.398 1679.54 105 1682.5 105C1685.46 105 1687.86 107.398 1687.86 110.357Z" fill="#9CBFFF"/>
<path d="M1720 110.357C1720 113.316 1717.6 115.714 1714.64 115.714C1711.68 115.714 1709.29 113.316 1709.29 110.357C1709.29 107.398 1711.68 105 1714.64 105C1717.6 105 1720 107.398 1720 110.357Z" fill="#9CBFFF"/>
<path d="M1752.14 110.357C1752.14 113.316 1749.74 115.714 1746.79 115.714C1743.83 115.714 1741.43 113.316 1741.43 110.357C1741.43 107.398 1743.83 105 1746.79 105C1749.74 105 1752.14 107.398 1752.14 110.357Z" fill="#9CBFFF"/>
<path d="M1784.29 110.357C1784.29 113.316 1781.89 115.714 1778.93 115.714C1775.97 115.714 1773.57 113.316 1773.57 110.357C1773.57 107.398 1775.97 105 1778.93 105C1781.89 105 1784.29 107.398 1784.29 110.357Z" fill="#9CBFFF"/>
<path d="M1816.43 110.357C1816.43 113.316 1814.03 115.714 1811.07 115.714C1808.11 115.714 1805.71 113.316 1805.71 110.357C1805.71 107.398 1808.11 105 1811.07 105C1814.03 105 1816.43 107.398 1816.43 110.357Z" fill="#9CBFFF"/>
<path d="M1848.57 110.357C1848.57 113.316 1846.17 115.714 1843.21 115.714C1840.26 115.714 1837.86 113.316 1837.86 110.357C1837.86 107.398 1840.26 105 1843.21 105C1846.17 105 1848.57 107.398 1848.57 110.357Z" fill="#9CBFFF"/>
<path d="M1880.71 110.357C1880.71 113.316 1878.32 115.714 1875.36 115.714C1872.4 115.714 1870 113.316 1870 110.357C1870 107.398 1872.4 105 1875.36 105C1878.32 105 1880.71 107.398 1880.71 110.357Z" fill="#9CBFFF"/>
<path d="M1912.86 110.357C1912.86 113.316 1910.46 115.714 1907.5 115.714C1904.54 115.714 1902.14 113.316 1902.14 110.357C1902.14 107.398 1904.54 105 1907.5 105C1910.46 105 1912.86 107.398 1912.86 110.357Z" fill="#9CBFFF"/>
<path d="M1720 142.5C1720 145.459 1717.6 147.857 1714.64 147.857C1711.68 147.857 1709.29 145.459 1709.29 142.5C1709.29 139.541 1711.68 137.143 1714.64 137.143C1717.6 137.143 1720 139.541 1720 142.5Z" fill="#9CBFFF"/>
<path d="M1752.14 142.5C1752.14 145.459 1749.74 147.857 1746.79 147.857C1743.83 147.857 1741.43 145.459 1741.43 142.5C1741.43 139.541 1743.83 137.143 1746.79 137.143C1749.74 137.143 1752.14 139.541 1752.14 142.5Z" fill="#9CBFFF"/>
<path d="M1784.29 142.5C1784.29 145.459 1781.89 147.857 1778.93 147.857C1775.97 147.857 1773.57 145.459 1773.57 142.5C1773.57 139.541 1775.97 137.143 1778.93 137.143C1781.89 137.143 1784.29 139.541 1784.29 142.5Z" fill="#9CBFFF"/>
<path d="M1816.43 142.5C1816.43 145.459 1814.03 147.857 1811.07 147.857C1808.11 147.857 1805.71 145.459 1805.71 142.5C1805.71 139.541 1808.11 137.143 1811.07 137.143C1814.03 137.143 1816.43 139.541 1816.43 142.5Z" fill="#9CBFFF"/>
<path d="M1848.57 142.5C1848.57 145.459 1846.17 147.857 1843.21 147.857C1840.26 147.857 1837.86 145.459 1837.86 142.5C1837.86 139.541 1840.26 137.143 1843.21 137.143C1846.17 137.143 1848.57 139.541 1848.57 142.5Z" fill="#9CBFFF"/>
<path d="M1880.71 142.5C1880.71 145.459 1878.32 147.857 1875.36 147.857C1872.4 147.857 1870 145.459 1870 142.5C1870 139.541 1872.4 137.143 1875.36 137.143C1878.32 137.143 1880.71 139.541 1880.71 142.5Z" fill="#9CBFFF"/>
<path d="M1752.14 174.643C1752.14 177.602 1749.74 180 1746.79 180C1743.83 180 1741.43 177.602 1741.43 174.643C1741.43 171.684 1743.83 169.286 1746.79 169.286C1749.74 169.286 1752.14 171.684 1752.14 174.643Z" fill="#9CBFFF"/>
<path d="M1784.29 174.643C1784.29 177.602 1781.89 180 1778.93 180C1775.97 180 1773.57 177.602 1773.57 174.643C1773.57 171.684 1775.97 169.286 1778.93 169.286C1781.89 169.286 1784.29 171.684 1784.29 174.643Z" fill="#9CBFFF"/>
<path d="M1816.43 174.643C1816.43 177.602 1814.03 180 1811.07 180C1808.11 180 1805.71 177.602 1805.71 174.643C1805.71 171.684 1808.11 169.286 1811.07 169.286C1814.03 169.286 1816.43 171.684 1816.43 174.643Z" fill="#9CBFFF"/>
<path d="M1848.57 174.643C1848.57 177.602 1846.17 180 1843.21 180C1840.26 180 1837.86 177.602 1837.86 174.643C1837.86 171.684 1840.26 169.286 1843.21 169.286C1846.17 169.286 1848.57 171.684 1848.57 174.643Z" fill="#9CBFFF"/>
<path d="M57.2907 48.5682L121.022 -52.7089L222.299 11.0224L158.568 112.299L57.2907 48.5682Z" fill="#FF8352" fill-opacity="0.1"/>
<path fill-rule="evenodd" clip-rule="evenodd" d="M108.507 -107.712L2.28802 61.0833L171.083 167.302L277.302 -1.49298L108.507 -107.712ZM41.5756 52.144L117.446 -68.424L238.014 7.44661L162.144 128.015L41.5756 52.144Z" fill="#FF8352" fill-opacity="0.1"/>
</g>
<defs>
<clipPath id="clip0_93_1999">
<rect width="1875" height="681" fill="white"/>
</clipPath>
</defs>
</svg>
