<svg width="287" height="82" viewBox="0 0 287 82" fill="none" xmlns="http://www.w3.org/2000/svg">
<path fill-rule="evenodd" clip-rule="evenodd" d="M196.299 15.5491L218.644 32.9404C219.645 33.7265 220.8 34.8325 221.871 35.4446C221.614 36.3838 221.057 37.0028 220.605 37.9489C218.031 43.3541 217.892 48.3144 219.687 53.9144C220.459 56.3214 221.259 57.2672 222.219 59.069L214.477 66.9086C209.941 65.6843 206.24 68.5508 205.691 72.5786C204.856 78.8395 213.517 83.3679 218.004 77.267C218.546 76.5366 218.963 75.6603 219.165 74.5751C219.979 70.2064 216.237 73.9488 224.633 65.6705C225.336 64.9749 225.899 64.161 226.755 63.7505C229.252 65.0375 230.15 66.4566 235.061 67.5209C244.8 69.6496 254.623 64.418 258.532 55.5414C263.652 43.9032 257.6 30.7212 244.96 26.9647C244.223 26.749 243.047 26.7557 242.602 26.1087L242.581 17.2186C242.929 16.5508 243.68 16.3554 244.355 15.7571C249.099 11.5415 246.699 3.02742 239.673 2.75612C233.823 2.53351 229.976 8.58564 232.877 13.8448C233.329 14.6796 233.711 14.9856 234.303 15.5839C236.772 18.1022 236.146 14.5609 236.132 26.4356C229.266 27.7852 228.097 29.9142 226.122 30.7351C220.737 26.1577 212.257 20.0145 206.525 15.4302C205.343 14.498 204.522 13.7747 203.325 12.926C202.643 12.4529 202.316 12.0917 201.683 11.5978C201.03 11.0761 200.543 10.9507 200.139 10.1924C202.477 4.00808 192.974 -4.75012 185.788 3.12466C180.515 8.91249 186.671 19.9387 196.299 15.5491ZM236.96 36.6267C229.273 38.2963 225.983 46.603 230.226 53.1213C233.739 58.5056 242.887 59.9384 247.687 53.3854C253.363 45.6288 246.49 34.5752 236.967 36.6343" fill="#FF7A57"/>
<path fill-rule="evenodd" clip-rule="evenodd" d="M97.8227 31.702L97.8297 13.8938L88.3479 13.8522C88.0905 16.6209 88.327 30.9368 88.3131 34.9994C88.2714 47.7368 86.5391 59.3821 99.4922 66.3734C108.605 71.2917 122.497 66.5614 127.235 55.278C129.496 49.8936 128.849 42.3532 126.066 37.6854C123.395 33.2054 119.555 29.5741 114.212 28.155C111.381 27.4106 107.924 26.986 104.842 27.8068C100.251 29.0381 100.174 30.269 97.8227 31.702ZM266.177 22.2973C266.177 32.9408 266.101 43.6121 266.177 54.2555C266.233 61.9147 269.586 66.8466 276.543 67.9597C278.678 68.2936 282.17 68.6973 283.986 67.8416L286.351 59.3549C280.633 59.8419 276.111 59.5634 275.826 53.6365C275.59 48.6974 275.569 41.8098 275.84 36.8846L284.508 36.8642L284.529 28.5371H275.805L275.777 17.727C274.525 18.0192 270.101 20.2104 268.383 20.9548C267.652 21.2678 266.47 21.5112 266.177 22.2973ZM171.638 81.2749H181.099V63.4378C183.346 64.8569 183.541 66.0259 187.757 67.2294C193.224 68.8016 199.861 67.0623 204.146 63.6119C208.508 60.1127 211.033 55.5214 211.798 49.8797C212.967 41.2953 208.16 32.9335 200.564 29.2326C189.531 23.8622 178.143 27.7025 173.03 39.6886C171.005 44.433 171.659 53.9007 171.624 59.7651C171.59 66.9303 171.631 74.1097 171.631 81.2749M31.1653 68.1406L40.8488 68.2238L40.9114 13.5252H30.8732L30.887 36.398L9.98259 36.4957L9.7739 25.0521C9.74608 21.2677 9.7739 17.4899 9.7739 13.6917L0 13.7265L0.0140115 68.1474L9.7531 68.127L9.86434 46.0745C10.9009 45.8032 29.5722 45.7757 30.9426 46.0261C31.5965 48.4539 30.5949 64.2658 31.1653 68.1406ZM138.727 52.9682C137.976 53.3369 137.642 53.9144 136.946 54.6309L131.771 60.0156C133.057 62.4782 138.031 65.9915 140.828 66.9585C149.155 69.8455 159.485 67.7097 163.764 60.0784C165.795 56.461 166.303 50.7492 164.814 46.3666C164.063 44.1544 163.054 42.6311 161.871 41.2537C157.051 35.6328 145.217 35.6747 143.43 31.3199C142.977 30.2277 142.998 28.9683 143.263 27.7092C144.264 22.8953 149.572 22.3809 153.795 24.3566C156.424 25.5879 157.238 26.9232 158.595 27.8136L164.786 20.6134C163.604 18.3525 158.504 15.0693 155.019 14.2275C150.323 13.0936 145.489 13.3995 141.308 15.396C139.277 16.3699 137.837 17.4345 136.626 18.7562C132.007 23.7997 131.409 32.0641 134.31 37.0519C139.075 45.2676 150.567 44.3215 154.254 49.2955C157.092 53.1215 153.503 58.1998 149.28 58.4989C146.755 58.6798 144.403 58.1654 142.727 56.9967C141.496 56.1341 139.402 54.0047 138.727 52.9682ZM46.8871 30.5548L46.8801 47.0621C46.8801 54.7004 47.2697 56.9403 51.0262 61.9211C57.0575 69.9211 70.5532 70.6865 78.101 62.0256C83.1445 56.2378 82.3374 49.0728 82.3096 40.9267L82.2958 27.2574L72.8488 27.1878V51.083C72.8488 57.6499 63.2001 62.2209 57.9479 55.4104C55.6732 52.447 56.3408 45.1006 56.3687 40.9267V27.1878H46.9079L46.8871 30.5548ZM107.826 37.2608C102.052 38.0191 97.6139 42.5476 98.2052 49.0449C99.0957 58.7145 111.179 61.9424 117.085 54.8746C123.666 46.9859 116.605 36.106 107.826 37.2608ZM190.602 36.635C187.311 37.1497 185.322 38.5545 183.784 40.4953C177.565 48.3006 184.557 59.5214 193.885 57.817C199.437 56.8014 203.611 52.1825 202.769 45.379C202.129 40.1686 196.765 35.668 190.595 36.635" fill="#23455B"/>
</svg>
