<svg width="139" height="157" viewBox="0 0 139 157" fill="none" xmlns="http://www.w3.org/2000/svg">
<rect x="22" y="42" width="58" height="96" fill="white"/>
<path fill-rule="evenodd" clip-rule="evenodd" d="M97.0817 156.977C96.6643 156.734 96.6156 157.221 96.6573 155.057L96.6714 152.943L96.6573 19.2588C96.7965 18.2153 96.5183 18.8836 97.0053 18.3689C95.3636 17.3949 91.6348 19.5374 89.7705 19.7182C87.8435 12.9147 83.134 6.04189 76.0731 4.78276C74.8905 4.57407 73.9861 4.66393 72.8521 4.55263C71.0852 4.37871 70.8208 1.84636 66.0347 0.538528C54.9182 -2.50146 44.9704 7.93365 39.8365 16.7197C35.906 23.4467 33.7566 28.9979 31.9688 37.7006L19.2452 41.645C11.9409 44.0868 12.7131 42.5907 11.5374 50.7924C8.69914 70.5559 6.45912 90.6393 3.73912 110.577C3.46086 112.552 -0.128613 139.057 0.00356101 140.449C10.0557 141.979 95.5304 157.464 97.0817 156.977ZM29.0051 108.017C28.5599 108.776 27.1408 115.488 26.786 116.977C25.5964 122.014 24.8522 121.499 28.6296 124.24C32.6922 127.183 38.9809 129.576 45.4226 129.902C70.7722 131.196 75.3218 104.003 66.0557 91.9753C60.094 84.2397 50.0556 81.4432 47.7182 76.5389C46.146 73.2554 48.2957 69.8954 50.1948 68.6015C53.7914 66.1528 59.934 66.3548 64.3166 67.4331C65.847 67.8018 67.433 68.5043 68.6226 68.7408L73.4434 50.4867C62.9738 47.0989 49.8192 49.6939 42.5148 55.0434C34.1461 61.1721 29.6452 71.1337 31.2035 82.0068C32.0313 87.8085 35.1687 91.8707 38.2296 94.2359C38.7166 94.6115 38.981 94.9109 39.4958 95.3143L43.6973 98.3756C45.7425 99.8852 47.3636 101.088 48.7618 103.168C52.101 108.121 50.2644 118.243 35.1965 111.572C32.7409 110.487 29.8747 108.365 29.0051 108.017ZM37.4643 35.9334C39.0295 35.676 49.4782 32.4623 50.6816 31.7945C52.5808 23.558 55.3705 16.7896 60.7479 10.9113C62.5914 8.89394 63.9408 7.98938 66.4591 6.3546C64.3582 3.8085 58.0139 5.46414 54.807 7.5511C46.7931 12.7685 38.5843 27.3978 37.4643 35.9334ZM56.3026 30.0205C56.5252 30.0205 72.2122 25.6244 72.4418 24.894C72.4209 22.2923 72.2331 19.6413 71.8505 17.1995C71.4331 14.5421 70.7026 12.8798 70.0418 10.4867C66.5635 11.2032 63.1269 15.7252 61.3043 18.4869C59.0782 21.8539 57.4783 25.7005 56.3026 30.0205ZM77.5199 23.5438L84.894 21.3385C84.1358 16.7332 79.6278 10.2779 75.2522 9.87447C75.7182 11.9823 76.4766 13.8189 76.8522 16.2467C77.214 18.5772 77.4016 21.0951 77.5199 23.5438Z" fill="#94BF47"/>
<path fill-rule="evenodd" clip-rule="evenodd" d="M97.082 156.978L138.459 146.758C138.48 144.588 137.583 140.024 137.207 137.631L133.103 109.812C131.141 97.5269 129.402 85.172 127.635 72.859L121.527 31.3288C121.2 29.1166 120.859 28.9919 118.605 28.9502C117.089 28.9224 108.706 28.9708 108.032 28.6369C107.099 28.1777 98.3204 18.5502 97.0056 18.3694C96.5186 18.8841 96.7968 18.2158 96.6576 19.2593L96.6716 152.943C96.6716 153.648 96.6669 154.353 96.6576 155.058C96.6159 157.221 96.6646 156.727 97.082 156.978Z" fill="#5E8E3E"/>
</svg>
