<svg width="138" height="159" viewBox="0 0 138 159" fill="none" xmlns="http://www.w3.org/2000/svg">
<path fill-rule="evenodd" clip-rule="evenodd" d="M0.020805 39.9433L0 119.143C0.382609 119.956 3.79811 121.626 4.71637 122.155L16.9391 129.251C17.7391 129.696 18.8241 130.566 19.6658 130.517C19.6937 116.096 19.8048 100.855 19.617 86.5033L19.6658 51.3029C21.5789 50.4681 23.6935 49.0071 25.704 47.8662L50.2051 33.7519C52.0207 32.6945 54.038 31.4423 56.2988 30.204C57.9614 29.2997 67.8883 23.2616 68.7649 23.2755C69.5301 23.2895 92.1806 36.5409 93.4536 37.2922C97.4189 39.6713 101.516 41.953 105.704 44.36C108.243 45.8208 116.035 50.169 117.906 51.449C118.17 54.4681 117.976 94.4824 117.955 100.02L117.976 130.587C119.193 130.301 130.309 123.63 132.841 122.169C134.309 121.32 136.459 120.291 137.621 119.331L137.655 39.9569C137.12 39.5326 136.035 39.0105 135.638 38.774L107.701 22.6633C106.15 21.7798 104.883 20.959 103.457 20.159C100.278 18.3503 69.3633 0.40239 68.9389 0.381531C68.3407 0.353699 20.3476 28.2696 17.2936 30.0087C11.4432 33.3479 5.8782 36.4651 0.020805 39.9433ZM97.6626 142.559L97.9615 142.169C98.4624 141.181 98.1704 124.145 98.1704 123.004L98.1564 62.6905L97.2869 62.1343C97.2498 62.1018 97.2101 62.0604 97.1684 62.0094L88.0762 56.7572C86.6988 55.9503 79.7772 51.7137 78.5946 51.4702L78.5806 130.684C77.4676 131.359 69.1895 136.27 68.7721 136.249L59.026 130.733L58.9632 51.5118C58.0588 51.644 40.1112 62.1273 39.2069 62.7117L39.2973 142.03C40.619 143.073 58.1285 152.986 61.0572 154.67L68.3823 158.941C69.3006 159.303 70.9424 157.898 71.9998 157.307C73.201 156.63 74.4276 155.929 75.6798 155.206C79.7911 152.834 94.7965 143.908 97.6626 142.559Z" fill="#F16322"/>
</svg>
