<svg width="164" height="104" viewBox="0 0 164 104" fill="none" xmlns="http://www.w3.org/2000/svg">
<path fill-rule="evenodd" clip-rule="evenodd" d="M67.8578 14.215C74.5778 16.9977 79.1971 21.429 83.044 25.2273C91.9484 33.9925 100.88 42.4932 109.02 51.6828C114.919 58.3332 106.418 67.1681 99.6978 62.0063C92.2752 56.302 80.2336 43.154 72.8457 36.434C65.8405 30.0548 64.7413 30.3959 53.43 31.7524C50.9048 34.0829 44.0039 35.9959 42.8421 45.4846C41.6595 55.1611 46.077 58.6116 50.1952 63.1264L74.7935 88.0449C76.8527 88.9562 76.9152 89.8537 79.9621 92.3511C82.0212 94.0276 83.35 94.8277 85.6109 96.2956C107.023 110.25 129.054 100.539 131.398 100.574C132.63 98.9668 134.251 99.0498 138.007 96.7889C140.393 95.3489 142.119 94.2921 143.74 92.9982C155.468 83.6069 163.239 70.9807 163.628 53.979C164.442 18.2085 135.385 6.97385 133.611 5.02602C132.261 4.87298 128.964 3.41183 127.058 2.82748C115.99 -0.581215 88.3377 -0.421677 94.7099 10.5279C96.9777 14.4166 103.837 11.5303 108.727 11.2242C130.529 9.8677 145.875 23.5299 151.364 39.5021C154.641 49.0534 153.173 62.0205 149.36 69.9301C137.764 93.9788 105.047 103.572 80.7482 79.4537C75.6491 74.3893 57.7222 56.7751 54.07 52.1838C50.8422 48.149 53.8961 42.215 58.0909 41.1368C63.364 39.7872 66.9257 45.1026 69.5413 47.3078C75.0996 51.9547 91.9343 70.3197 97.1795 72.6084C107.489 77.1162 117.743 70.0687 120.505 62.1244C124.693 50.0757 115.433 43.2238 110.557 38.0551C105.806 33.0116 89.2144 16.4896 83.4822 11.6896C79.3013 8.17654 73.9795 6.347 72.6716 4.76787C66.5499 3.98874 64.8108 0.559547 49.263 0.803024C40.9708 0.942162 33.7499 3.53654 27.6699 6.65306C15.4543 12.9209 7.38474 23.6832 2.81431 36.2327C-10.577 72.9353 26.0492 113.631 65.5623 101.965C69.5762 100.782 71.6144 97.0739 69.0057 93.7556C66.5918 90.6809 61.0335 92.4902 57.6665 93.0398C40.3448 95.8572 26.056 86.3196 19.183 77.5056C5.68733 60.1909 7.95526 34.5696 25.9448 20.0583C38.1883 10.1939 53.3813 8.22549 67.8578 14.215Z" fill="#1F57BF"/>
</svg>
