<svg width="160" height="95" viewBox="0 0 160 95" fill="none" xmlns="http://www.w3.org/2000/svg">
<rect x="6" y="8" width="149" height="67" rx="4" fill="white"/>
<path fill-rule="evenodd" clip-rule="evenodd" d="M104.559 94.9312L98.2289 79.3766C108.601 79.2027 119.057 79.3624 129.401 79.3554C134.614 79.3554 139.824 79.3511 145.032 79.3418C149.485 79.3418 152.977 77.3799 155.822 74.493C156.991 73.3034 158.006 71.5575 158.751 69.6654C159.634 67.4393 159.704 65.3308 159.704 62.736V15.8491C159.704 10.5622 158.104 7.2021 155.439 4.47514C152.914 1.88036 149.436 0.00247955 144.281 0.00247955H19.349C13.589 0.00247955 10.5071 -0.185112 6.39575 2.67402C3.7801 4.49663 0.976685 7.85675 0.287989 12.1976C-0.143315 14.8759 0.0376922 24.2603 0.0376922 27.5925V58.8544C0.0376922 64.35 -0.358892 68.1073 2.27763 72.2673C4.36459 75.5577 7.3698 77.9019 11.2724 78.9036C14.2081 79.6549 22.8758 79.3069 26.4654 79.3486C41.881 79.5295 57.8392 79.3486 73.3523 79.3486C77.2827 79.3486 75.801 79.0285 79.4392 81.0181L104.559 94.9312ZM55.989 47.2095C55.342 46.1173 53.568 40.5173 53.1298 38.9869C52.2811 36.0512 51.5646 33.1918 50.855 30.1587C50.2289 27.4318 49.8394 23.4114 48.4272 21.4775C46.5003 18.834 42.7229 19.3768 40.9629 21.6168C39.4464 23.5576 34.7577 32.99 33.1368 35.9952L25.5124 50.5833C24.8585 49.7068 21.582 32.5595 21.4707 31.9403C20.9003 28.7612 20.295 25.4983 19.822 22.2775C19.5855 20.6705 19.3072 19.0356 19.0707 17.4286C18.6116 14.3677 18.0063 11.3556 13.6376 11.5225C11.8359 11.5921 10.3681 12.1972 9.51247 13.1224C7.21682 15.5919 8.20462 18.6601 8.78897 22.201C9.86027 28.6636 10.9594 35.0213 12.2046 41.4283C13.4359 47.7309 16.5523 62.66 19.321 68.26C24.5871 78.8965 32.7402 61.2133 34.9315 56.7611C35.4881 55.6342 41.9575 42.486 42.5001 41.7416C42.994 43.0981 43.3907 44.6566 43.8707 46.0826C45.4637 50.8618 46.7158 53.6648 48.928 58.1657C50.855 62.0753 55.7733 69.1919 58.9594 70.9867C60.2394 71.7102 62.0966 72.0026 63.5506 71.2652C66.8201 69.5957 66.1523 65.2543 66.0966 62.6248C65.9366 54.9378 67.3281 44.1415 68.6359 36.5658C69.735 30.1937 71.175 23.9743 73.4915 18.5691C74.1037 17.136 74.9384 16.2114 74.9732 14.3401C75.0079 12.5592 74.1175 11.0913 73.234 10.3608C72.1905 9.49127 70.9384 8.7259 69.0393 8.80938C67.1819 8.88589 65.9158 9.74204 65.1992 10.709C62.5349 14.3264 60.135 22.8265 59.0915 27.4456C58.368 30.6525 57.8184 33.8109 57.2897 37.0804C56.7541 40.4265 56.5246 43.8843 55.989 47.2095ZM92.7262 15.8916C87.001 16.3507 82.5627 19.8287 79.6549 24.3087C76.8375 28.6635 74.5349 33.7277 73.9575 40.1485C73.1714 49.0251 75.2794 58.8335 83.175 62.8405C85.6933 64.1205 88.914 64.7883 92.2184 64.5796C103.558 63.8352 109.93 50.2284 110.918 40.3014C111.822 31.1188 109.568 21.8387 101.658 17.6231C99.3349 16.3848 95.8288 15.6481 92.7262 15.8916ZM132.998 15.9264C126.618 16.6012 122.632 20.7263 120.107 24.5524C117.213 28.942 115.147 34.1521 114.542 40.5451C113.707 49.3103 116.267 59.2789 124.1 62.9797C126.605 64.1623 129.985 64.9067 133.269 64.538C144.761 63.258 150.479 50.034 151.585 39.8844C152.309 33.1853 150.897 26.8755 147.801 22.4651C144.518 17.7903 138.966 15.3003 132.998 15.9264ZM134.111 26.841C131.432 27.3766 129.735 29.902 128.462 31.8359C125.262 36.7054 124.316 43.1889 126.292 48.8306C127.112 51.1819 128.81 54.1729 132.079 53.3381C134.563 52.705 136.712 50.2915 137.832 48.5385C139.182 46.4028 140.135 43.6342 140.608 40.7472C141.137 37.4637 140.914 34.2633 139.85 31.3833C138.939 28.9276 137.422 26.1801 134.104 26.841M93.4427 26.8342C90.7575 27.3977 89.0115 29.8391 87.7941 31.8078C84.7333 36.74 83.4881 43.1328 85.5472 48.7049C86.4237 51.0841 88.0029 54.1586 91.335 53.3517C93.902 52.7256 95.961 50.3326 97.1088 48.5657C100.031 44.0787 101.13 36.8585 99.1889 31.5089C98.3055 29.095 96.7957 26.1246 93.4427 26.8342Z" fill="#8053B4"/>
</svg>
