<svg width="185" height="185" viewBox="0 0 185 185" fill="none" xmlns="http://www.w3.org/2000/svg">
<ellipse cx="90.2017" cy="90.2017" rx="90.2017" ry="90.2017" transform="matrix(1 0 0 -1 2 182.403)" fill="#1AB4D7" stroke="white" stroke-width="4" stroke-linecap="round"/>
<path fill-rule="evenodd" clip-rule="evenodd" d="M134.431 73.2981C133.576 74.5294 132.004 75.315 130.932 76.3585C127.238 79.9481 124.581 85.5277 124.463 91.4825C124.261 101.764 129.138 105.966 133.805 110.404C140.831 113.437 147.454 117.103 157.423 111.427C172.289 102.968 172.643 82.2577 158.466 73.4925C147.551 66.7447 140.616 71.4615 134.438 73.2981M92.6853 111.42C95.0505 108.421 100.372 106.404 98.967 101.159C91.6348 96.9294 93.2418 108.714 80.0801 107.921C73.1236 107.503 65.5757 101.263 65.6244 94.7306C72.3235 93.6732 96.2471 95.8026 100.024 93.7991C106.237 90.5086 100.143 79.6357 96.3236 76.1505L91.9688 72.8803C91.2731 72.2681 91.6905 72.6999 91.1479 72.0251C89.374 71.9277 87.9757 70.9951 85.7497 70.5221C61.1097 65.2977 48.6436 98.5155 69.4297 111.121C80.741 117.973 88.6505 112.206 92.6853 111.42ZM142.299 77.3954C122.786 83.3432 130.821 112.31 150.974 106.989C157.958 105.145 163.892 97.1731 161.492 88.0323C159.704 81.2079 151.858 74.4875 142.299 77.3954ZM32.6575 91.9623C31.6905 93.9101 24.9497 100.088 23.0227 102.029C21.214 103.844 13.2141 109.854 16.4767 113.145C18.8419 115.531 21.3462 112.909 22.5705 111.663C25.2975 108.902 35.9688 97.8756 37.6523 96.9504L52.1357 111.26C53.0818 112.22 55.9201 115.865 58.5635 113.346C63.4192 108.72 45.3948 98.2858 42.3409 91.9623L56.6018 77.6323C58.9322 75.3366 60.1497 74.9887 58.9949 71.114C54.4871 68.8183 53.6801 71.301 47.6975 77.3045C44.8453 80.1497 40.8314 84.7972 37.6523 87.1763C31.1966 84.1989 20.8174 66.3069 16.3722 71.1904C14.2087 73.5695 16.9427 75.9901 18.1532 77.1797C21.221 80.2127 31.2662 89.8962 32.6575 91.9623ZM114.779 72.4073C106.417 65.8403 108.344 80.4775 108.344 83.9001C108.344 87.6497 107.718 110.975 109.179 112.7C110.571 114.348 113.52 113.959 114.376 112.24C116.664 107.635 111.83 81.91 117.555 78.1257C120.546 76.15 128.275 77.6389 125.986 72.2128C124.185 67.9415 117.277 71.6073 114.786 72.4073M65.9514 88.3448L95.9409 88.3728C95.4679 82.3415 88.2749 76.5467 81.0123 76.5258C73.5688 76.5049 66.661 82.0422 65.9514 88.3448ZM145.033 86.7933C137.729 89.4229 140.971 99.5379 148.47 97.5066C155.106 95.7257 152.205 84.2124 145.033 86.7933Z" fill="#FEFEFE"/>
</svg>
