<?xml version="1.0" encoding="utf-8"?>
<!-- Generator: Adobe Illustrator 26.0.1, SVG Export Plug-In . SVG Version: 6.00 Build 0)  -->
<svg version="1.1" id="Layer_1" xmlns="http://www.w3.org/2000/svg" xmlns:xlink="http://www.w3.org/1999/xlink" x="0px" y="0px"
	 viewBox="0 0 250 60" style="enable-background:new 0 0 250 60;" xml:space="preserve">
<style type="text/css">
	.st0{clip-path:url(#SVGID_00000114062041535243489150000009570353727330503584_);}
	.st1{clip-path:url(#SVGID_00000110438540978908170640000002316108362315790262_);}
	.st2{clip-path:url(#SVGID_00000139279792074127222900000009439232531419591355_);enable-background:new    ;}
	.st3{clip-path:url(#SVGID_00000152253389811293717280000003010555829295245460_);enable-background:new    ;}
	.st4{clip-path:url(#SVGID_00000124150266245408349520000010854382497124470417_);}
	.st5{fill:#000001;}
	
		.st6{clip-path:url(#SVGID_00000095307448312157560900000005338301500732817800_);fill:url(#SVGID_00000100365509522428727700000017162658580271590790_);}
	.st7{filter:url(#Adobe_OpacityMaskFilter);}
	
		.st8{clip-path:url(#SVGID_00000088102800991660550620000007813769939829003173_);fill:url(#SVGID_00000059305138607535431680000008397115252936157090_);}
	
		.st9{clip-path:url(#SVGID_00000088102800991660550620000007813769939829003173_);mask:url(#SVGID_00000176726775363793332800000010629961717032496773_);fill:url(#SVGID_00000172416300784101770720000001222905782386060181_);}
	
		.st10{clip-path:url(#SVGID_00000051358289620869480230000013190517296514313119_);fill:url(#SVGID_00000038410119427374911680000009078066412253510535_);}
	.st11{opacity:0.47;clip-path:url(#SVGID_00000085948631873549496790000013202208509359885466_);enable-background:new    ;}
	.st12{clip-path:url(#SVGID_00000005249703540653524580000001335254723144408459_);}
	.st13{filter:url(#Adobe_OpacityMaskFilter_00000096052456016254526180000005227098332957926049_);}
	
		.st14{clip-path:url(#SVGID_00000013182862228321463710000016049731059427338166_);fill:url(#SVGID_00000181070441403694561960000013780272088931475899_);}
	
		.st15{clip-path:url(#SVGID_00000013182862228321463710000016049731059427338166_);mask:url(#SVGID_00000129207587419347809290000005653617145417504132_);fill:url(#SVGID_00000152252830518870271550000009100428022903669161_);}
	.st16{clip-path:url(#SVGID_00000085948631873549496790000013202208509359885466_);fill:#000001;}
	.st17{clip-path:url(#SVGID_00000085948631873549496790000013202208509359885466_);fill:#E7424D;}
	
		.st18{clip-path:url(#SVGID_00000111901224428875376810000003894932908862157483_);fill:url(#SVGID_00000029757049508936949690000009381074568456110755_);}
	.st19{clip-path:url(#SVGID_00000039112476459087897890000007285739724171783049_);}
	.st20{clip-path:url(#SVGID_00000066502117081060131240000016007336552036221616_);}
	.st21{clip-path:url(#SVGID_00000019676112411012523140000006247592104512816061_);enable-background:new    ;}
	.st22{clip-path:url(#SVGID_00000176762662506901952720000017541423124882618513_);enable-background:new    ;}
	.st23{clip-path:url(#SVGID_00000129905749374827573190000008811061559562273170_);}
	
		.st24{clip-path:url(#SVGID_00000016786850374197248990000014377188457795803544_);fill:url(#SVGID_00000114794481402228028230000018346160380621304487_);}
	.st25{filter:url(#Adobe_OpacityMaskFilter_00000153683675178255351210000003390975517499124407_);}
	
		.st26{clip-path:url(#SVGID_00000012432481425286713210000005632020284008342404_);fill:url(#SVGID_00000102508121713545374540000002013929886933110932_);}
	
		.st27{clip-path:url(#SVGID_00000012432481425286713210000005632020284008342404_);mask:url(#SVGID_00000114041777965960449610000014853818845231188380_);fill:url(#SVGID_00000153680119453707795710000001800215505060934017_);}
	
		.st28{clip-path:url(#SVGID_00000111892467425359606370000008524248175385083290_);fill:url(#SVGID_00000007392034573312355170000012182558746340259200_);}
	.st29{opacity:0.47;clip-path:url(#SVGID_00000014603138837135148660000014753117856295211177_);enable-background:new    ;}
	.st30{clip-path:url(#SVGID_00000083055442101528914910000000013700784629232556_);}
	.st31{filter:url(#Adobe_OpacityMaskFilter_00000167359730154523082480000007334925155359927173_);}
	
		.st32{clip-path:url(#SVGID_00000108992585714930195630000006171486535335323831_);fill:url(#SVGID_00000079466340732723946440000008802097894219991445_);}
	
		.st33{clip-path:url(#SVGID_00000108992585714930195630000006171486535335323831_);mask:url(#SVGID_00000007394398871063131350000009872645504378797484_);fill:url(#SVGID_00000077310235294971962060000017240634598757711747_);}
	.st34{clip-path:url(#SVGID_00000014603138837135148660000014753117856295211177_);fill:#000001;}
	.st35{clip-path:url(#SVGID_00000014603138837135148660000014753117856295211177_);fill:#E7424D;}
	
		.st36{clip-path:url(#SVGID_00000164512151488308355290000002236384961152564912_);fill:url(#SVGID_00000088108149108740012190000013084271838176230816_);}
	.st37{clip-path:url(#SVGID_00000146462862391531151530000014549727975755080079_);}
	.st38{clip-path:url(#SVGID_00000075877355859389451760000008863379253608785056_);}
	.st39{clip-path:url(#SVGID_00000181089326383286761820000012457072577280318125_);enable-background:new    ;}
	.st40{clip-path:url(#SVGID_00000166634654943003816020000004160219943438172329_);enable-background:new    ;}
	.st41{clip-path:url(#SVGID_00000093873932363931668760000010830854416261591954_);}
	
		.st42{clip-path:url(#SVGID_00000072262048301220470900000016982575327079396279_);fill:url(#SVGID_00000129905056838458950690000017869797110736309396_);}
	.st43{filter:url(#Adobe_OpacityMaskFilter_00000041269041793896808290000006526164319563962534_);}
	
		.st44{clip-path:url(#SVGID_00000040576642519046156230000007120123658169730191_);fill:url(#SVGID_00000019671212456955333550000010650045222355564186_);}
	
		.st45{clip-path:url(#SVGID_00000040576642519046156230000007120123658169730191_);mask:url(#SVGID_00000119837310011884469240000011483645749091817605_);fill:url(#SVGID_00000136394696098101223580000008493179860288757903_);}
	
		.st46{clip-path:url(#SVGID_00000121279086446830838750000008825730624871422115_);fill:url(#SVGID_00000180342559715720479000000009051366545399116474_);}
	.st47{opacity:0.47;clip-path:url(#SVGID_00000102511829435628769780000016988510625840338820_);enable-background:new    ;}
	.st48{clip-path:url(#SVGID_00000119119976385478132110000016697465503259642784_);}
	.st49{filter:url(#Adobe_OpacityMaskFilter_00000047039267602211277560000005415593694855412379_);}
	
		.st50{clip-path:url(#SVGID_00000169524689620541422310000017566119322141046923_);fill:url(#SVGID_00000088831338022945126660000011941216354052368052_);}
	
		.st51{clip-path:url(#SVGID_00000169524689620541422310000017566119322141046923_);mask:url(#SVGID_00000051372530229270678810000008775363486133803405_);fill:url(#SVGID_00000049210283980602539800000001415282852078651540_);}
	.st52{clip-path:url(#SVGID_00000102511829435628769780000016988510625840338820_);fill:#000001;}
	.st53{clip-path:url(#SVGID_00000102511829435628769780000016988510625840338820_);fill:#E7424D;}
	
		.st54{clip-path:url(#SVGID_00000150092688914259691180000002531249064427159217_);fill:url(#SVGID_00000144314470930201200420000014111953205885917069_);}
	.st55{fill:none;stroke:#000000;stroke-miterlimit:10;}
	.st56{clip-path:url(#SVGID_00000129910438349883257440000017580227540128888992_);}
	.st57{clip-path:url(#SVGID_00000045621450312788317980000007026863567422601150_);}
	.st58{clip-path:url(#SVGID_00000004523067096298763230000003602853323604326557_);enable-background:new    ;}
	.st59{clip-path:url(#SVGID_00000071548674735085603820000014203496421754866570_);enable-background:new    ;}
	.st60{clip-path:url(#SVGID_00000160162684581916218980000013455374110482401671_);}
	
		.st61{clip-path:url(#SVGID_00000090288597064521079440000011067916532904926901_);fill:url(#SVGID_00000132071301007794839660000004117059210803408575_);}
	.st62{filter:url(#Adobe_OpacityMaskFilter_00000045620985708300057120000010102089407806323350_);}
	
		.st63{clip-path:url(#SVGID_00000175315892800828701910000012010771667354337972_);fill:url(#SVGID_00000018949376486280715020000002954231096244262310_);}
	
		.st64{clip-path:url(#SVGID_00000175315892800828701910000012010771667354337972_);mask:url(#SVGID_00000064330597939689438100000016534374835892656040_);fill:url(#SVGID_00000036221670874585224720000015641018897266122134_);}
	
		.st65{clip-path:url(#SVGID_00000116214192888684090620000000118787220524121736_);fill:url(#SVGID_00000127748074971449340480000014710378163520265379_);}
	.st66{opacity:0.47;clip-path:url(#SVGID_00000124845084251890844720000014017012089253948842_);enable-background:new    ;}
	.st67{clip-path:url(#SVGID_00000147919082767679397340000009784923589765106331_);}
	.st68{filter:url(#Adobe_OpacityMaskFilter_00000110451887061909284890000005922533513379939003_);}
	
		.st69{clip-path:url(#SVGID_00000050628319702278175680000016855405801757696156_);fill:url(#SVGID_00000101088413710416869370000015091563927418011023_);}
	
		.st70{clip-path:url(#SVGID_00000050628319702278175680000016855405801757696156_);mask:url(#SVGID_00000067914733982949684430000005970199106775579317_);fill:url(#SVGID_00000012441673710633387480000002096679325843634585_);}
	.st71{clip-path:url(#SVGID_00000124845084251890844720000014017012089253948842_);fill:#000001;}
	.st72{clip-path:url(#SVGID_00000124845084251890844720000014017012089253948842_);fill:#E7424D;}
	
		.st73{clip-path:url(#SVGID_00000161626932176823554170000007032025051187646858_);fill:url(#SVGID_00000015319648713511903450000001808580357990643388_);}
	
		.st74{clip-path:url(#SVGID_00000118396854522360559990000000661008595608046001_);fill:url(#SVGID_00000030450236346101342420000010459659137488825023_);}
	.st75{filter:url(#Adobe_OpacityMaskFilter_00000168795838042373169740000010637762885018230942_);}
	
		.st76{clip-path:url(#SVGID_00000109012365287697217480000010373767348038450865_);fill:url(#SVGID_00000124161577575579911970000013148194763083384465_);}
	
		.st77{clip-path:url(#SVGID_00000109012365287697217480000010373767348038450865_);mask:url(#SVGID_00000004541365763155728520000007094714851193331621_);fill:url(#SVGID_00000114752257327601339710000015900596455159015340_);}
	
		.st78{clip-path:url(#SVGID_00000030458867456438181010000002953595826532748730_);fill:url(#SVGID_00000002349555957722198280000011880766096887935417_);}
	.st79{opacity:0.47;enable-background:new    ;}
	.st80{clip-path:url(#SVGID_00000130647273594363221420000003232096103173598108_);}
	.st81{filter:url(#Adobe_OpacityMaskFilter_00000168077596611218602020000017854628619788971698_);}
	
		.st82{clip-path:url(#SVGID_00000106851668486591343280000003067877445008117931_);fill:url(#SVGID_00000170271567311615608640000007686536987261315769_);}
	
		.st83{clip-path:url(#SVGID_00000106851668486591343280000003067877445008117931_);mask:url(#SVGID_00000117641133926746920270000004746792904238765460_);fill:url(#SVGID_00000150090785206469492790000003503311228926477956_);}
	.st84{fill:#E7424D;}
	
		.st85{clip-path:url(#SVGID_00000094588769422771156930000010993762666321135263_);fill:url(#SVGID_00000003103692682646738940000012420169297047822978_);}
	.st86{fill:none;stroke:#000000;stroke-width:8;stroke-miterlimit:10;}
	.st87{stroke:#000000;stroke-width:4;stroke-miterlimit:10;}
	
		.st88{clip-path:url(#SVGID_00000072246454639363052930000003777944544243316371_);fill:url(#SVGID_00000159464474613268051740000005627519946037278094_);}
	.st89{filter:url(#Adobe_OpacityMaskFilter_00000150809102549775749780000006072434377202316432_);}
	
		.st90{clip-path:url(#SVGID_00000049201408875629054090000001125683754952314028_);fill:url(#SVGID_00000057125303738516378390000000116837197630145207_);}
	
		.st91{clip-path:url(#SVGID_00000049201408875629054090000001125683754952314028_);mask:url(#SVGID_00000163044385759021979690000008615465206621667982_);fill:url(#SVGID_00000085942515245536907000000018145787394626857866_);}
	
		.st92{clip-path:url(#SVGID_00000043417402445385402420000014901952386412687512_);fill:url(#SVGID_00000104694728524981657650000007158348964341126042_);}
	.st93{clip-path:url(#SVGID_00000145047328650296032350000016533447197693961366_);}
	.st94{filter:url(#Adobe_OpacityMaskFilter_00000109002408899239963380000015091481924393907842_);}
	
		.st95{clip-path:url(#SVGID_00000101065516863661710400000009826038704816731832_);fill:url(#SVGID_00000124884448440091828010000005702022561918914473_);}
	
		.st96{clip-path:url(#SVGID_00000101065516863661710400000009826038704816731832_);mask:url(#SVGID_00000062879683523935004400000013861274893157654201_);fill:url(#SVGID_00000110451712714734224520000000143623894736221584_);}
	
		.st97{clip-path:url(#SVGID_00000101070822058184685140000011699085485657760910_);fill:url(#SVGID_00000110470033590901406680000010363364616561828529_);}
	.st98{fill:none;stroke:#000000;stroke-width:3;stroke-miterlimit:10;}
	
		.st99{clip-path:url(#SVGID_00000037661281819766919330000003323755118580705210_);fill:url(#SVGID_00000005974808322383877710000000417229272181128117_);}
	.st100{filter:url(#Adobe_OpacityMaskFilter_00000103979365324603794760000000236913857990916006_);}
	
		.st101{clip-path:url(#SVGID_00000063604263592743400120000018121178910962954168_);fill:url(#SVGID_00000093140683812284996990000000191957795268418746_);}
	
		.st102{clip-path:url(#SVGID_00000063604263592743400120000018121178910962954168_);mask:url(#SVGID_00000149359149692966300860000015310151306946770623_);fill:url(#SVGID_00000045588223892993625520000007121233629587652003_);}
	
		.st103{clip-path:url(#SVGID_00000072279556242394077140000000550501741606451077_);fill:url(#SVGID_00000024003415907602167110000017120666647270607491_);}
	.st104{clip-path:url(#SVGID_00000031908626576887875390000005422469724465443764_);}
	.st105{filter:url(#Adobe_OpacityMaskFilter_00000117652906050203162360000017245828624750876330_);}
	
		.st106{clip-path:url(#SVGID_00000044145677760162223000000011333299968945264028_);fill:url(#SVGID_00000057135238623476137210000001633072380594821285_);}
	
		.st107{clip-path:url(#SVGID_00000044145677760162223000000011333299968945264028_);mask:url(#SVGID_00000168820879841714871050000008283826725458517419_);fill:url(#SVGID_00000067216815539183262990000012518010570307852969_);}
	
		.st108{clip-path:url(#SVGID_00000119083017257905803390000002957151479521486992_);fill:url(#SVGID_00000172399423505973879870000016568769436193005208_);}
	.st109{clip-path:url(#SVGID_00000170976617303576400670000005958435959615877505_);}
	.st110{clip-path:url(#SVGID_00000120547330170715817310000008289614481820768397_);}
	.st111{clip-path:url(#SVGID_00000072973006542692688970000013317352988151531141_);enable-background:new    ;}
	.st112{clip-path:url(#SVGID_00000116219747886230391210000016593944875817037203_);enable-background:new    ;}
	.st113{clip-path:url(#SVGID_00000085949237765796634180000007475133334778838176_);}
	
		.st114{clip-path:url(#SVGID_00000027578936470912944900000013277866555669178000_);fill:url(#SVGID_00000011014553588288278400000018317060749978064017_);}
	.st115{filter:url(#Adobe_OpacityMaskFilter_00000072991646667041260210000017242140794988870544_);}
	
		.st116{clip-path:url(#SVGID_00000130648628070919775650000001845459683036999313_);fill:url(#SVGID_00000145031722657376004340000012581871479892613774_);}
	
		.st117{clip-path:url(#SVGID_00000130648628070919775650000001845459683036999313_);mask:url(#SVGID_00000137817053215987168760000014634782601287564192_);fill:url(#SVGID_00000044155506631354046300000016769046779649443203_);}
	
		.st118{clip-path:url(#SVGID_00000139285441672563769280000015045421364039754138_);fill:url(#SVGID_00000148656850836508566590000017741854310755599766_);}
	.st119{opacity:0.47;clip-path:url(#SVGID_00000028319576175358258550000015271258758532319394_);enable-background:new    ;}
	.st120{clip-path:url(#SVGID_00000135661991539907791800000013266328352766098091_);}
	.st121{filter:url(#Adobe_OpacityMaskFilter_00000044872961257404233180000009980330158188982681_);}
	
		.st122{clip-path:url(#SVGID_00000099647711592552112050000001691450496272410043_);fill:url(#SVGID_00000055701299492297931090000011389721541735037594_);}
	
		.st123{clip-path:url(#SVGID_00000099647711592552112050000001691450496272410043_);mask:url(#SVGID_00000137839877238046098510000016797820472864949389_);fill:url(#SVGID_00000174560172760181068920000014193664754256586414_);}
	.st124{clip-path:url(#SVGID_00000028319576175358258550000015271258758532319394_);fill:#000001;}
	.st125{clip-path:url(#SVGID_00000028319576175358258550000015271258758532319394_);fill:#E7424D;}
	
		.st126{clip-path:url(#SVGID_00000121275604925272248200000004696331057156046754_);fill:url(#SVGID_00000031165416892450170840000010022087789528692363_);}
	.st127{fill:none;stroke:#000000;stroke-width:2;stroke-miterlimit:10;}
	.st128{clip-path:url(#SVGID_00000017490870404841745630000008583182480987731074_);}
	.st129{clip-path:url(#SVGID_00000120526748509616105640000014316893904876836257_);}
	.st130{clip-path:url(#SVGID_00000133527067520986422290000007383073789397126794_);enable-background:new    ;}
	.st131{clip-path:url(#SVGID_00000092417780623637639080000018149258791055222424_);enable-background:new    ;}
	.st132{clip-path:url(#SVGID_00000089564243367469320760000001723130531375058088_);}
	
		.st133{clip-path:url(#SVGID_00000006686902717753202450000002271068764920877980_);fill:url(#SVGID_00000041280430747655697860000005851091748550429359_);}
	.st134{filter:url(#Adobe_OpacityMaskFilter_00000025418504858239015220000008233314355926646972_);}
	
		.st135{clip-path:url(#SVGID_00000069391581301279134610000001010205939857308337_);fill:url(#SVGID_00000140709293225747479840000015263339021645644420_);}
	
		.st136{clip-path:url(#SVGID_00000069391581301279134610000001010205939857308337_);mask:url(#SVGID_00000099636131998209577030000012096531329378226106_);fill:url(#SVGID_00000066479198307602381780000011974580157427394977_);}
	
		.st137{clip-path:url(#SVGID_00000072961603822316941080000015261458613808749197_);fill:url(#SVGID_00000096061506339418817030000013501790237395644314_);}
	.st138{opacity:0.47;clip-path:url(#SVGID_00000110447880793100109610000002656458224081105283_);enable-background:new    ;}
	.st139{clip-path:url(#SVGID_00000103962075994851108080000002187476141602504576_);}
	.st140{filter:url(#Adobe_OpacityMaskFilter_00000133503658171326153980000017682104661546723210_);}
	
		.st141{clip-path:url(#SVGID_00000135683831134211715140000016446136221763629441_);fill:url(#SVGID_00000170274842837386703400000013556899707172802730_);}
	
		.st142{clip-path:url(#SVGID_00000135683831134211715140000016446136221763629441_);mask:url(#SVGID_00000152983308143938063640000006207261371513553552_);fill:url(#SVGID_00000114755777710762804020000013523891238018624398_);}
	.st143{clip-path:url(#SVGID_00000110447880793100109610000002656458224081105283_);fill:#000001;}
	.st144{clip-path:url(#SVGID_00000110447880793100109610000002656458224081105283_);fill:#E7424D;}
	
		.st145{clip-path:url(#SVGID_00000083789457999007176070000010187139438679939746_);fill:url(#SVGID_00000114774839991819083640000005291095512151471286_);}
	.st146{fill:none;stroke:#000000;stroke-width:4;stroke-miterlimit:10;}
	.st147{stroke:#000000;stroke-width:2;stroke-miterlimit:10;}
	.st148{clip-path:url(#SVGID_00000003789340861383293650000015147532925172592556_);}
	.st149{clip-path:url(#SVGID_00000068669314368589905080000013902326882534898618_);}
	.st150{clip-path:url(#SVGID_00000158738367354681068770000006037668894042736062_);enable-background:new    ;}
	.st151{clip-path:url(#SVGID_00000060733007025839833840000012191275758199261333_);enable-background:new    ;}
	.st152{clip-path:url(#SVGID_00000040569027638168164950000016031251891952624276_);}
	
		.st153{clip-path:url(#SVGID_00000034080403146537463710000000711851484579868819_);fill:url(#SVGID_00000128468106693020346690000002566535043165289659_);}
	.st154{filter:url(#Adobe_OpacityMaskFilter_00000019640128986321254800000015557459446939552136_);}
	
		.st155{clip-path:url(#SVGID_00000021823926179487541830000010090429293072829079_);fill:url(#SVGID_00000161610359290061331200000002171536913399906213_);}
	
		.st156{clip-path:url(#SVGID_00000021823926179487541830000010090429293072829079_);mask:url(#SVGID_00000114758900909399564020000010849563520240960415_);fill:url(#SVGID_00000105387425004614309540000008179242514909838756_);}
	
		.st157{clip-path:url(#SVGID_00000179611577994507652780000009420037552307081365_);fill:url(#SVGID_00000156563287906157893460000009906774188790782080_);}
	.st158{opacity:0.47;clip-path:url(#SVGID_00000129199777488493993700000016849745743905147297_);enable-background:new    ;}
	.st159{clip-path:url(#SVGID_00000051358404651099468220000015836079743876473788_);}
	.st160{filter:url(#Adobe_OpacityMaskFilter_00000031911294696644856760000001590062669946162833_);}
	
		.st161{clip-path:url(#SVGID_00000034798710319993082910000007570246772080529556_);fill:url(#SVGID_00000154413264328739086680000016641976155090920383_);}
	
		.st162{clip-path:url(#SVGID_00000034798710319993082910000007570246772080529556_);mask:url(#SVGID_00000123415264020797818710000008633155003769679019_);fill:url(#SVGID_00000154391170246775380620000005881678359708706969_);}
	.st163{clip-path:url(#SVGID_00000129199777488493993700000016849745743905147297_);fill:#000001;}
	.st164{clip-path:url(#SVGID_00000129199777488493993700000016849745743905147297_);fill:#E7424D;}
	
		.st165{clip-path:url(#SVGID_00000145749550702376167330000013366358659609093802_);fill:url(#SVGID_00000068672274223566406580000008448156671184376210_);}
</style>
<g>
	<path d="M246.66,6.95c-1.84,0-3.34-1.5-3.34-3.34s1.5-3.34,3.34-3.34S250,1.76,250,3.6S248.5,6.95,246.66,6.95z M246.66,0.99
		c-1.44,0-2.61,1.17-2.61,2.61s1.17,2.61,2.61,2.61c1.44,0,2.61-1.17,2.61-2.61S248.1,0.99,246.66,0.99z"/>
	<g>
		<g>
			<path d="M245.26,5.19V2.02h1.4c0.28,0,0.5,0.03,0.64,0.09c0.15,0.06,0.26,0.16,0.35,0.3c0.09,0.14,0.13,0.3,0.13,0.48
				c0,0.22-0.07,0.41-0.22,0.57c-0.15,0.15-0.37,0.25-0.67,0.29c0.11,0.05,0.2,0.11,0.25,0.16c0.12,0.11,0.24,0.25,0.35,0.42
				l0.55,0.86h-0.53l-0.42-0.66c-0.12-0.19-0.22-0.34-0.3-0.44c-0.08-0.1-0.15-0.17-0.21-0.21c-0.06-0.04-0.13-0.07-0.19-0.08
				c-0.05-0.01-0.13-0.02-0.23-0.02h-0.49v1.41H245.26z M245.68,3.42h0.9c0.19,0,0.34-0.02,0.45-0.06c0.11-0.04,0.19-0.1,0.25-0.19
				c0.06-0.09,0.08-0.18,0.08-0.28c0-0.15-0.05-0.27-0.16-0.37c-0.11-0.1-0.28-0.14-0.51-0.14h-1V3.42z"/>
			<path d="M248.39,5.37h-0.96l-0.47-0.74c-0.12-0.18-0.22-0.33-0.29-0.42c-0.08-0.11-0.14-0.15-0.17-0.17
				c-0.04-0.03-0.09-0.05-0.14-0.06c-0.01,0-0.06-0.01-0.19-0.01h-0.3v1.41h-0.78V1.84h1.59c0.31,0,0.54,0.03,0.71,0.1
				c0.18,0.07,0.33,0.2,0.44,0.38c0.11,0.17,0.16,0.37,0.16,0.57c0,0.27-0.09,0.5-0.27,0.69c-0.1,0.1-0.22,0.19-0.37,0.25
				c0.11,0.11,0.22,0.25,0.32,0.4L248.39,5.37z M247.63,5h0.09l-0.37-0.58c-0.1-0.15-0.21-0.28-0.32-0.38
				c-0.02-0.01-0.04-0.04-0.08-0.06c0,0,0,0,0,0c0.08,0.1,0.18,0.25,0.31,0.45L247.63,5z M245.45,5h0.05V2.2h-0.05V5z M246.28,3.6
				c0.07,0,0.12,0.01,0.16,0.02c0.01,0,0.01,0,0.02,0.01l0.17-0.02c-0.02,0-0.03,0-0.05,0H246.28z M247,2.22
				c0.13,0.03,0.24,0.08,0.32,0.16c0.15,0.13,0.22,0.3,0.22,0.51c0,0.14-0.04,0.27-0.11,0.38c-0.06,0.1-0.15,0.17-0.25,0.23
				c0.11-0.04,0.2-0.1,0.26-0.17c0.11-0.12,0.17-0.26,0.17-0.44c0-0.14-0.03-0.27-0.11-0.38c-0.07-0.11-0.15-0.18-0.26-0.23
				C247.18,2.25,247.1,2.23,247,2.22z M245.86,3.24h0.72c0.17,0,0.3-0.02,0.39-0.05c0.07-0.03,0.12-0.06,0.16-0.12
				c0.04-0.06,0.06-0.12,0.06-0.19c0-0.1-0.03-0.17-0.1-0.23c-0.07-0.06-0.21-0.1-0.39-0.1h-0.82V3.24z"/>
		</g>
	</g>
	<g>
		<defs>
			<rect id="SVGID_00000062899431542136999770000001132266203835865995_" y="1.54" width="246.38" height="58.2"/>
		</defs>
		<clipPath id="SVGID_00000070120003627476010340000001541198767431753609_">
			<use xlink:href="#SVGID_00000062899431542136999770000001132266203835865995_"  style="overflow:visible;"/>
		</clipPath>
		<g style="clip-path:url(#SVGID_00000070120003627476010340000001541198767431753609_);">
			<defs>
				<rect id="SVGID_00000020372255524728482260000002298876931548619420_" y="1.54" width="246.38" height="58.2"/>
			</defs>
			<clipPath id="SVGID_00000005252873560964852170000000227816725702126001_">
				<use xlink:href="#SVGID_00000020372255524728482260000002298876931548619420_"  style="overflow:visible;"/>
			</clipPath>
			<g style="clip-path:url(#SVGID_00000005252873560964852170000000227816725702126001_);">
				<defs>
					<rect id="SVGID_00000003797390599855300450000010966661354673674398_" y="1.54" width="246.38" height="58.2"/>
				</defs>
				<clipPath id="SVGID_00000139296259669990142160000017277008308070087064_">
					<use xlink:href="#SVGID_00000003797390599855300450000010966661354673674398_"  style="overflow:visible;"/>
				</clipPath>
				<g style="clip-path:url(#SVGID_00000139296259669990142160000017277008308070087064_);enable-background:new    ;">
					<g>
						<defs>
							<rect id="SVGID_00000050650635822193918270000001464181648070128804_" x="70.6" y="-4.23" width="175.75" height="52.63"/>
						</defs>
						<clipPath id="SVGID_00000036251240329262031140000003131447632613882531_">
							<use xlink:href="#SVGID_00000050650635822193918270000001464181648070128804_"  style="overflow:visible;"/>
						</clipPath>
						<g style="clip-path:url(#SVGID_00000036251240329262031140000003131447632613882531_);enable-background:new    ;">
							<g>
								<defs>
									<rect id="SVGID_00000037663893193353554960000009254626397332840098_" x="70.6" y="-4.23" width="175.75" height="52.63"/>
								</defs>
								<clipPath id="SVGID_00000182514173188952108500000009496003830601314953_">
									<use xlink:href="#SVGID_00000037663893193353554960000009254626397332840098_"  style="overflow:visible;"/>
								</clipPath>
								<g style="clip-path:url(#SVGID_00000182514173188952108500000009496003830601314953_);">
									<path class="st5" d="M94.48,30.65l-3.91,7.13L73.55,7.02h7.85L94.48,30.65z M119.35,7.02L100.38,41.3l-3.93,7.1l0,0
										l-3.92-7.09l3.93-7.09l15.04-27.18H119.35z"/>
									<path class="st5" d="M157.97,7.15v41.05l-5.95-5.95l-20.83-20.84v0l-5.95-5.95V7.07l26.78,26.78V7.15H157.97z
										 M125.24,19.69l5.95,5.95V48.4h-5.95V19.69z"/>
									<path class="st5" d="M200.68,7.29v41.1h-5.95V21.65l-8.09,8.09l-1.94,1.94l-2.26,2.26l-12.58-12.58v0l-5.95-5.95V7.01
										l18.53,18.53L200.68,7.29z M163.91,19.62l5.95,5.95V48.4h-5.95V19.62z"/>
									<path class="st5" d="M206.6,13.12V7.18h36.78v5.95H206.6z M221.7,48.4V16.1h5.95v32.3H221.7z"/>
								</g>
							</g>
						</g>
					</g>
				</g>
			</g>
			<g style="clip-path:url(#SVGID_00000005252873560964852170000000227816725702126001_);">
				<defs>
					<path id="SVGID_00000069363823779179838260000006621855165822193086_" d="M55.68,45.28c-1.72,1.22-3.52,2.32-5.39,3.29
						c-3.72,1.92-7.66,3.38-11.74,4.35c-2.03,0.5-4.09,0.88-6.17,1.14c-2.08,0.29-4.18,0.44-6.29,0.52
						c-2.11,0.07-4.23,0.06-6.37-0.03c-2.13-0.09-4.27-0.26-6.42-0.54c0.49,0.23,1,0.42,1.51,0.62c0.51,0.18,1.03,0.35,1.55,0.51
						c1.04,0.33,2.1,0.59,3.17,0.82c2.15,0.46,4.33,0.75,6.52,0.88c4.42,0.28,8.86-0.11,13.16-1.17c4.32-1.04,8.44-2.8,12.18-5.21
						c1.86-1.2,3.58-2.59,5.16-4.14c0.78-0.77,1.52-1.59,2.2-2.46c0.69-0.85,1.29-1.77,1.81-2.73
						C59.07,42.66,57.44,44.05,55.68,45.28"/>
				</defs>
				<clipPath id="SVGID_00000058565374003074625550000012106763530855102885_">
					<use xlink:href="#SVGID_00000069363823779179838260000006621855165822193086_"  style="overflow:visible;"/>
				</clipPath>
				
					<linearGradient id="SVGID_00000026846665592554817820000000586413848812763815_" gradientUnits="userSpaceOnUse" x1="-5803.9536" y1="-2943.9526" x2="-5803.6567" y2="-2943.9526" gradientTransform="matrix(50.0243 39.3221 -87.3235 14.0757 33289.1523 269702.7812)">
					<stop  offset="0" style="stop-color:#E7424D"/>
					<stop  offset="1" style="stop-color:#E8AE43"/>
				</linearGradient>
				
					<polygon style="clip-path:url(#SVGID_00000058565374003074625550000012106763530855102885_);fill:url(#SVGID_00000026846665592554817820000000586413848812763815_);" points="
					-3.57,43.85 21.34,63.44 77.45,54.4 52.53,34.81 				"/>
			</g>
			<g style="clip-path:url(#SVGID_00000005252873560964852170000000227816725702126001_);">
				<defs>
					<path id="SVGID_00000086686092524100042720000000055677320345371022_" d="M55.68,45.28c-1.72,1.22-3.52,2.32-5.39,3.29
						c-3.72,1.92-7.66,3.38-11.74,4.35c-2.03,0.5-4.09,0.88-6.17,1.14c-2.08,0.29-4.18,0.44-6.29,0.52
						c-2.11,0.08-4.23,0.06-6.37-0.03c-2.13-0.09-4.27-0.26-6.42-0.54c0,0,9.99,3.11,24.13,0.7c14.14-2.41,23.14-13.57,23.14-13.57
						C59.07,42.66,57.43,44.05,55.68,45.28"/>
				</defs>
				<clipPath id="SVGID_00000091695977298309747180000005855684816912365499_">
					<use xlink:href="#SVGID_00000086686092524100042720000000055677320345371022_"  style="overflow:visible;"/>
				</clipPath>
				<defs>
					<filter id="Adobe_OpacityMaskFilter" filterUnits="userSpaceOnUse" x="-5.57" y="31.69" width="85.01" height="34.86">
						<feColorMatrix  type="matrix" values="1 0 0 0 0  0 1 0 0 0  0 0 1 0 0  0 0 0 1 0"/>
					</filter>
				</defs>
				
					<mask maskUnits="userSpaceOnUse" x="-5.57" y="31.69" width="85.01" height="34.86" id="SVGID_00000042725143476027849360000008664533790694775943_">
					<g class="st7">
						
							<linearGradient id="SVGID_00000099639179267296397240000003313385376708956837_" gradientUnits="userSpaceOnUse" x1="-5876.0659" y1="-2963.646" x2="-5875.769" y2="-2963.646" gradientTransform="matrix(-120.0233 62.8548 -186.2052 -60.1372 -1257051.75 191150.8438)">
							<stop  offset="0" style="stop-color:#FFFFFF"/>
							<stop  offset="1" style="stop-color:#000000"/>
						</linearGradient>
						
							<polygon style="clip-path:url(#SVGID_00000091695977298309747180000005855684816912365499_);fill:url(#SVGID_00000099639179267296397240000003313385376708956837_);" points="
							31.33,31.69 -5.57,51.02 42.54,66.55 79.44,47.23 						"/>
					</g>
				</mask>
				
					<linearGradient id="SVGID_00000004515504043418530120000008052766418214585533_" gradientUnits="userSpaceOnUse" x1="-5876.0659" y1="-2963.646" x2="-5875.769" y2="-2963.646" gradientTransform="matrix(-120.0233 62.8548 -186.2052 -60.1372 -1257051.75 191150.8438)">
					<stop  offset="0" style="stop-color:#FFFFFF"/>
					<stop  offset="1" style="stop-color:#FFFFFF"/>
				</linearGradient>
				
					<polygon style="clip-path:url(#SVGID_00000091695977298309747180000005855684816912365499_);mask:url(#SVGID_00000042725143476027849360000008664533790694775943_);fill:url(#SVGID_00000004515504043418530120000008052766418214585533_);" points="
					31.33,31.69 -5.57,51.02 42.54,66.55 79.44,47.23 				"/>
			</g>
			<g style="clip-path:url(#SVGID_00000005252873560964852170000000227816725702126001_);">
				<defs>
					<path id="SVGID_00000107549915720249160760000010288428875355286692_" d="M46.41,27.35c-1.11,0.07-2.21,0.18-3.31,0.33
						c-1.09,0.16-2.18,0.34-3.26,0.57c1.1-0.04,2.2-0.08,3.3-0.07c1.1,0,2.19,0.02,3.28,0.08c2.16,0.11,4.3,0.41,6.4,0.91
						c1.01,0.25,2,0.58,2.96,1.01c0.45,0.21,0.89,0.45,1.31,0.72c0.39,0.26,0.75,0.56,1.07,0.9c0.58,0.58,0.89,1.36,0.88,2.18
						c-0.07,0.87-0.38,1.69-0.89,2.4c-0.56,0.81-1.21,1.55-1.95,2.21c-0.77,0.69-1.58,1.33-2.44,1.9c-1.75,1.18-3.6,2.22-5.52,3.11
						c-1.94,0.91-3.92,1.7-5.94,2.39c-2.02,0.7-4.08,1.31-6.17,1.82c-2.08,0.52-4.19,0.95-6.3,1.27c-2.11,0.33-4.24,0.55-6.37,0.64
						c-2.11,0.1-4.22,0.03-6.31-0.21c-1.02-0.13-2.02-0.33-3.01-0.6c-0.94-0.25-1.83-0.63-2.66-1.13c-0.19-0.12-0.37-0.25-0.55-0.39
						c-0.09-0.07-0.16-0.14-0.24-0.21l-0.12-0.11c-0.04-0.04-0.07-0.08-0.1-0.12c-0.27-0.28-0.49-0.62-0.63-0.99
						c-0.27-0.79-0.24-1.65,0.09-2.41c0.37-0.91,0.89-1.76,1.53-2.51c0.67-0.81,1.41-1.55,2.21-2.23c1.65-1.4,3.41-2.65,5.27-3.74
						c0.94-0.56,1.89-1.09,2.86-1.6c0.97-0.52,1.96-0.99,2.95-1.47c-1.06,0.3-2.11,0.64-3.15,1.01c-1.04,0.38-2.07,0.79-3.08,1.24
						c-2.06,0.89-4.02,1.99-5.86,3.28c-0.94,0.66-1.82,1.41-2.63,2.22c-0.87,0.86-1.58,1.85-2.11,2.95
						c-0.29,0.6-0.48,1.25-0.55,1.91c-0.08,0.71-0.02,1.42,0.19,2.1c0.2,0.68,0.54,1.31,0.99,1.85c0.05,0.07,0.11,0.14,0.16,0.2
						l0.17,0.18c0.12,0.12,0.23,0.25,0.36,0.36c0.24,0.22,0.5,0.42,0.76,0.61c1.01,0.7,2.12,1.25,3.3,1.63
						c1.11,0.37,2.26,0.65,3.41,0.84c2.26,0.36,4.55,0.52,6.84,0.47c2.26-0.04,4.52-0.23,6.75-0.54c2.23-0.32,4.44-0.76,6.62-1.29
						c2.18-0.54,4.34-1.2,6.46-1.95c0.53-0.19,1.06-0.4,1.58-0.59c0.52-0.21,1.05-0.41,1.57-0.64c1.04-0.43,2.07-0.91,3.08-1.42
						c1.01-0.51,2.01-1.06,2.99-1.64c0.98-0.59,1.94-1.23,2.86-1.91c0.94-0.69,1.83-1.45,2.66-2.27c0.87-0.85,1.62-1.81,2.25-2.85
						c0.16-0.27,0.31-0.55,0.44-0.84c0.07-0.14,0.12-0.3,0.19-0.45c0.06-0.15,0.12-0.31,0.16-0.47l0.13-0.48
						c0.04-0.17,0.06-0.34,0.09-0.51c0.03-0.17,0.05-0.34,0.05-0.52c0.01-0.18,0.02-0.35,0.01-0.53c-0.01-0.18-0.02-0.35-0.04-0.53
						l-0.11-0.52c-0.09-0.34-0.21-0.68-0.37-1c-0.31-0.61-0.72-1.16-1.23-1.62c-0.93-0.82-2.01-1.45-3.18-1.85
						c-1.09-0.38-2.22-0.66-3.36-0.83c-1.47-0.21-2.95-0.31-4.44-0.31C47.93,27.27,47.17,27.3,46.41,27.35"/>
				</defs>
				<clipPath id="SVGID_00000127739638730251083660000013656391608716825758_">
					<use xlink:href="#SVGID_00000107549915720249160760000010288428875355286692_"  style="overflow:visible;"/>
				</clipPath>
				
					<linearGradient id="SVGID_00000090295285960957076870000008726358837177426347_" gradientUnits="userSpaceOnUse" x1="-5800.6313" y1="-2963.6567" x2="-5800.3345" y2="-2963.6567" gradientTransform="matrix(34.575 40.9093 -72.8468 13.8129 -15301.6221 278276.25)">
					<stop  offset="0" style="stop-color:#E7424D"/>
					<stop  offset="1" style="stop-color:#E8AE43"/>
					<stop  offset="1" style="stop-color:#0054B9"/>
				</linearGradient>
				
					<polygon style="clip-path:url(#SVGID_00000127739638730251083660000013656391608716825758_);fill:url(#SVGID_00000090295285960957076870000008726358837177426347_);" points="
					-11.4,30.81 14.75,61.75 80.1,49.36 53.95,18.42 				"/>
			</g>
			<g style="clip-path:url(#SVGID_00000005252873560964852170000000227816725702126001_);">
				<defs>
					<rect id="SVGID_00000055699566711426711650000000628669485234602910_" y="1.54" width="246.38" height="58.2"/>
				</defs>
				<clipPath id="SVGID_00000072981272257676224010000017470995704710890651_">
					<use xlink:href="#SVGID_00000055699566711426711650000000628669485234602910_"  style="overflow:visible;"/>
				</clipPath>
				
					<g style="opacity:0.47;clip-path:url(#SVGID_00000072981272257676224010000017470995704710890651_);enable-background:new    ;">
					<g>
						<defs>
							<rect id="SVGID_00000105422583029538799490000003796451681213976477_" x="8.33" y="27.8" width="51.8" height="23.55"/>
						</defs>
						<clipPath id="SVGID_00000074426858185194266950000011333703680281110144_">
							<use xlink:href="#SVGID_00000105422583029538799490000003796451681213976477_"  style="overflow:visible;"/>
						</clipPath>
						<g style="clip-path:url(#SVGID_00000074426858185194266950000011333703680281110144_);">
							<defs>
								<path id="SVGID_00000110457909289878364640000012172949443856480136_" d="M11.45,41.03c0.67-0.81,1.41-1.55,2.21-2.23
									c1.65-1.4,3.41-2.65,5.27-3.74c0.93-0.56,1.89-1.1,2.86-1.6c0.97-0.52,1.96-0.99,2.95-1.47c0,0-18.31,7.08-16.26,13.83
									c2.05,6.75,17.8,6.41,27.81,3.79c10.01-2.62,25.71-9.82,23.65-16.43c-1.97-6.31-16.3-5.59-19.7-5
									c-0.14,0.03-0.27,0.05-0.41,0.08c1.1-0.04,2.2-0.08,3.3-0.07c1.1,0,2.19,0.02,3.28,0.08c2.16,0.11,4.3,0.41,6.4,0.91
									c1.01,0.25,2,0.58,2.96,1.01c0.45,0.21,0.89,0.45,1.31,0.72c0.39,0.25,0.75,0.56,1.07,0.9c0.57,0.58,0.89,1.36,0.88,2.18
									c-0.07,0.86-0.38,1.69-0.89,2.4c-0.56,0.81-1.21,1.55-1.95,2.21c-0.77,0.69-1.58,1.33-2.44,1.9
									c-1.75,1.18-3.6,2.22-5.52,3.1c-1.94,0.91-3.92,1.7-5.94,2.39c-2.03,0.7-4.08,1.31-6.17,1.82c-2.08,0.52-4.19,0.95-6.3,1.27
									c-2.11,0.33-4.23,0.55-6.37,0.64c-2.11,0.1-4.22,0.03-6.31-0.21c-1.02-0.13-2.02-0.33-3.01-0.6
									c-0.94-0.25-1.83-0.63-2.66-1.13c-0.19-0.12-0.37-0.25-0.55-0.39c-0.09-0.07-0.16-0.14-0.24-0.21l-0.12-0.11
									c-0.04-0.04-0.07-0.08-0.1-0.11c-0.28-0.28-0.49-0.62-0.63-0.99c-0.27-0.79-0.24-1.65,0.09-2.41
									C10.28,42.62,10.8,41.77,11.45,41.03"/>
							</defs>
							<clipPath id="SVGID_00000114054293427057624100000015462459749717214890_">
								<use xlink:href="#SVGID_00000110457909289878364640000012172949443856480136_"  style="overflow:visible;"/>
							</clipPath>
							<defs>
								
									<filter id="Adobe_OpacityMaskFilter_00000104675614122429490170000013166381655551452544_" filterUnits="userSpaceOnUse" x="-18.02" y="12.43" width="104.49" height="54.57">
									<feColorMatrix  type="matrix" values="1 0 0 0 0  0 1 0 0 0  0 0 1 0 0  0 0 0 1 0"/>
								</filter>
							</defs>
							
								<mask maskUnits="userSpaceOnUse" x="-18.02" y="12.43" width="104.49" height="54.57" id="SVGID_00000013915306940484035920000018234598635925397381_">
								<g style="filter:url(#Adobe_OpacityMaskFilter_00000104675614122429490170000013166381655551452544_);">
									
										<linearGradient id="SVGID_00000054953355315698755880000012000344320708257727_" gradientUnits="userSpaceOnUse" x1="-5885.1982" y1="-2958.9531" x2="-5884.9014" y2="-2958.9531" gradientTransform="matrix(-143.2939 83.4073 -181.239 -84.9835 -1379529.5 239430)">
										<stop  offset="0" style="stop-color:#FFFFFF"/>
										<stop  offset="1" style="stop-color:#000000"/>
									</linearGradient>
									
										<polygon style="clip-path:url(#SVGID_00000114054293427057624100000015462459749717214890_);fill:url(#SVGID_00000054953355315698755880000012000344320708257727_);" points="
										31.23,12.43 -18.02,41.1 37.22,67 86.47,38.33 									"/>
								</g>
							</mask>
							
								<linearGradient id="SVGID_00000119814643702111285870000002719717246344993152_" gradientUnits="userSpaceOnUse" x1="-5885.1982" y1="-2958.9531" x2="-5884.9014" y2="-2958.9531" gradientTransform="matrix(-143.2939 83.4073 -181.239 -84.9835 -1379529.5 239430)">
								<stop  offset="0" style="stop-color:#FFFFFF"/>
								<stop  offset="1" style="stop-color:#FFFFFF"/>
							</linearGradient>
							
								<polygon style="clip-path:url(#SVGID_00000114054293427057624100000015462459749717214890_);mask:url(#SVGID_00000013915306940484035920000018234598635925397381_);fill:url(#SVGID_00000119814643702111285870000002719717246344993152_);" points="
								31.23,12.43 -18.02,41.1 37.22,67 86.47,38.33 							"/>
						</g>
					</g>
				</g>
				<path style="clip-path:url(#SVGID_00000072981272257676224010000017470995704710890651_);fill:#000001;" d="M24.88,39.87
					L0.63,7.84c-0.96-1.29-0.82-3.1,0.33-4.23c0.38-0.36,0.86-0.59,1.38-0.67c0.27-0.07,0.54-0.11,0.81-0.11h14.5
					c0.77,0,1.5,0.29,2.06,0.82c0.23,0.16,0.43,0.36,0.59,0.58l6.16,8.13l2.71-7.83c0.53-1.55,2.1-2.32,3.5-1.73
					c1.4,0.59,2.09,2.33,1.56,3.88l-3.79,10.93l4.73,6.25c0.96,1.29,0.82,3.1-0.33,4.23c-1.01,0.96-2.61,0.93-3.57-0.08
					c-0.09-0.09-0.17-0.19-0.24-0.29l-14.3-18.9H8.44l20.58,27.19c0.96,1.29,0.82,3.1-0.33,4.23c-0.47,0.45-1.09,0.7-1.74,0.7
					C26.13,40.94,25.36,40.54,24.88,39.87"/>
				<path style="clip-path:url(#SVGID_00000072981272257676224010000017470995704710890651_);fill:#000001;" d="M30.02,3.27
					c1.01-0.97,2.61-0.93,3.57,0.08c0.09,0.09,0.17,0.19,0.24,0.29l9.38,12.39c0.96,1.29,0.82,3.1-0.33,4.23
					c-1.01,0.97-2.61,0.93-3.57-0.08c-0.09-0.09-0.17-0.19-0.24-0.29L29.68,7.5C28.72,6.2,28.87,4.4,30.02,3.27"/>
				<path style="clip-path:url(#SVGID_00000072981272257676224010000017470995704710890651_);fill:#E7424D;" d="M32.33,45.76
					c-0.65-0.01-1.27-0.26-1.74-0.7c-1.15-1.13-1.29-2.93-0.33-4.23l24.22-32H41.28l-4.48-6h25.47c1.66,0,3,1.34,3,3
					c0,1.66-1.34,3-3,3h-0.76c-0.07,0.12-0.14,0.23-0.22,0.34L34.4,44.68C33.92,45.35,33.15,45.75,32.33,45.76"/>
			</g>
			<g style="clip-path:url(#SVGID_00000005252873560964852170000000227816725702126001_);">
				<defs>
					<path id="SVGID_00000122700020206292127670000005479412703314592658_" d="M60.01,5.71L30.91,45.3l0.08,0.07
						c0.4,0.25,0.86,0.39,1.33,0.39c0.82-0.01,1.59-0.41,2.07-1.07L61.28,9.17c0.08-0.11,0.16-0.22,0.22-0.34h0.76
						c1.66,0,3-1.34,3-3c0-0.04,0-0.07,0-0.11H60.01z"/>
				</defs>
				<clipPath id="SVGID_00000016770425284885598860000013509315555869499321_">
					<use xlink:href="#SVGID_00000122700020206292127670000005479412703314592658_"  style="overflow:visible;"/>
				</clipPath>
				
					<linearGradient id="SVGID_00000053544691164318505200000006392115858393947573_" gradientUnits="userSpaceOnUse" x1="-5791.6689" y1="-2998.8953" x2="-5791.3721" y2="-2998.8953" gradientTransform="matrix(24.6456 53.9388 -46.2828 28.7224 3989.9404 398556.9062)">
					<stop  offset="0" style="stop-color:#D31925"/>
					<stop  offset="1" style="stop-color:#A07900"/>
					<stop  offset="1" style="stop-color:#0054B9"/>
				</linearGradient>
				
					<polygon style="clip-path:url(#SVGID_00000016770425284885598860000013509315555869499321_);fill:url(#SVGID_00000053544691164318505200000006392115858393947573_);" points="
					16.66,14.56 38.5,62.37 79.52,36.91 57.68,-10.9 				"/>
			</g>
		</g>
	</g>
</g>
</svg>
