<svg width="149" height="36" viewBox="0 0 149 36" fill="none" xmlns="http://www.w3.org/2000/svg">
<path d="M147.01 4.14534C145.914 4.14534 145.02 3.25134 145.02 2.1547C145.02 1.05806 145.914 0.164062 147.01 0.164062C148.107 0.164062 149.001 1.0521 149.001 2.14874C149.001 3.24538 148.107 4.14534 147.01 4.14534ZM147.01 0.593183C146.152 0.593183 145.455 1.2905 145.455 2.14874C145.455 3.00698 146.152 3.7043 147.01 3.7043C147.868 3.7043 148.566 3.00698 148.566 2.14874C148.566 1.2905 147.868 0.593183 147.01 0.593183Z" fill="black"/>
<path d="M146.176 3.09245V1.20312H147.01C147.177 1.20312 147.308 1.221 147.392 1.25676C147.481 1.29252 147.547 1.35213 147.6 1.43557C147.654 1.51901 147.678 1.61437 147.678 1.72165C147.678 1.85277 147.636 1.96601 147.547 2.06137C147.457 2.15077 147.326 2.21037 147.147 2.23421C147.213 2.26401 147.266 2.29977 147.296 2.32957C147.368 2.39513 147.439 2.47856 147.505 2.57989L147.833 3.09245H147.517L147.266 2.69909C147.195 2.58585 147.135 2.49645 147.088 2.43685C147.04 2.37725 146.998 2.33553 146.963 2.31169C146.927 2.28785 146.885 2.26997 146.849 2.26401C146.819 2.25804 146.772 2.25208 146.712 2.25208H146.42V3.09245H146.176ZM146.426 2.03753H146.963C147.076 2.03753 147.165 2.0256 147.231 2.00176C147.296 1.97792 147.344 1.94217 147.38 1.88853C147.415 1.83489 147.427 1.78125 147.427 1.72165C147.427 1.63225 147.398 1.56073 147.332 1.50113C147.266 1.44153 147.165 1.41769 147.028 1.41769H146.432V2.03753H146.426Z" fill="black"/>
<path d="M148.041 3.20544H147.469L147.189 2.7644C147.117 2.65712 147.058 2.56772 147.016 2.51408C146.968 2.44852 146.932 2.42468 146.915 2.41276C146.891 2.39488 146.861 2.38296 146.831 2.377C146.825 2.377 146.795 2.37104 146.718 2.37104H146.539V3.2114H146.074V1.10156H147.022C147.207 1.10156 147.344 1.11944 147.445 1.16116C147.552 1.20288 147.642 1.28036 147.707 1.38764C147.773 1.48896 147.803 1.60816 147.803 1.72736C147.803 1.88828 147.749 2.02536 147.642 2.1386C147.582 2.1982 147.511 2.25184 147.421 2.2876C147.487 2.35316 147.552 2.4366 147.612 2.526L148.041 3.20544ZM147.588 2.98492H147.642L147.421 2.63924C147.362 2.54984 147.296 2.47236 147.23 2.41276C147.219 2.4068 147.207 2.38892 147.183 2.377C147.23 2.4366 147.29 2.526 147.368 2.6452L147.588 2.98492ZM146.289 2.98492H146.319V1.31612H146.289V2.98492ZM146.783 2.15052C146.825 2.15052 146.855 2.15648 146.879 2.16244C146.885 2.16244 146.885 2.16244 146.891 2.1684L146.992 2.15648C146.98 2.15648 146.974 2.15648 146.962 2.15648H146.783V2.15052ZM147.213 1.32804C147.29 1.34592 147.356 1.37572 147.403 1.4234C147.493 1.50088 147.534 1.6022 147.534 1.72736C147.534 1.8108 147.511 1.88828 147.469 1.95384C147.433 2.01344 147.379 2.05516 147.32 2.09092C147.385 2.06708 147.439 2.03132 147.475 1.9896C147.54 1.91808 147.576 1.83464 147.576 1.72736C147.576 1.64392 147.558 1.56644 147.511 1.50088C147.469 1.43532 147.421 1.3936 147.356 1.3638C147.32 1.34592 147.272 1.334 147.213 1.32804ZM146.533 1.93596H146.962C147.064 1.93596 147.141 1.92404 147.195 1.90616C147.236 1.88828 147.266 1.8704 147.29 1.83464C147.314 1.79888 147.326 1.76312 147.326 1.7214C147.326 1.6618 147.308 1.62008 147.266 1.58432C147.224 1.54856 147.141 1.52472 147.034 1.52472H146.545V1.93596H146.533Z" fill="black"/>
<mask id="mask0_12_6164" style="mask-type:luminance" maskUnits="userSpaceOnUse" x="0" y="0" width="147" height="36">
<path d="M146.842 0.90625H0V35.5934H146.842V0.90625Z" fill="white"/>
</mask>
<g mask="url(#mask0_12_6164)">
<mask id="mask1_12_6164" style="mask-type:luminance" maskUnits="userSpaceOnUse" x="0" y="0" width="147" height="36">
<path d="M146.842 0.898438H0V35.5856H146.842V0.898438Z" fill="white"/>
</mask>
<g mask="url(#mask1_12_6164)">
<mask id="mask2_12_6164" style="mask-type:luminance" maskUnits="userSpaceOnUse" x="0" y="0" width="147" height="36">
<path d="M146.842 0.890625H0V35.5778H146.842V0.890625Z" fill="white"/>
</mask>
<g mask="url(#mask2_12_6164)">
<mask id="mask3_12_6164" style="mask-type:luminance" maskUnits="userSpaceOnUse" x="42" y="-3" width="105" height="32">
<path d="M146.821 -2.53906H42.0742V28.8284H146.821V-2.53906Z" fill="white"/>
</mask>
<g mask="url(#mask3_12_6164)">
<mask id="mask4_12_6164" style="mask-type:luminance" maskUnits="userSpaceOnUse" x="42" y="-3" width="105" height="32">
<path d="M146.821 -2.53125H42.0742V28.8362H146.821V-2.53125Z" fill="white"/>
</mask>
<g mask="url(#mask4_12_6164)">
<path d="M56.3063 18.2632L53.9759 22.5126L43.832 4.17969H48.5106L56.3063 18.2632ZM71.1288 4.17969L59.8227 24.6106L57.4804 28.8422L55.1441 24.6165L57.4864 20.3909L66.4502 4.19161H71.1288V4.17969Z" fill="#000001"/>
<path d="M94.1477 4.2508V28.7166L90.6015 25.1704L78.1868 12.7498L74.6406 9.20356V4.20312L90.6015 20.164V4.2508H94.1477ZM74.6406 11.7246L78.1868 15.2708V28.8358H74.6406V11.7246Z" fill="#000001"/>
<path d="M119.602 4.33875V28.8344H116.056V12.8973L111.235 17.719L110.078 18.8752L108.731 20.2222L101.234 12.7245L97.6875 9.17827V4.17188L108.731 15.2158L119.602 4.33875ZM97.6875 11.6874L101.234 15.2336V28.8403H97.6875V11.6874Z" fill="#000001"/>
<path d="M123.129 7.81368V4.27344H145.05V7.81964H123.129V7.81368ZM132.129 28.8406V9.58976H135.675V28.8406H132.129Z" fill="#000001"/>
</g>
</g>
</g>
</g>
<mask id="mask5_12_6164" style="mask-type:luminance" maskUnits="userSpaceOnUse" x="0" y="0" width="147" height="36">
<path d="M146.842 0.898438H0V35.5856H146.842V0.898438Z" fill="white"/>
</mask>
<g mask="url(#mask5_12_6164)">
<mask id="mask6_12_6164" style="mask-type:luminance" maskUnits="userSpaceOnUse" x="7" y="24" width="30" height="10">
<path d="M33.1843 26.9812C32.1591 27.7083 31.0863 28.3639 29.9718 28.9421C27.7547 30.0864 25.4065 30.9565 22.9748 31.5347C21.7649 31.8327 20.5371 32.0591 19.2975 32.2141C18.0578 32.3869 16.8062 32.4763 15.5486 32.524C14.2911 32.5657 13.0275 32.5598 11.7521 32.5061C10.4826 32.4525 9.20718 32.3512 7.92578 32.1843C8.21782 32.3214 8.52178 32.4346 8.82574 32.5538C9.1297 32.6611 9.43962 32.7624 9.74954 32.8578C10.3694 33.0545 11.0011 33.2094 11.6389 33.3465C12.9203 33.6207 14.2195 33.7935 15.5248 33.871C18.1591 34.0379 20.8053 33.8054 23.3681 33.1736C25.9429 32.5538 28.3984 31.5049 30.6274 30.0685C31.736 29.3533 32.7611 28.5249 33.7028 27.6011C34.1677 27.1421 34.6087 26.6534 35.014 26.1349C35.4252 25.6283 35.7828 25.08 36.0927 24.5078C35.2047 25.4197 34.2332 26.2481 33.1843 26.9812Z" fill="white"/>
</mask>
<g mask="url(#mask6_12_6164)">
<path d="M-2.12891 26.1222L12.7175 37.7979L46.159 32.41L31.3067 20.7344L-2.12891 26.1222Z" fill="url(#paint0_linear_12_6164)"/>
</g>
</g>
<mask id="mask7_12_6164" style="mask-type:luminance" maskUnits="userSpaceOnUse" x="0" y="0" width="147" height="36">
<path d="M146.842 0.898438H0V35.5856H146.842V0.898438Z" fill="white"/>
</mask>
<g mask="url(#mask7_12_6164)">
<mask id="mask8_12_6164" style="mask-type:luminance" maskUnits="userSpaceOnUse" x="7" y="24" width="30" height="10">
<path d="M33.1843 26.9831C32.1591 27.7102 31.0863 28.3658 29.9718 28.9439C27.7547 30.0882 25.4065 30.9584 22.9748 31.5365C21.7649 31.8345 20.5371 32.061 19.2975 32.2159C18.0578 32.3888 16.8062 32.4782 15.5486 32.5259C14.2911 32.5735 13.0275 32.5616 11.7521 32.508C10.4826 32.4543 9.20718 32.353 7.92578 32.1861C7.92578 32.1861 13.8798 34.0397 22.3073 32.6033C30.7347 31.167 36.0987 24.5156 36.0987 24.5156C35.2047 25.4215 34.2273 26.25 33.1843 26.9831Z" fill="white"/>
</mask>
<g mask="url(#mask8_12_6164)">
<path d="M18.6721 18.875L-3.32031 30.3957L25.3532 39.6516L47.3456 28.1368L18.6721 18.875Z" fill="url(#paint1_linear_12_6164)"/>
</g>
</g>
<mask id="mask9_12_6164" style="mask-type:luminance" maskUnits="userSpaceOnUse" x="0" y="0" width="147" height="36">
<path d="M146.842 0.898438H0V35.5856H146.842V0.898438Z" fill="white"/>
</mask>
<g mask="url(#mask9_12_6164)">
<mask id="mask10_12_6164" style="mask-type:luminance" maskUnits="userSpaceOnUse" x="4" y="16" width="33" height="16">
<path d="M27.6592 16.2817C26.9977 16.3234 26.3421 16.389 25.6865 16.4784C25.0368 16.5737 24.3872 16.681 23.7435 16.8181C24.3991 16.7942 25.0547 16.7704 25.7103 16.7764C26.3659 16.7764 27.0156 16.7883 27.6652 16.824C28.9526 16.8896 30.228 17.0684 31.4796 17.3664C32.0816 17.5154 32.6716 17.7121 33.2437 17.9684C33.5119 18.0935 33.7742 18.2366 34.0245 18.3975C34.257 18.5524 34.4715 18.7312 34.6622 18.9339C35.0079 19.2796 35.1927 19.7444 35.1867 20.2332C35.145 20.7517 34.9602 21.2404 34.6563 21.6636C34.3225 22.1463 33.9351 22.5874 33.4941 22.9807C33.0352 23.392 32.5524 23.7734 32.0398 24.1131C30.9968 24.8164 29.8942 25.4362 28.7499 25.9667C27.5937 26.509 26.4136 26.9799 25.2097 27.3911C24.0058 27.8083 22.778 28.1719 21.5324 28.4758C20.2927 28.7858 19.0351 29.042 17.7776 29.2328C16.52 29.4294 15.2505 29.5606 13.981 29.6142C12.7235 29.6738 11.4659 29.6321 10.2203 29.489C9.61235 29.4116 9.01635 29.2924 8.42631 29.1314C7.86607 28.9824 7.33563 28.756 6.84095 28.458C6.72771 28.3864 6.62043 28.309 6.51315 28.2255C6.45951 28.1838 6.41779 28.1421 6.37011 28.1004L6.29859 28.0348C6.27475 28.011 6.25687 27.9871 6.23899 27.9633C6.07807 27.7964 5.94695 27.5938 5.86351 27.3732C5.70259 26.9024 5.72047 26.3898 5.91715 25.9369C6.13767 25.3945 6.44759 24.8879 6.82903 24.4409C7.22835 23.9582 7.66939 23.5171 8.14619 23.1118C9.12959 22.2774 10.1786 21.5324 11.2871 20.8828C11.8474 20.549 12.4136 20.2332 12.9917 19.9292C13.5698 19.6193 14.1598 19.3392 14.7499 19.0531C14.1181 19.2319 13.4923 19.4345 12.8725 19.655C12.2526 19.8815 11.6388 20.1259 11.0368 20.3941C9.80903 20.9245 8.64087 21.5801 7.54423 22.349C6.98399 22.7423 6.45951 23.1893 5.97675 23.6721C5.45823 24.1846 5.03507 24.7747 4.71919 25.4303C4.54635 25.7879 4.43311 26.1753 4.39139 26.5686C4.34371 26.9918 4.37947 27.415 4.50463 27.8202C4.62383 28.2255 4.82647 28.601 5.09467 28.9228C5.12447 28.9646 5.16023 29.0063 5.19003 29.042L5.29135 29.1493C5.36287 29.2208 5.42843 29.2983 5.50591 29.3639C5.64895 29.495 5.80391 29.6142 5.95887 29.7274C6.56083 30.1446 7.22239 30.4724 7.92567 30.6989C8.58723 30.9194 9.27263 31.0863 9.95803 31.1996C11.305 31.4141 12.6698 31.5095 14.0347 31.4797C15.3816 31.4558 16.7286 31.3426 18.0577 31.1578C19.3868 30.9671 20.7039 30.7049 22.0032 30.389C23.3025 30.0672 24.5898 29.6738 25.8534 29.2268C26.1692 29.1136 26.4851 28.9884 26.795 28.8752C27.1049 28.75 27.4208 28.6308 27.7308 28.4937C28.3506 28.2374 28.9645 27.9514 29.5664 27.6474C30.1684 27.3434 30.7644 27.0156 31.3485 26.67C31.9326 26.3183 32.5047 25.9369 33.053 25.5316C33.6133 25.1204 34.1437 24.6674 34.6384 24.1787C35.1569 23.6721 35.6039 23.0999 35.9794 22.4801C36.0748 22.3192 36.1642 22.1523 36.2416 21.9794C36.2834 21.896 36.3132 21.8006 36.3549 21.7112C36.3906 21.6218 36.4264 21.5265 36.4502 21.4311L36.5277 21.145C36.5516 21.0437 36.5635 20.9424 36.5814 20.8411C36.5992 20.7398 36.6112 20.6384 36.6112 20.5312C36.6171 20.4239 36.6231 20.3226 36.6171 20.2153C36.6111 20.108 36.6052 20.0067 36.5933 19.8994L36.5277 19.5895C36.4741 19.3868 36.4025 19.1842 36.3072 18.9935C36.1224 18.6299 35.8781 18.3021 35.5741 18.028C35.0198 17.5392 34.3762 17.1638 33.6788 16.9254C33.0292 16.6989 32.3557 16.532 31.6763 16.4307C30.8002 16.3055 29.9181 16.2459 29.03 16.2459C28.5652 16.234 28.1122 16.2519 27.6592 16.2817Z" fill="white"/>
</mask>
<g mask="url(#mask10_12_6164)">
<path d="M-6.79688 18.3376L8.78853 36.7778L47.7371 29.3934L32.1517 10.9531L-6.79688 18.3376Z" fill="url(#paint2_linear_12_6164)"/>
</g>
</g>
<mask id="mask11_12_6164" style="mask-type:luminance" maskUnits="userSpaceOnUse" x="0" y="0" width="147" height="36">
<path d="M146.842 0.898438H0V35.5856H146.842V0.898438Z" fill="white"/>
</mask>
<g mask="url(#mask11_12_6164)">
<mask id="mask12_12_6164" style="mask-type:luminance" maskUnits="userSpaceOnUse" x="0" y="0" width="147" height="36">
<path d="M146.842 0.890625H0V35.5778H146.842V0.890625Z" fill="white"/>
</mask>
<g mask="url(#mask12_12_6164)">
<g opacity="0.47">
<mask id="mask13_12_6164" style="mask-type:luminance" maskUnits="userSpaceOnUse" x="4" y="16" width="32" height="15">
<path d="M35.8376 16.5469H4.96484V30.5827H35.8376V16.5469Z" fill="white"/>
</mask>
<g mask="url(#mask13_12_6164)">
<mask id="mask14_12_6164" style="mask-type:luminance" maskUnits="userSpaceOnUse" x="4" y="16" width="32" height="15">
<path d="M6.8265 24.4356C7.22582 23.9528 7.66686 23.5118 8.14366 23.1065C9.12706 22.2721 10.176 21.5271 11.2846 20.8775C11.8389 20.5437 12.411 20.2219 12.9891 19.9239C13.5673 19.6139 14.1573 19.3338 14.7473 19.0477C14.7473 19.0477 3.83458 23.2674 5.05638 27.2904C6.27818 31.3134 15.6652 31.1108 21.6311 29.5493C27.5971 27.9877 36.9543 23.6965 35.7265 19.757C34.5524 15.9962 26.0117 16.4253 23.9853 16.777C23.9019 16.7949 23.8244 16.8068 23.741 16.8247C24.3966 16.8008 25.0522 16.777 25.7078 16.7829C26.3634 16.7829 27.013 16.7949 27.6627 16.8306C28.95 16.8962 30.2255 17.075 31.4771 17.373C32.079 17.522 32.6691 17.7187 33.2412 17.9749C33.5094 18.1001 33.7717 18.2431 34.022 18.4041C34.2544 18.5531 34.469 18.7378 34.6597 18.9405C34.9994 19.2861 35.1901 19.751 35.1842 20.2397C35.1425 20.7523 34.9577 21.247 34.6537 21.6701C34.32 22.1529 33.9326 22.5939 33.4915 22.9873C33.0326 23.3985 32.5499 23.78 32.0373 24.1197C30.9943 24.823 29.8917 25.4428 28.7474 25.9673C27.5911 26.5097 26.4111 26.9805 25.2071 27.3917C23.9973 27.8089 22.7755 28.1725 21.5298 28.4765C20.2901 28.7864 19.0326 29.0427 17.775 29.2334C16.5175 29.4301 15.2539 29.5612 13.9785 29.6148C12.7209 29.6744 11.4634 29.6327 10.2177 29.4897C9.60982 29.4122 9.01382 29.293 8.42378 29.1321C7.86354 28.9831 7.3331 28.7566 6.83842 28.4586C6.72518 28.3871 6.6179 28.3096 6.51062 28.2261C6.45698 28.1844 6.41526 28.1427 6.36758 28.101L6.29606 28.0354C6.27222 28.0116 6.25434 27.9877 6.23646 27.9699C6.06958 27.803 5.94442 27.6003 5.86098 27.3798C5.70006 26.909 5.71794 26.3964 5.91462 25.9435C6.12918 25.3832 6.4391 24.8766 6.8265 24.4356Z" fill="white"/>
</mask>
<g mask="url(#mask14_12_6164)">
<path d="M18.6147 7.39062L-10.7383 24.4779L22.1848 39.9143L51.5378 22.827L18.6147 7.39062Z" fill="url(#paint3_linear_12_6164)"/>
</g>
</g>
</g>
</g>
<mask id="mask15_12_6164" style="mask-type:luminance" maskUnits="userSpaceOnUse" x="0" y="0" width="147" height="36">
<path d="M146.842 0.890625H0V35.5778H146.842V0.890625Z" fill="white"/>
</mask>
<g mask="url(#mask15_12_6164)">
<path d="M14.8282 23.7432L0.375179 4.6533C-0.196981 3.88446 -0.113541 2.8057 0.571859 2.13222C0.798339 1.91766 1.08442 1.78058 1.39434 1.7329C1.55526 1.69118 1.71618 1.66734 1.8771 1.66734H10.5191C10.978 1.66734 11.4131 1.84018 11.7469 2.15606C11.8839 2.25142 12.0031 2.37062 12.0985 2.50174L15.7699 7.34722L17.385 2.68054C17.7009 1.75674 18.6366 1.29782 19.471 1.64946C20.3054 2.0011 20.7167 3.03814 20.4008 3.96194L18.1419 10.4762L20.961 14.2012C21.5332 14.9701 21.4497 16.0488 20.7643 16.7223C20.1624 17.2945 19.2088 17.2766 18.6366 16.6746C18.583 16.621 18.5353 16.5614 18.4936 16.5018L9.97078 5.23738H5.02994L17.2956 21.4426C17.8678 22.2115 17.7843 23.2902 17.0989 23.9637C16.8188 24.2319 16.4493 24.3809 16.0619 24.3809C15.5732 24.3809 15.1143 24.1425 14.8282 23.7432Z" fill="#000001"/>
</g>
<mask id="mask16_12_6164" style="mask-type:luminance" maskUnits="userSpaceOnUse" x="0" y="0" width="147" height="36">
<path d="M146.842 0.890625H0V35.5778H146.842V0.890625Z" fill="white"/>
</mask>
<g mask="url(#mask16_12_6164)">
<path d="M17.8918 1.92691C18.4937 1.34879 19.4473 1.37263 20.0195 1.97459C20.0731 2.02823 20.1208 2.08783 20.1625 2.14743L25.753 9.53187C26.3251 10.3007 26.2417 11.3795 25.5563 12.0529C24.9543 12.6311 24.0008 12.6072 23.4286 12.0053C23.375 11.9516 23.3273 11.892 23.2855 11.8324L17.6891 4.44799C17.117 3.67319 17.2064 2.60039 17.8918 1.92691Z" fill="#000001"/>
</g>
<mask id="mask17_12_6164" style="mask-type:luminance" maskUnits="userSpaceOnUse" x="0" y="0" width="147" height="36">
<path d="M146.842 0.890625H0V35.5778H146.842V0.890625Z" fill="white"/>
</mask>
<g mask="url(#mask17_12_6164)">
<path d="M19.2691 27.2503C18.8817 27.2444 18.5121 27.0954 18.232 26.8331C17.5466 26.1597 17.4632 25.0869 18.0353 24.3121L32.4705 5.24006H24.6033L21.9332 1.66406H37.1133C38.1027 1.66406 38.9013 2.4627 38.9013 3.45206C38.9013 4.44142 38.1027 5.24006 37.1133 5.24006H36.6603C36.6186 5.31158 36.5769 5.37714 36.5292 5.4427L20.5028 26.6067C20.2167 27.006 19.7578 27.2444 19.2691 27.2503Z" fill="#E7424D"/>
</g>
</g>
<mask id="mask18_12_6164" style="mask-type:luminance" maskUnits="userSpaceOnUse" x="0" y="0" width="147" height="36">
<path d="M146.842 0.898438H0V35.5856H146.842V0.898438Z" fill="white"/>
</mask>
<g mask="url(#mask18_12_6164)">
<mask id="mask19_12_6164" style="mask-type:luminance" maskUnits="userSpaceOnUse" x="18" y="3" width="21" height="25">
<path d="M35.7655 3.40625L18.4219 27.0019L18.4696 27.0436C18.708 27.1926 18.9821 27.2761 19.2622 27.2761C19.751 27.2701 20.2099 27.0317 20.496 26.6383L36.5224 5.46841C36.5701 5.40285 36.6178 5.33729 36.6535 5.26577H37.1065C38.0958 5.26577 38.8945 4.46713 38.8945 3.47777C38.8945 3.45393 38.8945 3.43605 38.8945 3.41221H35.7655V3.40625Z" fill="white"/>
</mask>
<g mask="url(#mask19_12_6164)">
<path d="M9.92969 8.67416L22.9463 37.1689L47.3942 21.9948L34.3776 -6.5L9.92969 8.67416Z" fill="url(#paint4_linear_12_6164)"/>
</g>
</g>
</g>
<defs>
<linearGradient id="paint0_linear_12_6164" x1="15.9007" y1="24.3901" x2="17.2181" y2="32.5627" gradientUnits="userSpaceOnUse">
<stop stop-color="#E7424D"/>
<stop offset="1" stop-color="#E8AE43"/>
</linearGradient>
<linearGradient id="paint1_linear_12_6164" x1="35.3818" y1="22.2001" x2="30.123" y2="38.4832" gradientUnits="userSpaceOnUse">
<stop stop-color="white"/>
<stop offset="1" stop-color="white"/>
</linearGradient>
<linearGradient id="paint2_linear_12_6164" x1="20.5343" y1="23.6898" x2="22.0711" y2="31.7947" gradientUnits="userSpaceOnUse">
<stop stop-color="#E7424D"/>
<stop offset="1" stop-color="#0054B9"/>
</linearGradient>
<linearGradient id="paint3_linear_12_6164" x1="36.4788" y1="14.1069" x2="26.2388" y2="35.9451" gradientUnits="userSpaceOnUse">
<stop stop-color="white"/>
<stop offset="1" stop-color="white"/>
</linearGradient>
<linearGradient id="paint4_linear_12_6164" x1="28.6421" y1="15.3526" x2="34.1292" y2="24.1943" gradientUnits="userSpaceOnUse">
<stop stop-color="#D31925"/>
<stop offset="1" stop-color="#0054B9"/>
</linearGradient>
</defs>
</svg>
