<svg width="71" height="54" viewBox="0 0 71 54" fill="none" xmlns="http://www.w3.org/2000/svg">
<g clip-path="url(#clip0_296_1157)">
<path d="M16.1364 53.2637V25.8317L7.62889 18.0486L0 13.7295V48.4227C0 51.1013 2.17021 53.2637 4.84104 53.2637H16.1364Z" fill="#4285F4"/>
<path d="M54.8633 53.2639H66.1587C68.8375 53.2639 70.9997 51.0935 70.9997 48.4229V13.73L62.3588 18.677L54.8633 25.8319V53.2639Z" fill="#34A853"/>
<path d="M16.1361 25.8317L14.9785 15.1132L16.1361 4.85449L35.4997 19.3773L54.8633 4.85449L56.1582 14.5593L54.8633 25.8317L35.4997 40.3545L16.1361 25.8317Z" fill="#EA4335"/>
<path d="M54.8633 4.85454V25.8317L70.9997 13.7295V7.27492C70.9997 1.28845 64.1659 -2.12426 59.3818 1.46595L54.8633 4.85454Z" fill="#FBBC04"/>
<path d="M0 13.7297L7.42144 19.296L16.1364 25.8318V4.85467L11.6179 1.46608C6.82543 -2.12441 0 1.28858 0 7.27477V13.7297Z" fill="#C5221F"/>
</g>
<defs>
<clipPath id="clip0_296_1157">
<rect width="71" height="53.5273" fill="white"/>
</clipPath>
</defs>
</svg>
