<svg width="1875" height="704" viewBox="0 0 1875 704" fill="none" xmlns="http://www.w3.org/2000/svg">
<g clip-path="url(#clip0_35_2020)">
<path d="M91.1727 381.104L90.4322 376.898C85.8944 349.398 84.7788 327.077 87.0856 309.935C89.54 292.767 94.7535 278.308 102.726 266.558C110.699 254.809 120.82 243.594 133.089 232.913C140.956 225.747 147.82 218.072 153.683 209.889C159.545 201.706 163.749 192.75 166.296 183.021C168.843 173.291 169.155 162.967 167.233 152.047C164.92 138.913 159.82 128.095 151.933 119.595C144.046 111.094 134.483 105.17 123.244 101.824C112.126 98.3041 100.295 97.6485 87.7519 99.8569C76.389 101.858 65.9583 106.128 56.4598 112.669C46.9613 119.21 39.7014 128.096 34.68 139.326C29.6326 150.408 27.9696 163.862 29.6909 179.686L-37.6014 191.534C-41.2455 164.789 -38.4805 141.176 -29.3066 120.695C-20.1586 100.066 -6.23367 83.2367 12.4682 70.2067C31.3175 57.1507 53.1382 48.4402 77.9301 44.0753C105.083 39.2946 129.738 40.2027 151.896 46.7996C174.028 53.2489 192.299 64.5618 206.711 80.7384C221.244 96.7414 230.628 116.77 234.863 140.824C237.773 157.352 237.815 172.711 234.989 186.902C232.136 200.945 226.823 213.976 219.05 225.995C211.425 237.987 201.673 249.137 189.794 259.445C178.628 269.474 169.875 279.383 163.534 289.172C157.342 298.935 153.488 309.883 151.973 322.017C150.458 334.151 151.047 348.729 153.74 365.752L154.481 369.958L91.1727 381.104ZM148.295 509.803C136.194 511.934 125.037 509.486 114.823 502.46C104.583 495.286 98.3849 485.575 96.2283 473.327C94.0976 461.226 96.6321 450.129 103.832 440.037C111.005 429.798 120.643 423.613 132.743 421.482C144.697 419.378 155.793 421.912 166.033 429.086C176.394 436.086 182.64 445.637 184.771 457.738C186.2 465.854 185.446 473.67 182.509 481.186C179.694 488.528 175.317 494.776 169.378 499.929C163.439 505.083 156.411 508.374 148.295 509.803Z" fill="#F2F7FF"/>
<g filter="url(#filter0_f_35_2020)">
<circle cx="1920.5" cy="625.5" r="129.5" fill="#1F57BF" fill-opacity="0.9"/>
</g>
<g filter="url(#filter1_f_35_2020)">
<circle cx="-8.5" cy="625.5" r="119.5" fill="#FF8352" fill-opacity="0.9"/>
</g>
</g>
<defs>
<filter id="filter0_f_35_2020" x="1371" y="76" width="1099" height="1099" filterUnits="userSpaceOnUse" color-interpolation-filters="sRGB">
<feFlood flood-opacity="0" result="BackgroundImageFix"/>
<feBlend mode="normal" in="SourceGraphic" in2="BackgroundImageFix" result="shape"/>
<feGaussianBlur stdDeviation="210" result="effect1_foregroundBlur_35_2020"/>
</filter>
<filter id="filter1_f_35_2020" x="-548" y="86" width="1079" height="1079" filterUnits="userSpaceOnUse" color-interpolation-filters="sRGB">
<feFlood flood-opacity="0" result="BackgroundImageFix"/>
<feBlend mode="normal" in="SourceGraphic" in2="BackgroundImageFix" result="shape"/>
<feGaussianBlur stdDeviation="210" result="effect1_foregroundBlur_35_2020"/>
</filter>
<clipPath id="clip0_35_2020">
<rect width="1875" height="704" fill="white"/>
</clipPath>
</defs>
</svg>
