<svg width="16" height="5" viewBox="0 0 16 5" fill="none" xmlns="http://www.w3.org/2000/svg">
<path d="M15.759 0.211064C15.772 0.211064 15.791 0.211064 15.7975 0.191564C15.804 0.185064 15.804 0.179064 15.804 0.172564C15.8042 0.165983 15.8025 0.15949 15.7991 0.15383C15.7957 0.148169 15.7909 0.143571 15.785 0.140564C15.772 0.134064 15.759 0.134064 15.74 0.134064H15.727V0.204064H15.759M15.74 0.102064C15.772 0.102064 15.791 0.102064 15.804 0.108564C15.849 0.121064 15.849 0.166064 15.849 0.178564V0.198064C15.849 0.211064 15.8425 0.230064 15.8165 0.243064C15.8165 0.243064 15.8105 0.249064 15.804 0.249064L15.8615 0.351564H15.804L15.759 0.255564H15.727V0.351564H15.676V0.102064H15.74ZM15.759 0.453564C15.7884 0.453763 15.8176 0.448121 15.8448 0.436965C15.8721 0.42581 15.8968 0.409363 15.9177 0.388576C15.9385 0.367789 15.955 0.343075 15.9662 0.315866C15.9774 0.288657 15.9831 0.259494 15.983 0.230064C15.9838 0.200442 15.9785 0.170975 15.9675 0.143457C15.9565 0.115938 15.94 0.0909429 15.9191 0.0699901C15.8981 0.0490373 15.8731 0.0325651 15.8456 0.0215754C15.8181 0.0105858 15.7886 0.00530841 15.759 0.00606393C15.6999 0.00684349 15.6434 0.0307093 15.6016 0.0725636C15.5599 0.114418 15.5361 0.170943 15.5355 0.230064C15.5355 0.351564 15.6375 0.453564 15.759 0.453564ZM15.5865 0.230064C15.5865 0.134064 15.663 0.0575638 15.7655 0.0575638C15.8615 0.0575638 15.938 0.134064 15.938 0.230064C15.9381 0.252735 15.9336 0.275197 15.925 0.296155C15.9164 0.317113 15.9037 0.336156 15.8876 0.352187C15.8716 0.368218 15.8525 0.380922 15.8316 0.389568C15.8106 0.398213 15.7882 0.40263 15.7655 0.402564C15.7422 0.403801 15.7189 0.400236 15.6971 0.39209C15.6752 0.383945 15.6553 0.371392 15.6385 0.355214C15.6217 0.339035 15.6084 0.319576 15.5995 0.298046C15.5905 0.276516 15.5861 0.253376 15.5865 0.230064ZM14.033 1.65556C13.893 1.65561 13.7569 1.61012 13.645 1.52596C13.5332 1.44181 13.4517 1.32356 13.413 1.18906H15.043L15.267 0.837564H13.413C13.4516 0.702972 13.533 0.584612 13.6449 0.500363C13.7567 0.416114 13.893 0.370554 14.033 0.370564H15.152L15.3755 0.0190639H14.0075C13.4575 0.0190639 13.0165 0.466564 13.0165 1.01006C13.0165 1.56006 13.464 2.00106 14.0075 2.00106H15.184L15.4075 1.64906H14.033M9.366 2.00106H10.5485L10.7725 1.64906H9.398C9.31363 1.64952 9.22999 1.63336 9.15186 1.6015C9.07373 1.56964 9.00264 1.52269 8.94266 1.46336C8.88267 1.40402 8.83496 1.33345 8.80224 1.25567C8.76953 1.1779 8.75246 1.09444 8.752 1.01006C8.752 0.652064 9.04 0.370564 9.398 0.370564H10.517L10.7405 0.0190639H9.3725C8.8225 0.0190639 8.375 0.466564 8.375 1.01006C8.375 1.56006 8.8225 2.00106 9.366 2.00106ZM2.1225 1.65606H1.0165C0.846848 1.65593 0.68419 1.58844 0.564275 1.46844C0.44436 1.34843 0.377 1.18572 0.377 1.01606C0.377 0.658564 0.665 0.377064 1.0165 0.377064H2.1165C2.474 0.377064 2.7615 0.664564 2.7615 1.01656C2.7615 1.36806 2.474 1.65606 2.1225 1.65606ZM0.991 2.00056H2.1415C2.6915 2.00056 3.1325 1.55956 3.1325 1.01006C3.1325 0.460564 2.6915 0.0190639 2.1415 0.0190639H0.991C0.728495 0.0201171 0.477041 0.124864 0.291421 0.310485C0.1058 0.496106 0.00105319 0.747559 0 1.01006C0 1.56006 0.4475 2.00056 0.991 2.00056ZM5.012 1.36156C5.19003 1.36156 5.36076 1.29084 5.48665 1.16496C5.61253 1.03908 5.68325 0.86834 5.68325 0.690314C5.68325 0.512287 5.61253 0.341552 5.48665 0.215669C5.36076 0.0897849 5.19003 0.0190639 5.012 0.0190639H3.3435V2.00106H3.727V0.371064H4.987C5.1655 0.371064 5.3065 0.511064 5.3065 0.690064C5.3065 0.869564 5.1655 1.01006 4.9865 1.01006H3.9125L5.0505 2.00106H5.607L4.8395 1.35506H5.012M11.322 1.65556V0.0190639H10.9385V1.81556C10.9385 1.8669 10.9577 1.91156 10.996 1.94956C11.0336 1.98657 11.0843 2.00724 11.137 2.00706H12.876L13.0995 1.65556H11.322ZM6.655 1.30406H7.6715L7.1345 0.434564L6.1435 2.00106H5.6895L6.8915 0.121064C6.91782 0.0828903 6.95321 0.0518501 6.99449 0.0307307C7.03577 0.00961131 7.08164 -0.000926459 7.128 6.3883e-05C7.224 6.3883e-05 7.307 0.0445642 7.358 0.121064L8.5665 2.00706H8.119L7.908 1.65556H6.8785L6.655 1.30406ZM0.1855 3.19656H0.6905L1.304 4.48156V3.19656H1.6305V4.83306H1.1505L0.518 3.47106V4.82656H0.1855V3.19656ZM2.001 3.19656H3.0945V3.46506H2.3525V3.85506H3.0495V4.12356H2.3525V4.56456H3.12V4.83306H2.001V3.19656ZM3.7975 3.46506H3.3115V3.19656H4.6415V3.46506H4.1555V4.83306H3.804V3.46506H3.7975ZM5.0635 4.35356C5.07 4.46856 5.0825 4.67956 5.4595 4.67956C5.7985 4.67956 5.8435 4.46856 5.8435 4.38556C5.8435 4.20056 5.6965 4.16806 5.466 4.11056C5.217 4.04656 5.108 4.02106 5.025 3.96356C4.97079 3.92995 4.92634 3.88271 4.89608 3.82657C4.86581 3.77042 4.85079 3.70732 4.8525 3.64356C4.8525 3.31156 5.1655 3.16456 5.4725 3.16456C5.581 3.16456 5.7985 3.18356 5.9325 3.32456C6.0225 3.42656 6.0285 3.53506 6.035 3.60556H5.7985C5.786 3.40056 5.6135 3.35606 5.4535 3.35606C5.2295 3.35606 5.0885 3.45856 5.0885 3.61856C5.0885 3.76556 5.185 3.81006 5.3835 3.86156C5.773 3.96356 5.818 3.97006 5.9135 4.03406C6.067 4.13606 6.0735 4.28956 6.0735 4.36006C6.0735 4.64756 5.8495 4.87156 5.428 4.87156C5.3065 4.87156 5.0505 4.85206 4.923 4.68606C4.827 4.56456 4.827 4.43656 4.827 4.35356H5.0635ZM6.6615 3.19656V4.20656C6.6615 4.37906 6.7 4.45606 6.7315 4.50056C6.8345 4.63506 6.994 4.66056 7.103 4.66056C7.544 4.66056 7.544 4.31556 7.544 4.19356V3.19706H7.7615V4.20706C7.7615 4.29656 7.7615 4.47556 7.627 4.64206C7.467 4.84656 7.218 4.86556 7.0965 4.86556C6.943 4.86556 6.668 4.82056 6.5215 4.60356C6.47 4.53306 6.425 4.43706 6.425 4.19406V3.19706L6.6615 3.19656ZM8.2345 4.83306H8.458V3.19656H8.2345V4.83306ZM9.3405 4.83306V3.38806H8.7905V3.19656H10.1075V3.38806H9.558V4.83306H9.3405ZM10.3825 3.19656H11.4055V3.38806H10.6065V3.89956H11.367V4.09156H10.6065V4.63506H11.4245V4.83306H10.3825V3.19656Z" fill="#0F2373"/>
</svg>
