<svg width="80" height="26" viewBox="0 0 80 26" fill="none" xmlns="http://www.w3.org/2000/svg">
<path d="M26.9425 16.6977C26.5856 16.8208 26.1302 17.0916 25.9086 17.2885C25.6871 17.4855 25.4286 17.8424 25.3424 18.064C25.244 18.2732 25.1701 18.6794 25.1701 18.9502C25.1701 19.2209 25.2686 19.6517 25.3793 19.8979C25.5024 20.1441 25.7978 20.4764 26.0317 20.6241C26.2656 20.7841 27.1025 21.0795 27.878 21.2888C28.6534 21.498 29.4534 21.7319 29.6504 21.818C29.8473 21.8919 30.0935 22.1504 30.2043 22.3719C30.3766 22.7412 30.3766 22.8273 30.2166 23.295C30.1058 23.6028 29.8966 23.8859 29.6627 24.0212C29.4658 24.1443 29.0103 24.2797 28.678 24.3167C28.2841 24.3782 27.8533 24.3413 27.4595 24.2305C27.1025 24.132 26.7579 23.9351 26.6225 23.7505C26.4994 23.5781 26.364 23.2581 26.3394 23.0489C26.2779 22.655 26.2656 22.6427 25.6624 22.6427H25.047C25.047 23.3566 25.1701 23.7874 25.3301 24.0582C25.4778 24.3167 25.7978 24.6736 26.0317 24.8213C26.2656 24.9813 26.6594 25.1659 26.8933 25.2275C27.1271 25.3013 27.681 25.3506 28.1241 25.3506C28.5672 25.3506 29.2319 25.2644 29.6012 25.1536C30.0689 25.0182 30.4381 24.7967 30.7828 24.4397C31.1151 24.1074 31.349 23.7382 31.4474 23.3812C31.5213 23.0735 31.5582 22.5935 31.5213 22.3104C31.472 21.9904 31.312 21.6334 31.1028 21.3995C30.9182 21.178 30.5981 20.9318 30.4012 20.821C30.2043 20.7226 29.4535 20.4887 28.7396 20.3041C28.0257 20.1195 27.2995 19.8979 27.1025 19.8241C26.9179 19.7502 26.684 19.5656 26.5856 19.4179C26.4871 19.2579 26.401 19.0117 26.401 18.864C26.401 18.704 26.4625 18.4578 26.524 18.3101C26.5979 18.1501 26.8317 17.9163 27.0533 17.7932C27.2625 17.6701 27.718 17.5347 28.0626 17.5101C28.4072 17.4731 28.8873 17.5224 29.1704 17.6208C29.5519 17.7562 29.7119 17.9039 29.9089 18.3101C30.1427 18.8025 30.1797 18.8148 30.7335 18.8271C31.2628 18.8271 31.3243 18.8025 31.3243 18.5563C31.3243 18.3963 31.2013 18.027 31.0535 17.7193C30.832 17.3008 30.6228 17.1039 30.155 16.87C29.6873 16.6239 29.3057 16.55 28.5549 16.5131C27.8533 16.4885 27.3856 16.55 26.9425 16.6977ZM0.873195 16.7716C0.848578 16.8454 0.83627 18.7532 0.848579 20.9811L0.860887 25.0428L2.64561 25.1044L2.70716 18.3963C3.43336 19.9225 4.15956 21.4611 4.77498 22.8027L5.90736 25.2398L8.36905 25.1659L8.43059 16.6116H6.70741C6.70741 21.2395 6.65817 22.6673 6.59663 22.7658C6.52278 22.9012 6.412 22.7658 6.15353 22.2119C5.9689 21.8057 5.29193 20.3779 4.62728 19.0363L3.44566 16.5992C1.27937 16.6116 0.897812 16.6608 0.873195 16.7716ZM10.3138 20.8826L10.3384 25.1659H16.1234L16.1849 23.7505H12.3078C12.1601 23.135 12.1231 22.6304 12.1231 22.2488V21.5349L15.7541 21.4734L15.8157 20.0579L12.1847 19.9964L12.1231 18.0886L16.0003 18.027V16.6731L10.2769 16.6116L10.3138 20.8826ZM17.1819 17.3378V18.0763H19.6436L19.7051 25.1536H21.5514L21.613 18.0763H24.0747V16.5992H17.1819V17.3378ZM33.3552 16.7839C33.3183 16.8823 33.306 18.3101 33.3306 19.9471C33.3675 22.5935 33.4045 23.012 33.6137 23.492C33.7491 23.7874 34.106 24.2428 34.4138 24.5013C34.7707 24.809 35.2138 25.0429 35.7062 25.1782C36.1739 25.3013 36.7154 25.3506 37.1832 25.3136C37.5893 25.2767 38.2171 25.1167 38.5986 24.9567C39.0171 24.7598 39.411 24.4767 39.6449 24.1689C39.8418 23.9105 40.0757 23.492 40.1618 23.2581C40.2603 22.9627 40.3095 21.8057 40.3095 19.7133L40.3218 16.5992H39.2141C39.2018 20.9441 39.1525 22.4211 39.091 22.6919C39.0171 22.9627 38.8694 23.332 38.734 23.492C38.6109 23.6643 38.3525 23.8859 38.1555 23.9843C37.9217 24.1074 37.4416 24.1689 36.8508 24.1689C36.0877 24.1689 35.8415 24.1197 35.5584 23.9105C35.3615 23.7751 35.0784 23.4674 34.9307 23.2335C34.6599 22.8273 34.6476 22.7412 34.6476 19.7133L34.6599 16.5992C33.6014 16.5992 33.3922 16.6608 33.3552 16.7839ZM42.7835 20.9072V25.2152L43.9528 25.1536L44.0144 16.5992H42.7835V20.9072ZM45.6268 17.1285L45.676 17.6455L48.5685 17.707V25.2152H49.6763V17.707H52.5072V16.5992H45.5898L45.6268 17.1285ZM53.9719 20.9195V25.2275H59.3876V24.1197H55.2028V21.2888H59.1415V20.3041H55.2028V17.7193H59.2645V16.6116H53.9719V20.9195Z" fill="#030303"/>
<path fill-rule="evenodd" clip-rule="evenodd" d="M35.1899 1.55087C35.5345 1.0216 35.9776 0.455412 36.1623 0.295402C36.3838 0.110775 36.6792 0 36.9377 0C37.1716 0 37.5039 0.07385 37.6885 0.172318C37.8854 0.258477 38.2301 0.640041 38.4639 0.996986C38.6179 1.2401 38.9053 1.69129 39.2066 2.16439C39.3629 2.40986 39.523 2.66123 39.6702 2.89249C39.8917 3.23101 40.178 3.67725 40.4642 4.12348C40.7503 4.56961 41.0364 5.01573 41.258 5.35418C41.4588 5.66973 41.7585 6.13237 42.0849 6.63614C42.4588 7.21312 42.8676 7.84406 43.2027 8.36975C43.8427 9.35443 44.372 10.2283 44.372 10.3145C44.372 10.4253 44.0889 10.4622 43.3504 10.4622C42.7965 10.4622 42.2796 10.413 42.1934 10.3637C42.1196 10.3145 41.8365 9.92062 41.0856 8.67746L35.6945 8.60361L35.1653 7.81587C34.8822 7.37277 34.6729 6.96659 34.7099 6.89274C34.7468 6.81889 35.7192 6.76965 37.2331 6.76965C38.587 6.76965 39.6948 6.74504 39.6948 6.70811C39.6948 6.67119 39.5102 6.32655 39.2763 5.94498C39.0548 5.55111 38.5747 4.76337 38.2178 4.18488C38.1174 4.02219 38.0151 3.85658 37.9174 3.69846C37.6676 3.29431 37.4481 2.93903 37.3685 2.80633C37.2577 2.60939 37.11 2.46169 37.0485 2.46169C36.9746 2.46169 36.7654 2.72017 36.5684 3.0525C36.3715 3.37252 35.5468 4.68952 34.7345 5.9696C33.9221 7.26199 32.9498 8.78824 31.8789 10.4499L30.7342 10.4253C30.045 10.413 29.6142 10.3514 29.6388 10.2776C29.6634 10.216 30.7835 8.4436 32.1251 6.33886C33.4544 4.24642 34.8329 2.08013 35.1899 1.55087ZM2.27707 0.910825C2.51093 0.750815 3.04019 0.504648 3.44637 0.381563C4.11103 0.160011 4.57875 0.135393 8.0005 0.123085C11.4346 0.123085 11.89 0.135392 12.6162 0.356945C13.0593 0.492338 13.6993 0.800051 14.0316 1.05853C14.3763 1.31701 14.7948 1.68626 14.9917 1.8955C15.1763 2.10475 15.5087 2.63401 15.7302 3.07712C16.0749 3.7787 16.1241 4.02487 16.161 5.04647C16.1979 6.01884 16.161 6.33886 15.9395 6.95428C15.7794 7.36046 15.5087 7.91434 15.324 8.18513C15.1271 8.45591 14.7948 8.84978 14.5609 9.05903C14.3394 9.26827 13.9086 9.58829 13.6009 9.76061C13.2931 9.93293 12.7393 10.1668 12.37 10.2653C11.8654 10.4006 10.8684 10.4376 8.36975 10.4499C6.5481 10.4499 4.68952 10.4006 4.24642 10.3391C3.80331 10.2653 3.10173 10.0314 2.65863 9.80984C2.22783 9.58829 1.63703 9.15749 1.34162 8.83747C1.04622 8.50515 0.615423 7.87741 0.406179 7.422C0.0246168 6.63426 0 6.51117 0 5.21879C0 3.93871 0.0246168 3.82793 0.406179 3.06481C0.627731 2.63401 1.03391 2.0309 1.32931 1.73549C1.61241 1.44009 2.0432 1.05853 2.27707 0.910825ZM17.3549 10.4006L17.3303 5.25571L17.3057 0.110775L22.1922 0.147703C26.574 0.184628 27.1155 0.209242 27.4848 0.406178C27.694 0.516954 28.1125 0.824665 28.3956 1.08314C28.6664 1.32931 29.0357 1.82165 29.1834 2.15398C29.3926 2.58478 29.4788 2.99096 29.4788 3.50791C29.4788 3.91409 29.4172 4.44335 29.3434 4.67722C29.2818 4.91108 29.011 5.39111 28.7526 5.72343C28.4449 6.14192 28.0756 6.44963 27.571 6.70811C27.0171 6.99121 26.6847 7.07736 26.1309 7.07736C25.737 7.07736 25.417 7.13891 25.417 7.20045C25.4047 7.2743 25.5893 7.47124 25.8108 7.64355C26.0324 7.81587 26.3032 8.03743 26.4017 8.13589C26.4745 8.20874 26.709 8.40287 26.9757 8.62356C27.0695 8.70116 27.1672 8.78204 27.2632 8.86209C27.3998 8.97587 27.5363 9.08798 27.6579 9.18781C27.8652 9.35798 28.0291 9.49251 28.0756 9.53906C28.1371 9.6006 28.3464 9.78522 28.531 9.94523C28.7156 10.0929 28.8387 10.2529 28.8141 10.3145C28.7895 10.3637 28.1741 10.4006 26.1555 10.4006L24.5923 9.04672C23.743 8.30821 22.9799 7.64355 22.906 7.5697C22.8322 7.50816 22.3522 7.08967 21.8475 6.64657C21.3429 6.20346 20.8136 5.74805 20.6782 5.63727C20.5428 5.51419 20.4813 5.39111 20.5428 5.35418C20.5921 5.32956 21.8106 5.29264 23.2507 5.29264C24.6785 5.28033 26.0447 5.2311 26.2786 5.16955C26.5124 5.10801 26.8201 4.96031 26.9678 4.83722C27.1032 4.71414 27.2879 4.49259 27.3617 4.34488C27.4479 4.18488 27.5094 3.86486 27.5094 3.631C27.5094 3.39714 27.4233 3.04019 27.3248 2.83095C27.2263 2.63401 26.9555 2.35092 26.7463 2.21552C26.3647 1.98166 26.1186 1.96935 19.3858 1.96935L19.312 3.29867C19.2751 4.02487 19.2751 5.80959 19.3243 7.26199C19.3735 8.71439 19.3858 10.0314 19.3366 10.1914C19.2627 10.4499 19.2012 10.4622 17.3549 10.4006ZM46.2306 0.763126C46.6614 0.541574 47.2153 0.307712 47.4491 0.258478C47.683 0.196936 49.64 0.147702 55.6958 0.123085L55.6096 0.406178C55.5727 0.553879 55.4742 0.750818 55.4004 0.824668C55.3265 0.910828 55.1296 1.19392 54.6496 1.98166H51.3878C49.2133 1.98987 47.9948 2.0391 47.7322 2.12936C47.5107 2.21552 47.1045 2.44938 46.8091 2.65863C46.4767 2.89249 46.1444 3.28636 45.9229 3.70485C45.7259 4.0741 45.5413 4.6526 45.5044 4.98493C45.4634 5.39521 45.5167 5.826 45.6644 6.27731C45.7998 6.68349 46.0952 7.17583 46.3906 7.49585C46.6737 7.80356 47.1414 8.16051 47.4491 8.2959C47.9661 8.54207 48.2738 8.56669 55.942 8.67746L54.8834 10.4006L51.7571 10.4376C49.96 10.4622 48.2738 10.4253 47.8184 10.3514C47.3753 10.2776 46.7106 10.0683 46.3414 9.88369C45.9721 9.69907 45.3813 9.26827 45.0367 8.92363C44.692 8.59131 44.2858 8.06204 44.1258 7.75433C43.9658 7.44662 43.7689 6.95428 43.6827 6.64657C43.5843 6.33886 43.5104 5.73574 43.5104 5.29264C43.5104 4.84953 43.5843 4.24642 43.6827 3.93871C43.7689 3.631 43.9658 3.13866 44.1258 2.83095C44.2858 2.52323 44.6428 2.0309 44.9259 1.72318C45.209 1.41547 45.7998 0.984678 46.2306 0.763126ZM56.8282 5.25571C56.8036 2.74479 56.8282 0.553879 56.8651 0.406178C56.9266 0.1477 56.9882 0.123085 58.896 0.123085V8.61592H63.4501C65.9487 8.61592 68.0043 8.66515 67.9919 8.71439C67.9919 8.76362 67.8935 8.97287 67.7827 9.1698C67.7459 9.23238 67.7014 9.30707 67.6538 9.38695C67.5422 9.57418 67.4136 9.78994 67.3273 9.94523C67.1919 10.1668 66.9703 10.376 66.8349 10.413C66.6996 10.4499 64.521 10.4622 62.01 10.4376L62.0098 10.4376C57.419 10.4006 57.419 10.4006 57.1482 10.1176C56.8651 9.84677 56.8651 9.84677 56.8282 5.2559V5.25571ZM70.5275 0.676965C70.9337 0.48003 71.426 0.283094 71.6352 0.23386C71.8322 0.184626 73.7646 0.147702 75.9063 0.135394C79.5742 0.123085 79.8204 0.135392 79.7588 0.344635C79.7342 0.455412 79.5004 0.873901 78.7742 1.98166L72.1891 1.96935L71.4137 2.37553C70.8352 2.68324 70.5521 2.92941 70.2444 3.38483C70.0228 3.72946 69.8382 4.09872 69.8382 4.2218C69.8505 4.41874 70.1582 4.43105 74.5277 4.43105C77.5556 4.43105 79.205 4.48028 79.205 4.55413C79.205 4.62798 78.9957 5.00954 78.2818 6.15423H74.06C70.4044 6.15423 69.8505 6.17885 69.8505 6.33886C69.8505 6.43733 69.9244 6.68349 70.0228 6.86812C70.1213 7.05275 70.4044 7.40969 70.6629 7.65586C70.9337 7.90203 71.3398 8.19744 71.5737 8.33283C71.9676 8.54207 72.3738 8.55438 76.0294 8.5913C79.8081 8.61592 80.0542 8.62823 79.9927 8.83747C79.9558 8.94825 79.6973 9.36674 78.9588 10.4622L75.4139 10.4253C73.4692 10.413 71.7706 10.3637 71.6352 10.3268C71.4999 10.2899 71.0321 10.0929 70.6013 9.896C70.0475 9.64983 69.6043 9.32981 69.1243 8.80055C68.6443 8.2959 68.3243 7.80356 68.0904 7.23737C67.9058 6.78196 67.7212 6.1173 67.6842 5.76036C67.635 5.40341 67.6719 4.77568 67.7581 4.3695C67.8319 3.96332 68.0535 3.32328 68.2258 2.95403C68.4104 2.58478 68.8289 1.99397 69.1736 1.66164C69.5059 1.31701 70.1213 0.873901 70.5275 0.676965ZM2.98099 2.83372C3.23947 2.62448 3.7195 2.35369 4.06414 2.2183C4.63033 1.99674 4.96265 1.98443 8.24901 2.00905C11.6215 2.03367 11.8431 2.04598 12.3108 2.29215C12.5816 2.43985 12.9878 2.71064 13.2093 2.90757C13.4432 3.10451 13.7632 3.55992 13.9232 3.91686C14.1325 4.37228 14.2186 4.77845 14.2186 5.33234C14.2186 5.87391 14.1325 6.26778 13.9232 6.71089C13.7632 7.05552 13.4801 7.47401 13.2832 7.65864C13.0862 7.83096 12.6801 8.11405 12.3723 8.27406C11.8308 8.54485 11.7077 8.55715 8.31056 8.59408C6.03349 8.6187 4.63033 8.58177 4.31031 8.49561C4.03952 8.42176 3.54718 8.15098 3.20254 7.90481C2.80047 7.6012 2.48455 7.22374 2.25479 6.77243C1.99632 6.25547 1.91016 5.92314 1.91016 5.33234C1.91016 4.76615 1.99632 4.37228 2.21787 3.87994C2.39019 3.48607 2.72251 3.04296 2.98099 2.83372Z" fill="#F80204"/>
</svg>
