<svg width="16" height="16" viewBox="0 0 16 16" fill="none" xmlns="http://www.w3.org/2000/svg">
<path d="M9.74194 3.96851V6.70701L10.6999 7.30951C10.7345 7.31694 10.7703 7.31694 10.8049 7.30951L14.9239 4.53251C14.9209 4.39773 14.8716 4.2681 14.7843 4.16539C14.697 4.06268 14.577 3.99316 14.4444 3.96851H9.74194Z" fill="#0072C6"/>
<path d="M9.74202 7.72853L10.6155 8.32853C10.6564 8.35354 10.7034 8.36678 10.7513 8.36678C10.7992 8.36678 10.8462 8.35354 10.887 8.32853C10.737 8.41903 14.9235 5.63953 14.9235 5.63953V10.6725C14.9344 10.7745 14.9229 10.8777 14.8898 10.9747C14.8567 11.0718 14.8028 11.1605 14.7318 11.2345C14.6609 11.3086 14.5746 11.3662 14.479 11.4035C14.3834 11.4407 14.2809 11.4566 14.1785 11.45H9.74152L9.74202 7.72853ZM5.22002 6.46603C5.0749 6.46538 4.9323 6.50398 4.80732 6.57774C4.68233 6.6515 4.57961 6.75767 4.51003 6.88503C4.32006 7.2227 4.22892 7.60701 4.24703 7.99403C4.22729 8.38024 4.31855 8.76404 4.51003 9.10003C4.57928 9.22217 4.67946 9.32394 4.80051 9.3951C4.92155 9.46626 5.05919 9.50431 5.1996 9.50543C5.34001 9.50654 5.47824 9.47068 5.6004 9.40145C5.72256 9.33222 5.82434 9.23206 5.89553 9.11103C6.08529 8.77672 6.17469 8.39482 6.15302 8.01103C6.17469 7.61522 6.08827 7.22098 5.90302 6.87053C5.83665 6.74743 5.738 6.64475 5.61767 6.57348C5.49734 6.50222 5.35987 6.46507 5.22002 6.46603Z" fill="#0072C6"/>
<path d="M1.07642 2.5775V13.291L9.22642 15V1L1.07642 2.5775ZM6.53042 9.7455C6.37799 9.96046 6.17527 10.1349 5.93996 10.2535C5.70465 10.3721 5.44388 10.4313 5.18042 10.426C4.92359 10.4306 4.66946 10.373 4.43964 10.2583C4.20982 10.1436 4.01111 9.97502 3.86042 9.767C3.50304 9.26799 3.32426 8.66311 3.35292 8.05C3.32259 7.40683 3.5046 6.77153 3.87092 6.242C4.02539 6.02306 4.23131 5.84544 4.47056 5.72478C4.7098 5.60411 4.97503 5.54409 5.24292 5.55C5.49785 5.54506 5.75012 5.60268 5.97762 5.71783C6.20513 5.83298 6.40094 6.00214 6.54792 6.2105C6.90171 6.72033 7.07746 7.33264 7.04792 7.9525C7.0792 8.59104 6.89714 9.22184 6.53042 9.7455Z" fill="#0072C6"/>
</svg>
