<svg width="1919" height="396" viewBox="0 0 1919 396" fill="none" xmlns="http://www.w3.org/2000/svg">
<g clip-path="url(#clip0_12_7656)">
<rect width="1919" height="396" fill="url(#paint0_linear_12_7656)"/>
<path d="M563.287 292.77C564.118 294.209 564.927 295.662 565.714 297.129C564.285 296.194 563.33 294.595 563.287 292.77Z" fill="white" fill-opacity="0.86"/>
<path d="M533.954 255.785C536.451 258.128 538.872 260.549 541.215 263.046C540.309 264.72 538.537 265.857 536.5 265.857C533.541 265.857 531.143 263.459 531.143 260.5C531.143 258.463 532.28 256.691 533.954 255.785Z" fill="white" fill-opacity="0.86"/>
<path d="M499.871 231.286C501.338 232.073 502.791 232.882 504.23 233.713C502.405 233.67 500.806 232.715 499.871 231.286Z" fill="white" fill-opacity="0.86"/>
<path d="M343.77 233.713C345.209 232.882 346.662 232.073 348.129 231.286C347.194 232.715 345.595 233.67 343.77 233.713Z" fill="white" fill-opacity="0.86"/>
<path d="M306.785 263.046C309.128 260.549 311.549 258.128 314.046 255.785C315.72 256.691 316.857 258.463 316.857 260.5C316.857 263.459 314.459 265.857 311.5 265.857C309.463 265.857 307.691 264.72 306.785 263.046Z" fill="white" fill-opacity="0.86"/>
<path d="M282.286 297.129C283.073 295.662 283.882 294.209 284.713 292.77C284.67 294.595 283.715 296.194 282.286 297.129Z" fill="white" fill-opacity="0.86"/>
<path d="M565.714 448.871C564.927 450.338 564.118 451.791 563.287 453.23C563.33 451.405 564.285 449.806 565.714 448.871Z" fill="white" fill-opacity="0.86"/>
<path d="M541.215 482.954C540.309 481.28 538.537 480.143 536.5 480.143C533.541 480.143 531.143 482.541 531.143 485.5C531.143 487.537 532.28 489.309 533.954 490.215C536.451 487.872 538.872 485.451 541.215 482.954Z" fill="white" fill-opacity="0.86"/>
<path d="M504.23 512.287C502.405 512.33 500.806 513.285 499.871 514.714C501.338 513.927 502.791 513.118 504.23 512.287Z" fill="white" fill-opacity="0.86"/>
<path d="M348.129 514.714C347.194 513.285 345.595 512.33 343.77 512.287C345.209 513.118 346.662 513.927 348.129 514.714Z" fill="white" fill-opacity="0.86"/>
<path d="M314.046 490.215C315.72 489.309 316.857 487.537 316.857 485.5C316.857 482.541 314.459 480.143 311.5 480.143C309.463 480.143 307.691 481.28 306.785 482.954C309.128 485.451 311.549 487.872 314.046 490.215Z" fill="white" fill-opacity="0.86"/>
<path d="M284.713 453.23C284.67 451.405 283.715 449.806 282.286 448.871C283.073 450.338 283.882 451.791 284.713 453.23Z" fill="white" fill-opacity="0.86"/>
<path d="M381.143 228.357C381.143 231.316 378.744 233.714 375.786 233.714C372.827 233.714 370.429 231.316 370.429 228.357C370.429 225.398 372.827 223 375.786 223C378.744 223 381.143 225.398 381.143 228.357Z" fill="white" fill-opacity="0.86"/>
<path d="M413.286 228.357C413.286 231.316 410.887 233.714 407.929 233.714C404.97 233.714 402.571 231.316 402.571 228.357C402.571 225.398 404.97 223 407.929 223C410.887 223 413.286 225.398 413.286 228.357Z" fill="white" fill-opacity="0.86"/>
<path d="M445.429 228.357C445.429 231.316 443.03 233.714 440.071 233.714C437.113 233.714 434.714 231.316 434.714 228.357C434.714 225.398 437.113 223 440.071 223C443.03 223 445.429 225.398 445.429 228.357Z" fill="white" fill-opacity="0.86"/>
<path d="M477.571 228.357C477.571 231.316 475.173 233.714 472.214 233.714C469.256 233.714 466.857 231.316 466.857 228.357C466.857 225.398 469.256 223 472.214 223C475.173 223 477.571 225.398 477.571 228.357Z" fill="white" fill-opacity="0.86"/>
<path d="M349 260.5C349 263.459 346.602 265.857 343.643 265.857C340.684 265.857 338.286 263.459 338.286 260.5C338.286 257.541 340.684 255.143 343.643 255.143C346.602 255.143 349 257.541 349 260.5Z" fill="white" fill-opacity="0.86"/>
<path d="M381.143 260.5C381.143 263.459 378.744 265.857 375.786 265.857C372.827 265.857 370.429 263.459 370.429 260.5C370.429 257.541 372.827 255.143 375.786 255.143C378.744 255.143 381.143 257.541 381.143 260.5Z" fill="white" fill-opacity="0.86"/>
<path d="M413.286 260.5C413.286 263.459 410.887 265.857 407.929 265.857C404.97 265.857 402.571 263.459 402.571 260.5C402.571 257.541 404.97 255.143 407.929 255.143C410.887 255.143 413.286 257.541 413.286 260.5Z" fill="white" fill-opacity="0.86"/>
<path d="M445.429 260.5C445.429 263.459 443.03 265.857 440.071 265.857C437.113 265.857 434.714 263.459 434.714 260.5C434.714 257.541 437.113 255.143 440.071 255.143C443.03 255.143 445.429 257.541 445.429 260.5Z" fill="white" fill-opacity="0.86"/>
<path d="M477.571 260.5C477.571 263.459 475.173 265.857 472.214 265.857C469.256 265.857 466.857 263.459 466.857 260.5C466.857 257.541 469.256 255.143 472.214 255.143C475.173 255.143 477.571 257.541 477.571 260.5Z" fill="white" fill-opacity="0.86"/>
<path d="M509.714 260.5C509.714 263.459 507.316 265.857 504.357 265.857C501.398 265.857 499 263.459 499 260.5C499 257.541 501.398 255.143 504.357 255.143C507.316 255.143 509.714 257.541 509.714 260.5Z" fill="white" fill-opacity="0.86"/>
<path d="M316.857 292.643C316.857 295.602 314.459 298 311.5 298C308.541 298 306.143 295.602 306.143 292.643C306.143 289.684 308.541 287.286 311.5 287.286C314.459 287.286 316.857 289.684 316.857 292.643Z" fill="white" fill-opacity="0.86"/>
<path d="M349 292.643C349 295.602 346.602 298 343.643 298C340.684 298 338.286 295.602 338.286 292.643C338.286 289.684 340.684 287.286 343.643 287.286C346.602 287.286 349 289.684 349 292.643Z" fill="white" fill-opacity="0.86"/>
<path d="M381.143 292.643C381.143 295.602 378.744 298 375.786 298C372.827 298 370.429 295.602 370.429 292.643C370.429 289.684 372.827 287.286 375.786 287.286C378.744 287.286 381.143 289.684 381.143 292.643Z" fill="white" fill-opacity="0.86"/>
<path d="M413.286 292.643C413.286 295.602 410.887 298 407.929 298C404.97 298 402.571 295.602 402.571 292.643C402.571 289.684 404.97 287.286 407.929 287.286C410.887 287.286 413.286 289.684 413.286 292.643Z" fill="white" fill-opacity="0.86"/>
<path d="M445.429 292.643C445.429 295.602 443.03 298 440.071 298C437.113 298 434.714 295.602 434.714 292.643C434.714 289.684 437.113 287.286 440.071 287.286C443.03 287.286 445.429 289.684 445.429 292.643Z" fill="white" fill-opacity="0.86"/>
<path d="M477.571 292.643C477.571 295.602 475.173 298 472.214 298C469.256 298 466.857 295.602 466.857 292.643C466.857 289.684 469.256 287.286 472.214 287.286C475.173 287.286 477.571 289.684 477.571 292.643Z" fill="white" fill-opacity="0.86"/>
<path d="M509.714 292.643C509.714 295.602 507.316 298 504.357 298C501.398 298 499 295.602 499 292.643C499 289.684 501.398 287.286 504.357 287.286C507.316 287.286 509.714 289.684 509.714 292.643Z" fill="white" fill-opacity="0.86"/>
<path d="M541.857 292.643C541.857 295.602 539.459 298 536.5 298C533.541 298 531.143 295.602 531.143 292.643C531.143 289.684 533.541 287.286 536.5 287.286C539.459 287.286 541.857 289.684 541.857 292.643Z" fill="white" fill-opacity="0.86"/>
<path d="M284.714 324.786C284.714 327.744 282.316 330.143 279.357 330.143C276.398 330.143 274 327.744 274 324.786C274 321.827 276.398 319.429 279.357 319.429C282.316 319.429 284.714 321.827 284.714 324.786Z" fill="white" fill-opacity="0.86"/>
<path d="M316.857 324.786C316.857 327.744 314.459 330.143 311.5 330.143C308.541 330.143 306.143 327.744 306.143 324.786C306.143 321.827 308.541 319.429 311.5 319.429C314.459 319.429 316.857 321.827 316.857 324.786Z" fill="white" fill-opacity="0.86"/>
<path d="M349 324.786C349 327.744 346.602 330.143 343.643 330.143C340.684 330.143 338.286 327.744 338.286 324.786C338.286 321.827 340.684 319.429 343.643 319.429C346.602 319.429 349 321.827 349 324.786Z" fill="white" fill-opacity="0.86"/>
<path d="M381.143 324.786C381.143 327.744 378.744 330.143 375.786 330.143C372.827 330.143 370.429 327.744 370.429 324.786C370.429 321.827 372.827 319.429 375.786 319.429C378.744 319.429 381.143 321.827 381.143 324.786Z" fill="white" fill-opacity="0.86"/>
<path d="M413.286 324.786C413.286 327.744 410.887 330.143 407.929 330.143C404.97 330.143 402.571 327.744 402.571 324.786C402.571 321.827 404.97 319.429 407.929 319.429C410.887 319.429 413.286 321.827 413.286 324.786Z" fill="white" fill-opacity="0.86"/>
<path d="M445.429 324.786C445.429 327.744 443.03 330.143 440.071 330.143C437.113 330.143 434.714 327.744 434.714 324.786C434.714 321.827 437.113 319.429 440.071 319.429C443.03 319.429 445.429 321.827 445.429 324.786Z" fill="white" fill-opacity="0.86"/>
<path d="M477.571 324.786C477.571 327.744 475.173 330.143 472.214 330.143C469.256 330.143 466.857 327.744 466.857 324.786C466.857 321.827 469.256 319.429 472.214 319.429C475.173 319.429 477.571 321.827 477.571 324.786Z" fill="white" fill-opacity="0.86"/>
<path d="M509.714 324.786C509.714 327.744 507.316 330.143 504.357 330.143C501.398 330.143 499 327.744 499 324.786C499 321.827 501.398 319.429 504.357 319.429C507.316 319.429 509.714 321.827 509.714 324.786Z" fill="white" fill-opacity="0.86"/>
<path d="M541.857 324.786C541.857 327.744 539.459 330.143 536.5 330.143C533.541 330.143 531.143 327.744 531.143 324.786C531.143 321.827 533.541 319.429 536.5 319.429C539.459 319.429 541.857 321.827 541.857 324.786Z" fill="white" fill-opacity="0.86"/>
<path d="M574 324.786C574 327.744 571.602 330.143 568.643 330.143C565.684 330.143 563.286 327.744 563.286 324.786C563.286 321.827 565.684 319.429 568.643 319.429C571.602 319.429 574 321.827 574 324.786Z" fill="white" fill-opacity="0.86"/>
<path d="M284.714 356.929C284.714 359.887 282.316 362.286 279.357 362.286C276.398 362.286 274 359.887 274 356.929C274 353.97 276.398 351.571 279.357 351.571C282.316 351.571 284.714 353.97 284.714 356.929Z" fill="white" fill-opacity="0.86"/>
<path d="M316.857 356.929C316.857 359.887 314.459 362.286 311.5 362.286C308.541 362.286 306.143 359.887 306.143 356.929C306.143 353.97 308.541 351.571 311.5 351.571C314.459 351.571 316.857 353.97 316.857 356.929Z" fill="white" fill-opacity="0.86"/>
<path d="M349 356.929C349 359.887 346.602 362.286 343.643 362.286C340.684 362.286 338.286 359.887 338.286 356.929C338.286 353.97 340.684 351.571 343.643 351.571C346.602 351.571 349 353.97 349 356.929Z" fill="white" fill-opacity="0.86"/>
<path d="M381.143 356.929C381.143 359.887 378.744 362.286 375.786 362.286C372.827 362.286 370.429 359.887 370.429 356.929C370.429 353.97 372.827 351.571 375.786 351.571C378.744 351.571 381.143 353.97 381.143 356.929Z" fill="white" fill-opacity="0.86"/>
<path d="M413.286 356.929C413.286 359.887 410.887 362.286 407.929 362.286C404.97 362.286 402.571 359.887 402.571 356.929C402.571 353.97 404.97 351.571 407.929 351.571C410.887 351.571 413.286 353.97 413.286 356.929Z" fill="white" fill-opacity="0.86"/>
<path d="M445.429 356.929C445.429 359.887 443.03 362.286 440.071 362.286C437.113 362.286 434.714 359.887 434.714 356.929C434.714 353.97 437.113 351.571 440.071 351.571C443.03 351.571 445.429 353.97 445.429 356.929Z" fill="white" fill-opacity="0.86"/>
<path d="M477.571 356.929C477.571 359.887 475.173 362.286 472.214 362.286C469.256 362.286 466.857 359.887 466.857 356.929C466.857 353.97 469.256 351.571 472.214 351.571C475.173 351.571 477.571 353.97 477.571 356.929Z" fill="white" fill-opacity="0.86"/>
<path d="M509.714 356.929C509.714 359.887 507.316 362.286 504.357 362.286C501.398 362.286 499 359.887 499 356.929C499 353.97 501.398 351.571 504.357 351.571C507.316 351.571 509.714 353.97 509.714 356.929Z" fill="white" fill-opacity="0.86"/>
<path d="M541.857 356.929C541.857 359.887 539.459 362.286 536.5 362.286C533.541 362.286 531.143 359.887 531.143 356.929C531.143 353.97 533.541 351.571 536.5 351.571C539.459 351.571 541.857 353.97 541.857 356.929Z" fill="white" fill-opacity="0.86"/>
<path d="M574 356.929C574 359.887 571.602 362.286 568.643 362.286C565.684 362.286 563.286 359.887 563.286 356.929C563.286 353.97 565.684 351.571 568.643 351.571C571.602 351.571 574 353.97 574 356.929Z" fill="white" fill-opacity="0.86"/>
<path d="M284.714 389.071C284.714 392.03 282.316 394.429 279.357 394.429C276.398 394.429 274 392.03 274 389.071C274 386.113 276.398 383.714 279.357 383.714C282.316 383.714 284.714 386.113 284.714 389.071Z" fill="white" fill-opacity="0.86"/>
<path d="M316.857 389.071C316.857 392.03 314.459 394.429 311.5 394.429C308.541 394.429 306.143 392.03 306.143 389.071C306.143 386.113 308.541 383.714 311.5 383.714C314.459 383.714 316.857 386.113 316.857 389.071Z" fill="white" fill-opacity="0.86"/>
<path d="M349 389.071C349 392.03 346.602 394.429 343.643 394.429C340.684 394.429 338.286 392.03 338.286 389.071C338.286 386.113 340.684 383.714 343.643 383.714C346.602 383.714 349 386.113 349 389.071Z" fill="white" fill-opacity="0.86"/>
<path d="M381.143 389.071C381.143 392.03 378.744 394.429 375.786 394.429C372.827 394.429 370.429 392.03 370.429 389.071C370.429 386.113 372.827 383.714 375.786 383.714C378.744 383.714 381.143 386.113 381.143 389.071Z" fill="white" fill-opacity="0.86"/>
<path d="M413.286 389.071C413.286 392.03 410.887 394.429 407.929 394.429C404.97 394.429 402.571 392.03 402.571 389.071C402.571 386.113 404.97 383.714 407.929 383.714C410.887 383.714 413.286 386.113 413.286 389.071Z" fill="white" fill-opacity="0.86"/>
<path d="M445.429 389.071C445.429 392.03 443.03 394.429 440.071 394.429C437.113 394.429 434.714 392.03 434.714 389.071C434.714 386.113 437.113 383.714 440.071 383.714C443.03 383.714 445.429 386.113 445.429 389.071Z" fill="white" fill-opacity="0.86"/>
<path d="M477.571 389.071C477.571 392.03 475.173 394.429 472.214 394.429C469.256 394.429 466.857 392.03 466.857 389.071C466.857 386.113 469.256 383.714 472.214 383.714C475.173 383.714 477.571 386.113 477.571 389.071Z" fill="white" fill-opacity="0.86"/>
<path d="M509.714 389.071C509.714 392.03 507.316 394.429 504.357 394.429C501.398 394.429 499 392.03 499 389.071C499 386.113 501.398 383.714 504.357 383.714C507.316 383.714 509.714 386.113 509.714 389.071Z" fill="white" fill-opacity="0.86"/>
<path d="M541.857 389.071C541.857 392.03 539.459 394.429 536.5 394.429C533.541 394.429 531.143 392.03 531.143 389.071C531.143 386.113 533.541 383.714 536.5 383.714C539.459 383.714 541.857 386.113 541.857 389.071Z" fill="white" fill-opacity="0.86"/>
<path d="M574 389.071C574 392.03 571.602 394.429 568.643 394.429C565.684 394.429 563.286 392.03 563.286 389.071C563.286 386.113 565.684 383.714 568.643 383.714C571.602 383.714 574 386.113 574 389.071Z" fill="white" fill-opacity="0.86"/>
<path d="M284.714 421.214C284.714 424.173 282.316 426.571 279.357 426.571C276.398 426.571 274 424.173 274 421.214C274 418.256 276.398 415.857 279.357 415.857C282.316 415.857 284.714 418.256 284.714 421.214Z" fill="white" fill-opacity="0.86"/>
<path d="M316.857 421.214C316.857 424.173 314.459 426.571 311.5 426.571C308.541 426.571 306.143 424.173 306.143 421.214C306.143 418.256 308.541 415.857 311.5 415.857C314.459 415.857 316.857 418.256 316.857 421.214Z" fill="white" fill-opacity="0.86"/>
<path d="M349 421.214C349 424.173 346.602 426.571 343.643 426.571C340.684 426.571 338.286 424.173 338.286 421.214C338.286 418.256 340.684 415.857 343.643 415.857C346.602 415.857 349 418.256 349 421.214Z" fill="white" fill-opacity="0.86"/>
<path d="M381.143 421.214C381.143 424.173 378.744 426.571 375.786 426.571C372.827 426.571 370.429 424.173 370.429 421.214C370.429 418.256 372.827 415.857 375.786 415.857C378.744 415.857 381.143 418.256 381.143 421.214Z" fill="white" fill-opacity="0.86"/>
<path d="M413.286 421.214C413.286 424.173 410.887 426.571 407.929 426.571C404.97 426.571 402.571 424.173 402.571 421.214C402.571 418.256 404.97 415.857 407.929 415.857C410.887 415.857 413.286 418.256 413.286 421.214Z" fill="white" fill-opacity="0.86"/>
<path d="M445.429 421.214C445.429 424.173 443.03 426.571 440.071 426.571C437.113 426.571 434.714 424.173 434.714 421.214C434.714 418.256 437.113 415.857 440.071 415.857C443.03 415.857 445.429 418.256 445.429 421.214Z" fill="white" fill-opacity="0.86"/>
<path d="M477.571 421.214C477.571 424.173 475.173 426.571 472.214 426.571C469.256 426.571 466.857 424.173 466.857 421.214C466.857 418.256 469.256 415.857 472.214 415.857C475.173 415.857 477.571 418.256 477.571 421.214Z" fill="white" fill-opacity="0.86"/>
<path d="M509.714 421.214C509.714 424.173 507.316 426.571 504.357 426.571C501.398 426.571 499 424.173 499 421.214C499 418.256 501.398 415.857 504.357 415.857C507.316 415.857 509.714 418.256 509.714 421.214Z" fill="white" fill-opacity="0.86"/>
<path d="M541.857 421.214C541.857 424.173 539.459 426.571 536.5 426.571C533.541 426.571 531.143 424.173 531.143 421.214C531.143 418.256 533.541 415.857 536.5 415.857C539.459 415.857 541.857 418.256 541.857 421.214Z" fill="white" fill-opacity="0.86"/>
<path d="M574 421.214C574 424.173 571.602 426.571 568.643 426.571C565.684 426.571 563.286 424.173 563.286 421.214C563.286 418.256 565.684 415.857 568.643 415.857C571.602 415.857 574 418.256 574 421.214Z" fill="white" fill-opacity="0.86"/>
<path d="M316.857 453.357C316.857 456.316 314.459 458.714 311.5 458.714C308.541 458.714 306.143 456.316 306.143 453.357C306.143 450.398 308.541 448 311.5 448C314.459 448 316.857 450.398 316.857 453.357Z" fill="white" fill-opacity="0.86"/>
<path d="M349 453.357C349 456.316 346.602 458.714 343.643 458.714C340.684 458.714 338.286 456.316 338.286 453.357C338.286 450.398 340.684 448 343.643 448C346.602 448 349 450.398 349 453.357Z" fill="white" fill-opacity="0.86"/>
<path d="M381.143 453.357C381.143 456.316 378.744 458.714 375.786 458.714C372.827 458.714 370.429 456.316 370.429 453.357C370.429 450.398 372.827 448 375.786 448C378.744 448 381.143 450.398 381.143 453.357Z" fill="white" fill-opacity="0.86"/>
<path d="M413.286 453.357C413.286 456.316 410.887 458.714 407.929 458.714C404.97 458.714 402.571 456.316 402.571 453.357C402.571 450.398 404.97 448 407.929 448C410.887 448 413.286 450.398 413.286 453.357Z" fill="white" fill-opacity="0.86"/>
<path d="M445.429 453.357C445.429 456.316 443.03 458.714 440.071 458.714C437.113 458.714 434.714 456.316 434.714 453.357C434.714 450.398 437.113 448 440.071 448C443.03 448 445.429 450.398 445.429 453.357Z" fill="white" fill-opacity="0.86"/>
<path d="M477.571 453.357C477.571 456.316 475.173 458.714 472.214 458.714C469.256 458.714 466.857 456.316 466.857 453.357C466.857 450.398 469.256 448 472.214 448C475.173 448 477.571 450.398 477.571 453.357Z" fill="white" fill-opacity="0.86"/>
<path d="M509.714 453.357C509.714 456.316 507.316 458.714 504.357 458.714C501.398 458.714 499 456.316 499 453.357C499 450.398 501.398 448 504.357 448C507.316 448 509.714 450.398 509.714 453.357Z" fill="white" fill-opacity="0.86"/>
<path d="M541.857 453.357C541.857 456.316 539.459 458.714 536.5 458.714C533.541 458.714 531.143 456.316 531.143 453.357C531.143 450.398 533.541 448 536.5 448C539.459 448 541.857 450.398 541.857 453.357Z" fill="white" fill-opacity="0.86"/>
<path d="M349 485.5C349 488.459 346.602 490.857 343.643 490.857C340.684 490.857 338.286 488.459 338.286 485.5C338.286 482.541 340.684 480.143 343.643 480.143C346.602 480.143 349 482.541 349 485.5Z" fill="white" fill-opacity="0.86"/>
<path d="M381.143 485.5C381.143 488.459 378.744 490.857 375.786 490.857C372.827 490.857 370.429 488.459 370.429 485.5C370.429 482.541 372.827 480.143 375.786 480.143C378.744 480.143 381.143 482.541 381.143 485.5Z" fill="white" fill-opacity="0.86"/>
<path d="M413.286 485.5C413.286 488.459 410.887 490.857 407.929 490.857C404.97 490.857 402.571 488.459 402.571 485.5C402.571 482.541 404.97 480.143 407.929 480.143C410.887 480.143 413.286 482.541 413.286 485.5Z" fill="white" fill-opacity="0.86"/>
<path d="M445.429 485.5C445.429 488.459 443.03 490.857 440.071 490.857C437.113 490.857 434.714 488.459 434.714 485.5C434.714 482.541 437.113 480.143 440.071 480.143C443.03 480.143 445.429 482.541 445.429 485.5Z" fill="white" fill-opacity="0.86"/>
<path d="M477.571 485.5C477.571 488.459 475.173 490.857 472.214 490.857C469.256 490.857 466.857 488.459 466.857 485.5C466.857 482.541 469.256 480.143 472.214 480.143C475.173 480.143 477.571 482.541 477.571 485.5Z" fill="white" fill-opacity="0.86"/>
<path d="M509.714 485.5C509.714 488.459 507.316 490.857 504.357 490.857C501.398 490.857 499 488.459 499 485.5C499 482.541 501.398 480.143 504.357 480.143C507.316 480.143 509.714 482.541 509.714 485.5Z" fill="white" fill-opacity="0.86"/>
<path d="M381.143 517.643C381.143 520.602 378.744 523 375.786 523C372.827 523 370.429 520.602 370.429 517.643C370.429 514.684 372.827 512.286 375.786 512.286C378.744 512.286 381.143 514.684 381.143 517.643Z" fill="white" fill-opacity="0.86"/>
<path d="M413.286 517.643C413.286 520.602 410.887 523 407.929 523C404.97 523 402.571 520.602 402.571 517.643C402.571 514.684 404.97 512.286 407.929 512.286C410.887 512.286 413.286 514.684 413.286 517.643Z" fill="white" fill-opacity="0.86"/>
<path d="M445.429 517.643C445.429 520.602 443.03 523 440.071 523C437.113 523 434.714 520.602 434.714 517.643C434.714 514.684 437.113 512.286 440.071 512.286C443.03 512.286 445.429 514.684 445.429 517.643Z" fill="white" fill-opacity="0.86"/>
<path d="M477.571 517.643C477.571 520.602 475.173 523 472.214 523C469.256 523 466.857 520.602 466.857 517.643C466.857 514.684 469.256 512.286 472.214 512.286C475.173 512.286 477.571 514.684 477.571 517.643Z" fill="white" fill-opacity="0.86"/>
</g>
<defs>
<linearGradient id="paint0_linear_12_7656" x1="0" y1="198" x2="1919" y2="198" gradientUnits="userSpaceOnUse">
<stop stop-color="#446DB5"/>
<stop offset="1" stop-color="#87A6D7"/>
</linearGradient>
<clipPath id="clip0_12_7656">
<rect width="1919" height="396" fill="white"/>
</clipPath>
</defs>
</svg>
