<svg width="1919" height="396" viewBox="0 0 1919 396" fill="none" xmlns="http://www.w3.org/2000/svg">
<g clip-path="url(#clip0_35_2037)">
<rect width="1919" height="396" fill="url(#paint0_linear_35_2037)"/>
<path d="M584.287 292.77C585.118 294.209 585.927 295.662 586.714 297.129C585.285 296.194 584.33 294.595 584.287 292.77Z" fill="white" fill-opacity="0.34"/>
<path d="M554.954 255.785C557.451 258.128 559.872 260.549 562.215 263.046C561.309 264.72 559.537 265.857 557.5 265.857C554.541 265.857 552.143 263.459 552.143 260.5C552.143 258.463 553.28 256.691 554.954 255.785Z" fill="white" fill-opacity="0.34"/>
<path d="M520.871 231.286C522.338 232.073 523.791 232.882 525.23 233.713C523.405 233.67 521.806 232.715 520.871 231.286Z" fill="white" fill-opacity="0.34"/>
<path d="M364.77 233.713C366.209 232.882 367.662 232.073 369.129 231.286C368.194 232.715 366.595 233.67 364.77 233.713Z" fill="white" fill-opacity="0.34"/>
<path d="M327.785 263.046C330.128 260.549 332.549 258.128 335.046 255.785C336.72 256.691 337.857 258.463 337.857 260.5C337.857 263.459 335.459 265.857 332.5 265.857C330.463 265.857 328.691 264.72 327.785 263.046Z" fill="white" fill-opacity="0.34"/>
<path d="M303.286 297.129C304.073 295.662 304.882 294.209 305.713 292.77C305.67 294.595 304.715 296.194 303.286 297.129Z" fill="white" fill-opacity="0.34"/>
<path d="M586.714 448.871C585.927 450.338 585.118 451.791 584.287 453.23C584.33 451.405 585.285 449.806 586.714 448.871Z" fill="white" fill-opacity="0.34"/>
<path d="M562.215 482.954C561.309 481.28 559.537 480.143 557.5 480.143C554.541 480.143 552.143 482.541 552.143 485.5C552.143 487.537 553.28 489.309 554.954 490.215C557.451 487.872 559.872 485.451 562.215 482.954Z" fill="white" fill-opacity="0.34"/>
<path d="M525.23 512.287C523.405 512.33 521.806 513.285 520.871 514.714C522.338 513.927 523.791 513.118 525.23 512.287Z" fill="white" fill-opacity="0.34"/>
<path d="M369.129 514.714C368.194 513.285 366.595 512.33 364.77 512.287C366.209 513.118 367.662 513.927 369.129 514.714Z" fill="white" fill-opacity="0.34"/>
<path d="M335.046 490.215C336.72 489.309 337.857 487.537 337.857 485.5C337.857 482.541 335.459 480.143 332.5 480.143C330.463 480.143 328.691 481.28 327.785 482.954C330.128 485.451 332.549 487.872 335.046 490.215Z" fill="white" fill-opacity="0.34"/>
<path d="M305.713 453.23C305.67 451.405 304.715 449.806 303.286 448.871C304.073 450.338 304.882 451.791 305.713 453.23Z" fill="white" fill-opacity="0.34"/>
<path d="M402.143 228.357C402.143 231.316 399.744 233.714 396.786 233.714C393.827 233.714 391.429 231.316 391.429 228.357C391.429 225.398 393.827 223 396.786 223C399.744 223 402.143 225.398 402.143 228.357Z" fill="white" fill-opacity="0.34"/>
<path d="M434.286 228.357C434.286 231.316 431.887 233.714 428.929 233.714C425.97 233.714 423.571 231.316 423.571 228.357C423.571 225.398 425.97 223 428.929 223C431.887 223 434.286 225.398 434.286 228.357Z" fill="white" fill-opacity="0.34"/>
<path d="M466.429 228.357C466.429 231.316 464.03 233.714 461.071 233.714C458.113 233.714 455.714 231.316 455.714 228.357C455.714 225.398 458.113 223 461.071 223C464.03 223 466.429 225.398 466.429 228.357Z" fill="white" fill-opacity="0.34"/>
<path d="M498.571 228.357C498.571 231.316 496.173 233.714 493.214 233.714C490.256 233.714 487.857 231.316 487.857 228.357C487.857 225.398 490.256 223 493.214 223C496.173 223 498.571 225.398 498.571 228.357Z" fill="white" fill-opacity="0.34"/>
<path d="M370 260.5C370 263.459 367.602 265.857 364.643 265.857C361.684 265.857 359.286 263.459 359.286 260.5C359.286 257.541 361.684 255.143 364.643 255.143C367.602 255.143 370 257.541 370 260.5Z" fill="white" fill-opacity="0.34"/>
<path d="M402.143 260.5C402.143 263.459 399.744 265.857 396.786 265.857C393.827 265.857 391.429 263.459 391.429 260.5C391.429 257.541 393.827 255.143 396.786 255.143C399.744 255.143 402.143 257.541 402.143 260.5Z" fill="white" fill-opacity="0.34"/>
<path d="M434.286 260.5C434.286 263.459 431.887 265.857 428.929 265.857C425.97 265.857 423.571 263.459 423.571 260.5C423.571 257.541 425.97 255.143 428.929 255.143C431.887 255.143 434.286 257.541 434.286 260.5Z" fill="white" fill-opacity="0.34"/>
<path d="M466.429 260.5C466.429 263.459 464.03 265.857 461.071 265.857C458.113 265.857 455.714 263.459 455.714 260.5C455.714 257.541 458.113 255.143 461.071 255.143C464.03 255.143 466.429 257.541 466.429 260.5Z" fill="white" fill-opacity="0.34"/>
<path d="M498.571 260.5C498.571 263.459 496.173 265.857 493.214 265.857C490.256 265.857 487.857 263.459 487.857 260.5C487.857 257.541 490.256 255.143 493.214 255.143C496.173 255.143 498.571 257.541 498.571 260.5Z" fill="white" fill-opacity="0.34"/>
<path d="M530.714 260.5C530.714 263.459 528.316 265.857 525.357 265.857C522.398 265.857 520 263.459 520 260.5C520 257.541 522.398 255.143 525.357 255.143C528.316 255.143 530.714 257.541 530.714 260.5Z" fill="white" fill-opacity="0.34"/>
<path d="M337.857 292.643C337.857 295.602 335.459 298 332.5 298C329.541 298 327.143 295.602 327.143 292.643C327.143 289.684 329.541 287.286 332.5 287.286C335.459 287.286 337.857 289.684 337.857 292.643Z" fill="white" fill-opacity="0.34"/>
<path d="M370 292.643C370 295.602 367.602 298 364.643 298C361.684 298 359.286 295.602 359.286 292.643C359.286 289.684 361.684 287.286 364.643 287.286C367.602 287.286 370 289.684 370 292.643Z" fill="white" fill-opacity="0.34"/>
<path d="M402.143 292.643C402.143 295.602 399.744 298 396.786 298C393.827 298 391.429 295.602 391.429 292.643C391.429 289.684 393.827 287.286 396.786 287.286C399.744 287.286 402.143 289.684 402.143 292.643Z" fill="white" fill-opacity="0.34"/>
<path d="M434.286 292.643C434.286 295.602 431.887 298 428.929 298C425.97 298 423.571 295.602 423.571 292.643C423.571 289.684 425.97 287.286 428.929 287.286C431.887 287.286 434.286 289.684 434.286 292.643Z" fill="white" fill-opacity="0.34"/>
<path d="M466.429 292.643C466.429 295.602 464.03 298 461.071 298C458.113 298 455.714 295.602 455.714 292.643C455.714 289.684 458.113 287.286 461.071 287.286C464.03 287.286 466.429 289.684 466.429 292.643Z" fill="white" fill-opacity="0.34"/>
<path d="M498.571 292.643C498.571 295.602 496.173 298 493.214 298C490.256 298 487.857 295.602 487.857 292.643C487.857 289.684 490.256 287.286 493.214 287.286C496.173 287.286 498.571 289.684 498.571 292.643Z" fill="white" fill-opacity="0.34"/>
<path d="M530.714 292.643C530.714 295.602 528.316 298 525.357 298C522.398 298 520 295.602 520 292.643C520 289.684 522.398 287.286 525.357 287.286C528.316 287.286 530.714 289.684 530.714 292.643Z" fill="white" fill-opacity="0.34"/>
<path d="M562.857 292.643C562.857 295.602 560.459 298 557.5 298C554.541 298 552.143 295.602 552.143 292.643C552.143 289.684 554.541 287.286 557.5 287.286C560.459 287.286 562.857 289.684 562.857 292.643Z" fill="white" fill-opacity="0.34"/>
<path d="M305.714 324.786C305.714 327.744 303.316 330.143 300.357 330.143C297.398 330.143 295 327.744 295 324.786C295 321.827 297.398 319.429 300.357 319.429C303.316 319.429 305.714 321.827 305.714 324.786Z" fill="white" fill-opacity="0.34"/>
<path d="M337.857 324.786C337.857 327.744 335.459 330.143 332.5 330.143C329.541 330.143 327.143 327.744 327.143 324.786C327.143 321.827 329.541 319.429 332.5 319.429C335.459 319.429 337.857 321.827 337.857 324.786Z" fill="white" fill-opacity="0.34"/>
<path d="M370 324.786C370 327.744 367.602 330.143 364.643 330.143C361.684 330.143 359.286 327.744 359.286 324.786C359.286 321.827 361.684 319.429 364.643 319.429C367.602 319.429 370 321.827 370 324.786Z" fill="white" fill-opacity="0.34"/>
<path d="M402.143 324.786C402.143 327.744 399.744 330.143 396.786 330.143C393.827 330.143 391.429 327.744 391.429 324.786C391.429 321.827 393.827 319.429 396.786 319.429C399.744 319.429 402.143 321.827 402.143 324.786Z" fill="white" fill-opacity="0.34"/>
<path d="M434.286 324.786C434.286 327.744 431.887 330.143 428.929 330.143C425.97 330.143 423.571 327.744 423.571 324.786C423.571 321.827 425.97 319.429 428.929 319.429C431.887 319.429 434.286 321.827 434.286 324.786Z" fill="white" fill-opacity="0.34"/>
<path d="M466.429 324.786C466.429 327.744 464.03 330.143 461.071 330.143C458.113 330.143 455.714 327.744 455.714 324.786C455.714 321.827 458.113 319.429 461.071 319.429C464.03 319.429 466.429 321.827 466.429 324.786Z" fill="white" fill-opacity="0.34"/>
<path d="M498.571 324.786C498.571 327.744 496.173 330.143 493.214 330.143C490.256 330.143 487.857 327.744 487.857 324.786C487.857 321.827 490.256 319.429 493.214 319.429C496.173 319.429 498.571 321.827 498.571 324.786Z" fill="white" fill-opacity="0.34"/>
<path d="M530.714 324.786C530.714 327.744 528.316 330.143 525.357 330.143C522.398 330.143 520 327.744 520 324.786C520 321.827 522.398 319.429 525.357 319.429C528.316 319.429 530.714 321.827 530.714 324.786Z" fill="white" fill-opacity="0.34"/>
<path d="M562.857 324.786C562.857 327.744 560.459 330.143 557.5 330.143C554.541 330.143 552.143 327.744 552.143 324.786C552.143 321.827 554.541 319.429 557.5 319.429C560.459 319.429 562.857 321.827 562.857 324.786Z" fill="white" fill-opacity="0.34"/>
<path d="M595 324.786C595 327.744 592.602 330.143 589.643 330.143C586.684 330.143 584.286 327.744 584.286 324.786C584.286 321.827 586.684 319.429 589.643 319.429C592.602 319.429 595 321.827 595 324.786Z" fill="white" fill-opacity="0.34"/>
<path d="M305.714 356.929C305.714 359.887 303.316 362.286 300.357 362.286C297.398 362.286 295 359.887 295 356.929C295 353.97 297.398 351.571 300.357 351.571C303.316 351.571 305.714 353.97 305.714 356.929Z" fill="white" fill-opacity="0.34"/>
<path d="M337.857 356.929C337.857 359.887 335.459 362.286 332.5 362.286C329.541 362.286 327.143 359.887 327.143 356.929C327.143 353.97 329.541 351.571 332.5 351.571C335.459 351.571 337.857 353.97 337.857 356.929Z" fill="white" fill-opacity="0.34"/>
<path d="M370 356.929C370 359.887 367.602 362.286 364.643 362.286C361.684 362.286 359.286 359.887 359.286 356.929C359.286 353.97 361.684 351.571 364.643 351.571C367.602 351.571 370 353.97 370 356.929Z" fill="white" fill-opacity="0.34"/>
<path d="M402.143 356.929C402.143 359.887 399.744 362.286 396.786 362.286C393.827 362.286 391.429 359.887 391.429 356.929C391.429 353.97 393.827 351.571 396.786 351.571C399.744 351.571 402.143 353.97 402.143 356.929Z" fill="white" fill-opacity="0.34"/>
<path d="M434.286 356.929C434.286 359.887 431.887 362.286 428.929 362.286C425.97 362.286 423.571 359.887 423.571 356.929C423.571 353.97 425.97 351.571 428.929 351.571C431.887 351.571 434.286 353.97 434.286 356.929Z" fill="white" fill-opacity="0.34"/>
<path d="M466.429 356.929C466.429 359.887 464.03 362.286 461.071 362.286C458.113 362.286 455.714 359.887 455.714 356.929C455.714 353.97 458.113 351.571 461.071 351.571C464.03 351.571 466.429 353.97 466.429 356.929Z" fill="white" fill-opacity="0.34"/>
<path d="M498.571 356.929C498.571 359.887 496.173 362.286 493.214 362.286C490.256 362.286 487.857 359.887 487.857 356.929C487.857 353.97 490.256 351.571 493.214 351.571C496.173 351.571 498.571 353.97 498.571 356.929Z" fill="white" fill-opacity="0.34"/>
<path d="M530.714 356.929C530.714 359.887 528.316 362.286 525.357 362.286C522.398 362.286 520 359.887 520 356.929C520 353.97 522.398 351.571 525.357 351.571C528.316 351.571 530.714 353.97 530.714 356.929Z" fill="white" fill-opacity="0.34"/>
<path d="M562.857 356.929C562.857 359.887 560.459 362.286 557.5 362.286C554.541 362.286 552.143 359.887 552.143 356.929C552.143 353.97 554.541 351.571 557.5 351.571C560.459 351.571 562.857 353.97 562.857 356.929Z" fill="white" fill-opacity="0.34"/>
<path d="M595 356.929C595 359.887 592.602 362.286 589.643 362.286C586.684 362.286 584.286 359.887 584.286 356.929C584.286 353.97 586.684 351.571 589.643 351.571C592.602 351.571 595 353.97 595 356.929Z" fill="white" fill-opacity="0.34"/>
<path d="M305.714 389.071C305.714 392.03 303.316 394.429 300.357 394.429C297.398 394.429 295 392.03 295 389.071C295 386.113 297.398 383.714 300.357 383.714C303.316 383.714 305.714 386.113 305.714 389.071Z" fill="white" fill-opacity="0.34"/>
<path d="M337.857 389.071C337.857 392.03 335.459 394.429 332.5 394.429C329.541 394.429 327.143 392.03 327.143 389.071C327.143 386.113 329.541 383.714 332.5 383.714C335.459 383.714 337.857 386.113 337.857 389.071Z" fill="white" fill-opacity="0.34"/>
<path d="M370 389.071C370 392.03 367.602 394.429 364.643 394.429C361.684 394.429 359.286 392.03 359.286 389.071C359.286 386.113 361.684 383.714 364.643 383.714C367.602 383.714 370 386.113 370 389.071Z" fill="white" fill-opacity="0.34"/>
<path d="M402.143 389.071C402.143 392.03 399.744 394.429 396.786 394.429C393.827 394.429 391.429 392.03 391.429 389.071C391.429 386.113 393.827 383.714 396.786 383.714C399.744 383.714 402.143 386.113 402.143 389.071Z" fill="white" fill-opacity="0.34"/>
<path d="M434.286 389.071C434.286 392.03 431.887 394.429 428.929 394.429C425.97 394.429 423.571 392.03 423.571 389.071C423.571 386.113 425.97 383.714 428.929 383.714C431.887 383.714 434.286 386.113 434.286 389.071Z" fill="white" fill-opacity="0.34"/>
<path d="M466.429 389.071C466.429 392.03 464.03 394.429 461.071 394.429C458.113 394.429 455.714 392.03 455.714 389.071C455.714 386.113 458.113 383.714 461.071 383.714C464.03 383.714 466.429 386.113 466.429 389.071Z" fill="white" fill-opacity="0.34"/>
<path d="M498.571 389.071C498.571 392.03 496.173 394.429 493.214 394.429C490.256 394.429 487.857 392.03 487.857 389.071C487.857 386.113 490.256 383.714 493.214 383.714C496.173 383.714 498.571 386.113 498.571 389.071Z" fill="white" fill-opacity="0.34"/>
<path d="M530.714 389.071C530.714 392.03 528.316 394.429 525.357 394.429C522.398 394.429 520 392.03 520 389.071C520 386.113 522.398 383.714 525.357 383.714C528.316 383.714 530.714 386.113 530.714 389.071Z" fill="white" fill-opacity="0.34"/>
<path d="M562.857 389.071C562.857 392.03 560.459 394.429 557.5 394.429C554.541 394.429 552.143 392.03 552.143 389.071C552.143 386.113 554.541 383.714 557.5 383.714C560.459 383.714 562.857 386.113 562.857 389.071Z" fill="white" fill-opacity="0.34"/>
<path d="M595 389.071C595 392.03 592.602 394.429 589.643 394.429C586.684 394.429 584.286 392.03 584.286 389.071C584.286 386.113 586.684 383.714 589.643 383.714C592.602 383.714 595 386.113 595 389.071Z" fill="white" fill-opacity="0.34"/>
<path d="M305.714 421.214C305.714 424.173 303.316 426.571 300.357 426.571C297.398 426.571 295 424.173 295 421.214C295 418.256 297.398 415.857 300.357 415.857C303.316 415.857 305.714 418.256 305.714 421.214Z" fill="white" fill-opacity="0.34"/>
<path d="M337.857 421.214C337.857 424.173 335.459 426.571 332.5 426.571C329.541 426.571 327.143 424.173 327.143 421.214C327.143 418.256 329.541 415.857 332.5 415.857C335.459 415.857 337.857 418.256 337.857 421.214Z" fill="white" fill-opacity="0.34"/>
<path d="M370 421.214C370 424.173 367.602 426.571 364.643 426.571C361.684 426.571 359.286 424.173 359.286 421.214C359.286 418.256 361.684 415.857 364.643 415.857C367.602 415.857 370 418.256 370 421.214Z" fill="white" fill-opacity="0.34"/>
<path d="M402.143 421.214C402.143 424.173 399.744 426.571 396.786 426.571C393.827 426.571 391.429 424.173 391.429 421.214C391.429 418.256 393.827 415.857 396.786 415.857C399.744 415.857 402.143 418.256 402.143 421.214Z" fill="white" fill-opacity="0.34"/>
<path d="M434.286 421.214C434.286 424.173 431.887 426.571 428.929 426.571C425.97 426.571 423.571 424.173 423.571 421.214C423.571 418.256 425.97 415.857 428.929 415.857C431.887 415.857 434.286 418.256 434.286 421.214Z" fill="white" fill-opacity="0.34"/>
<path d="M466.429 421.214C466.429 424.173 464.03 426.571 461.071 426.571C458.113 426.571 455.714 424.173 455.714 421.214C455.714 418.256 458.113 415.857 461.071 415.857C464.03 415.857 466.429 418.256 466.429 421.214Z" fill="white" fill-opacity="0.34"/>
<path d="M498.571 421.214C498.571 424.173 496.173 426.571 493.214 426.571C490.256 426.571 487.857 424.173 487.857 421.214C487.857 418.256 490.256 415.857 493.214 415.857C496.173 415.857 498.571 418.256 498.571 421.214Z" fill="white" fill-opacity="0.34"/>
<path d="M530.714 421.214C530.714 424.173 528.316 426.571 525.357 426.571C522.398 426.571 520 424.173 520 421.214C520 418.256 522.398 415.857 525.357 415.857C528.316 415.857 530.714 418.256 530.714 421.214Z" fill="white" fill-opacity="0.34"/>
<path d="M562.857 421.214C562.857 424.173 560.459 426.571 557.5 426.571C554.541 426.571 552.143 424.173 552.143 421.214C552.143 418.256 554.541 415.857 557.5 415.857C560.459 415.857 562.857 418.256 562.857 421.214Z" fill="white" fill-opacity="0.34"/>
<path d="M595 421.214C595 424.173 592.602 426.571 589.643 426.571C586.684 426.571 584.286 424.173 584.286 421.214C584.286 418.256 586.684 415.857 589.643 415.857C592.602 415.857 595 418.256 595 421.214Z" fill="white" fill-opacity="0.34"/>
<path d="M337.857 453.357C337.857 456.316 335.459 458.714 332.5 458.714C329.541 458.714 327.143 456.316 327.143 453.357C327.143 450.398 329.541 448 332.5 448C335.459 448 337.857 450.398 337.857 453.357Z" fill="white" fill-opacity="0.34"/>
<path d="M370 453.357C370 456.316 367.602 458.714 364.643 458.714C361.684 458.714 359.286 456.316 359.286 453.357C359.286 450.398 361.684 448 364.643 448C367.602 448 370 450.398 370 453.357Z" fill="white" fill-opacity="0.34"/>
<path d="M402.143 453.357C402.143 456.316 399.744 458.714 396.786 458.714C393.827 458.714 391.429 456.316 391.429 453.357C391.429 450.398 393.827 448 396.786 448C399.744 448 402.143 450.398 402.143 453.357Z" fill="white" fill-opacity="0.34"/>
<path d="M434.286 453.357C434.286 456.316 431.887 458.714 428.929 458.714C425.97 458.714 423.571 456.316 423.571 453.357C423.571 450.398 425.97 448 428.929 448C431.887 448 434.286 450.398 434.286 453.357Z" fill="white" fill-opacity="0.34"/>
<path d="M466.429 453.357C466.429 456.316 464.03 458.714 461.071 458.714C458.113 458.714 455.714 456.316 455.714 453.357C455.714 450.398 458.113 448 461.071 448C464.03 448 466.429 450.398 466.429 453.357Z" fill="white" fill-opacity="0.34"/>
<path d="M498.571 453.357C498.571 456.316 496.173 458.714 493.214 458.714C490.256 458.714 487.857 456.316 487.857 453.357C487.857 450.398 490.256 448 493.214 448C496.173 448 498.571 450.398 498.571 453.357Z" fill="white" fill-opacity="0.34"/>
<path d="M530.714 453.357C530.714 456.316 528.316 458.714 525.357 458.714C522.398 458.714 520 456.316 520 453.357C520 450.398 522.398 448 525.357 448C528.316 448 530.714 450.398 530.714 453.357Z" fill="white" fill-opacity="0.34"/>
<path d="M562.857 453.357C562.857 456.316 560.459 458.714 557.5 458.714C554.541 458.714 552.143 456.316 552.143 453.357C552.143 450.398 554.541 448 557.5 448C560.459 448 562.857 450.398 562.857 453.357Z" fill="white" fill-opacity="0.34"/>
<path d="M370 485.5C370 488.459 367.602 490.857 364.643 490.857C361.684 490.857 359.286 488.459 359.286 485.5C359.286 482.541 361.684 480.143 364.643 480.143C367.602 480.143 370 482.541 370 485.5Z" fill="white" fill-opacity="0.34"/>
<path d="M402.143 485.5C402.143 488.459 399.744 490.857 396.786 490.857C393.827 490.857 391.429 488.459 391.429 485.5C391.429 482.541 393.827 480.143 396.786 480.143C399.744 480.143 402.143 482.541 402.143 485.5Z" fill="white" fill-opacity="0.34"/>
<path d="M434.286 485.5C434.286 488.459 431.887 490.857 428.929 490.857C425.97 490.857 423.571 488.459 423.571 485.5C423.571 482.541 425.97 480.143 428.929 480.143C431.887 480.143 434.286 482.541 434.286 485.5Z" fill="white" fill-opacity="0.34"/>
<path d="M466.429 485.5C466.429 488.459 464.03 490.857 461.071 490.857C458.113 490.857 455.714 488.459 455.714 485.5C455.714 482.541 458.113 480.143 461.071 480.143C464.03 480.143 466.429 482.541 466.429 485.5Z" fill="white" fill-opacity="0.34"/>
<path d="M498.571 485.5C498.571 488.459 496.173 490.857 493.214 490.857C490.256 490.857 487.857 488.459 487.857 485.5C487.857 482.541 490.256 480.143 493.214 480.143C496.173 480.143 498.571 482.541 498.571 485.5Z" fill="white" fill-opacity="0.34"/>
<path d="M530.714 485.5C530.714 488.459 528.316 490.857 525.357 490.857C522.398 490.857 520 488.459 520 485.5C520 482.541 522.398 480.143 525.357 480.143C528.316 480.143 530.714 482.541 530.714 485.5Z" fill="white" fill-opacity="0.34"/>
<path d="M402.143 517.643C402.143 520.602 399.744 523 396.786 523C393.827 523 391.429 520.602 391.429 517.643C391.429 514.684 393.827 512.286 396.786 512.286C399.744 512.286 402.143 514.684 402.143 517.643Z" fill="white" fill-opacity="0.34"/>
<path d="M434.286 517.643C434.286 520.602 431.887 523 428.929 523C425.97 523 423.571 520.602 423.571 517.643C423.571 514.684 425.97 512.286 428.929 512.286C431.887 512.286 434.286 514.684 434.286 517.643Z" fill="white" fill-opacity="0.34"/>
<path d="M466.429 517.643C466.429 520.602 464.03 523 461.071 523C458.113 523 455.714 520.602 455.714 517.643C455.714 514.684 458.113 512.286 461.071 512.286C464.03 512.286 466.429 514.684 466.429 517.643Z" fill="white" fill-opacity="0.34"/>
<path d="M498.571 517.643C498.571 520.602 496.173 523 493.214 523C490.256 523 487.857 520.602 487.857 517.643C487.857 514.684 490.256 512.286 493.214 512.286C496.173 512.286 498.571 514.684 498.571 517.643Z" fill="white" fill-opacity="0.34"/>
<path d="M1908.29 -69.2297C1909.12 -67.7907 1909.93 -66.3377 1910.71 -64.871C1909.28 -65.8058 1908.33 -67.4049 1908.29 -69.2297Z" fill="white" fill-opacity="0.34"/>
<path d="M1878.95 -106.215C1881.45 -103.872 1883.87 -101.451 1886.21 -98.9543C1885.31 -97.28 1883.54 -96.1429 1881.5 -96.1429C1878.54 -96.1429 1876.14 -98.5413 1876.14 -101.5C1876.14 -103.537 1877.28 -105.309 1878.95 -106.215Z" fill="white" fill-opacity="0.34"/>
<path d="M1844.87 -130.714C1846.34 -129.927 1847.79 -129.118 1849.23 -128.287C1847.4 -128.33 1845.81 -129.285 1844.87 -130.714Z" fill="white" fill-opacity="0.34"/>
<path d="M1688.77 -128.287C1690.21 -129.118 1691.66 -129.927 1693.13 -130.714C1692.19 -129.285 1690.6 -128.33 1688.77 -128.287Z" fill="white" fill-opacity="0.34"/>
<path d="M1651.79 -98.9543C1654.13 -101.451 1656.55 -103.872 1659.05 -106.215C1660.72 -105.309 1661.86 -103.537 1661.86 -101.5C1661.86 -98.5413 1659.46 -96.1429 1656.5 -96.1429C1654.46 -96.1429 1652.69 -97.28 1651.79 -98.9543Z" fill="white" fill-opacity="0.34"/>
<path d="M1627.29 -64.871C1628.07 -66.3377 1628.88 -67.7907 1629.71 -69.2297C1629.67 -67.4049 1628.72 -65.8058 1627.29 -64.871Z" fill="white" fill-opacity="0.34"/>
<path d="M1910.71 86.871C1909.93 88.3377 1909.12 89.7907 1908.29 91.2297C1908.33 89.405 1909.28 87.8058 1910.71 86.871Z" fill="white" fill-opacity="0.34"/>
<path d="M1886.21 120.954C1885.31 119.28 1883.54 118.143 1881.5 118.143C1878.54 118.143 1876.14 120.541 1876.14 123.5C1876.14 125.537 1877.28 127.309 1878.95 128.215C1881.45 125.872 1883.87 123.451 1886.21 120.954Z" fill="white" fill-opacity="0.34"/>
<path d="M1849.23 150.287C1847.4 150.33 1845.81 151.285 1844.87 152.714C1846.34 151.927 1847.79 151.118 1849.23 150.287Z" fill="white" fill-opacity="0.34"/>
<path d="M1693.13 152.714C1692.19 151.285 1690.6 150.33 1688.77 150.287C1690.21 151.118 1691.66 151.927 1693.13 152.714Z" fill="white" fill-opacity="0.34"/>
<path d="M1659.05 128.215C1660.72 127.309 1661.86 125.537 1661.86 123.5C1661.86 120.541 1659.46 118.143 1656.5 118.143C1654.46 118.143 1652.69 119.28 1651.79 120.954C1654.13 123.451 1656.55 125.872 1659.05 128.215Z" fill="white" fill-opacity="0.34"/>
<path d="M1629.71 91.2297C1629.67 89.405 1628.72 87.8058 1627.29 86.871C1628.07 88.3377 1628.88 89.7907 1629.71 91.2297Z" fill="white" fill-opacity="0.34"/>
<path d="M1726.14 -133.643C1726.14 -130.684 1723.74 -128.286 1720.79 -128.286C1717.83 -128.286 1715.43 -130.684 1715.43 -133.643C1715.43 -136.602 1717.83 -139 1720.79 -139C1723.74 -139 1726.14 -136.602 1726.14 -133.643Z" fill="white" fill-opacity="0.34"/>
<path d="M1758.29 -133.643C1758.29 -130.684 1755.89 -128.286 1752.93 -128.286C1749.97 -128.286 1747.57 -130.684 1747.57 -133.643C1747.57 -136.602 1749.97 -139 1752.93 -139C1755.89 -139 1758.29 -136.602 1758.29 -133.643Z" fill="white" fill-opacity="0.34"/>
<path d="M1790.43 -133.643C1790.43 -130.684 1788.03 -128.286 1785.07 -128.286C1782.11 -128.286 1779.71 -130.684 1779.71 -133.643C1779.71 -136.602 1782.11 -139 1785.07 -139C1788.03 -139 1790.43 -136.602 1790.43 -133.643Z" fill="white" fill-opacity="0.34"/>
<path d="M1822.57 -133.643C1822.57 -130.684 1820.17 -128.286 1817.21 -128.286C1814.26 -128.286 1811.86 -130.684 1811.86 -133.643C1811.86 -136.602 1814.26 -139 1817.21 -139C1820.17 -139 1822.57 -136.602 1822.57 -133.643Z" fill="white" fill-opacity="0.34"/>
<path d="M1694 -101.5C1694 -98.5413 1691.6 -96.1429 1688.64 -96.1429C1685.68 -96.1429 1683.29 -98.5413 1683.29 -101.5C1683.29 -104.459 1685.68 -106.857 1688.64 -106.857C1691.6 -106.857 1694 -104.459 1694 -101.5Z" fill="white" fill-opacity="0.34"/>
<path d="M1726.14 -101.5C1726.14 -98.5413 1723.74 -96.1429 1720.79 -96.1429C1717.83 -96.1429 1715.43 -98.5413 1715.43 -101.5C1715.43 -104.459 1717.83 -106.857 1720.79 -106.857C1723.74 -106.857 1726.14 -104.459 1726.14 -101.5Z" fill="white" fill-opacity="0.34"/>
<path d="M1758.29 -101.5C1758.29 -98.5413 1755.89 -96.1429 1752.93 -96.1429C1749.97 -96.1429 1747.57 -98.5413 1747.57 -101.5C1747.57 -104.459 1749.97 -106.857 1752.93 -106.857C1755.89 -106.857 1758.29 -104.459 1758.29 -101.5Z" fill="white" fill-opacity="0.34"/>
<path d="M1790.43 -101.5C1790.43 -98.5413 1788.03 -96.1429 1785.07 -96.1429C1782.11 -96.1429 1779.71 -98.5413 1779.71 -101.5C1779.71 -104.459 1782.11 -106.857 1785.07 -106.857C1788.03 -106.857 1790.43 -104.459 1790.43 -101.5Z" fill="white" fill-opacity="0.34"/>
<path d="M1822.57 -101.5C1822.57 -98.5413 1820.17 -96.1429 1817.21 -96.1429C1814.26 -96.1429 1811.86 -98.5413 1811.86 -101.5C1811.86 -104.459 1814.26 -106.857 1817.21 -106.857C1820.17 -106.857 1822.57 -104.459 1822.57 -101.5Z" fill="white" fill-opacity="0.34"/>
<path d="M1854.71 -101.5C1854.71 -98.5413 1852.32 -96.1429 1849.36 -96.1429C1846.4 -96.1429 1844 -98.5413 1844 -101.5C1844 -104.459 1846.4 -106.857 1849.36 -106.857C1852.32 -106.857 1854.71 -104.459 1854.71 -101.5Z" fill="white" fill-opacity="0.34"/>
<path d="M1661.86 -69.3571C1661.86 -66.3985 1659.46 -64 1656.5 -64C1653.54 -64 1651.14 -66.3985 1651.14 -69.3571C1651.14 -72.3158 1653.54 -74.7143 1656.5 -74.7143C1659.46 -74.7143 1661.86 -72.3158 1661.86 -69.3571Z" fill="white" fill-opacity="0.34"/>
<path d="M1694 -69.3571C1694 -66.3985 1691.6 -64 1688.64 -64C1685.68 -64 1683.29 -66.3985 1683.29 -69.3571C1683.29 -72.3158 1685.68 -74.7143 1688.64 -74.7143C1691.6 -74.7143 1694 -72.3158 1694 -69.3571Z" fill="white" fill-opacity="0.34"/>
<path d="M1726.14 -69.3571C1726.14 -66.3985 1723.74 -64 1720.79 -64C1717.83 -64 1715.43 -66.3985 1715.43 -69.3571C1715.43 -72.3158 1717.83 -74.7143 1720.79 -74.7143C1723.74 -74.7143 1726.14 -72.3158 1726.14 -69.3571Z" fill="white" fill-opacity="0.34"/>
<path d="M1758.29 -69.3571C1758.29 -66.3985 1755.89 -64 1752.93 -64C1749.97 -64 1747.57 -66.3985 1747.57 -69.3571C1747.57 -72.3158 1749.97 -74.7143 1752.93 -74.7143C1755.89 -74.7143 1758.29 -72.3158 1758.29 -69.3571Z" fill="white" fill-opacity="0.34"/>
<path d="M1790.43 -69.3571C1790.43 -66.3985 1788.03 -64 1785.07 -64C1782.11 -64 1779.71 -66.3985 1779.71 -69.3571C1779.71 -72.3158 1782.11 -74.7143 1785.07 -74.7143C1788.03 -74.7143 1790.43 -72.3158 1790.43 -69.3571Z" fill="white" fill-opacity="0.34"/>
<path d="M1822.57 -69.3571C1822.57 -66.3985 1820.17 -64 1817.21 -64C1814.26 -64 1811.86 -66.3985 1811.86 -69.3571C1811.86 -72.3158 1814.26 -74.7143 1817.21 -74.7143C1820.17 -74.7143 1822.57 -72.3158 1822.57 -69.3571Z" fill="white" fill-opacity="0.34"/>
<path d="M1854.71 -69.3571C1854.71 -66.3985 1852.32 -64 1849.36 -64C1846.4 -64 1844 -66.3985 1844 -69.3571C1844 -72.3158 1846.4 -74.7143 1849.36 -74.7143C1852.32 -74.7143 1854.71 -72.3158 1854.71 -69.3571Z" fill="white" fill-opacity="0.34"/>
<path d="M1886.86 -69.3571C1886.86 -66.3985 1884.46 -64 1881.5 -64C1878.54 -64 1876.14 -66.3985 1876.14 -69.3571C1876.14 -72.3158 1878.54 -74.7143 1881.5 -74.7143C1884.46 -74.7143 1886.86 -72.3158 1886.86 -69.3571Z" fill="white" fill-opacity="0.34"/>
<path d="M1629.71 -37.2143C1629.71 -34.2556 1627.32 -31.8571 1624.36 -31.8571C1621.4 -31.8571 1619 -34.2556 1619 -37.2143C1619 -40.173 1621.4 -42.5714 1624.36 -42.5714C1627.32 -42.5714 1629.71 -40.173 1629.71 -37.2143Z" fill="white" fill-opacity="0.34"/>
<path d="M1661.86 -37.2143C1661.86 -34.2556 1659.46 -31.8571 1656.5 -31.8571C1653.54 -31.8571 1651.14 -34.2556 1651.14 -37.2143C1651.14 -40.173 1653.54 -42.5714 1656.5 -42.5714C1659.46 -42.5714 1661.86 -40.173 1661.86 -37.2143Z" fill="white" fill-opacity="0.34"/>
<path d="M1694 -37.2143C1694 -34.2556 1691.6 -31.8571 1688.64 -31.8571C1685.68 -31.8571 1683.29 -34.2556 1683.29 -37.2143C1683.29 -40.173 1685.68 -42.5714 1688.64 -42.5714C1691.6 -42.5714 1694 -40.173 1694 -37.2143Z" fill="white" fill-opacity="0.34"/>
<path d="M1726.14 -37.2143C1726.14 -34.2556 1723.74 -31.8571 1720.79 -31.8571C1717.83 -31.8571 1715.43 -34.2556 1715.43 -37.2143C1715.43 -40.173 1717.83 -42.5714 1720.79 -42.5714C1723.74 -42.5714 1726.14 -40.173 1726.14 -37.2143Z" fill="white" fill-opacity="0.34"/>
<path d="M1758.29 -37.2143C1758.29 -34.2556 1755.89 -31.8571 1752.93 -31.8571C1749.97 -31.8571 1747.57 -34.2556 1747.57 -37.2143C1747.57 -40.173 1749.97 -42.5714 1752.93 -42.5714C1755.89 -42.5714 1758.29 -40.173 1758.29 -37.2143Z" fill="white" fill-opacity="0.34"/>
<path d="M1790.43 -37.2143C1790.43 -34.2556 1788.03 -31.8571 1785.07 -31.8571C1782.11 -31.8571 1779.71 -34.2556 1779.71 -37.2143C1779.71 -40.173 1782.11 -42.5714 1785.07 -42.5714C1788.03 -42.5714 1790.43 -40.173 1790.43 -37.2143Z" fill="white" fill-opacity="0.34"/>
<path d="M1822.57 -37.2143C1822.57 -34.2556 1820.17 -31.8571 1817.21 -31.8571C1814.26 -31.8571 1811.86 -34.2556 1811.86 -37.2143C1811.86 -40.173 1814.26 -42.5714 1817.21 -42.5714C1820.17 -42.5714 1822.57 -40.173 1822.57 -37.2143Z" fill="white" fill-opacity="0.34"/>
<path d="M1854.71 -37.2143C1854.71 -34.2556 1852.32 -31.8571 1849.36 -31.8571C1846.4 -31.8571 1844 -34.2556 1844 -37.2143C1844 -40.173 1846.4 -42.5714 1849.36 -42.5714C1852.32 -42.5714 1854.71 -40.173 1854.71 -37.2143Z" fill="white" fill-opacity="0.34"/>
<path d="M1886.86 -37.2143C1886.86 -34.2556 1884.46 -31.8571 1881.5 -31.8571C1878.54 -31.8571 1876.14 -34.2556 1876.14 -37.2143C1876.14 -40.173 1878.54 -42.5714 1881.5 -42.5714C1884.46 -42.5714 1886.86 -40.173 1886.86 -37.2143Z" fill="white" fill-opacity="0.34"/>
<path d="M1919 -37.2143C1919 -34.2556 1916.6 -31.8571 1913.64 -31.8571C1910.68 -31.8571 1908.29 -34.2556 1908.29 -37.2143C1908.29 -40.173 1910.68 -42.5714 1913.64 -42.5714C1916.6 -42.5714 1919 -40.173 1919 -37.2143Z" fill="white" fill-opacity="0.34"/>
<path d="M1629.71 -5.07143C1629.71 -2.11276 1627.32 0.285721 1624.36 0.285721C1621.4 0.285721 1619 -2.11276 1619 -5.07143C1619 -8.03009 1621.4 -10.4286 1624.36 -10.4286C1627.32 -10.4286 1629.71 -8.03009 1629.71 -5.07143Z" fill="white" fill-opacity="0.34"/>
<path d="M1661.86 -5.07143C1661.86 -2.11276 1659.46 0.285721 1656.5 0.285721C1653.54 0.285721 1651.14 -2.11276 1651.14 -5.07143C1651.14 -8.03009 1653.54 -10.4286 1656.5 -10.4286C1659.46 -10.4286 1661.86 -8.03009 1661.86 -5.07143Z" fill="white" fill-opacity="0.34"/>
<path d="M1694 -5.07143C1694 -2.11276 1691.6 0.285721 1688.64 0.285721C1685.68 0.285721 1683.29 -2.11276 1683.29 -5.07143C1683.29 -8.03009 1685.68 -10.4286 1688.64 -10.4286C1691.6 -10.4286 1694 -8.03009 1694 -5.07143Z" fill="white" fill-opacity="0.34"/>
<path d="M1726.14 -5.07143C1726.14 -2.11276 1723.74 0.285721 1720.79 0.285721C1717.83 0.285721 1715.43 -2.11276 1715.43 -5.07143C1715.43 -8.03009 1717.83 -10.4286 1720.79 -10.4286C1723.74 -10.4286 1726.14 -8.03009 1726.14 -5.07143Z" fill="white" fill-opacity="0.34"/>
<path d="M1758.29 -5.07143C1758.29 -2.11276 1755.89 0.285721 1752.93 0.285721C1749.97 0.285721 1747.57 -2.11276 1747.57 -5.07143C1747.57 -8.03009 1749.97 -10.4286 1752.93 -10.4286C1755.89 -10.4286 1758.29 -8.03009 1758.29 -5.07143Z" fill="white" fill-opacity="0.34"/>
<path d="M1790.43 -5.07143C1790.43 -2.11276 1788.03 0.285721 1785.07 0.285721C1782.11 0.285721 1779.71 -2.11276 1779.71 -5.07143C1779.71 -8.03009 1782.11 -10.4286 1785.07 -10.4286C1788.03 -10.4286 1790.43 -8.03009 1790.43 -5.07143Z" fill="white" fill-opacity="0.34"/>
<path d="M1822.57 -5.07143C1822.57 -2.11276 1820.17 0.285721 1817.21 0.285721C1814.26 0.285721 1811.86 -2.11276 1811.86 -5.07143C1811.86 -8.03009 1814.26 -10.4286 1817.21 -10.4286C1820.17 -10.4286 1822.57 -8.03009 1822.57 -5.07143Z" fill="white" fill-opacity="0.34"/>
<path d="M1854.71 -5.07143C1854.71 -2.11276 1852.32 0.285721 1849.36 0.285721C1846.4 0.285721 1844 -2.11276 1844 -5.07143C1844 -8.03009 1846.4 -10.4286 1849.36 -10.4286C1852.32 -10.4286 1854.71 -8.03009 1854.71 -5.07143Z" fill="white" fill-opacity="0.34"/>
<path d="M1886.86 -5.07143C1886.86 -2.11276 1884.46 0.285721 1881.5 0.285721C1878.54 0.285721 1876.14 -2.11276 1876.14 -5.07143C1876.14 -8.03009 1878.54 -10.4286 1881.5 -10.4286C1884.46 -10.4286 1886.86 -8.03009 1886.86 -5.07143Z" fill="white" fill-opacity="0.34"/>
<path d="M1919 -5.07143C1919 -2.11276 1916.6 0.285721 1913.64 0.285721C1910.68 0.285721 1908.29 -2.11276 1908.29 -5.07143C1908.29 -8.03009 1910.68 -10.4286 1913.64 -10.4286C1916.6 -10.4286 1919 -8.03009 1919 -5.07143Z" fill="white" fill-opacity="0.34"/>
<path d="M1629.71 27.0714C1629.71 30.0301 1627.32 32.4286 1624.36 32.4286C1621.4 32.4286 1619 30.0301 1619 27.0714C1619 24.1128 1621.4 21.7143 1624.36 21.7143C1627.32 21.7143 1629.71 24.1128 1629.71 27.0714Z" fill="white" fill-opacity="0.34"/>
<path d="M1661.86 27.0714C1661.86 30.0301 1659.46 32.4286 1656.5 32.4286C1653.54 32.4286 1651.14 30.0301 1651.14 27.0714C1651.14 24.1128 1653.54 21.7143 1656.5 21.7143C1659.46 21.7143 1661.86 24.1128 1661.86 27.0714Z" fill="white" fill-opacity="0.34"/>
<path d="M1694 27.0714C1694 30.0301 1691.6 32.4286 1688.64 32.4286C1685.68 32.4286 1683.29 30.0301 1683.29 27.0714C1683.29 24.1128 1685.68 21.7143 1688.64 21.7143C1691.6 21.7143 1694 24.1128 1694 27.0714Z" fill="white" fill-opacity="0.34"/>
<path d="M1726.14 27.0714C1726.14 30.0301 1723.74 32.4286 1720.79 32.4286C1717.83 32.4286 1715.43 30.0301 1715.43 27.0714C1715.43 24.1128 1717.83 21.7143 1720.79 21.7143C1723.74 21.7143 1726.14 24.1128 1726.14 27.0714Z" fill="white" fill-opacity="0.34"/>
<path d="M1758.29 27.0714C1758.29 30.0301 1755.89 32.4286 1752.93 32.4286C1749.97 32.4286 1747.57 30.0301 1747.57 27.0714C1747.57 24.1128 1749.97 21.7143 1752.93 21.7143C1755.89 21.7143 1758.29 24.1128 1758.29 27.0714Z" fill="white" fill-opacity="0.34"/>
<path d="M1790.43 27.0714C1790.43 30.0301 1788.03 32.4286 1785.07 32.4286C1782.11 32.4286 1779.71 30.0301 1779.71 27.0714C1779.71 24.1128 1782.11 21.7143 1785.07 21.7143C1788.03 21.7143 1790.43 24.1128 1790.43 27.0714Z" fill="white" fill-opacity="0.34"/>
<path d="M1822.57 27.0714C1822.57 30.0301 1820.17 32.4286 1817.21 32.4286C1814.26 32.4286 1811.86 30.0301 1811.86 27.0714C1811.86 24.1128 1814.26 21.7143 1817.21 21.7143C1820.17 21.7143 1822.57 24.1128 1822.57 27.0714Z" fill="white" fill-opacity="0.34"/>
<path d="M1854.71 27.0714C1854.71 30.0301 1852.32 32.4286 1849.36 32.4286C1846.4 32.4286 1844 30.0301 1844 27.0714C1844 24.1128 1846.4 21.7143 1849.36 21.7143C1852.32 21.7143 1854.71 24.1128 1854.71 27.0714Z" fill="white" fill-opacity="0.34"/>
<path d="M1886.86 27.0714C1886.86 30.0301 1884.46 32.4286 1881.5 32.4286C1878.54 32.4286 1876.14 30.0301 1876.14 27.0714C1876.14 24.1128 1878.54 21.7143 1881.5 21.7143C1884.46 21.7143 1886.86 24.1128 1886.86 27.0714Z" fill="white" fill-opacity="0.34"/>
<path d="M1919 27.0714C1919 30.0301 1916.6 32.4286 1913.64 32.4286C1910.68 32.4286 1908.29 30.0301 1908.29 27.0714C1908.29 24.1128 1910.68 21.7143 1913.64 21.7143C1916.6 21.7143 1919 24.1128 1919 27.0714Z" fill="white" fill-opacity="0.34"/>
<path d="M1629.71 59.2143C1629.71 62.173 1627.32 64.5714 1624.36 64.5714C1621.4 64.5714 1619 62.173 1619 59.2143C1619 56.2556 1621.4 53.8571 1624.36 53.8571C1627.32 53.8571 1629.71 56.2556 1629.71 59.2143Z" fill="white" fill-opacity="0.34"/>
<path d="M1661.86 59.2143C1661.86 62.173 1659.46 64.5714 1656.5 64.5714C1653.54 64.5714 1651.14 62.173 1651.14 59.2143C1651.14 56.2556 1653.54 53.8571 1656.5 53.8571C1659.46 53.8571 1661.86 56.2556 1661.86 59.2143Z" fill="white" fill-opacity="0.34"/>
<path d="M1694 59.2143C1694 62.173 1691.6 64.5714 1688.64 64.5714C1685.68 64.5714 1683.29 62.173 1683.29 59.2143C1683.29 56.2556 1685.68 53.8571 1688.64 53.8571C1691.6 53.8571 1694 56.2556 1694 59.2143Z" fill="white" fill-opacity="0.34"/>
<path d="M1726.14 59.2143C1726.14 62.173 1723.74 64.5714 1720.79 64.5714C1717.83 64.5714 1715.43 62.173 1715.43 59.2143C1715.43 56.2556 1717.83 53.8571 1720.79 53.8571C1723.74 53.8571 1726.14 56.2556 1726.14 59.2143Z" fill="white" fill-opacity="0.34"/>
<path d="M1758.29 59.2143C1758.29 62.173 1755.89 64.5714 1752.93 64.5714C1749.97 64.5714 1747.57 62.173 1747.57 59.2143C1747.57 56.2556 1749.97 53.8571 1752.93 53.8571C1755.89 53.8571 1758.29 56.2556 1758.29 59.2143Z" fill="white" fill-opacity="0.34"/>
<path d="M1790.43 59.2143C1790.43 62.173 1788.03 64.5714 1785.07 64.5714C1782.11 64.5714 1779.71 62.173 1779.71 59.2143C1779.71 56.2556 1782.11 53.8571 1785.07 53.8571C1788.03 53.8571 1790.43 56.2556 1790.43 59.2143Z" fill="white" fill-opacity="0.34"/>
<path d="M1822.57 59.2143C1822.57 62.173 1820.17 64.5714 1817.21 64.5714C1814.26 64.5714 1811.86 62.173 1811.86 59.2143C1811.86 56.2556 1814.26 53.8571 1817.21 53.8571C1820.17 53.8571 1822.57 56.2556 1822.57 59.2143Z" fill="white" fill-opacity="0.34"/>
<path d="M1854.71 59.2143C1854.71 62.173 1852.32 64.5714 1849.36 64.5714C1846.4 64.5714 1844 62.173 1844 59.2143C1844 56.2556 1846.4 53.8571 1849.36 53.8571C1852.32 53.8571 1854.71 56.2556 1854.71 59.2143Z" fill="white" fill-opacity="0.34"/>
<path d="M1886.86 59.2143C1886.86 62.173 1884.46 64.5714 1881.5 64.5714C1878.54 64.5714 1876.14 62.173 1876.14 59.2143C1876.14 56.2556 1878.54 53.8571 1881.5 53.8571C1884.46 53.8571 1886.86 56.2556 1886.86 59.2143Z" fill="white" fill-opacity="0.34"/>
<path d="M1919 59.2143C1919 62.173 1916.6 64.5714 1913.64 64.5714C1910.68 64.5714 1908.29 62.173 1908.29 59.2143C1908.29 56.2556 1910.68 53.8571 1913.64 53.8571C1916.6 53.8571 1919 56.2556 1919 59.2143Z" fill="white" fill-opacity="0.34"/>
<path d="M1661.86 91.3571C1661.86 94.3158 1659.46 96.7143 1656.5 96.7143C1653.54 96.7143 1651.14 94.3158 1651.14 91.3571C1651.14 88.3985 1653.54 86 1656.5 86C1659.46 86 1661.86 88.3985 1661.86 91.3571Z" fill="white" fill-opacity="0.34"/>
<path d="M1694 91.3571C1694 94.3158 1691.6 96.7143 1688.64 96.7143C1685.68 96.7143 1683.29 94.3158 1683.29 91.3571C1683.29 88.3985 1685.68 86 1688.64 86C1691.6 86 1694 88.3985 1694 91.3571Z" fill="white" fill-opacity="0.34"/>
<path d="M1726.14 91.3571C1726.14 94.3158 1723.74 96.7143 1720.79 96.7143C1717.83 96.7143 1715.43 94.3158 1715.43 91.3571C1715.43 88.3985 1717.83 86 1720.79 86C1723.74 86 1726.14 88.3985 1726.14 91.3571Z" fill="white" fill-opacity="0.34"/>
<path d="M1758.29 91.3571C1758.29 94.3158 1755.89 96.7143 1752.93 96.7143C1749.97 96.7143 1747.57 94.3158 1747.57 91.3571C1747.57 88.3985 1749.97 86 1752.93 86C1755.89 86 1758.29 88.3985 1758.29 91.3571Z" fill="white" fill-opacity="0.34"/>
<path d="M1790.43 91.3571C1790.43 94.3158 1788.03 96.7143 1785.07 96.7143C1782.11 96.7143 1779.71 94.3158 1779.71 91.3571C1779.71 88.3985 1782.11 86 1785.07 86C1788.03 86 1790.43 88.3985 1790.43 91.3571Z" fill="white" fill-opacity="0.34"/>
<path d="M1822.57 91.3571C1822.57 94.3158 1820.17 96.7143 1817.21 96.7143C1814.26 96.7143 1811.86 94.3158 1811.86 91.3571C1811.86 88.3985 1814.26 86 1817.21 86C1820.17 86 1822.57 88.3985 1822.57 91.3571Z" fill="white" fill-opacity="0.34"/>
<path d="M1854.71 91.3571C1854.71 94.3158 1852.32 96.7143 1849.36 96.7143C1846.4 96.7143 1844 94.3158 1844 91.3571C1844 88.3985 1846.4 86 1849.36 86C1852.32 86 1854.71 88.3985 1854.71 91.3571Z" fill="white" fill-opacity="0.34"/>
<path d="M1886.86 91.3571C1886.86 94.3158 1884.46 96.7143 1881.5 96.7143C1878.54 96.7143 1876.14 94.3158 1876.14 91.3571C1876.14 88.3985 1878.54 86 1881.5 86C1884.46 86 1886.86 88.3985 1886.86 91.3571Z" fill="white" fill-opacity="0.34"/>
<path d="M1694 123.5C1694 126.459 1691.6 128.857 1688.64 128.857C1685.68 128.857 1683.29 126.459 1683.29 123.5C1683.29 120.541 1685.68 118.143 1688.64 118.143C1691.6 118.143 1694 120.541 1694 123.5Z" fill="white" fill-opacity="0.34"/>
<path d="M1726.14 123.5C1726.14 126.459 1723.74 128.857 1720.79 128.857C1717.83 128.857 1715.43 126.459 1715.43 123.5C1715.43 120.541 1717.83 118.143 1720.79 118.143C1723.74 118.143 1726.14 120.541 1726.14 123.5Z" fill="white" fill-opacity="0.34"/>
<path d="M1758.29 123.5C1758.29 126.459 1755.89 128.857 1752.93 128.857C1749.97 128.857 1747.57 126.459 1747.57 123.5C1747.57 120.541 1749.97 118.143 1752.93 118.143C1755.89 118.143 1758.29 120.541 1758.29 123.5Z" fill="white" fill-opacity="0.34"/>
<path d="M1790.43 123.5C1790.43 126.459 1788.03 128.857 1785.07 128.857C1782.11 128.857 1779.71 126.459 1779.71 123.5C1779.71 120.541 1782.11 118.143 1785.07 118.143C1788.03 118.143 1790.43 120.541 1790.43 123.5Z" fill="white" fill-opacity="0.34"/>
<path d="M1822.57 123.5C1822.57 126.459 1820.17 128.857 1817.21 128.857C1814.26 128.857 1811.86 126.459 1811.86 123.5C1811.86 120.541 1814.26 118.143 1817.21 118.143C1820.17 118.143 1822.57 120.541 1822.57 123.5Z" fill="white" fill-opacity="0.34"/>
<path d="M1854.71 123.5C1854.71 126.459 1852.32 128.857 1849.36 128.857C1846.4 128.857 1844 126.459 1844 123.5C1844 120.541 1846.4 118.143 1849.36 118.143C1852.32 118.143 1854.71 120.541 1854.71 123.5Z" fill="white" fill-opacity="0.34"/>
<path d="M1726.14 155.643C1726.14 158.602 1723.74 161 1720.79 161C1717.83 161 1715.43 158.602 1715.43 155.643C1715.43 152.684 1717.83 150.286 1720.79 150.286C1723.74 150.286 1726.14 152.684 1726.14 155.643Z" fill="white" fill-opacity="0.34"/>
<path d="M1758.29 155.643C1758.29 158.602 1755.89 161 1752.93 161C1749.97 161 1747.57 158.602 1747.57 155.643C1747.57 152.684 1749.97 150.286 1752.93 150.286C1755.89 150.286 1758.29 152.684 1758.29 155.643Z" fill="white" fill-opacity="0.34"/>
<path d="M1790.43 155.643C1790.43 158.602 1788.03 161 1785.07 161C1782.11 161 1779.71 158.602 1779.71 155.643C1779.71 152.684 1782.11 150.286 1785.07 150.286C1788.03 150.286 1790.43 152.684 1790.43 155.643Z" fill="white" fill-opacity="0.34"/>
<path d="M1822.57 155.643C1822.57 158.602 1820.17 161 1817.21 161C1814.26 161 1811.86 158.602 1811.86 155.643C1811.86 152.684 1814.26 150.286 1817.21 150.286C1820.17 150.286 1822.57 152.684 1822.57 155.643Z" fill="white" fill-opacity="0.34"/>
</g>
<defs>
<linearGradient id="paint0_linear_35_2037" x1="0" y1="198" x2="1919" y2="198" gradientUnits="userSpaceOnUse">
<stop stop-color="#3576F0"/>
<stop offset="1" stop-color="#85B0FF"/>
</linearGradient>
<clipPath id="clip0_35_2037">
<rect width="1919" height="396" fill="white"/>
</clipPath>
</defs>
</svg>
