<svg width="39" height="51" viewBox="0 0 39 51" fill="none" xmlns="http://www.w3.org/2000/svg">
<path fill-rule="evenodd" clip-rule="evenodd" d="M18.231 12.0268C18.3847 12.1759 18.5851 12.251 18.7808 12.251C18.9859 12.251 19.1909 12.1731 19.3447 12.0169L21.7447 9.59359C22.0523 9.28319 22.0476 8.78314 21.7401 8.476C21.4278 8.16846 20.9292 8.17073 20.6216 8.48064L18.7715 10.3468L17.9979 9.58904C17.6811 9.28427 17.1823 9.2903 16.8795 9.60347C16.5719 9.91576 16.5766 10.4158 16.8934 10.7215L18.231 12.0268ZM15.309 10.056C15.309 7.84936 17.1078 6.05373 19.3121 6.05373C21.5211 6.05373 23.3152 7.84936 23.3152 10.056C23.3152 12.2631 21.521 14.0586 19.3121 14.0586C17.1077 14.0587 15.309 12.2631 15.309 10.056ZM13.7291 10.056C13.7291 6.97783 16.2363 4.47246 19.312 4.47246C22.3924 4.47246 24.895 6.97783 24.895 10.056C24.895 13.1345 22.3925 15.6399 19.312 15.6399C16.2363 15.6399 13.7291 13.1345 13.7291 10.056ZM10.8398 10.8124V9.30009H11.5994C11.9769 9.30009 12.2985 9.03445 12.373 8.66495C12.5547 7.75755 12.9089 6.90658 13.4215 6.13398C13.6312 5.82081 13.5893 5.40278 13.3237 5.13665L12.7878 4.59836L13.855 3.52879L14.3955 4.06748C14.6612 4.3345 15.0759 4.376 15.3929 4.1663C16.1618 3.65133 17.0146 3.29853 17.9233 3.11778C18.2914 3.04367 18.5571 2.71933 18.5571 2.34232V1.58128H20.067V2.34232C20.067 2.71933 20.3326 3.04367 20.7055 3.11778C21.6095 3.29863 22.4624 3.65133 23.2361 4.1663C23.5484 4.376 23.9678 4.3345 24.2334 4.06748L24.7693 3.52879L25.8412 4.59836L25.3006 5.13665C25.035 5.40278 24.9931 5.82081 25.2028 6.13398C25.72 6.90569 26.0695 7.75765 26.2513 8.66495C26.3258 9.03445 26.6521 9.30009 27.0295 9.30009H27.7892V10.8124H27.0295C26.652 10.8124 26.3258 11.078 26.2513 11.4476C26.0695 12.355 25.72 13.2055 25.2028 13.9786C24.9931 14.2918 25.035 14.7098 25.3006 14.9759L25.8412 15.5142L24.7693 16.5838L24.2334 16.045C23.9678 15.778 23.5484 15.7365 23.2361 15.9462C22.4625 16.4611 21.6096 16.8139 20.7055 16.9948C20.3326 17.0689 20.067 17.3932 20.067 17.7702V18.5313H18.5571V17.7702C18.5571 17.3932 18.2914 17.0689 17.9233 16.9948C17.0145 16.8139 16.1617 16.4611 15.3929 15.9462C15.0759 15.7365 14.6612 15.778 14.3955 16.045L13.855 16.5838L12.7878 15.5142L13.3237 14.9759C13.5893 14.7098 13.6313 14.2918 13.4215 13.9786C12.9089 13.2069 12.5547 12.3549 12.373 11.4476C12.2984 11.0781 11.9769 10.8124 11.5994 10.8124H10.8398ZM9.25522 11.6028V8.50969C9.25522 8.07398 9.6094 7.71881 10.0475 7.71881H10.9748C11.1612 7.05383 11.4269 6.41671 11.7671 5.81369L11.11 5.15661C10.8024 4.84808 10.8024 4.34715 11.11 4.03912L13.2957 1.85205C13.4448 1.70382 13.6453 1.62041 13.855 1.62041C14.0647 1.62041 14.2651 1.70382 14.4142 1.85205L15.0713 2.50913C15.6724 2.16898 16.3109 1.90423 16.9773 1.71824V0.790391C16.9773 0.353689 17.3315 0 17.7696 0H20.8593C21.2974 0 21.6515 0.353689 21.6515 0.790391V1.71824C22.3133 1.90423 22.9518 2.16888 23.5576 2.50913L24.2146 1.85205C24.5222 1.54352 25.0208 1.54352 25.3285 1.85205L27.5188 4.03912C27.6679 4.18735 27.7472 4.38865 27.7472 4.59836C27.7472 4.80757 27.6679 5.00848 27.5188 5.15661L26.8617 5.81369C27.202 6.41671 27.4629 7.05383 27.6493 7.71881H28.5767C29.0148 7.71881 29.369 8.07388 29.369 8.50969V11.6027C29.369 12.0384 29.0148 12.3936 28.5767 12.3936H27.6493C27.463 13.0585 27.202 13.6957 26.8617 14.2987L27.5188 14.9558C27.6679 15.104 27.7472 15.3048 27.7472 15.514C27.7472 15.7237 27.6679 15.925 27.5188 16.0733L25.3285 18.2603C25.0209 18.5688 24.5223 18.5688 24.2146 18.2603L23.5576 17.6032C22.9518 17.943 22.3133 18.2081 21.6515 18.3941V19.322C21.6515 19.7587 21.2974 20.1124 20.8593 20.1124H17.7696C17.3315 20.1124 16.9773 19.7587 16.9773 19.322V18.3941C16.3109 18.2081 15.6724 17.943 15.0713 17.6032L14.4142 18.2603C14.1067 18.5688 13.6034 18.5688 13.2957 18.2603L11.11 16.0733C10.9609 15.925 10.877 15.7237 10.877 15.514C10.877 15.3048 10.9609 15.1039 11.11 14.9558L11.7671 14.2987C11.4269 13.6957 11.1613 13.0585 10.9748 12.3936H10.0475C9.6094 12.3936 9.25522 12.0385 9.25522 11.6028ZM25.2819 22.8587L24.1402 24.8369C23.9212 25.2158 24.0517 25.6991 24.4292 25.9172C24.555 25.9894 24.6902 26.0229 24.8254 26.0229C25.1003 26.0229 25.3659 25.8817 25.5104 25.6277L26.6521 23.6495C26.8711 23.2715 26.7407 22.7873 26.3632 22.5701C25.9856 22.3517 25.5009 22.4812 25.2819 22.8587ZM10.4017 29.6766C10.6207 29.2982 10.4902 28.815 10.1127 28.5964L8.13209 27.4542C7.75458 27.2356 7.26995 27.3651 7.05551 27.7435C6.83651 28.1219 6.96696 28.6052 7.34447 28.8238L9.32044 29.966C9.44624 30.0373 9.58143 30.0718 9.71653 30.0718C9.98691 30.0719 10.2572 29.9297 10.4017 29.6766ZM12.2284 22.5702C11.8509 22.7874 11.7205 23.2716 11.9395 23.6496L13.0812 25.6278C13.2257 25.8818 13.4913 26.023 13.7662 26.023C13.9013 26.023 14.0365 25.9885 14.1623 25.9173C14.5398 25.6992 14.6703 25.2159 14.4513 24.837L13.3095 22.8588C13.0907 22.4812 12.6059 22.3517 12.2284 22.5702ZM18.5059 21.4662V23.7502C18.5059 24.1869 18.8601 24.5409 19.2935 24.5409C19.7316 24.5409 20.0858 24.1868 20.0858 23.7502V21.4662C20.0858 21.0294 19.7316 20.6758 19.2935 20.6758C18.8601 20.6758 18.5059 21.0295 18.5059 21.4662ZM31.536 27.7436C31.3216 27.3661 30.8369 27.2357 30.4594 27.4543L28.4788 28.5965C28.1013 28.8151 27.9708 29.2983 28.1898 29.6767C28.3389 29.9307 28.6046 30.0719 28.8748 30.0719C29.01 30.0719 29.1451 30.0374 29.271 29.9661L31.247 28.8239C31.6245 28.6053 31.7551 28.122 31.536 27.7436ZM22.7514 35.3226C22.7514 34.8677 22.3785 34.4982 21.9265 34.4982C21.4744 34.4982 21.1016 34.8678 21.1016 35.3226V36.7067C22.1082 36.3898 22.7514 35.8352 22.7514 35.3226ZM27.3137 34.8817C27.3137 37.6924 25.8085 40.3338 23.3945 41.7738C22.5929 42.2501 22.1362 43.0572 22.1362 43.9874V44.4595H21.1016V38.3452C23.0077 37.8889 24.3311 36.7225 24.3311 35.3226C24.3311 33.9953 23.2547 32.9169 21.9265 32.9169C20.5983 32.9169 19.5218 33.9953 19.5218 35.3226V36.9681C19.3727 36.9727 19.2189 36.9727 19.0698 36.9681V35.3226C19.0698 33.9953 17.9933 32.9169 16.6651 32.9169C15.3369 32.9169 14.2604 33.9953 14.2604 35.3226C14.2604 36.7225 15.584 37.889 17.49 38.3452V44.4595H16.4554V43.9874C16.4554 43.0572 15.9987 42.2501 15.1971 41.7738C12.783 40.3337 11.2778 37.6924 11.2778 34.8817C11.2778 30.4615 14.8755 26.8642 19.2935 26.8642C23.7161 26.8642 27.3137 30.4615 27.3137 34.8817ZM20.8733 48.1361H17.7184C17.8488 48.5321 18.2217 48.8188 18.6598 48.8188H19.9274C20.37 48.8187 20.7428 48.5321 20.8733 48.1361ZM16.4553 46.0407V46.1344C16.4553 46.3669 16.6464 46.5548 16.8747 46.5548H21.7168C21.945 46.5548 22.1362 46.3669 22.1362 46.1344V46.0407H16.4553ZM19.5218 38.5498C19.3727 38.554 19.2189 38.554 19.0698 38.5498V44.4595H19.5218V38.5498ZM17.4899 35.3226C17.4899 34.8677 17.117 34.4982 16.665 34.4982C16.213 34.4982 15.8401 34.8678 15.8401 35.3226C15.8401 35.8352 16.4833 36.3898 17.4899 36.7067V35.3226ZM28.8936 34.8817C28.8936 38.2465 27.0947 41.408 24.2007 43.1323C23.8838 43.3225 23.7161 43.6179 23.7161 43.9874V46.1344C23.7161 46.9598 23.2128 47.6695 22.4997 47.9747C22.4205 49.3258 21.2974 50.4 19.9273 50.4H18.6597C17.2942 50.4 16.1711 49.3258 16.0918 47.9748C15.3788 47.6695 14.8755 46.9598 14.8755 46.1345V43.9875C14.8755 43.6179 14.7077 43.3226 14.3909 43.1324C11.4968 41.4081 9.69795 38.2466 9.69795 34.8818C9.69795 29.5888 14.0041 25.2831 19.2934 25.2831C24.5875 25.283 28.8936 29.5886 28.8936 34.8817ZM35.5252 35.7127C35.9585 35.6782 36.3408 36.0025 36.3734 36.4383C36.4106 36.8731 36.0844 37.2543 35.6511 37.2893L31.8716 37.5927C31.8483 37.5945 31.8296 37.5954 31.8063 37.5954C31.5966 37.5954 31.3962 37.5125 31.2471 37.3643C31.084 37.2002 31.0001 36.9728 31.0187 36.7417L31.3216 32.9617C31.3589 32.5264 31.741 32.2016 32.1745 32.237C32.6079 32.272 32.9341 32.6532 32.8968 33.088L32.7756 34.6445C35.5345 31.4317 37.0444 27.373 37.0444 23.1056C37.0444 18.4906 35.2781 14.1206 32.0765 10.8002C31.7736 10.4862 31.7829 9.98513 32.0952 9.68273C32.4121 9.37934 32.9108 9.38824 33.2137 9.7023C36.7042 13.3196 38.6243 18.0796 38.6243 23.1057C38.6243 27.8327 36.9233 32.3233 33.8196 35.8502L35.5252 35.7127ZM6.54765 35.4116C6.85055 35.7257 6.8459 36.2257 6.52907 36.5291C6.3753 36.6774 6.17953 36.7505 5.97912 36.7505C5.77406 36.7505 5.56436 36.6694 5.41059 36.5096C1.92469 32.8913 0 28.1318 0 23.1057C0 18.3793 1.70095 13.8887 4.8047 10.3617L3.10365 10.4978C2.67031 10.5332 2.28806 10.2085 2.2508 9.77365C2.21819 9.33882 2.53976 8.95717 2.97775 8.92268L6.75726 8.61929C6.98564 8.59972 7.21402 8.68451 7.37708 8.84767C7.54024 9.01172 7.62404 9.23911 7.60546 9.47026L7.30256 13.2503C7.26995 13.664 6.92506 13.9777 6.51494 13.9777C6.49626 13.9777 6.47294 13.9767 6.45436 13.9744C6.01628 13.9399 5.69471 13.5588 5.72732 13.124L5.85312 11.5675C3.09426 14.7802 1.58434 18.8389 1.58434 23.1058C1.58444 27.7198 3.34597 32.0898 6.54765 35.4116Z" fill="white"/>
<path fill-rule="evenodd" clip-rule="evenodd" d="M18.231 12.0268C18.3847 12.1759 18.5851 12.251 18.7808 12.251C18.9859 12.251 19.1909 12.1731 19.3447 12.0169L21.7447 9.59359C22.0523 9.28319 22.0476 8.78314 21.7401 8.476C21.4278 8.16846 20.9292 8.17073 20.6216 8.48064L18.7715 10.3468L17.9979 9.58904C17.6811 9.28427 17.1823 9.2903 16.8795 9.60347C16.5719 9.91576 16.5766 10.4158 16.8934 10.7215L18.231 12.0268ZM15.309 10.056C15.309 7.84936 17.1078 6.05373 19.3121 6.05373C21.5211 6.05373 23.3152 7.84936 23.3152 10.056C23.3152 12.2631 21.521 14.0586 19.3121 14.0586C17.1077 14.0587 15.309 12.2631 15.309 10.056ZM13.7291 10.056C13.7291 6.97783 16.2363 4.47246 19.312 4.47246C22.3924 4.47246 24.895 6.97783 24.895 10.056C24.895 13.1345 22.3925 15.6399 19.312 15.6399C16.2363 15.6399 13.7291 13.1345 13.7291 10.056ZM10.8398 10.8124V9.30009H11.5994C11.9769 9.30009 12.2985 9.03445 12.373 8.66495C12.5547 7.75755 12.9089 6.90658 13.4215 6.13398C13.6312 5.82081 13.5893 5.40278 13.3237 5.13665L12.7878 4.59836L13.855 3.52879L14.3955 4.06748C14.6612 4.3345 15.0759 4.376 15.3929 4.1663C16.1618 3.65133 17.0146 3.29853 17.9233 3.11778C18.2914 3.04367 18.5571 2.71933 18.5571 2.34232V1.58128H20.067V2.34232C20.067 2.71933 20.3326 3.04367 20.7055 3.11778C21.6095 3.29863 22.4624 3.65133 23.2361 4.1663C23.5484 4.376 23.9678 4.3345 24.2334 4.06748L24.7693 3.52879L25.8412 4.59836L25.3006 5.13665C25.035 5.40278 24.9931 5.82081 25.2028 6.13398C25.72 6.90569 26.0695 7.75765 26.2513 8.66495C26.3258 9.03445 26.6521 9.30009 27.0295 9.30009H27.7892V10.8124H27.0295C26.652 10.8124 26.3258 11.078 26.2513 11.4476C26.0695 12.355 25.72 13.2055 25.2028 13.9786C24.9931 14.2918 25.035 14.7098 25.3006 14.9759L25.8412 15.5142L24.7693 16.5838L24.2334 16.045C23.9678 15.778 23.5484 15.7365 23.2361 15.9462C22.4625 16.4611 21.6096 16.8139 20.7055 16.9948C20.3326 17.0689 20.067 17.3932 20.067 17.7702V18.5313H18.5571V17.7702C18.5571 17.3932 18.2914 17.0689 17.9233 16.9948C17.0145 16.8139 16.1617 16.4611 15.3929 15.9462C15.0759 15.7365 14.6612 15.778 14.3955 16.045L13.855 16.5838L12.7878 15.5142L13.3237 14.9759C13.5893 14.7098 13.6313 14.2918 13.4215 13.9786C12.9089 13.2069 12.5547 12.3549 12.373 11.4476C12.2984 11.0781 11.9769 10.8124 11.5994 10.8124H10.8398ZM9.25522 11.6028V8.50969C9.25522 8.07398 9.6094 7.71881 10.0475 7.71881H10.9748C11.1612 7.05383 11.4269 6.41671 11.7671 5.81369L11.11 5.15661C10.8024 4.84808 10.8024 4.34715 11.11 4.03912L13.2957 1.85205C13.4448 1.70382 13.6453 1.62041 13.855 1.62041C14.0647 1.62041 14.2651 1.70382 14.4142 1.85205L15.0713 2.50913C15.6724 2.16898 16.3109 1.90423 16.9773 1.71824V0.790391C16.9773 0.353689 17.3315 0 17.7696 0H20.8593C21.2974 0 21.6515 0.353689 21.6515 0.790391V1.71824C22.3133 1.90423 22.9518 2.16888 23.5576 2.50913L24.2146 1.85205C24.5222 1.54352 25.0208 1.54352 25.3285 1.85205L27.5188 4.03912C27.6679 4.18735 27.7472 4.38865 27.7472 4.59836C27.7472 4.80757 27.6679 5.00848 27.5188 5.15661L26.8617 5.81369C27.202 6.41671 27.4629 7.05383 27.6493 7.71881H28.5767C29.0148 7.71881 29.369 8.07388 29.369 8.50969V11.6027C29.369 12.0384 29.0148 12.3936 28.5767 12.3936H27.6493C27.463 13.0585 27.202 13.6957 26.8617 14.2987L27.5188 14.9558C27.6679 15.104 27.7472 15.3048 27.7472 15.514C27.7472 15.7237 27.6679 15.925 27.5188 16.0733L25.3285 18.2603C25.0209 18.5688 24.5223 18.5688 24.2146 18.2603L23.5576 17.6032C22.9518 17.943 22.3133 18.2081 21.6515 18.3941V19.322C21.6515 19.7587 21.2974 20.1124 20.8593 20.1124H17.7696C17.3315 20.1124 16.9773 19.7587 16.9773 19.322V18.3941C16.3109 18.2081 15.6724 17.943 15.0713 17.6032L14.4142 18.2603C14.1067 18.5688 13.6034 18.5688 13.2957 18.2603L11.11 16.0733C10.9609 15.925 10.877 15.7237 10.877 15.514C10.877 15.3048 10.9609 15.1039 11.11 14.9558L11.7671 14.2987C11.4269 13.6957 11.1613 13.0585 10.9748 12.3936H10.0475C9.6094 12.3936 9.25522 12.0385 9.25522 11.6028ZM25.2819 22.8587L24.1402 24.8369C23.9212 25.2158 24.0517 25.6991 24.4292 25.9172C24.555 25.9894 24.6902 26.0229 24.8254 26.0229C25.1003 26.0229 25.3659 25.8817 25.5104 25.6277L26.6521 23.6495C26.8711 23.2715 26.7407 22.7873 26.3632 22.5701C25.9856 22.3517 25.5009 22.4812 25.2819 22.8587ZM10.4017 29.6766C10.6207 29.2982 10.4902 28.815 10.1127 28.5964L8.13209 27.4542C7.75458 27.2356 7.26995 27.3651 7.05551 27.7435C6.83651 28.1219 6.96696 28.6052 7.34447 28.8238L9.32044 29.966C9.44624 30.0373 9.58143 30.0718 9.71653 30.0718C9.98691 30.0719 10.2572 29.9297 10.4017 29.6766ZM12.2284 22.5702C11.8509 22.7874 11.7205 23.2716 11.9395 23.6496L13.0812 25.6278C13.2257 25.8818 13.4913 26.023 13.7662 26.023C13.9013 26.023 14.0365 25.9885 14.1623 25.9173C14.5398 25.6992 14.6703 25.2159 14.4513 24.837L13.3095 22.8588C13.0907 22.4812 12.6059 22.3517 12.2284 22.5702ZM18.5059 21.4662V23.7502C18.5059 24.1869 18.8601 24.5409 19.2935 24.5409C19.7316 24.5409 20.0858 24.1868 20.0858 23.7502V21.4662C20.0858 21.0294 19.7316 20.6758 19.2935 20.6758C18.8601 20.6758 18.5059 21.0295 18.5059 21.4662ZM31.536 27.7436C31.3216 27.3661 30.8369 27.2357 30.4594 27.4543L28.4788 28.5965C28.1013 28.8151 27.9708 29.2983 28.1898 29.6767C28.3389 29.9307 28.6046 30.0719 28.8748 30.0719C29.01 30.0719 29.1451 30.0374 29.271 29.9661L31.247 28.8239C31.6245 28.6053 31.7551 28.122 31.536 27.7436ZM22.7514 35.3226C22.7514 34.8677 22.3785 34.4982 21.9265 34.4982C21.4744 34.4982 21.1016 34.8678 21.1016 35.3226V36.7067C22.1082 36.3898 22.7514 35.8352 22.7514 35.3226ZM27.3137 34.8817C27.3137 37.6924 25.8085 40.3338 23.3945 41.7738C22.5929 42.2501 22.1362 43.0572 22.1362 43.9874V44.4595H21.1016V38.3452C23.0077 37.8889 24.3311 36.7225 24.3311 35.3226C24.3311 33.9953 23.2547 32.9169 21.9265 32.9169C20.5983 32.9169 19.5218 33.9953 19.5218 35.3226V36.9681C19.3727 36.9727 19.2189 36.9727 19.0698 36.9681V35.3226C19.0698 33.9953 17.9933 32.9169 16.6651 32.9169C15.3369 32.9169 14.2604 33.9953 14.2604 35.3226C14.2604 36.7225 15.584 37.889 17.49 38.3452V44.4595H16.4554V43.9874C16.4554 43.0572 15.9987 42.2501 15.1971 41.7738C12.783 40.3337 11.2778 37.6924 11.2778 34.8817C11.2778 30.4615 14.8755 26.8642 19.2935 26.8642C23.7161 26.8642 27.3137 30.4615 27.3137 34.8817ZM20.8733 48.1361H17.7184C17.8488 48.5321 18.2217 48.8188 18.6598 48.8188H19.9274C20.37 48.8187 20.7428 48.5321 20.8733 48.1361ZM16.4553 46.0407V46.1344C16.4553 46.3669 16.6464 46.5548 16.8747 46.5548H21.7168C21.945 46.5548 22.1362 46.3669 22.1362 46.1344V46.0407H16.4553ZM19.5218 38.5498C19.3727 38.554 19.2189 38.554 19.0698 38.5498V44.4595H19.5218V38.5498ZM17.4899 35.3226C17.4899 34.8677 17.117 34.4982 16.665 34.4982C16.213 34.4982 15.8401 34.8678 15.8401 35.3226C15.8401 35.8352 16.4833 36.3898 17.4899 36.7067V35.3226ZM28.8936 34.8817C28.8936 38.2465 27.0947 41.408 24.2007 43.1323C23.8838 43.3225 23.7161 43.6179 23.7161 43.9874V46.1344C23.7161 46.9598 23.2128 47.6695 22.4997 47.9747C22.4205 49.3258 21.2974 50.4 19.9273 50.4H18.6597C17.2942 50.4 16.1711 49.3258 16.0918 47.9748C15.3788 47.6695 14.8755 46.9598 14.8755 46.1345V43.9875C14.8755 43.6179 14.7077 43.3226 14.3909 43.1324C11.4968 41.4081 9.69795 38.2466 9.69795 34.8818C9.69795 29.5888 14.0041 25.2831 19.2934 25.2831C24.5875 25.283 28.8936 29.5886 28.8936 34.8817ZM35.5252 35.7127C35.9585 35.6782 36.3408 36.0025 36.3734 36.4383C36.4106 36.8731 36.0844 37.2543 35.6511 37.2893L31.8716 37.5927C31.8483 37.5945 31.8296 37.5954 31.8063 37.5954C31.5966 37.5954 31.3962 37.5125 31.2471 37.3643C31.084 37.2002 31.0001 36.9728 31.0187 36.7417L31.3216 32.9617C31.3589 32.5264 31.741 32.2016 32.1745 32.237C32.6079 32.272 32.9341 32.6532 32.8968 33.088L32.7756 34.6445C35.5345 31.4317 37.0444 27.373 37.0444 23.1056C37.0444 18.4906 35.2781 14.1206 32.0765 10.8002C31.7736 10.4862 31.7829 9.98513 32.0952 9.68273C32.4121 9.37934 32.9108 9.38824 33.2137 9.7023C36.7042 13.3196 38.6243 18.0796 38.6243 23.1057C38.6243 27.8327 36.9233 32.3233 33.8196 35.8502L35.5252 35.7127ZM6.54765 35.4116C6.85055 35.7257 6.8459 36.2257 6.52907 36.5291C6.3753 36.6774 6.17953 36.7505 5.97912 36.7505C5.77406 36.7505 5.56436 36.6694 5.41059 36.5096C1.92469 32.8913 0 28.1318 0 23.1057C0 18.3793 1.70095 13.8887 4.8047 10.3617L3.10365 10.4978C2.67031 10.5332 2.28806 10.2085 2.2508 9.77365C2.21819 9.33882 2.53976 8.95717 2.97775 8.92268L6.75726 8.61929C6.98564 8.59972 7.21402 8.68451 7.37708 8.84767C7.54024 9.01172 7.62404 9.23911 7.60546 9.47026L7.30256 13.2503C7.26995 13.664 6.92506 13.9777 6.51494 13.9777C6.49626 13.9777 6.47294 13.9767 6.45436 13.9744C6.01628 13.9399 5.69471 13.5588 5.72732 13.124L5.85312 11.5675C3.09426 14.7802 1.58434 18.8389 1.58434 23.1058C1.58444 27.7198 3.34597 32.0898 6.54765 35.4116Z" fill="#4583F7"/>
</svg>
