<svg width="44" height="43" viewBox="0 0 44 43" fill="none" xmlns="http://www.w3.org/2000/svg">
<path d="M25.0522 11.2946C25.0522 10.9063 25.367 10.5915 25.7553 10.5915H37.1848C37.5731 10.5915 37.8879 10.9063 37.8879 11.2946C37.8879 11.683 37.5731 11.9978 37.1848 11.9978H25.7553C25.367 11.9978 25.0522 11.683 25.0522 11.2946ZM25.7553 5.23644H37.1848C37.5731 5.23644 37.8879 4.92161 37.8879 4.53331C37.8879 4.14501 37.5731 3.83019 37.1848 3.83019H25.7553C25.367 3.83019 25.0522 4.14501 25.0522 4.53331C25.0522 4.92161 25.367 5.23644 25.7553 5.23644ZM25.7553 8.61715H37.1848C37.5731 8.61715 37.8879 8.30233 37.8879 7.91402C37.8879 7.52572 37.5731 7.2109 37.1848 7.2109H25.7553C25.367 7.2109 25.0522 7.52572 25.0522 7.91402C25.0522 8.30233 25.367 8.61715 25.7553 8.61715ZM42.8565 42.4429C42.7231 42.5913 42.533 42.676 42.3335 42.676L23.7156 42.6761C23.5161 42.6761 23.326 42.5914 23.1926 42.443C23.0593 42.2946 22.9952 42.0966 23.0165 41.8982C23.4518 37.8303 26.2556 34.5573 29.9751 33.3825C28.5352 32.4034 27.5875 30.7522 27.5875 28.8836C27.5875 25.8855 30.0266 23.4465 33.0246 23.4465C36.0225 23.4465 38.4616 25.8855 38.4616 28.8836C38.4616 30.7522 37.5139 32.4034 36.074 33.3825C39.7933 34.5573 42.5973 37.8303 43.0326 41.8981C43.0539 42.0965 42.9899 42.2946 42.8565 42.4429ZM30.3591 34.7371L31.358 36.5172L32.0146 35.739L30.6202 34.659C30.5327 34.684 30.4454 34.7094 30.3591 34.7371ZM32.5022 34.3379L33.0246 34.7425L33.547 34.3379C33.374 34.3276 33.2001 34.3206 33.0246 34.3206C32.8491 34.3206 32.6751 34.3276 32.5022 34.3379ZM33.1063 36.8192L33.0246 36.7225L32.9428 36.8195L32.2685 40.0889L33.0247 40.9248L33.7808 40.0889L33.1063 36.8192ZM34.6911 36.5172L35.69 34.7371C35.6037 34.7093 35.5164 34.6839 35.4289 34.6589L34.0346 35.739L34.6911 36.5172ZM33.0246 32.9143C35.2472 32.9143 37.0554 31.1062 37.0554 28.8836C37.0554 26.661 35.2472 24.8527 33.0246 24.8527C30.8019 24.8527 28.9938 26.661 28.9938 28.8836C28.9938 31.1062 30.8019 32.9143 33.0246 32.9143ZM24.5334 41.2698H31.4405L30.9864 40.7678C30.836 40.6016 30.7739 40.3737 30.8193 40.1542L31.1716 38.4456C30.9434 38.4229 30.7406 38.2904 30.6283 38.0903L29.0509 35.2793C26.7604 36.4583 25.0579 38.6313 24.5334 41.2698ZM41.5157 41.2698C40.9911 38.6312 39.2887 36.4582 36.9982 35.2792L35.4208 38.0902C35.3085 38.2903 35.1057 38.4228 34.8774 38.4456L35.2299 40.154C35.2752 40.3735 35.2131 40.6014 35.0627 40.7676L34.6086 41.2697L41.5157 41.2698ZM20.0201 41.8982C20.0414 42.0965 19.9774 42.2946 19.844 42.443C19.7106 42.5914 19.5205 42.6761 19.321 42.6761L0.703089 42.676C0.503578 42.676 0.31347 42.5913 0.18014 42.4429C0.0468101 42.2946 -0.0172621 42.0965 0.0040074 41.8981C0.43933 37.8303 3.24322 34.5574 6.96257 33.3825C5.52266 32.4034 4.57485 30.7522 4.57485 28.8836C4.57485 25.8855 7.0139 23.4465 10.0119 23.4465C13.0099 23.4465 15.4489 25.8855 15.4489 28.8836C15.4489 30.7522 14.5012 32.4034 13.0613 33.3825C16.7809 34.5573 19.5848 37.8303 20.0201 41.8982ZM10.012 32.9143C12.2346 32.9143 14.0428 31.1062 14.0428 28.8836C14.0428 26.661 12.2346 24.8527 10.012 24.8527C7.78936 24.8527 5.98118 26.661 5.98118 28.8836C5.98118 31.1062 7.78936 32.9143 10.012 32.9143ZM18.5032 41.2698C17.7054 37.2571 14.1838 34.3206 10.012 34.3206C5.84021 34.3206 2.31878 37.257 1.52091 41.2698L18.5032 41.2698ZM22.098 18.7771H21.1887L18.2422 21.7609C18.1075 21.8974 17.9261 21.97 17.7417 21.97C17.6519 21.97 17.5613 21.9529 17.4749 21.9173C17.2111 21.809 17.0388 21.5521 17.0388 21.2669V18.7771H4.52739C3.16807 18.7771 2.06223 17.6713 2.06223 16.312V7.71381C2.06223 6.35449 3.16807 5.24856 4.52739 5.24856H21.4691V2.7994C21.4691 1.25587 22.7249 0 24.2684 0H38.6719C40.2155 0 41.4713 1.25578 41.4713 2.7994V13.0285C41.4713 14.572 40.2155 15.8279 38.6719 15.8279H30.1539V18.9233C30.1539 19.2085 29.9817 19.4654 29.7178 19.5737C29.6314 19.6091 29.5408 19.6264 29.451 19.6264C29.2664 19.6264 29.0853 19.5538 28.9505 19.4173L25.4059 15.8279H24.5632V16.3121C24.5631 17.6713 23.4573 18.7771 22.098 18.7771ZM22.8753 2.7994V5.37486C23.8547 5.70129 24.563 6.62607 24.563 7.71381V14.4215H25.6995C25.8875 14.4215 26.0677 14.4968 26.1998 14.6306L28.7475 17.2106V15.1247C28.7475 14.7364 29.0623 14.4216 29.4506 14.4216H38.6717C39.4399 14.4216 40.0649 13.7967 40.0649 13.0285V2.7994C40.0649 2.03124 39.44 1.40625 38.6717 1.40625H24.2682C23.5002 1.40634 22.8753 2.03124 22.8753 2.7994ZM23.1569 7.71381C23.1569 7.12986 22.6819 6.65481 22.098 6.65481H4.52739C3.94344 6.65481 3.46848 7.12986 3.46848 7.71381V16.312C3.46848 16.8959 3.94344 17.3709 4.52739 17.3709H17.7419C18.1302 17.3709 18.445 17.6857 18.445 18.074V19.5543L20.3947 17.58C20.5268 17.4462 20.7071 17.3709 20.895 17.3709H22.098C22.682 17.3709 23.1569 16.8959 23.1569 16.312V7.71381H23.1569ZM9.82262 12.0429C9.82262 13.2888 8.80907 14.3024 7.56313 14.3024C6.31719 14.3024 5.30364 13.2888 5.30364 12.0429C5.30364 10.7969 6.31719 9.78328 7.56313 9.78328C8.80907 9.78328 9.82262 10.7969 9.82262 12.0429ZM8.41637 12.0429C8.41637 11.5723 8.03369 11.1895 7.56313 11.1895C7.09256 11.1895 6.70989 11.5723 6.70989 12.0429C6.70989 12.5133 7.09256 12.8961 7.56313 12.8961C8.03369 12.8961 8.41637 12.5133 8.41637 12.0429ZM15.5722 12.0429C15.5722 13.2888 14.5586 14.3024 13.3127 14.3024C12.0667 14.3024 11.0532 13.2888 11.0532 12.0429C11.0532 10.7969 12.0667 9.78328 13.3127 9.78328C14.5586 9.78328 15.5722 10.7969 15.5722 12.0429ZM14.1659 12.0429C14.1659 11.5723 13.7832 11.1895 13.3127 11.1895C12.8421 11.1895 12.4594 11.5723 12.4594 12.0429C12.4594 12.5133 12.8421 12.8961 13.3127 12.8961C13.7832 12.8961 14.1659 12.5133 14.1659 12.0429ZM21.3217 12.0429C21.3217 13.2888 20.3081 14.3024 19.0622 14.3024C17.8163 14.3024 16.8026 13.2888 16.8026 12.0429C16.8026 10.7969 17.8163 9.78328 19.0622 9.78328C20.3081 9.78328 21.3217 10.7969 21.3217 12.0429ZM19.9155 12.0429C19.9155 11.5723 19.5328 11.1895 19.0622 11.1895C18.5916 11.1895 18.2089 11.5723 18.2089 12.0429C18.2089 12.5133 18.5916 12.8961 19.0622 12.8961C19.5328 12.8961 19.9155 12.5133 19.9155 12.0429Z" fill="white"/>
<path d="M25.0522 11.2946C25.0522 10.9063 25.367 10.5915 25.7553 10.5915H37.1848C37.5731 10.5915 37.8879 10.9063 37.8879 11.2946C37.8879 11.683 37.5731 11.9978 37.1848 11.9978H25.7553C25.367 11.9978 25.0522 11.683 25.0522 11.2946ZM25.7553 5.23644H37.1848C37.5731 5.23644 37.8879 4.92161 37.8879 4.53331C37.8879 4.14501 37.5731 3.83019 37.1848 3.83019H25.7553C25.367 3.83019 25.0522 4.14501 25.0522 4.53331C25.0522 4.92161 25.367 5.23644 25.7553 5.23644ZM25.7553 8.61715H37.1848C37.5731 8.61715 37.8879 8.30233 37.8879 7.91402C37.8879 7.52572 37.5731 7.2109 37.1848 7.2109H25.7553C25.367 7.2109 25.0522 7.52572 25.0522 7.91402C25.0522 8.30233 25.367 8.61715 25.7553 8.61715ZM42.8565 42.4429C42.7231 42.5913 42.533 42.676 42.3335 42.676L23.7156 42.6761C23.5161 42.6761 23.326 42.5914 23.1926 42.443C23.0593 42.2946 22.9952 42.0966 23.0165 41.8982C23.4518 37.8303 26.2556 34.5573 29.9751 33.3825C28.5352 32.4034 27.5875 30.7522 27.5875 28.8836C27.5875 25.8855 30.0266 23.4465 33.0246 23.4465C36.0225 23.4465 38.4616 25.8855 38.4616 28.8836C38.4616 30.7522 37.5139 32.4034 36.074 33.3825C39.7933 34.5573 42.5973 37.8303 43.0326 41.8981C43.0539 42.0965 42.9899 42.2946 42.8565 42.4429ZM30.3591 34.7371L31.358 36.5172L32.0146 35.739L30.6202 34.659C30.5327 34.684 30.4454 34.7094 30.3591 34.7371ZM32.5022 34.3379L33.0246 34.7425L33.547 34.3379C33.374 34.3276 33.2001 34.3206 33.0246 34.3206C32.8491 34.3206 32.6751 34.3276 32.5022 34.3379ZM33.1063 36.8192L33.0246 36.7225L32.9428 36.8195L32.2685 40.0889L33.0247 40.9248L33.7808 40.0889L33.1063 36.8192ZM34.6911 36.5172L35.69 34.7371C35.6037 34.7093 35.5164 34.6839 35.4289 34.6589L34.0346 35.739L34.6911 36.5172ZM33.0246 32.9143C35.2472 32.9143 37.0554 31.1062 37.0554 28.8836C37.0554 26.661 35.2472 24.8527 33.0246 24.8527C30.8019 24.8527 28.9938 26.661 28.9938 28.8836C28.9938 31.1062 30.8019 32.9143 33.0246 32.9143ZM24.5334 41.2698H31.4405L30.9864 40.7678C30.836 40.6016 30.7739 40.3737 30.8193 40.1542L31.1716 38.4456C30.9434 38.4229 30.7406 38.2904 30.6283 38.0903L29.0509 35.2793C26.7604 36.4583 25.0579 38.6313 24.5334 41.2698ZM41.5157 41.2698C40.9911 38.6312 39.2887 36.4582 36.9982 35.2792L35.4208 38.0902C35.3085 38.2903 35.1057 38.4228 34.8774 38.4456L35.2299 40.154C35.2752 40.3735 35.2131 40.6014 35.0627 40.7676L34.6086 41.2697L41.5157 41.2698ZM20.0201 41.8982C20.0414 42.0965 19.9774 42.2946 19.844 42.443C19.7106 42.5914 19.5205 42.6761 19.321 42.6761L0.703089 42.676C0.503578 42.676 0.31347 42.5913 0.18014 42.4429C0.0468101 42.2946 -0.0172621 42.0965 0.0040074 41.8981C0.43933 37.8303 3.24322 34.5574 6.96257 33.3825C5.52266 32.4034 4.57485 30.7522 4.57485 28.8836C4.57485 25.8855 7.0139 23.4465 10.0119 23.4465C13.0099 23.4465 15.4489 25.8855 15.4489 28.8836C15.4489 30.7522 14.5012 32.4034 13.0613 33.3825C16.7809 34.5573 19.5848 37.8303 20.0201 41.8982ZM10.012 32.9143C12.2346 32.9143 14.0428 31.1062 14.0428 28.8836C14.0428 26.661 12.2346 24.8527 10.012 24.8527C7.78936 24.8527 5.98118 26.661 5.98118 28.8836C5.98118 31.1062 7.78936 32.9143 10.012 32.9143ZM18.5032 41.2698C17.7054 37.2571 14.1838 34.3206 10.012 34.3206C5.84021 34.3206 2.31878 37.257 1.52091 41.2698L18.5032 41.2698ZM22.098 18.7771H21.1887L18.2422 21.7609C18.1075 21.8974 17.9261 21.97 17.7417 21.97C17.6519 21.97 17.5613 21.9529 17.4749 21.9173C17.2111 21.809 17.0388 21.5521 17.0388 21.2669V18.7771H4.52739C3.16807 18.7771 2.06223 17.6713 2.06223 16.312V7.71381C2.06223 6.35449 3.16807 5.24856 4.52739 5.24856H21.4691V2.7994C21.4691 1.25587 22.7249 0 24.2684 0H38.6719C40.2155 0 41.4713 1.25578 41.4713 2.7994V13.0285C41.4713 14.572 40.2155 15.8279 38.6719 15.8279H30.1539V18.9233C30.1539 19.2085 29.9817 19.4654 29.7178 19.5737C29.6314 19.6091 29.5408 19.6264 29.451 19.6264C29.2664 19.6264 29.0853 19.5538 28.9505 19.4173L25.4059 15.8279H24.5632V16.3121C24.5631 17.6713 23.4573 18.7771 22.098 18.7771ZM22.8753 2.7994V5.37486C23.8547 5.70129 24.563 6.62607 24.563 7.71381V14.4215H25.6995C25.8875 14.4215 26.0677 14.4968 26.1998 14.6306L28.7475 17.2106V15.1247C28.7475 14.7364 29.0623 14.4216 29.4506 14.4216H38.6717C39.4399 14.4216 40.0649 13.7967 40.0649 13.0285V2.7994C40.0649 2.03124 39.44 1.40625 38.6717 1.40625H24.2682C23.5002 1.40634 22.8753 2.03124 22.8753 2.7994ZM23.1569 7.71381C23.1569 7.12986 22.6819 6.65481 22.098 6.65481H4.52739C3.94344 6.65481 3.46848 7.12986 3.46848 7.71381V16.312C3.46848 16.8959 3.94344 17.3709 4.52739 17.3709H17.7419C18.1302 17.3709 18.445 17.6857 18.445 18.074V19.5543L20.3947 17.58C20.5268 17.4462 20.7071 17.3709 20.895 17.3709H22.098C22.682 17.3709 23.1569 16.8959 23.1569 16.312V7.71381H23.1569ZM9.82262 12.0429C9.82262 13.2888 8.80907 14.3024 7.56313 14.3024C6.31719 14.3024 5.30364 13.2888 5.30364 12.0429C5.30364 10.7969 6.31719 9.78328 7.56313 9.78328C8.80907 9.78328 9.82262 10.7969 9.82262 12.0429ZM8.41637 12.0429C8.41637 11.5723 8.03369 11.1895 7.56313 11.1895C7.09256 11.1895 6.70989 11.5723 6.70989 12.0429C6.70989 12.5133 7.09256 12.8961 7.56313 12.8961C8.03369 12.8961 8.41637 12.5133 8.41637 12.0429ZM15.5722 12.0429C15.5722 13.2888 14.5586 14.3024 13.3127 14.3024C12.0667 14.3024 11.0532 13.2888 11.0532 12.0429C11.0532 10.7969 12.0667 9.78328 13.3127 9.78328C14.5586 9.78328 15.5722 10.7969 15.5722 12.0429ZM14.1659 12.0429C14.1659 11.5723 13.7832 11.1895 13.3127 11.1895C12.8421 11.1895 12.4594 11.5723 12.4594 12.0429C12.4594 12.5133 12.8421 12.8961 13.3127 12.8961C13.7832 12.8961 14.1659 12.5133 14.1659 12.0429ZM21.3217 12.0429C21.3217 13.2888 20.3081 14.3024 19.0622 14.3024C17.8163 14.3024 16.8026 13.2888 16.8026 12.0429C16.8026 10.7969 17.8163 9.78328 19.0622 9.78328C20.3081 9.78328 21.3217 10.7969 21.3217 12.0429ZM19.9155 12.0429C19.9155 11.5723 19.5328 11.1895 19.0622 11.1895C18.5916 11.1895 18.2089 11.5723 18.2089 12.0429C18.2089 12.5133 18.5916 12.8961 19.0622 12.8961C19.5328 12.8961 19.9155 12.5133 19.9155 12.0429Z" fill="#4583F7"/>
</svg>
