<svg width="41" height="42" viewBox="0 0 41 42" fill="none" xmlns="http://www.w3.org/2000/svg">
<path fill-rule="evenodd" clip-rule="evenodd" d="M36.2669 6.06087V10.1306C36.2669 10.5119 35.9579 10.8208 35.5767 10.8208H31.9855C31.6045 10.8208 31.2953 10.5116 31.2953 10.1306C31.2953 9.74971 31.6045 9.44042 31.9855 9.44042H34.8865V6.06087C33.5243 5.74735 32.5072 4.52622 32.5072 3.06948C32.5072 1.37539 33.8826 0 35.5767 0C37.2708 0 38.6461 1.37539 38.6461 3.06948C38.6461 4.52622 37.6291 5.74735 36.2669 6.06087ZM35.5767 4.75856C36.509 4.75856 37.2658 4.00167 37.2658 3.06948C37.2658 2.13719 36.509 1.38039 35.5767 1.38039C34.6445 1.38039 33.8876 2.13719 33.8876 3.06948C33.8876 4.00167 34.6445 4.75856 35.5767 4.75856ZM34.8865 35.1157V31.7362H31.9855C31.6045 31.7362 31.2953 31.4269 31.2953 31.046C31.2953 30.665 31.6045 30.3558 31.9855 30.3558H35.5767C35.9579 30.3558 36.2669 30.6647 36.2669 31.046V35.1157C37.6291 35.4292 38.6461 36.6504 38.6461 38.1071C38.6461 39.8012 37.2708 41.1766 35.5767 41.1766C33.8826 41.1766 32.5072 39.8012 32.5072 38.1071C32.5072 36.6504 33.5243 35.4292 34.8865 35.1157ZM35.5767 36.418C34.6445 36.418 33.8876 37.1749 33.8876 38.1071C33.8876 39.0394 34.6445 39.7962 35.5767 39.7962C36.509 39.7962 37.2658 39.0394 37.2658 38.1071C37.2658 37.1749 36.509 36.418 35.5767 36.418ZM4.16861 6.06087C2.80642 5.74735 1.78933 4.52622 1.78933 3.06948C1.78933 1.37539 3.16472 0 4.85881 0C6.55289 0 7.92828 1.37539 7.92828 3.06948C7.92828 4.52622 6.91119 5.74735 5.549 6.06087V9.44042H8.45007C8.83097 9.44042 9.14027 9.74971 9.14027 10.1306C9.14027 10.5116 8.83097 10.8208 8.45007 10.8208H4.85881C4.47765 10.8208 4.16861 10.5119 4.16861 10.1306V6.06087ZM4.85881 4.75856C5.791 4.75856 6.54789 4.00167 6.54789 3.06948C6.54789 2.13719 5.791 1.38039 4.85881 1.38039C3.92661 1.38039 3.16973 2.13719 3.16973 3.06948C3.16973 4.00167 3.92661 4.75856 4.85881 4.75856ZM5.549 35.1157C6.91119 35.4292 7.92828 36.6504 7.92828 38.1071C7.92828 39.8012 6.55289 41.1766 4.85881 41.1766C3.16472 41.1766 1.78933 39.8012 1.78933 38.1071C1.78933 36.6504 2.80642 35.4292 4.16861 35.1157V31.046C4.16861 30.6647 4.47765 30.3558 4.85881 30.3558H8.45007C8.83097 30.3558 9.14027 30.665 9.14027 31.046C9.14027 31.4269 8.83097 31.7362 8.45007 31.7362H5.549V35.1157ZM4.85881 36.418C3.92661 36.418 3.16973 37.1749 3.16973 38.1071C3.16973 39.0394 3.92661 39.7962 4.85881 39.7962C5.791 39.7962 6.54789 39.0394 6.54789 38.1071C6.54789 37.1749 5.791 36.418 4.85881 36.418ZM5.42831 21.2785C5.12212 22.4676 4.04179 23.3474 2.75759 23.3474C1.23562 23.3474 0 22.1116 0 20.5898C0 19.0678 1.23562 17.8321 2.75759 17.8321C4.04075 17.8321 5.12039 18.7104 5.42762 19.8981H7.17045C7.55135 19.8981 7.86064 20.2074 7.86064 20.5883C7.86064 20.9692 7.55135 21.2785 7.17045 21.2785H5.42831ZM4.13479 20.5883C4.13402 19.8288 3.51724 19.2125 2.75759 19.2125C1.99751 19.2125 1.38039 19.8296 1.38039 20.5898C1.38039 21.3498 1.99751 21.967 2.75759 21.967C3.51767 21.967 4.13479 21.3498 4.13479 20.5898V20.5883ZM35.2824 21.2785H33.2622C32.8813 21.2785 32.572 20.9692 32.572 20.5883C32.572 20.2074 32.8813 19.8981 33.2622 19.8981H35.2831C35.5903 18.7104 36.6699 17.8321 37.9531 17.8321C39.4751 17.8321 40.7107 19.0678 40.7107 20.5898C40.7107 22.1116 39.4751 23.3474 37.9531 23.3474C36.6689 23.3474 35.5886 22.4676 35.2824 21.2785ZM36.5759 20.5898C36.5759 21.3498 37.193 21.967 37.9531 21.967C38.7132 21.967 39.3303 21.3498 39.3303 20.5898C39.3303 19.8296 38.7132 19.2125 37.9531 19.2125C37.1935 19.2125 36.5767 19.8288 36.5759 20.5883V20.5898ZM22.8161 11.2867C23.5628 11.4947 24.2808 11.7922 24.9566 12.1737L26.3302 11.563C26.5912 11.447 26.8967 11.5037 27.0987 11.7056L29.099 13.706C29.3007 13.9077 29.3576 14.2127 29.242 14.4736L28.6335 15.8474C29.0153 16.5238 29.3131 17.2427 29.5212 17.9917L30.9219 18.5308C31.1884 18.6334 31.3641 18.8894 31.3641 19.1749V22.0045C31.3641 22.2901 31.1884 22.546 30.9219 22.6486C30.9219 22.6486 29.5207 23.1879 29.5207 23.1878C29.3123 23.9345 29.0133 24.6526 28.6331 25.3284L29.242 26.703C29.3576 26.9639 29.3007 27.2689 29.099 27.4706L27.0987 29.4709C26.8969 29.6727 26.5919 29.7295 26.3311 29.614C26.3311 29.614 24.9577 29.0056 24.9578 29.0056C24.2829 29.3872 23.5632 29.6848 22.8159 29.8929L22.2767 31.2938C22.1741 31.5603 21.918 31.7362 21.6326 31.7362H18.803C18.5174 31.7362 18.2614 31.5603 18.1589 31.2938C18.1589 31.2938 17.6197 29.893 17.6198 29.893C16.8709 29.6846 16.1523 29.3854 15.4763 29.0051L14.1016 29.614C13.8408 29.7295 13.5357 29.6727 13.334 29.4709L11.3337 27.4706C11.1317 27.2686 11.075 26.9631 11.191 26.7021C11.191 26.7021 11.8016 25.3291 11.8016 25.3292C11.4202 24.6547 11.1224 23.9352 10.9128 23.1882L9.51073 22.6486C9.24431 22.546 9.06849 22.2901 9.06849 22.0045V19.1749C9.06849 18.8894 9.24431 18.6334 9.51073 18.5308L10.9125 17.9913C11.1223 17.2426 11.4201 16.524 11.8017 15.8479L11.191 14.4744C11.075 14.2135 11.1317 13.908 11.3337 13.706L13.334 11.7056C13.536 11.5037 13.8415 11.447 14.1024 11.563C14.1024 11.563 15.476 12.1737 15.476 12.1738C16.1521 11.7921 16.8703 11.4945 17.6172 11.2865L18.1591 9.88214C18.2618 9.61599 18.5177 9.44042 18.803 9.44042H21.6326C21.9182 9.44042 22.1744 9.61642 22.2768 9.88309L22.8161 11.2867ZM21.6551 12.1135L21.1583 10.8208H19.2765L18.7773 12.1145C18.6954 12.3266 18.5143 12.4849 18.293 12.5375C17.4413 12.7399 16.629 13.0764 15.8824 13.5364C15.6885 13.6559 15.4481 13.672 15.24 13.5794L13.9748 13.0169L12.645 14.3468L13.2075 15.6119C13.3001 15.8201 13.2839 16.0604 13.1645 16.2544C12.7041 17.0014 12.3675 17.8143 12.1623 18.6692C12.1093 18.8901 11.951 19.0707 11.7391 19.1523L10.4489 19.6488V21.5306L11.7391 22.0272C11.9509 22.1086 12.1091 22.2891 12.1622 22.5097C12.3673 23.3618 12.7037 24.1771 13.1639 24.9213C13.2839 25.1154 13.3002 25.3562 13.2075 25.5647L12.645 26.8297L13.9753 28.1601L15.2408 27.5996C15.4482 27.5077 15.6876 27.5236 15.8809 27.6421C16.6279 28.0998 17.4405 28.4394 18.2953 28.6418C18.517 28.6944 18.6985 28.853 18.7803 29.0655L19.2769 30.3558H21.1587L21.6552 29.0655C21.7369 28.853 21.9182 28.6946 22.1398 28.6419C22.991 28.4396 23.8057 28.1034 24.5493 27.6437C24.7431 27.5238 24.9835 27.5073 25.1918 27.5996L26.4573 28.1601L27.7882 26.8292L27.2276 25.5638C27.1358 25.3564 27.1516 25.1171 27.2702 24.9237C27.7279 24.1766 28.0674 23.3639 28.27 22.5117C28.3226 22.2902 28.4811 22.1089 28.6936 22.0272L29.9838 21.5306V19.6488L28.6936 19.1523C28.4809 19.0705 28.3224 18.8889 28.2699 18.6673C28.0675 17.813 27.731 17.0008 27.2711 16.2544C27.1518 16.0608 27.1355 15.8208 27.2276 15.6128L27.7882 14.3474L26.4578 13.0169L25.1927 13.5794C24.9846 13.672 24.7441 13.6559 24.5502 13.5364C23.8037 13.0764 22.9914 12.7399 22.1398 12.5375C21.9181 12.4848 21.7368 12.3262 21.6551 12.1135ZM20.2159 13.6217C24.0649 13.6217 27.1858 16.7389 27.1858 20.5879C27.1858 24.4367 24.0648 27.5577 20.2159 27.5577C16.367 27.5577 13.2498 24.4369 13.2498 20.5879C13.2498 16.7388 16.3669 13.6217 20.2159 13.6217ZM20.2159 15.0021C17.1295 15.0021 14.6302 17.5016 14.6302 20.5879C14.6302 23.6744 17.1295 26.1773 20.2159 26.1773C23.3026 26.1773 25.8054 23.6745 25.8054 20.5879C25.8054 17.5014 23.3024 15.0021 20.2159 15.0021ZM19.3909 20.1646L21.956 17.5727L21.9573 17.5714C22.5874 16.9381 23.6157 16.9351 24.249 17.5651C24.882 18.195 24.8863 19.2195 24.2566 19.8557L24.2563 19.856C23.0167 21.1069 21.7865 22.3652 20.5412 23.6104C19.9083 24.2434 18.8805 24.2434 18.2476 23.6104L16.1841 21.545C15.5514 20.9124 15.5502 19.8885 16.1828 19.2526L16.1841 19.2514C16.817 18.6184 17.8448 18.6184 18.4777 19.2514L19.3909 20.1646ZM18.9054 21.6313L17.5016 20.2275C17.4076 20.1335 17.2551 20.1332 17.1608 20.2268C17.0668 20.322 17.0657 20.4746 17.1601 20.569L19.2237 22.6344C19.3179 22.7286 19.4709 22.7286 19.5652 22.6344C20.8088 21.3907 22.0374 20.1339 23.2755 18.8846C23.3692 18.79 23.3697 18.6375 23.2755 18.5438C23.1817 18.4505 23.0294 18.4512 22.9361 18.5448L19.884 21.6287C19.7548 21.7592 19.5789 21.8329 19.3952 21.8334C19.2116 21.8338 19.0353 21.7611 18.9054 21.6313ZM32.3235 25.1632L32.1594 25.2274C31.8048 25.3663 31.404 25.1911 31.2651 24.8364C31.1262 24.4817 31.3014 24.0809 31.6561 23.942L33.1656 23.351C33.4901 23.2239 33.8585 23.3587 34.0243 23.6654L34.7954 25.0912C34.9766 25.4263 34.8516 25.8455 34.5165 26.0267C34.1814 26.2079 33.7623 26.0829 33.5811 25.7479L33.5792 25.7442C31.5075 31.1035 26.3029 34.9089 20.2164 34.9089C13.5477 34.9089 7.93769 30.3408 6.34713 24.1658C6.25206 23.7969 6.47439 23.4203 6.8433 23.3253C7.2122 23.2303 7.58879 23.4526 7.68387 23.8215C9.12111 29.4011 14.1906 33.5285 20.2164 33.5285C25.748 33.5285 30.4737 30.0502 32.3235 25.1632ZM6.85356 15.4324C8.92518 10.0731 14.1298 6.26767 20.2164 6.26767C26.885 6.26767 32.4949 10.8358 34.0856 17.0107C34.1806 17.3797 33.9583 17.7562 33.5893 17.8513C33.2204 17.9463 32.8438 17.724 32.7488 17.3551C31.3115 11.7754 26.2421 7.64806 20.2164 7.64806C14.6846 7.64806 9.95893 11.1264 8.1092 16.0134L8.27321 15.9491C8.62788 15.8102 9.02863 15.9855 9.16753 16.3402C9.30643 16.6949 9.13121 17.0956 8.77653 17.2345L7.26716 17.8256C6.9426 17.9527 6.5742 17.8178 6.40839 17.5112L5.63735 16.0854C5.45609 15.7503 5.5811 15.3311 5.9161 15.1499C6.25119 14.9687 6.6704 15.0936 6.85158 15.4287L6.85356 15.4324Z" fill="white"/>
<path fill-rule="evenodd" clip-rule="evenodd" d="M36.2669 6.06087V10.1306C36.2669 10.5119 35.9579 10.8208 35.5767 10.8208H31.9855C31.6045 10.8208 31.2953 10.5116 31.2953 10.1306C31.2953 9.74971 31.6045 9.44042 31.9855 9.44042H34.8865V6.06087C33.5243 5.74735 32.5072 4.52622 32.5072 3.06948C32.5072 1.37539 33.8826 0 35.5767 0C37.2708 0 38.6461 1.37539 38.6461 3.06948C38.6461 4.52622 37.6291 5.74735 36.2669 6.06087ZM35.5767 4.75856C36.509 4.75856 37.2658 4.00167 37.2658 3.06948C37.2658 2.13719 36.509 1.38039 35.5767 1.38039C34.6445 1.38039 33.8876 2.13719 33.8876 3.06948C33.8876 4.00167 34.6445 4.75856 35.5767 4.75856ZM34.8865 35.1157V31.7362H31.9855C31.6045 31.7362 31.2953 31.4269 31.2953 31.046C31.2953 30.665 31.6045 30.3558 31.9855 30.3558H35.5767C35.9579 30.3558 36.2669 30.6647 36.2669 31.046V35.1157C37.6291 35.4292 38.6461 36.6504 38.6461 38.1071C38.6461 39.8012 37.2708 41.1766 35.5767 41.1766C33.8826 41.1766 32.5072 39.8012 32.5072 38.1071C32.5072 36.6504 33.5243 35.4292 34.8865 35.1157ZM35.5767 36.418C34.6445 36.418 33.8876 37.1749 33.8876 38.1071C33.8876 39.0394 34.6445 39.7962 35.5767 39.7962C36.509 39.7962 37.2658 39.0394 37.2658 38.1071C37.2658 37.1749 36.509 36.418 35.5767 36.418ZM4.16861 6.06087C2.80642 5.74735 1.78933 4.52622 1.78933 3.06948C1.78933 1.37539 3.16472 0 4.85881 0C6.55289 0 7.92828 1.37539 7.92828 3.06948C7.92828 4.52622 6.91119 5.74735 5.549 6.06087V9.44042H8.45007C8.83097 9.44042 9.14027 9.74971 9.14027 10.1306C9.14027 10.5116 8.83097 10.8208 8.45007 10.8208H4.85881C4.47765 10.8208 4.16861 10.5119 4.16861 10.1306V6.06087ZM4.85881 4.75856C5.791 4.75856 6.54789 4.00167 6.54789 3.06948C6.54789 2.13719 5.791 1.38039 4.85881 1.38039C3.92661 1.38039 3.16973 2.13719 3.16973 3.06948C3.16973 4.00167 3.92661 4.75856 4.85881 4.75856ZM5.549 35.1157C6.91119 35.4292 7.92828 36.6504 7.92828 38.1071C7.92828 39.8012 6.55289 41.1766 4.85881 41.1766C3.16472 41.1766 1.78933 39.8012 1.78933 38.1071C1.78933 36.6504 2.80642 35.4292 4.16861 35.1157V31.046C4.16861 30.6647 4.47765 30.3558 4.85881 30.3558H8.45007C8.83097 30.3558 9.14027 30.665 9.14027 31.046C9.14027 31.4269 8.83097 31.7362 8.45007 31.7362H5.549V35.1157ZM4.85881 36.418C3.92661 36.418 3.16973 37.1749 3.16973 38.1071C3.16973 39.0394 3.92661 39.7962 4.85881 39.7962C5.791 39.7962 6.54789 39.0394 6.54789 38.1071C6.54789 37.1749 5.791 36.418 4.85881 36.418ZM5.42831 21.2785C5.12212 22.4676 4.04179 23.3474 2.75759 23.3474C1.23562 23.3474 0 22.1116 0 20.5898C0 19.0678 1.23562 17.8321 2.75759 17.8321C4.04075 17.8321 5.12039 18.7104 5.42762 19.8981H7.17045C7.55135 19.8981 7.86064 20.2074 7.86064 20.5883C7.86064 20.9692 7.55135 21.2785 7.17045 21.2785H5.42831ZM4.13479 20.5883C4.13402 19.8288 3.51724 19.2125 2.75759 19.2125C1.99751 19.2125 1.38039 19.8296 1.38039 20.5898C1.38039 21.3498 1.99751 21.967 2.75759 21.967C3.51767 21.967 4.13479 21.3498 4.13479 20.5898V20.5883ZM35.2824 21.2785H33.2622C32.8813 21.2785 32.572 20.9692 32.572 20.5883C32.572 20.2074 32.8813 19.8981 33.2622 19.8981H35.2831C35.5903 18.7104 36.6699 17.8321 37.9531 17.8321C39.4751 17.8321 40.7107 19.0678 40.7107 20.5898C40.7107 22.1116 39.4751 23.3474 37.9531 23.3474C36.6689 23.3474 35.5886 22.4676 35.2824 21.2785ZM36.5759 20.5898C36.5759 21.3498 37.193 21.967 37.9531 21.967C38.7132 21.967 39.3303 21.3498 39.3303 20.5898C39.3303 19.8296 38.7132 19.2125 37.9531 19.2125C37.1935 19.2125 36.5767 19.8288 36.5759 20.5883V20.5898ZM22.8161 11.2867C23.5628 11.4947 24.2808 11.7922 24.9566 12.1737L26.3302 11.563C26.5912 11.447 26.8967 11.5037 27.0987 11.7056L29.099 13.706C29.3007 13.9077 29.3576 14.2127 29.242 14.4736L28.6335 15.8474C29.0153 16.5238 29.3131 17.2427 29.5212 17.9917L30.9219 18.5308C31.1884 18.6334 31.3641 18.8894 31.3641 19.1749V22.0045C31.3641 22.2901 31.1884 22.546 30.9219 22.6486C30.9219 22.6486 29.5207 23.1879 29.5207 23.1878C29.3123 23.9345 29.0133 24.6526 28.6331 25.3284L29.242 26.703C29.3576 26.9639 29.3007 27.2689 29.099 27.4706L27.0987 29.4709C26.8969 29.6727 26.5919 29.7295 26.3311 29.614C26.3311 29.614 24.9577 29.0056 24.9578 29.0056C24.2829 29.3872 23.5632 29.6848 22.8159 29.8929L22.2767 31.2938C22.1741 31.5603 21.918 31.7362 21.6326 31.7362H18.803C18.5174 31.7362 18.2614 31.5603 18.1589 31.2938C18.1589 31.2938 17.6197 29.893 17.6198 29.893C16.8709 29.6846 16.1523 29.3854 15.4763 29.0051L14.1016 29.614C13.8408 29.7295 13.5357 29.6727 13.334 29.4709L11.3337 27.4706C11.1317 27.2686 11.075 26.9631 11.191 26.7021C11.191 26.7021 11.8016 25.3291 11.8016 25.3292C11.4202 24.6547 11.1224 23.9352 10.9128 23.1882L9.51073 22.6486C9.24431 22.546 9.06849 22.2901 9.06849 22.0045V19.1749C9.06849 18.8894 9.24431 18.6334 9.51073 18.5308L10.9125 17.9913C11.1223 17.2426 11.4201 16.524 11.8017 15.8479L11.191 14.4744C11.075 14.2135 11.1317 13.908 11.3337 13.706L13.334 11.7056C13.536 11.5037 13.8415 11.447 14.1024 11.563C14.1024 11.563 15.476 12.1737 15.476 12.1738C16.1521 11.7921 16.8703 11.4945 17.6172 11.2865L18.1591 9.88214C18.2618 9.61599 18.5177 9.44042 18.803 9.44042H21.6326C21.9182 9.44042 22.1744 9.61642 22.2768 9.88309L22.8161 11.2867ZM21.6551 12.1135L21.1583 10.8208H19.2765L18.7773 12.1145C18.6954 12.3266 18.5143 12.4849 18.293 12.5375C17.4413 12.7399 16.629 13.0764 15.8824 13.5364C15.6885 13.6559 15.4481 13.672 15.24 13.5794L13.9748 13.0169L12.645 14.3468L13.2075 15.6119C13.3001 15.8201 13.2839 16.0604 13.1645 16.2544C12.7041 17.0014 12.3675 17.8143 12.1623 18.6692C12.1093 18.8901 11.951 19.0707 11.7391 19.1523L10.4489 19.6488V21.5306L11.7391 22.0272C11.9509 22.1086 12.1091 22.2891 12.1622 22.5097C12.3673 23.3618 12.7037 24.1771 13.1639 24.9213C13.2839 25.1154 13.3002 25.3562 13.2075 25.5647L12.645 26.8297L13.9753 28.1601L15.2408 27.5996C15.4482 27.5077 15.6876 27.5236 15.8809 27.6421C16.6279 28.0998 17.4405 28.4394 18.2953 28.6418C18.517 28.6944 18.6985 28.853 18.7803 29.0655L19.2769 30.3558H21.1587L21.6552 29.0655C21.7369 28.853 21.9182 28.6946 22.1398 28.6419C22.991 28.4396 23.8057 28.1034 24.5493 27.6437C24.7431 27.5238 24.9835 27.5073 25.1918 27.5996L26.4573 28.1601L27.7882 26.8292L27.2276 25.5638C27.1358 25.3564 27.1516 25.1171 27.2702 24.9237C27.7279 24.1766 28.0674 23.3639 28.27 22.5117C28.3226 22.2902 28.4811 22.1089 28.6936 22.0272L29.9838 21.5306V19.6488L28.6936 19.1523C28.4809 19.0705 28.3224 18.8889 28.2699 18.6673C28.0675 17.813 27.731 17.0008 27.2711 16.2544C27.1518 16.0608 27.1355 15.8208 27.2276 15.6128L27.7882 14.3474L26.4578 13.0169L25.1927 13.5794C24.9846 13.672 24.7441 13.6559 24.5502 13.5364C23.8037 13.0764 22.9914 12.7399 22.1398 12.5375C21.9181 12.4848 21.7368 12.3262 21.6551 12.1135ZM20.2159 13.6217C24.0649 13.6217 27.1858 16.7389 27.1858 20.5879C27.1858 24.4367 24.0648 27.5577 20.2159 27.5577C16.367 27.5577 13.2498 24.4369 13.2498 20.5879C13.2498 16.7388 16.3669 13.6217 20.2159 13.6217ZM20.2159 15.0021C17.1295 15.0021 14.6302 17.5016 14.6302 20.5879C14.6302 23.6744 17.1295 26.1773 20.2159 26.1773C23.3026 26.1773 25.8054 23.6745 25.8054 20.5879C25.8054 17.5014 23.3024 15.0021 20.2159 15.0021ZM19.3909 20.1646L21.956 17.5727L21.9573 17.5714C22.5874 16.9381 23.6157 16.9351 24.249 17.5651C24.882 18.195 24.8863 19.2195 24.2566 19.8557L24.2563 19.856C23.0167 21.1069 21.7865 22.3652 20.5412 23.6104C19.9083 24.2434 18.8805 24.2434 18.2476 23.6104L16.1841 21.545C15.5514 20.9124 15.5502 19.8885 16.1828 19.2526L16.1841 19.2514C16.817 18.6184 17.8448 18.6184 18.4777 19.2514L19.3909 20.1646ZM18.9054 21.6313L17.5016 20.2275C17.4076 20.1335 17.2551 20.1332 17.1608 20.2268C17.0668 20.322 17.0657 20.4746 17.1601 20.569L19.2237 22.6344C19.3179 22.7286 19.4709 22.7286 19.5652 22.6344C20.8088 21.3907 22.0374 20.1339 23.2755 18.8846C23.3692 18.79 23.3697 18.6375 23.2755 18.5438C23.1817 18.4505 23.0294 18.4512 22.9361 18.5448L19.884 21.6287C19.7548 21.7592 19.5789 21.8329 19.3952 21.8334C19.2116 21.8338 19.0353 21.7611 18.9054 21.6313ZM32.3235 25.1632L32.1594 25.2274C31.8048 25.3663 31.404 25.1911 31.2651 24.8364C31.1262 24.4817 31.3014 24.0809 31.6561 23.942L33.1656 23.351C33.4901 23.2239 33.8585 23.3587 34.0243 23.6654L34.7954 25.0912C34.9766 25.4263 34.8516 25.8455 34.5165 26.0267C34.1814 26.2079 33.7623 26.0829 33.5811 25.7479L33.5792 25.7442C31.5075 31.1035 26.3029 34.9089 20.2164 34.9089C13.5477 34.9089 7.93769 30.3408 6.34713 24.1658C6.25206 23.7969 6.47439 23.4203 6.8433 23.3253C7.2122 23.2303 7.58879 23.4526 7.68387 23.8215C9.12111 29.4011 14.1906 33.5285 20.2164 33.5285C25.748 33.5285 30.4737 30.0502 32.3235 25.1632ZM6.85356 15.4324C8.92518 10.0731 14.1298 6.26767 20.2164 6.26767C26.885 6.26767 32.4949 10.8358 34.0856 17.0107C34.1806 17.3797 33.9583 17.7562 33.5893 17.8513C33.2204 17.9463 32.8438 17.724 32.7488 17.3551C31.3115 11.7754 26.2421 7.64806 20.2164 7.64806C14.6846 7.64806 9.95893 11.1264 8.1092 16.0134L8.27321 15.9491C8.62788 15.8102 9.02863 15.9855 9.16753 16.3402C9.30643 16.6949 9.13121 17.0956 8.77653 17.2345L7.26716 17.8256C6.9426 17.9527 6.5742 17.8178 6.40839 17.5112L5.63735 16.0854C5.45609 15.7503 5.5811 15.3311 5.9161 15.1499C6.25119 14.9687 6.6704 15.0936 6.85158 15.4287L6.85356 15.4324Z" fill="#0F2373"/>
</svg>
