<svg width="46" height="45" viewBox="0 0 46 45" fill="none" xmlns="http://www.w3.org/2000/svg">
<g clip-path="url(#clip0_318_2230)">
<path d="M29.1809 44.9991C29.149 44.9991 29.1171 44.997 29.0852 44.9927L28.6808 44.9388H17.1526C16.9584 44.9388 16.7724 44.8612 16.6359 44.7227C16.4995 44.5841 16.424 44.3966 16.4268 44.202L16.4871 40.1835C16.4871 36.7569 19.6015 35.1653 21.4873 34.7527C22.2053 34.5025 24.1577 34.4692 24.9189 34.7552C26.8054 35.1709 29.9074 36.7647 29.9074 40.1942V44.2733C29.9074 44.4824 29.8174 44.6819 29.6593 44.819C29.5264 44.936 29.356 44.9991 29.1809 44.9991ZM17.8894 43.4872H28.4558V40.1942C28.4558 37.0124 24.7127 36.1944 24.5532 36.1611C24.4848 36.1466 24.4196 36.1232 24.3586 36.0906C24.035 35.9694 22.3584 35.9779 21.9873 36.1136C21.9547 36.1253 21.8757 36.1537 21.8417 36.16C21.6818 36.1937 17.9387 37.0117 17.9387 40.1934L17.8894 43.4872Z" fill="#0F2373"/>
<path d="M23.167 33.4179C21.1086 33.4179 19.4341 31.7377 19.4341 29.6712C19.4341 27.6051 21.1086 25.9238 23.167 25.9238C25.2253 25.9238 26.8998 27.6051 26.8998 29.6712C26.8998 31.7377 25.2253 33.4179 23.167 33.4179ZM23.167 27.3754C21.9099 27.3754 20.8857 28.4057 20.8857 29.6712C20.8857 30.9364 21.9092 31.9663 23.167 31.9663C24.4247 31.9663 25.4482 30.9364 25.4482 29.6712C25.4482 28.4057 24.424 27.3754 23.167 27.3754Z" fill="#0F2373"/>
<path d="M44.2155 44.9995C44.1836 44.9995 44.1517 44.9974 44.1191 44.9931L43.7161 44.9393H32.1883C31.9937 44.9393 31.808 44.8617 31.6716 44.7231C31.5351 44.5845 31.4596 44.397 31.4625 44.2025L31.5227 40.184C31.5227 36.7573 34.6372 35.1657 36.5226 34.7532C37.2406 34.5023 39.193 34.4689 39.9535 34.7564C41.8392 35.1714 44.9413 36.7644 44.9413 40.1946V44.2737C44.9413 44.4828 44.8513 44.6823 44.6932 44.8202C44.561 44.9364 44.3906 44.9995 44.2155 44.9995ZM32.924 43.4877H43.4897V40.1946C43.4897 37.0128 39.7469 36.1949 39.587 36.1615C39.519 36.147 39.4527 36.1236 39.3918 36.0903C39.0696 35.9705 37.393 35.979 37.0219 36.1133C36.9893 36.1258 36.9103 36.1541 36.8763 36.1605C36.7164 36.1942 32.9736 37.0114 32.9736 40.1939L32.924 43.4877Z" fill="#0F2373"/>
<path d="M38.2013 33.4179C36.1429 33.4179 34.4688 31.7377 34.4688 29.6712C34.4688 27.6051 36.1429 25.9238 38.2013 25.9238C40.26 25.9238 41.9348 27.6051 41.9348 29.6712C41.9348 31.7377 40.26 33.4179 38.2013 33.4179ZM38.2013 27.3754C36.9442 27.3754 35.9204 28.4057 35.9204 29.6712C35.9204 30.9364 36.9435 31.9663 38.2013 31.9663C39.4594 31.9663 40.4832 30.9364 40.4832 29.6712C40.4825 28.4057 39.4594 27.3754 38.2013 27.3754Z" fill="#0F2373"/>
<path d="M14.146 44.9995C14.1141 44.9995 14.0819 44.9974 14.0493 44.9931L13.6467 44.9393H2.11846C1.9239 44.9393 1.73819 44.8617 1.60175 44.7231C1.46531 44.5845 1.38982 44.397 1.39266 44.2025L1.4529 40.184C1.4529 36.7573 4.56735 35.1657 6.4531 34.7532C7.17005 34.5023 9.12313 34.4689 9.88403 34.7564C11.7705 35.1714 14.8725 36.7651 14.8725 40.1946V44.2737C14.8725 44.4828 14.7825 44.6823 14.6241 44.8202C14.4912 44.9364 14.3207 44.9995 14.146 44.9995ZM2.85525 43.4877H13.4209V40.1946C13.4209 37.0121 9.67777 36.1949 9.51829 36.1615C9.44989 36.147 9.38397 36.1236 9.32301 36.0903C9.00051 35.9705 7.32386 35.979 6.95316 36.1133C6.92055 36.1258 6.84152 36.1541 6.80714 36.1605C6.64767 36.1942 2.90452 37.0114 2.90452 40.1939L2.85525 43.4877Z" fill="#0F2373"/>
<path d="M8.13251 33.4179C6.07416 33.4179 4.39893 31.7377 4.39893 29.6712C4.39893 27.6051 6.07416 25.9238 8.13251 25.9238C10.1908 25.9238 11.8654 27.6051 11.8654 29.6712C11.8654 31.7377 10.1908 33.4179 8.13251 33.4179ZM8.13251 27.3754C6.87475 27.3754 5.85054 28.4057 5.85054 29.6712C5.85054 30.9364 6.87404 31.9663 8.13251 31.9663C9.38955 31.9663 10.4138 30.9364 10.4138 29.6712C10.4138 28.4057 9.39026 27.3754 8.13251 27.3754Z" fill="#0F2373"/>
<path d="M27.9771 8.93555H29.4287V16.3308H27.9771V8.93555Z" fill="#0F2373"/>
<path d="M30.9058 11.5898H32.3574V16.3292H30.9058V11.5898Z" fill="#0F2373"/>
<path d="M33.7275 9.40234H35.1792V16.3308H33.7275V9.40234Z" fill="#0F2373"/>
<path d="M37.6201 3.79883H39.0717V16.3293H37.6201V3.79883Z" fill="#0F2373"/>
<path d="M42.096 19.5815H21.0061C20.605 19.5815 20.2803 19.2573 20.2803 18.8557C20.2803 18.4542 20.605 18.1299 21.0061 18.1299H41.3702V1.45161H16.9912V14.6186C16.9912 15.0197 16.6665 15.3444 16.2654 15.3444C15.8638 15.3444 15.5396 15.0197 15.5396 14.6186V0.725806C15.5396 0.324274 15.8638 0 16.2654 0H42.096C42.4975 0 42.8218 0.324274 42.8218 0.725806V18.8557C42.8218 19.2562 42.4975 19.5815 42.096 19.5815Z" fill="#0F2373"/>
<path d="M9.89177 9.35849C7.64701 9.35849 5.8208 7.52519 5.8208 5.27086C5.8208 3.01796 7.64772 1.18359 9.89177 1.18359C12.1362 1.18359 13.9631 3.01689 13.9631 5.27086C13.9631 7.52448 12.1369 9.35849 9.89177 9.35849ZM9.89177 2.63521C8.4476 2.63521 7.27241 3.81748 7.27241 5.27086C7.27241 6.7246 8.4476 7.90687 9.89177 7.90687C11.3363 7.90687 12.5115 6.7246 12.5115 5.27086C12.5115 3.81748 11.3363 2.63521 9.89177 2.63521Z" fill="#0F2373"/>
<path d="M13.9159 24.7595H6.10351C5.70198 24.7595 5.3777 24.4353 5.3777 24.0337V22.9284C5.04315 23.0343 4.68166 23.0556 4.32372 22.9815C3.3672 22.7884 2.67188 21.9137 2.67188 20.9041V17.3884C2.67188 15.3829 3.26974 13.4493 4.40204 11.7974C4.79684 11.2212 5.32029 10.7842 5.91391 10.5347C6.52453 10.2778 7.16883 10.1484 7.83226 10.1484H12.1697C12.2771 10.1484 12.3845 10.1527 12.4912 10.1616C13.6961 10.2587 14.8277 10.9706 15.5177 12.0661L17.1487 14.6592L20.3719 16.416C21.4805 17.0206 22.0057 18.2971 21.6212 19.451C21.399 20.1159 20.9287 20.6429 20.2957 20.9345C19.6759 21.2219 18.954 21.239 18.3189 20.982C18.2927 20.9717 18.2671 20.9593 18.2434 20.9455L14.6576 18.9843L14.6424 24.0369C14.6402 24.436 14.316 24.7595 13.9159 24.7595ZM6.82931 23.3079H13.1925L13.2085 17.7584L13.212 16.6261C13.2134 16.2256 13.5377 15.9028 13.9378 15.9028H13.94C14.3404 15.9042 14.6636 16.2285 14.6636 16.6286V16.6307L14.6615 17.331L18.8966 19.6477C19.157 19.7438 19.4356 19.7314 19.6869 19.6144C19.9527 19.4925 20.1508 19.2703 20.2443 18.9903C20.4038 18.5119 20.16 17.9523 19.6773 17.689L16.2878 15.8418C16.179 15.7823 16.0876 15.6965 16.021 15.5906L14.2883 12.8376C13.8411 12.127 13.1248 11.6677 12.3735 11.6075C12.3055 11.6015 12.2371 11.5986 12.169 11.5986H7.83155C7.36268 11.5986 6.90764 11.6908 6.47633 11.8715C6.13966 12.0122 5.83629 12.2706 5.59955 12.6161C4.63382 14.0266 4.12349 15.6763 4.12349 17.387V20.9041C4.12349 21.2212 4.334 21.503 4.61256 21.559C4.87552 21.6118 5.05981 21.503 5.14451 21.4332C5.29265 21.312 5.3777 21.1319 5.3777 20.9398V16.1115C5.3777 15.7104 5.70198 15.3857 6.10351 15.3857C6.50469 15.3857 6.82931 15.7104 6.82931 16.1115V23.3079Z" fill="#0F2373"/>
<path d="M19.2075 16.9683L24.1081 9.69531L25.3113 10.5062L20.4107 17.7791L19.2075 16.9683Z" fill="#0F2373"/>
</g>
<defs>
<clipPath id="clip0_318_2230">
<rect width="45" height="45" fill="white" transform="translate(0.666992)"/>
</clipPath>
</defs>
</svg>
