<svg width="49" height="45" viewBox="0 0 49 45" fill="none" xmlns="http://www.w3.org/2000/svg">
<path d="M44.1965 3.21875H8.8393C7.77409 3.22003 6.75287 3.64375 5.99965 4.39696C5.24643 5.15018 4.82272 6.1714 4.82144 7.23662V16.1402C3.48381 16.3333 2.26041 17.0015 1.37506 18.0226C0.489703 19.0437 0.00158393 20.3494 0 21.7009V30.9645C0.000419064 31.3388 0.0873235 31.7078 0.253929 32.0429L1.52679 34.5774C1.58039 34.6898 1.60786 34.8129 1.60715 34.9374V44.201C1.60715 44.4141 1.69181 44.6185 1.84251 44.7692C1.99321 44.9199 2.1976 45.0046 2.41072 45.0046H10.4465C10.6596 45.0046 10.864 44.9199 11.0147 44.7692C11.1654 44.6185 11.25 44.4141 11.25 44.201V39.2903C11.2509 38.4171 11.4541 37.5559 11.8439 36.7744L13.0669 34.3283C13.1596 34.1418 13.2417 33.9502 13.3128 33.7545H44.1965C45.2617 33.7533 46.283 33.3295 47.0362 32.5763C47.7894 31.8231 48.2131 30.8019 48.2144 29.7367V7.23662C48.2131 6.1714 47.7894 5.15018 47.0362 4.39696C46.283 3.64375 45.2617 3.22003 44.1965 3.21875ZM6.42859 7.23662C6.42859 6.59725 6.68257 5.98408 7.13467 5.53198C7.58677 5.07988 8.19994 4.8259 8.8393 4.8259H12.8572V21.5169C12.3459 21.5348 11.8541 21.7171 11.4547 22.0368C11.0553 22.3564 10.7696 22.7963 10.6401 23.2912L9.71359 26.7466C9.67116 26.9187 9.57091 27.071 9.42961 27.1781C9.28831 27.2852 9.11453 27.3405 8.93734 27.3348C8.80175 27.3337 8.66875 27.2976 8.5512 27.23C8.43364 27.1625 8.33553 27.0657 8.26636 26.9491L6.42859 23.8891V7.23662ZM12.0536 31.1751V31.8123C12.0526 32.4362 11.9074 33.0514 11.6293 33.6099L10.4063 36.056C9.90558 37.0607 9.64429 38.1677 9.64288 39.2903V43.3974H3.21429V34.9374C3.21387 34.5632 3.12697 34.1941 2.96036 33.859L1.69152 31.3245C1.63653 31.2125 1.60768 31.0894 1.60715 30.9645V21.7009C1.60816 20.775 1.92844 19.8778 2.51397 19.1605C3.0995 18.4432 3.91447 17.9498 4.82144 17.7634V24.1117C4.82149 24.2575 4.86121 24.4005 4.93635 24.5255L6.88823 27.7784C7.098 28.131 7.39516 28.4235 7.75101 28.6278C8.10686 28.832 8.50937 28.9411 8.91966 28.9443C9.45155 28.9453 9.96909 28.7719 10.3929 28.4505C10.8168 28.1292 11.1235 27.6776 11.2661 27.1652L12.1926 23.7099C12.2176 23.6055 12.2633 23.5071 12.3269 23.4207C12.3906 23.3342 12.4709 23.2614 12.5631 23.2065C12.6554 23.1516 12.7577 23.1157 12.8641 23.101C12.9704 23.0863 13.0786 23.0931 13.1823 23.1209C13.286 23.1487 13.383 23.197 13.4677 23.263C13.5524 23.3289 13.6231 23.4112 13.6755 23.5049C13.7279 23.5986 13.7609 23.7018 13.7728 23.8085C13.7846 23.9152 13.7749 24.0232 13.7443 24.1261L12.2457 29.7222C12.1184 30.196 12.0538 30.6845 12.0536 31.1751ZM46.6072 29.7367C46.6072 30.376 46.3533 30.9892 45.9012 31.4413C45.4491 31.8934 44.8359 32.1474 44.1965 32.1474H14.4643V27.6474L15.2968 24.54C15.4199 24.0856 15.4066 23.6051 15.2586 23.1583C15.1105 22.7115 14.8343 22.3181 14.4643 22.0272V4.8259H44.1965C44.8359 4.8259 45.4491 5.07988 45.9012 5.53198C46.3533 5.98408 46.6072 6.59725 46.6072 7.23662V29.7367Z" fill="white"/>
<path d="M44.1965 3.21875H8.8393C7.77409 3.22003 6.75287 3.64375 5.99965 4.39696C5.24643 5.15018 4.82272 6.1714 4.82144 7.23662V16.1402C3.48381 16.3333 2.26041 17.0015 1.37506 18.0226C0.489703 19.0437 0.00158393 20.3494 0 21.7009V30.9645C0.000419064 31.3388 0.0873235 31.7078 0.253929 32.0429L1.52679 34.5774C1.58039 34.6898 1.60786 34.8129 1.60715 34.9374V44.201C1.60715 44.4141 1.69181 44.6185 1.84251 44.7692C1.99321 44.9199 2.1976 45.0046 2.41072 45.0046H10.4465C10.6596 45.0046 10.864 44.9199 11.0147 44.7692C11.1654 44.6185 11.25 44.4141 11.25 44.201V39.2903C11.2509 38.4171 11.4541 37.5559 11.8439 36.7744L13.0669 34.3283C13.1596 34.1418 13.2417 33.9502 13.3128 33.7545H44.1965C45.2617 33.7533 46.283 33.3295 47.0362 32.5763C47.7894 31.8231 48.2131 30.8019 48.2144 29.7367V7.23662C48.2131 6.1714 47.7894 5.15018 47.0362 4.39696C46.283 3.64375 45.2617 3.22003 44.1965 3.21875ZM6.42859 7.23662C6.42859 6.59725 6.68257 5.98408 7.13467 5.53198C7.58677 5.07988 8.19994 4.8259 8.8393 4.8259H12.8572V21.5169C12.3459 21.5348 11.8541 21.7171 11.4547 22.0368C11.0553 22.3564 10.7696 22.7963 10.6401 23.2912L9.71359 26.7466C9.67116 26.9187 9.57091 27.071 9.42961 27.1781C9.28831 27.2852 9.11453 27.3405 8.93734 27.3348C8.80175 27.3337 8.66875 27.2976 8.5512 27.23C8.43364 27.1625 8.33553 27.0657 8.26636 26.9491L6.42859 23.8891V7.23662ZM12.0536 31.1751V31.8123C12.0526 32.4362 11.9074 33.0514 11.6293 33.6099L10.4063 36.056C9.90558 37.0607 9.64429 38.1677 9.64288 39.2903V43.3974H3.21429V34.9374C3.21387 34.5632 3.12697 34.1941 2.96036 33.859L1.69152 31.3245C1.63653 31.2125 1.60768 31.0894 1.60715 30.9645V21.7009C1.60816 20.775 1.92844 19.8778 2.51397 19.1605C3.0995 18.4432 3.91447 17.9498 4.82144 17.7634V24.1117C4.82149 24.2575 4.86121 24.4005 4.93635 24.5255L6.88823 27.7784C7.098 28.131 7.39516 28.4235 7.75101 28.6278C8.10686 28.832 8.50937 28.9411 8.91966 28.9443C9.45155 28.9453 9.96909 28.7719 10.3929 28.4505C10.8168 28.1292 11.1235 27.6776 11.2661 27.1652L12.1926 23.7099C12.2176 23.6055 12.2633 23.5071 12.3269 23.4207C12.3906 23.3342 12.4709 23.2614 12.5631 23.2065C12.6554 23.1516 12.7577 23.1157 12.8641 23.101C12.9704 23.0863 13.0786 23.0931 13.1823 23.1209C13.286 23.1487 13.383 23.197 13.4677 23.263C13.5524 23.3289 13.6231 23.4112 13.6755 23.5049C13.7279 23.5986 13.7609 23.7018 13.7728 23.8085C13.7846 23.9152 13.7749 24.0232 13.7443 24.1261L12.2457 29.7222C12.1184 30.196 12.0538 30.6845 12.0536 31.1751ZM46.6072 29.7367C46.6072 30.376 46.3533 30.9892 45.9012 31.4413C45.4491 31.8934 44.8359 32.1474 44.1965 32.1474H14.4643V27.6474L15.2968 24.54C15.4199 24.0856 15.4066 23.6051 15.2586 23.1583C15.1105 22.7115 14.8343 22.3181 14.4643 22.0272V4.8259H44.1965C44.8359 4.8259 45.4491 5.07988 45.9012 5.53198C46.3533 5.98408 46.6072 6.59725 46.6072 7.23662V29.7367Z" fill="#0F2373"/>
<path d="M9.64509 20.8957C10.1219 20.8957 10.588 20.7543 10.9844 20.4894C11.3809 20.2245 11.6898 19.848 11.8723 19.4075C12.0548 18.967 12.1025 18.4823 12.0095 18.0146C11.9165 17.547 11.6869 17.1174 11.3497 16.7803C11.0126 16.4432 10.583 16.2136 10.1154 16.1205C9.64777 16.0275 9.16305 16.0753 8.72255 16.2577C8.28205 16.4402 7.90555 16.7492 7.64065 17.1456C7.37576 17.5421 7.23438 18.0081 7.23438 18.4849C7.23438 19.1243 7.48836 19.7375 7.94046 20.1896C8.39256 20.6417 9.00573 20.8957 9.64509 20.8957ZM9.64509 17.6814C9.80403 17.6814 9.95939 17.7285 10.0915 17.8168C10.2237 17.9051 10.3267 18.0306 10.3875 18.1774C10.4483 18.3243 10.4642 18.4858 10.4332 18.6417C10.4022 18.7976 10.3257 18.9408 10.2133 19.0532C10.1009 19.1655 9.95774 19.2421 9.80186 19.2731C9.64599 19.3041 9.48441 19.2882 9.33758 19.2273C9.19075 19.1665 9.06525 19.0635 8.97695 18.9314C8.88865 18.7992 8.84152 18.6439 8.84152 18.4849C8.84152 18.2718 8.92618 18.0674 9.07688 17.9167C9.22758 17.766 9.43197 17.6814 9.64509 17.6814Z" fill="white"/>
<path d="M9.64509 20.8957C10.1219 20.8957 10.588 20.7543 10.9844 20.4894C11.3809 20.2245 11.6898 19.848 11.8723 19.4075C12.0548 18.967 12.1025 18.4823 12.0095 18.0146C11.9165 17.547 11.6869 17.1174 11.3497 16.7803C11.0126 16.4432 10.583 16.2136 10.1154 16.1205C9.64777 16.0275 9.16305 16.0753 8.72255 16.2577C8.28205 16.4402 7.90555 16.7492 7.64065 17.1456C7.37576 17.5421 7.23438 18.0081 7.23438 18.4849C7.23438 19.1243 7.48836 19.7375 7.94046 20.1896C8.39256 20.6417 9.00573 20.8957 9.64509 20.8957ZM9.64509 17.6814C9.80403 17.6814 9.95939 17.7285 10.0915 17.8168C10.2237 17.9051 10.3267 18.0306 10.3875 18.1774C10.4483 18.3243 10.4642 18.4858 10.4332 18.6417C10.4022 18.7976 10.3257 18.9408 10.2133 19.0532C10.1009 19.1655 9.95774 19.2421 9.80186 19.2731C9.64599 19.3041 9.48441 19.2882 9.33758 19.2273C9.19075 19.1665 9.06525 19.0635 8.97695 18.9314C8.88865 18.7992 8.84152 18.6439 8.84152 18.4849C8.84152 18.2718 8.92618 18.0674 9.07688 17.9167C9.22758 17.766 9.43197 17.6814 9.64509 17.6814Z" fill="#0F2373"/>
<path d="M20.8906 35.3594H32.1406V36.9665H20.8906V35.3594Z" fill="white"/>
<path d="M20.8906 35.3594H32.1406V36.9665H20.8906V35.3594Z" fill="#0F2373"/>
<path d="M33.75 35.3594H35.3571V36.9665H33.75V35.3594Z" fill="white"/>
<path d="M33.75 35.3594H35.3571V36.9665H33.75V35.3594Z" fill="#0F2373"/>
<path d="M24.1074 0H35.3574V1.60715H24.1074V0Z" fill="white"/>
<path d="M24.1074 0H35.3574V1.60715H24.1074V0Z" fill="#0F2373"/>
<path d="M20.8906 0H22.4978V1.60715H20.8906V0Z" fill="white"/>
<path d="M20.8906 0H22.4978V1.60715H20.8906V0Z" fill="#0F2373"/>
<path d="M41.0977 16.0817L38.9425 15.7739C38.7969 15.3208 38.6144 14.8803 38.3969 14.4569L39.7027 12.7164C39.8187 12.5616 39.875 12.3702 39.8613 12.1773C39.8476 11.9843 39.7647 11.8028 39.628 11.6661L37.3555 9.39358C37.2187 9.25702 37.0374 9.1743 36.8446 9.16058C36.6519 9.14685 36.4607 9.20304 36.306 9.31884L34.5646 10.6238C34.1412 10.4068 33.7007 10.2246 33.2476 10.079L32.9398 7.92384C32.9124 7.73243 32.8168 7.55734 32.6707 7.4307C32.5245 7.30405 32.3376 7.23435 32.1443 7.23438H28.93C28.7366 7.23435 28.5497 7.30405 28.4036 7.4307C28.2575 7.55734 28.1619 7.73243 28.1344 7.92384L27.8267 10.079C27.3735 10.2244 26.933 10.4066 26.5096 10.6238L24.7691 9.31884C24.6143 9.20282 24.4229 9.1465 24.23 9.16023C24.0371 9.17396 23.8556 9.25681 23.7188 9.39358L21.4463 11.6661C21.3095 11.8028 21.2267 11.9843 21.213 12.1773C21.1992 12.3702 21.2556 12.5616 21.3716 12.7164L22.6766 14.4569C22.4597 14.8805 22.2775 15.3209 22.1318 15.7739L19.9766 16.0817C19.7852 16.1092 19.6101 16.2047 19.4834 16.3509C19.3568 16.497 19.2871 16.6839 19.2871 16.8773V20.0915C19.2871 20.2849 19.3568 20.4718 19.4834 20.6179C19.6101 20.7641 19.7852 20.8596 19.9766 20.8871L22.1318 21.1948C22.2775 21.6479 22.4597 22.0883 22.6766 22.5119L21.3716 24.2524C21.2556 24.4072 21.1992 24.5986 21.213 24.7915C21.2267 24.9845 21.3095 25.166 21.4463 25.3027L23.7188 27.5752C23.8556 27.712 24.0371 27.7948 24.23 27.8086C24.4229 27.8223 24.6143 27.766 24.7691 27.65L26.5096 26.345C26.933 26.5622 27.3735 26.7444 27.8267 26.8898L28.1344 29.045C28.1619 29.2364 28.2575 29.4115 28.4036 29.5381C28.5497 29.6647 28.7366 29.7344 28.93 29.7344H32.1443C32.3376 29.7344 32.5245 29.6647 32.6707 29.5381C32.8168 29.4115 32.9124 29.2364 32.9398 29.045L33.2476 26.8898C33.7007 26.7442 34.1412 26.562 34.5646 26.345L36.306 27.65C36.4607 27.7658 36.6519 27.8219 36.8446 27.8082C37.0374 27.7945 37.2187 27.7118 37.3555 27.5752L39.628 25.3027C39.7647 25.166 39.8476 24.9845 39.8613 24.7915C39.875 24.5986 39.8187 24.4072 39.7027 24.2524L38.3969 22.5119C38.6144 22.0885 38.7969 21.648 38.9425 21.1948L41.0977 20.8871C41.2891 20.8596 41.4642 20.7641 41.5908 20.6179C41.7175 20.4718 41.7872 20.2849 41.7872 20.0915V16.8773C41.7872 16.6839 41.7175 16.497 41.5908 16.3509C41.4642 16.2047 41.2891 16.1092 41.0977 16.0817ZM40.18 19.3948L38.2008 19.6777C38.0435 19.7002 37.8964 19.7689 37.7781 19.875C37.6598 19.9812 37.5757 20.12 37.5363 20.274C37.3666 20.9396 37.1022 21.5775 36.7512 22.168C36.67 22.3049 36.6313 22.4629 36.64 22.6218C36.6488 22.7808 36.7045 22.9335 36.8002 23.0607L37.9991 24.6599L36.7134 25.9456L35.1135 24.7466C34.9863 24.6513 34.8336 24.5958 34.6748 24.5872C34.516 24.5786 34.3583 24.6173 34.2215 24.6984C33.6315 25.0495 32.9938 25.3134 32.3283 25.4819C32.1739 25.5211 32.0347 25.6052 31.9282 25.7237C31.8218 25.8422 31.7529 25.9896 31.7304 26.1473L31.4476 28.1273H29.6267L29.3446 26.1481C29.3221 25.9904 29.2533 25.843 29.1468 25.7245C29.0404 25.6061 28.9011 25.5219 28.7468 25.4827C28.0812 25.3142 27.4435 25.0503 26.8536 24.6992C26.7168 24.6181 26.559 24.5794 26.4003 24.588C26.2415 24.5966 26.0888 24.6521 25.9616 24.7474L24.3617 25.9464L23.076 24.6607L24.2749 23.0616C24.3704 22.9342 24.426 22.7814 24.4346 22.6225C24.4432 22.4635 24.4044 22.3056 24.3231 22.1688C23.9723 21.5786 23.7085 20.941 23.5396 20.2756C23.5003 20.1213 23.4161 19.9823 23.2976 19.876C23.1792 19.7697 23.0318 19.701 22.8743 19.6785L20.8943 19.3948V17.574L22.8735 17.2911C23.031 17.2686 23.1784 17.1999 23.2968 17.0936C23.4153 16.9873 23.4995 16.8483 23.5388 16.694C23.7077 16.0286 23.9715 15.391 24.3223 14.8008C24.4036 14.664 24.4424 14.5061 24.4338 14.3471C24.4252 14.1882 24.3696 14.0354 24.2741 13.9081L23.0752 12.3089L24.3609 11.0232L25.9608 12.2222C26.088 12.3175 26.2407 12.373 26.3995 12.3816C26.5582 12.3902 26.716 12.3515 26.8528 12.2704C27.4427 11.9193 28.0804 11.6554 28.746 11.4869C28.9003 11.4477 29.0396 11.3635 29.146 11.2451C29.2525 11.1266 29.3213 10.9792 29.3438 10.8215L29.6267 8.84152H31.4476L31.7296 10.8207C31.7521 10.9784 31.821 11.1258 31.9274 11.2443C32.0339 11.3627 32.1731 11.4469 32.3275 11.4861C32.993 11.6546 33.6307 11.9185 34.2207 12.2696C34.3575 12.3507 34.5152 12.3894 34.674 12.3808C34.8328 12.3722 34.9855 12.3167 35.1127 12.2213L36.7126 11.0224L37.9983 12.3081L36.7994 13.9072C36.7037 14.0345 36.648 14.1872 36.6392 14.3462C36.6305 14.5051 36.6692 14.6631 36.7504 14.8C37.1014 15.3905 37.3658 16.0283 37.5355 16.694C37.5748 16.848 37.659 16.9868 37.7773 17.093C37.8956 17.1991 38.0427 17.2678 38.2 17.2903L40.18 17.574V19.3948Z" fill="white"/>
<path d="M41.0977 16.0817L38.9425 15.7739C38.7969 15.3208 38.6144 14.8803 38.3969 14.4569L39.7027 12.7164C39.8187 12.5616 39.875 12.3702 39.8613 12.1773C39.8476 11.9843 39.7647 11.8028 39.628 11.6661L37.3555 9.39358C37.2187 9.25702 37.0374 9.1743 36.8446 9.16058C36.6519 9.14685 36.4607 9.20304 36.306 9.31884L34.5646 10.6238C34.1412 10.4068 33.7007 10.2246 33.2476 10.079L32.9398 7.92384C32.9124 7.73243 32.8168 7.55734 32.6707 7.4307C32.5245 7.30405 32.3376 7.23435 32.1443 7.23438H28.93C28.7366 7.23435 28.5497 7.30405 28.4036 7.4307C28.2575 7.55734 28.1619 7.73243 28.1344 7.92384L27.8267 10.079C27.3735 10.2244 26.933 10.4066 26.5096 10.6238L24.7691 9.31884C24.6143 9.20282 24.4229 9.1465 24.23 9.16023C24.0371 9.17396 23.8556 9.25681 23.7188 9.39358L21.4463 11.6661C21.3095 11.8028 21.2267 11.9843 21.213 12.1773C21.1992 12.3702 21.2556 12.5616 21.3716 12.7164L22.6766 14.4569C22.4597 14.8805 22.2775 15.3209 22.1318 15.7739L19.9766 16.0817C19.7852 16.1092 19.6101 16.2047 19.4834 16.3509C19.3568 16.497 19.2871 16.6839 19.2871 16.8773V20.0915C19.2871 20.2849 19.3568 20.4718 19.4834 20.6179C19.6101 20.7641 19.7852 20.8596 19.9766 20.8871L22.1318 21.1948C22.2775 21.6479 22.4597 22.0883 22.6766 22.5119L21.3716 24.2524C21.2556 24.4072 21.1992 24.5986 21.213 24.7915C21.2267 24.9845 21.3095 25.166 21.4463 25.3027L23.7188 27.5752C23.8556 27.712 24.0371 27.7948 24.23 27.8086C24.4229 27.8223 24.6143 27.766 24.7691 27.65L26.5096 26.345C26.933 26.5622 27.3735 26.7444 27.8267 26.8898L28.1344 29.045C28.1619 29.2364 28.2575 29.4115 28.4036 29.5381C28.5497 29.6647 28.7366 29.7344 28.93 29.7344H32.1443C32.3376 29.7344 32.5245 29.6647 32.6707 29.5381C32.8168 29.4115 32.9124 29.2364 32.9398 29.045L33.2476 26.8898C33.7007 26.7442 34.1412 26.562 34.5646 26.345L36.306 27.65C36.4607 27.7658 36.6519 27.8219 36.8446 27.8082C37.0374 27.7945 37.2187 27.7118 37.3555 27.5752L39.628 25.3027C39.7647 25.166 39.8476 24.9845 39.8613 24.7915C39.875 24.5986 39.8187 24.4072 39.7027 24.2524L38.3969 22.5119C38.6144 22.0885 38.7969 21.648 38.9425 21.1948L41.0977 20.8871C41.2891 20.8596 41.4642 20.7641 41.5908 20.6179C41.7175 20.4718 41.7872 20.2849 41.7872 20.0915V16.8773C41.7872 16.6839 41.7175 16.497 41.5908 16.3509C41.4642 16.2047 41.2891 16.1092 41.0977 16.0817ZM40.18 19.3948L38.2008 19.6777C38.0435 19.7002 37.8964 19.7689 37.7781 19.875C37.6598 19.9812 37.5757 20.12 37.5363 20.274C37.3666 20.9396 37.1022 21.5775 36.7512 22.168C36.67 22.3049 36.6313 22.4629 36.64 22.6218C36.6488 22.7808 36.7045 22.9335 36.8002 23.0607L37.9991 24.6599L36.7134 25.9456L35.1135 24.7466C34.9863 24.6513 34.8336 24.5958 34.6748 24.5872C34.516 24.5786 34.3583 24.6173 34.2215 24.6984C33.6315 25.0495 32.9938 25.3134 32.3283 25.4819C32.1739 25.5211 32.0347 25.6052 31.9282 25.7237C31.8218 25.8422 31.7529 25.9896 31.7304 26.1473L31.4476 28.1273H29.6267L29.3446 26.1481C29.3221 25.9904 29.2533 25.843 29.1468 25.7245C29.0404 25.6061 28.9011 25.5219 28.7468 25.4827C28.0812 25.3142 27.4435 25.0503 26.8536 24.6992C26.7168 24.6181 26.559 24.5794 26.4003 24.588C26.2415 24.5966 26.0888 24.6521 25.9616 24.7474L24.3617 25.9464L23.076 24.6607L24.2749 23.0616C24.3704 22.9342 24.426 22.7814 24.4346 22.6225C24.4432 22.4635 24.4044 22.3056 24.3231 22.1688C23.9723 21.5786 23.7085 20.941 23.5396 20.2756C23.5003 20.1213 23.4161 19.9823 23.2976 19.876C23.1792 19.7697 23.0318 19.701 22.8743 19.6785L20.8943 19.3948V17.574L22.8735 17.2911C23.031 17.2686 23.1784 17.1999 23.2968 17.0936C23.4153 16.9873 23.4995 16.8483 23.5388 16.694C23.7077 16.0286 23.9715 15.391 24.3223 14.8008C24.4036 14.664 24.4424 14.5061 24.4338 14.3471C24.4252 14.1882 24.3696 14.0354 24.2741 13.9081L23.0752 12.3089L24.3609 11.0232L25.9608 12.2222C26.088 12.3175 26.2407 12.373 26.3995 12.3816C26.5582 12.3902 26.716 12.3515 26.8528 12.2704C27.4427 11.9193 28.0804 11.6554 28.746 11.4869C28.9003 11.4477 29.0396 11.3635 29.146 11.2451C29.2525 11.1266 29.3213 10.9792 29.3438 10.8215L29.6267 8.84152H31.4476L31.7296 10.8207C31.7521 10.9784 31.821 11.1258 31.9274 11.2443C32.0339 11.3627 32.1731 11.4469 32.3275 11.4861C32.993 11.6546 33.6307 11.9185 34.2207 12.2696C34.3575 12.3507 34.5152 12.3894 34.674 12.3808C34.8328 12.3722 34.9855 12.3167 35.1127 12.2213L36.7126 11.0224L37.9983 12.3081L36.7994 13.9072C36.7037 14.0345 36.648 14.1872 36.6392 14.3462C36.6305 14.5051 36.6692 14.6631 36.7504 14.8C37.1014 15.3905 37.3658 16.0283 37.5355 16.694C37.5748 16.848 37.659 16.9868 37.7773 17.093C37.8956 17.1991 38.0427 17.2678 38.2 17.2903L40.18 17.574V19.3948Z" fill="#0F2373"/>
<path d="M30.5363 13.6562C29.5827 13.6562 28.6505 13.939 27.8576 14.4688C27.0648 14.9986 26.4468 15.7516 26.0819 16.6326C25.7169 17.5136 25.6215 18.483 25.8075 19.4183C25.9935 20.3536 26.4527 21.2127 27.127 21.887C27.8013 22.5613 28.6604 23.0204 29.5957 23.2065C30.5309 23.3925 31.5004 23.297 32.3814 22.9321C33.2624 22.5672 34.0154 21.9492 34.5452 21.1563C35.075 20.3635 35.3577 19.4313 35.3577 18.4777C35.3564 17.1994 34.8481 15.9737 33.9441 15.0698C33.0402 14.1659 31.8146 13.6575 30.5363 13.6562ZM30.5363 21.692C29.9006 21.692 29.2791 21.5035 28.7505 21.1503C28.2219 20.7971 27.8099 20.2951 27.5667 19.7077C27.3234 19.1204 27.2597 18.4741 27.3838 17.8506C27.5078 17.2271 27.8139 16.6544 28.2634 16.2048C28.713 15.7553 29.2857 15.4492 29.9092 15.3252C30.5327 15.2011 31.179 15.2648 31.7663 15.5081C32.3537 15.7514 32.8557 16.1633 33.2089 16.6919C33.5621 17.2205 33.7506 17.842 33.7506 18.4777C33.7506 19.3302 33.4119 20.1477 32.8091 20.7505C32.2063 21.3533 31.3888 21.692 30.5363 21.692Z" fill="white"/>
<path d="M30.5363 13.6562C29.5827 13.6562 28.6505 13.939 27.8576 14.4688C27.0648 14.9986 26.4468 15.7516 26.0819 16.6326C25.7169 17.5136 25.6215 18.483 25.8075 19.4183C25.9935 20.3536 26.4527 21.2127 27.127 21.887C27.8013 22.5613 28.6604 23.0204 29.5957 23.2065C30.5309 23.3925 31.5004 23.297 32.3814 22.9321C33.2624 22.5672 34.0154 21.9492 34.5452 21.1563C35.075 20.3635 35.3577 19.4313 35.3577 18.4777C35.3564 17.1994 34.8481 15.9737 33.9441 15.0698C33.0402 14.1659 31.8146 13.6575 30.5363 13.6562ZM30.5363 21.692C29.9006 21.692 29.2791 21.5035 28.7505 21.1503C28.2219 20.7971 27.8099 20.2951 27.5667 19.7077C27.3234 19.1204 27.2597 18.4741 27.3838 17.8506C27.5078 17.2271 27.8139 16.6544 28.2634 16.2048C28.713 15.7553 29.2857 15.4492 29.9092 15.3252C30.5327 15.2011 31.179 15.2648 31.7663 15.5081C32.3537 15.7514 32.8557 16.1633 33.2089 16.6919C33.5621 17.2205 33.7506 17.842 33.7506 18.4777C33.7506 19.3302 33.4119 20.1477 32.8091 20.7505C32.2063 21.3533 31.3888 21.692 30.5363 21.692Z" fill="#0F2373"/>
<path d="M41.7852 8.03125H44.9994V9.6384H41.7852V8.03125Z" fill="white"/>
<path d="M41.7852 8.03125H44.9994V9.6384H41.7852V8.03125Z" fill="#0F2373"/>
<path d="M41.7852 11.25H44.9994V12.8571H41.7852V11.25Z" fill="white"/>
<path d="M41.7852 11.25H44.9994V12.8571H41.7852V11.25Z" fill="#0F2373"/>
<path d="M16.0703 8.03125H19.2846V9.6384H16.0703V8.03125Z" fill="white"/>
<path d="M16.0703 8.03125H19.2846V9.6384H16.0703V8.03125Z" fill="#0F2373"/>
<path d="M16.0703 11.25H19.2846V12.8571H16.0703V11.25Z" fill="white"/>
<path d="M16.0703 11.25H19.2846V12.8571H16.0703V11.25Z" fill="#0F2373"/>
<path d="M16.0703 28.9258H17.6775V30.5329H16.0703V28.9258Z" fill="white"/>
<path d="M16.0703 28.9258H17.6775V30.5329H16.0703V28.9258Z" fill="#0F2373"/>
<path d="M19.2871 28.9258H22.5014V30.5329H19.2871V28.9258Z" fill="white"/>
<path d="M19.2871 28.9258H22.5014V30.5329H19.2871V28.9258Z" fill="#0F2373"/>
</svg>
